<svg xmlns="http://www.w3.org/2000/svg"
  xmlns:xlink="http://www.w3.org/1999/xlink" version="1.1" fill-rule="evenodd" fill="none" stroke="none" stroke-linecap="square" stroke-miterlimit="10" overflow="hidden" preserveAspectRatio="none" width="100%" height="100%" viewBox="0 0 365760 205740" style="line-height: normal;">
  <rect fill="#1a73e8" fill-opacity="0" width="100%" height="100%"></rect>
  <g transform="translate(0 0) scale(1)" id="g113a5673f4f_0_276">
    <defs cursor="default">
      <filter id="shadowFilter-e69_13" filterUnits="userSpaceOnUse" x="9813.5051" y="7918.592500000001" width="346135.0384" height="191426.815">
        <feGaussianBlur in="SourceAlpha" stdDeviation="762" result="blur"></feGaussianBlur>
        <feComponentTransfer color-interpolation-filters="sRGB">
          <feFuncR type="linear" slope="0" intercept="0.21568627450980393"></feFuncR>
          <feFuncG type="linear" slope="0" intercept="0.17647058823529413"></feFuncG>
          <feFuncB type="linear" slope="0" intercept="0.19215686274509805"></feFuncB>
          <feFuncA type="linear" slope="0.5" intercept="0"></feFuncA>
        </feComponentTransfer>
      </filter>
      <filter id="shadowFilter-e69_153" filterUnits="userSpaceOnUse" x="240364.23350305305" y="58169.638133861285" width="45578.71733274238" height="42225.886756282314">
        <feGaussianBlur in="SourceAlpha" stdDeviation="762" result="blur"></feGaussianBlur>
        <feComponentTransfer color-interpolation-filters="sRGB">
          <feFuncR type="linear" slope="0" intercept="0.21568627450980393"></feFuncR>
          <feFuncG type="linear" slope="0" intercept="0.17647058823529413"></feFuncG>
          <feFuncB type="linear" slope="0" intercept="0.19215686274509805"></feFuncB>
          <feFuncA type="linear" slope="0.2" intercept="0"></feFuncA>
        </feComponentTransfer>
      </filter>
      <filter id="shadowFilter-e69_159" filterUnits="userSpaceOnUse" x="275894.03116171167" y="32955.08669183329" width="63730.23880009912" height="60077.50913321448">
        <feGaussianBlur in="SourceAlpha" stdDeviation="762" result="blur"></feGaussianBlur>
        <feComponentTransfer color-interpolation-filters="sRGB">
          <feFuncR type="linear" slope="0" intercept="0.21568627450980393"></feFuncR>
          <feFuncG type="linear" slope="0" intercept="0.17647058823529413"></feFuncG>
          <feFuncB type="linear" slope="0" intercept="0.19215686274509805"></feFuncB>
          <feFuncA type="linear" slope="0.21" intercept="0"></feFuncA>
        </feComponentTransfer>
      </filter>
      <filter id="shadowFilter-e69_251" filterUnits="userSpaceOnUse" x="217609.5345769977" y="118532.6029720008" width="60479.89305994226" height="57450.37834619636">
        <feGaussianBlur in="SourceAlpha" stdDeviation="381" result="blur"></feGaussianBlur>
        <feComponentTransfer color-interpolation-filters="sRGB">
          <feFuncR type="linear" slope="0" intercept="0.21568627450980393"></feFuncR>
          <feFuncG type="linear" slope="0" intercept="0.17647058823529413"></feFuncG>
          <feFuncB type="linear" slope="0" intercept="0.19215686274509805"></feFuncB>
          <feFuncA type="linear" slope="0.2" intercept="0"></feFuncA>
        </feComponentTransfer>
      </filter>
      <filter id="shadowFilter-e69_325" filterUnits="userSpaceOnUse" x="290948.2558646675" y="107303.38009570801" width="18050.573512534203" height="22690.92633151199">
        <feGaussianBlur in="SourceAlpha" stdDeviation="381" result="blur"></feGaussianBlur>
        <feComponentTransfer color-interpolation-filters="sRGB">
          <feFuncR type="linear" slope="0" intercept="0.21568627450980393"></feFuncR>
          <feFuncG type="linear" slope="0" intercept="0.17647058823529413"></feFuncG>
          <feFuncB type="linear" slope="0" intercept="0.19215686274509805"></feFuncB>
          <feFuncA type="linear" slope="0.19" intercept="0"></feFuncA>
        </feComponentTransfer>
      </filter>
      <filter id="shadowFilter-e69_338" filterUnits="userSpaceOnUse" x="208640.24871278956" y="89766.59429708995" width="17498.785744178487" height="21288.276536650068">
        <feGaussianBlur in="SourceAlpha" stdDeviation="381" result="blur"></feGaussianBlur>
        <feComponentTransfer color-interpolation-filters="sRGB">
          <feFuncR type="linear" slope="0" intercept="0.21568627450980393"></feFuncR>
          <feFuncG type="linear" slope="0" intercept="0.17647058823529413"></feFuncG>
          <feFuncB type="linear" slope="0" intercept="0.19215686274509805"></feFuncB>
          <feFuncA type="linear" slope="0.19" intercept="0"></feFuncA>
        </feComponentTransfer>
      </filter>
      <filter id="shadowFilter-e69_351" filterUnits="userSpaceOnUse" x="233036.11305124237" y="40070.064309052425" width="17981.507095525478" height="21741.020536217577">
        <feGaussianBlur in="SourceAlpha" stdDeviation="381" result="blur"></feGaussianBlur>
        <feComponentTransfer color-interpolation-filters="sRGB">
          <feFuncR type="linear" slope="0" intercept="0.21568627450980393"></feFuncR>
          <feFuncG type="linear" slope="0" intercept="0.17647058823529413"></feFuncG>
          <feFuncB type="linear" slope="0" intercept="0.19215686274509805"></feFuncB>
          <feFuncA type="linear" slope="0.19" intercept="0"></feFuncA>
        </feComponentTransfer>
      </filter>
      <filter id="shadowFilter-e69_376" filterUnits="userSpaceOnUse" x="198242.74982906945" y="23919.90811965688" width="17918.88476974392" height="21938.137788113127">
        <feGaussianBlur in="SourceAlpha" stdDeviation="381" result="blur"></feGaussianBlur>
        <feComponentTransfer color-interpolation-filters="sRGB">
          <feFuncR type="linear" slope="0" intercept="0.21568627450980393"></feFuncR>
          <feFuncG type="linear" slope="0" intercept="0.17647058823529413"></feFuncG>
          <feFuncB type="linear" slope="0" intercept="0.19215686274509805"></feFuncB>
          <feFuncA type="linear" slope="0.19" intercept="0"></feFuncA>
        </feComponentTransfer>
      </filter>
    </defs>
    <g>
      <path fill="#fff" fill-opacity="1" d="M 0 0 L 365760 0 365760 205740 0 205740 Z"></path>
      <g id="g113a5673f4f_0_276-bg">
        <g>
          <g>
            <path fill="#F198C5" fill-opacity="1" d="M 0 0 L 365760 0 365760 205740 0 205740 Z"></path>
          </g>
        </g>
      </g>
      <g id="g1120df3d0b8_0_17558">
        <g id="g1120df3d0b8_0_17534">
          <g id="shapeWithShadow-633">
            <g filter="url(#shadowFilter-e69_13)">
              <use transform="matrix(1,0,0,1,0,762)" visibility="hidden" pointer-events="none" xlink:href="#633"></use>
            </g>
            <g id="633">
              <g>
                <path fill="#FFFDF5" fill-opacity="1" d="M 23422.0975 17716.8681 C 26265.5543 17716.8681 28539.5003 19992.862699999998 28539.5003 22836.319499999998 28539.5003 25679.776299999998 26224.582300000002 27994.6943 23422.0975 27994.6943 20576.5921 27994.6943 18302.646099999998 25679.776299999998 18302.646099999998 22836.319499999998 18302.646099999998 19992.862699999998 20576.5921 17716.8681 23422.0975 17716.8681 Z M 23422.0975 33724.6285 C 26265.5543 33724.6285 28539.5003 35998.5745 28539.5003 38842.0313 28500.5769 41687.5367 26224.582300000002 43961.48269999999 23422.0975 43961.48269999999 20576.5921 43961.48269999999 18302.646099999998 41687.5367 18302.646099999998 38842.0313 18302.646099999998 35998.5745 20576.5921 33724.6285 23422.0975 33724.6285 Z M 23422.0975 49730.340299999996 C 26265.5543 49730.340299999996 28539.5003 52006.3349 28539.5003 54849.7917 28539.5003 57693.2485 26224.582300000002 59969.24310000001 23422.0975 59969.24310000001 20576.5921 59969.24310000001 18302.646099999998 57693.2485 18302.646099999998 54849.7917 18302.646099999998 52006.3349 20576.5921 49730.340299999996 23422.0975 49730.340299999996 Z M 23422.0975 65697.1287 C 26265.5543 65697.1287 28539.5003 68012.0467 28539.5003 70855.5035 28500.5769 73701.0089 26224.582300000002 75974.9549 23422.0975 75974.9549 20576.5921 75974.9549 18302.646099999998 73701.0089 18302.646099999998 70855.5035 18302.646099999998 68012.0467 20576.5921 65697.1287 23422.0975 65697.1287 Z M 23422.0975 81702.8405 C 26265.5543 81702.8405 28539.5003 83978.8351 28539.5003 86822.2919 28539.5003 89665.7487 26224.582300000002 91982.7153 23422.0975 91982.7153 20576.5921 91982.7153 18302.646099999998 89665.7487 18302.646099999998 86822.2919 18302.646099999998 83978.8351 20576.5921 81702.8405 23422.0975 81702.8405 Z M 23422.0975 97710.6009 C 26265.5543 97710.6009 28539.5003 99984.5469 28539.5003 102830.05230000001 28500.5769 105673.50910000001 26224.582300000002 107947.4551 23422.0975 107947.4551 20576.5921 107947.4551 18302.646099999998 105673.50910000001 18302.646099999998 102830.05230000001 18302.646099999998 99984.5469 20576.5921 97710.6009 23422.0975 97710.6009 Z M 23422.0975 113757.2847 C 26265.5543 113757.2847 28539.5003 116033.27930000001 28539.5003 118876.73610000001 28539.5003 121720.19290000001 26224.582300000002 123996.1875 23422.0975 123996.1875 20576.5921 123996.1875 18302.646099999998 121720.19290000001 18302.646099999998 118876.73610000001 18302.646099999998 116033.27930000001 20576.5921 113757.2847 23422.0975 113757.2847 Z M 23422.0975 129724.07310000001 C 26265.5543 129724.07310000001 28539.5003 132038.99109999998 28539.5003 134882.4479 28500.5769 137727.9533 26224.582300000002 140001.8993 23422.0975 140001.8993 20576.5921 140001.8993 18302.646099999998 137727.9533 18302.646099999998 134882.4479 18302.646099999998 132038.99109999998 20576.5921 129724.07310000001 23422.0975 129724.07310000001 Z M 23422.0975 145729.7849 C 26265.5543 145729.7849 28539.5003 148005.77949999998 28539.5003 150890.2083 28539.5003 153733.66509999998 26224.582300000002 156009.6597 23422.0975 156009.6597 20576.5921 156009.6597 18302.646099999998 153733.66509999998 18302.646099999998 150890.2083 18302.646099999998 148005.77949999998 20576.5921 145729.7849 23422.0975 145729.7849 Z M 23422.0975 161737.5453 C 26265.5543 161737.5453 28539.5003 164011.4913 28539.5003 166856.9967 28539.5003 169700.45349999997 26224.582300000002 172015.37149999998 23422.0975 172015.37149999998 20576.5921 172015.37149999998 18302.646099999998 169700.45349999997 18302.646099999998 166856.9967 18302.646099999998 164011.4913 20576.5921 161737.5453 23422.0975 161737.5453 Z M 23422.0975 177743.2571 C 26265.5543 177743.2571 28539.5003 180019.2517 28539.5003 182862.70849999998 28500.5769 185706.1653 26224.582300000002 187982.1599 23422.0975 187982.1599 20576.5921 187982.1599 18302.646099999998 185706.1653 18302.646099999998 182862.70849999998 18302.646099999998 180019.2517 20576.5921 177743.2571 23422.0975 177743.2571 Z M 23989.559699999998 9633.0925 C 17571.2959 9633.0925 12290.0051 14873.4113 12290.0051 21332.647100000002 L 12290.0051 184448.32489999998 C 12290.0051 190825.61669999998 17530.3239 196106.9075 23989.559699999998 196106.9075 L 341770.4403 196106.9075 C 348190.75269999995 196106.9075 353472.0435 190907.5607 353472.0435 184448.32489999998 L 353472.0435 21332.647100000002 C 353472.0435 14873.4113 348190.75269999995 9633.0925 341770.4403 9633.0925 Z" visibility="visible"></path>
              </g>
              <g></g>
            </g>
          </g>
        </g>
        <g id="g1120df3d0b8_0_17556">
          <g id="g1120df3d0b8_0_17535">
            <g>
              <g>
                <path stroke="#EFEFEF" stroke-opacity="1" stroke-width="381" stroke-linecap="butt" stroke-linejoin="round" stroke-miterlimit="8" d="M 35981.9791 18148.000200000002 L 352901.4031 18148.000200000002"></path>
              </g>
            </g>
          </g>
          <g id="g1120df3d0b8_0_17536">
            <g>
              <g>
                <path stroke="#EFEFEF" stroke-opacity="1" stroke-width="381" stroke-linecap="butt" stroke-linejoin="round" stroke-miterlimit="8" d="M 35981.9791 26627.40047 L 353482.1455 26627.40047"></path>
              </g>
            </g>
          </g>
          <g id="g1120df3d0b8_0_17537">
            <g>
              <g>
                <path stroke="#EFEFEF" stroke-opacity="1" stroke-width="381" stroke-linecap="butt" stroke-linejoin="round" stroke-miterlimit="8" d="M 35981.9791 35106.80074 L 353482.1455 35106.80074"></path>
              </g>
            </g>
          </g>
          <g id="g1120df3d0b8_0_17538">
            <g>
              <g>
                <path stroke="#EFEFEF" stroke-opacity="1" stroke-width="381" stroke-linecap="butt" stroke-linejoin="round" stroke-miterlimit="8" d="M 35981.9791 43586.20101 L 353482.1455 43586.20101"></path>
              </g>
            </g>
          </g>
          <g id="g1120df3d0b8_0_17539">
            <g>
              <g>
                <path stroke="#EFEFEF" stroke-opacity="1" stroke-width="381" stroke-linecap="butt" stroke-linejoin="round" stroke-miterlimit="8" d="M 35981.9791 52065.60128 L 353482.1455 52065.60128"></path>
              </g>
            </g>
          </g>
          <g id="g1120df3d0b8_0_17540">
            <g>
              <g>
                <path stroke="#EFEFEF" stroke-opacity="1" stroke-width="381" stroke-linecap="butt" stroke-linejoin="round" stroke-miterlimit="8" d="M 35981.9791 60545.00155 L 353482.1455 60545.00155"></path>
              </g>
            </g>
          </g>
          <g id="g1120df3d0b8_0_17541">
            <g>
              <g>
                <path stroke="#EFEFEF" stroke-opacity="1" stroke-width="381" stroke-linecap="butt" stroke-linejoin="round" stroke-miterlimit="8" d="M 35981.9791 69024.40182 L 353482.1455 69024.40182"></path>
              </g>
            </g>
          </g>
          <g id="g1120df3d0b8_0_17542">
            <g>
              <g>
                <path stroke="#EFEFEF" stroke-opacity="1" stroke-width="381" stroke-linecap="butt" stroke-linejoin="round" stroke-miterlimit="8" d="M 35981.9791 77503.80209000001 L 353482.1455 77503.80209000001"></path>
              </g>
            </g>
          </g>
          <g id="g1120df3d0b8_0_17543">
            <g>
              <g>
                <path stroke="#EFEFEF" stroke-opacity="1" stroke-width="381" stroke-linecap="butt" stroke-linejoin="round" stroke-miterlimit="8" d="M 35981.9791 85983.20236 L 353482.1455 85983.20236"></path>
              </g>
            </g>
          </g>
          <g id="g1120df3d0b8_0_17544">
            <g>
              <g>
                <path stroke="#EFEFEF" stroke-opacity="1" stroke-width="381" stroke-linecap="butt" stroke-linejoin="round" stroke-miterlimit="8" d="M 35981.9791 94462.60263000001 L 353482.1455 94462.60263000001"></path>
              </g>
            </g>
          </g>
          <g id="g1120df3d0b8_0_17545">
            <g>
              <g>
                <path stroke="#EFEFEF" stroke-opacity="1" stroke-width="381" stroke-linecap="butt" stroke-linejoin="round" stroke-miterlimit="8" d="M 35981.9791 102942.0029 L 353482.1455 102942.0029"></path>
              </g>
            </g>
          </g>
          <g id="g1120df3d0b8_0_17546">
            <g>
              <g>
                <path stroke="#EFEFEF" stroke-opacity="1" stroke-width="381" stroke-linecap="butt" stroke-linejoin="round" stroke-miterlimit="8" d="M 35981.9791 111421.40317 L 353482.1455 111421.40317"></path>
              </g>
            </g>
          </g>
          <g id="g1120df3d0b8_0_17547">
            <g>
              <g>
                <path stroke="#EFEFEF" stroke-opacity="1" stroke-width="381" stroke-linecap="butt" stroke-linejoin="round" stroke-miterlimit="8" d="M 35981.9791 119900.80344 L 353482.1455 119900.80344"></path>
              </g>
            </g>
          </g>
          <g id="g1120df3d0b8_0_17548">
            <g>
              <g>
                <path stroke="#EFEFEF" stroke-opacity="1" stroke-width="381" stroke-linecap="butt" stroke-linejoin="round" stroke-miterlimit="8" d="M 35981.9791 128380.20371000002 L 353482.1455 128380.20371000002"></path>
              </g>
            </g>
          </g>
          <g id="g1120df3d0b8_0_17549">
            <g>
              <g>
                <path stroke="#EFEFEF" stroke-opacity="1" stroke-width="381" stroke-linecap="butt" stroke-linejoin="round" stroke-miterlimit="8" d="M 35981.9791 136859.60398 L 353482.1455 136859.60398"></path>
              </g>
            </g>
          </g>
          <g id="g1120df3d0b8_0_17550">
            <g>
              <g>
                <path stroke="#EFEFEF" stroke-opacity="1" stroke-width="381" stroke-linecap="butt" stroke-linejoin="round" stroke-miterlimit="8" d="M 35981.9791 145339.00425 L 353482.1455 145339.00425"></path>
              </g>
            </g>
          </g>
          <g id="g1120df3d0b8_0_17551">
            <g>
              <g>
                <path stroke="#EFEFEF" stroke-opacity="1" stroke-width="381" stroke-linecap="butt" stroke-linejoin="round" stroke-miterlimit="8" d="M 35981.9791 153818.40451999998 L 353482.1455 153818.40451999998"></path>
              </g>
            </g>
          </g>
          <g id="g1120df3d0b8_0_17552">
            <g>
              <g>
                <path stroke="#EFEFEF" stroke-opacity="1" stroke-width="381" stroke-linecap="butt" stroke-linejoin="round" stroke-miterlimit="8" d="M 35981.9791 162297.80479000002 L 353482.1455 162297.80479000002"></path>
              </g>
            </g>
          </g>
          <g id="g1120df3d0b8_0_17553">
            <g>
              <g>
                <path stroke="#EFEFEF" stroke-opacity="1" stroke-width="381" stroke-linecap="butt" stroke-linejoin="round" stroke-miterlimit="8" d="M 35981.9791 170777.20506 L 353482.1455 170777.20506"></path>
              </g>
            </g>
          </g>
          <g id="g1120df3d0b8_0_17554">
            <g>
              <g>
                <path stroke="#EFEFEF" stroke-opacity="1" stroke-width="381" stroke-linecap="butt" stroke-linejoin="round" stroke-miterlimit="8" d="M 35981.9791 179256.60533 L 353482.1455 179256.60533"></path>
              </g>
            </g>
          </g>
          <g id="g1120df3d0b8_0_17555">
            <g>
              <g>
                <path stroke="#EFEFEF" stroke-opacity="1" stroke-width="381" stroke-linecap="butt" stroke-linejoin="round" stroke-miterlimit="8" d="M 35981.9791 187736.00560000003 L 352953.2551 187736.00560000003"></path>
              </g>
            </g>
          </g>
        </g>
        <g id="g1120df3d0b8_0_17557">
          <g>
            <g>
              <path stroke="#F198C5" stroke-opacity="1" stroke-width="1143" stroke-linecap="butt" stroke-linejoin="round" stroke-miterlimit="8" d="M 35981.9065 9618.9071 L 35981.9065 196110.9071"></path>
            </g>
          </g>
        </g>
      </g>
      <g id="g113a5673f4f_0_298">
        <g>
          <g>
            <path d="M 50517 94764 L 197361 94764 197361 148560 50517 148560 Z"></path>
          </g>
          <g>
            <g direction="ltr">
              <g transform="matrix(381,0,0,381,54174,91182)">
                <g pointer-events="none">
                  <g id="g113a5673f4f_0_298-paragraph-0">
                    <g>
                      <g class="sketchy-text-background" visibility="visible"></g>
                      <g></g>
                      <g class="sketchy-text-content" visibility="visible">
                        <g class="sketchy-text-content-text" transform="translate(0 63.999999999999986)">
                          <text style="font-family:'docs-Lilita One';font-size:66.66666666666666px;fill:#372D31;white-space:pre;" text-rendering="geometricPrecision">Number</text>
                        </g>
                      </g>
                    </g>
                    <g transform="translate(0 79.99999999999999)">
                      <g class="sketchy-text-background" visibility="visible"></g>
                      <g></g>
                      <g class="sketchy-text-content" visibility="visible">
                        <g class="sketchy-text-content-text" transform="translate(0 63.999999999999986)">
                          <text style="font-family:'docs-Lilita One';font-size:66.66666666666666px;fill:#372D31;white-space:pre;" text-rendering="geometricPrecision">Sense</text>
                        </g>
                      </g>
                    </g>
                  </g>
                </g>
              </g>
            </g>
          </g>
        </g>
      </g>
      <g id="g113a5673f4f_0_299">
        <g>
          <g>
            <path d="M 50517 36644 L 197361 36644 197361 70316 50517 70316 Z"></path>
          </g>
          <g>
            <g direction="ltr">
              <g transform="matrix(381,0,0,381,54174,32144)">
                <g pointer-events="none">
                  <g id="g113a5673f4f_0_299-paragraph-0">
                    <g>
                      <g class="sketchy-text-background" visibility="visible"></g>
                      <g></g>
                      <g class="sketchy-text-content" visibility="visible">
                        <g class="sketchy-text-content-text" transform="translate(0 89.6)">
                          <text style="font-family:'docs-Lilita One';font-size:93.33333333333333px;fill:#CDEA9D;white-space:pre;" text-rendering="geometricPrecision">Monday</text>
                        </g>
                      </g>
                    </g>
                  </g>
                </g>
              </g>
            </g>
          </g>
        </g>
      </g>
      <g id="g1120df3d0b8_0_18346">
        <g id="g1120df3d0b8_0_18344">
          <g id="g1120df3d0b8_0_18329">
            <g id="g1120df3d0b8_0_18313">
              <g id="g1120df3d0b8_0_18311">
                <g id="shapeWithShadow-634">
                  <g filter="url(#shadowFilter-e69_153)">
                    <use transform="matrix(1,0,0,1,0,762)" visibility="hidden" pointer-events="none" xlink:href="#634"></use>
                  </g>
                  <g id="634">
                    <g>
                      <path fill="#FFFFFF" fill-opacity="1" stroke="#FFFFFF" stroke-opacity="1" stroke-width="4572" stroke-linecap="butt" stroke-linejoin="round" stroke-miterlimit="8" d="M 274920.0248230554 62477.53860619868 C 276002.6265520554 62767.18386099868 276966.7097893154 63160.65587707868 277800.8882192354 63597.47784991868 280848.11375487543 65190.357672738675 281368.30204525543 67895.52408217869 281370.95083579543 69632.92946133867 L 281358.0458491954 69681.16419183867 281342.62553571543 69833.24937079867 C 281322.6633398354 70294.24380139868 281279.11972015543 70748.92912743868 281180.74548793543 71215.36277357867 L 281174.1496058954 71240.01608027868 281167.8405013354 71263.59750407867 C 281167.8405013354 71263.59750407867 276860.8206092154 74181.94363807868 273046.1839200554 90088.40448769869 272772.8754250354 91208.68670283868 271680.3196336754 91900.73613893868 270571.7857386354 91682.25825645868 L 265563.2007251154 90731.61214619868 265139.7645878154 90670.01110185868 264849.2843219154 90592.29440477869 C 264782.99216675543 90548.14022943868 264711.1760124554 90528.92613827868 264638.2879752554 90509.42526963868 L 264613.6346685554 90502.82938759869 C 264548.1276188154 90460.03387263868 264481.8354636554 90415.87969729869 264415.5433084954 90371.72552195868 264348.9643758554 90328.64322951868 264259.09079689544 90278.17994961867 264192.5118642554 90235.09765717867 264039.59379697545 90712.20774051867 263891.9129513554 91165.44962257869 263751.8998706754 91594.32497541868 263712.8981333954 91740.10104981868 263674.1831735954 91884.80524131868 263641.7773183554 92005.92800901868 L 263635.4682137954 92029.50943281868 263531.9415435154 92416.45915971868 263525.34566147544 92441.11246641868 263428.1280957554 92804.48076951868 263421.8189911954 92828.06219331868 263337.5064120754 93143.19576591867 263318.29232091544 93215.01192021868 263253.4806104354 93457.25745561867 263227.6706372354 93553.72691661867 C 262905.3423062954 94659.74548477869 261753.5885697554 95285.41798211868 260639.9022366554 94987.45618039867 L 251253.4236813554 92476.14578803867 C 250770.0044934554 92346.80914455868 250331.89614739543 92048.11500287868 250052.5536459354 91636.83574745868 249679.25701035542 91095.89607037867 249574.10066697543 90419.94652225869 249767.09235443542 89797.34714199867 L 249773.6882364754 89772.69383529868 C 249851.4049335554 89482.21356939868 249953.48815985542 89199.40106843869 250054.7862807354 88915.22990709868 L 250087.1921359754 88794.10713939868 C 250158.31295101542 88528.28018019868 250254.37385023542 88267.97722013868 250349.07608907542 88008.45936549868 L 250355.38519363542 87984.87794169868 C 250565.6492003354 87392.16908979867 250776.6983124554 86800.81889827868 251010.25696547542 86215.49103383868 L 246510.4925512754 85011.59917279868 C 246171.7775548754 84920.97748911868 245877.2167338154 84764.06365027868 245625.45142771542 84541.64276169868 L 245566.5402600154 84474.19394003868 C 245506.8439868954 84405.38645799868 245446.86093629542 84337.65085885869 245411.53119239543 84276.51114175867 245309.9092933354 84171.21724931868 245239.24980553542 84048.93781511868 245168.59031773542 83926.65838091867 245051.1395434154 83687.33673417868 244952.90286025542 83376.19893313869 244951.1356380954 83090.87110529868 244895.98124737543 82713.15437161867 244999.5079176554 82326.20464471867 245169.6135205754 81982.33721025867 245189.11438921542 81909.44917305867 245232.9817870754 81844.22890079868 245269.46819747542 81802.30327485868 245481.2126488554 81495.99413369868 245668.30379353542 81183.08911049868 245880.0482449154 80876.77996933868 L 246098.3885783354 80545.81752147868 246477.7233057554 79999.49139431868 246770.1083428754 79584.96447205868 247062.4933799954 79170.43754979868 247367.7834037154 78707.67589703869 247522.46869315542 78515.89364153869 C 247821.1628348354 78077.78529547868 248144.79706069542 77645.20094855868 248436.8953203354 77231.74590919868 248598.17649181542 77015.31034699868 248760.5295461954 76799.16156227868 248938.79625943542 76613.68841133868 L 248989.2595393354 76523.81483237867 C 249150.5407108154 76307.37927017867 249336.1884115154 76098.61147291868 249497.4695829954 75882.17591071868 260061.7238151754 62339.76901445868 269158.65423555544 60936.109651198676 274920.0248230554 62477.53860619868 Z" visibility="visible"></path>
                    </g>
                    <g></g>
                  </g>
                </g>
              </g>
              <g id="g1120df3d0b8_0_18312">
                <g id="shapeWithShadow-635">
                  <g filter="url(#shadowFilter-e69_159)">
                    <use transform="matrix(1,0,0,1,0,762)" visibility="hidden" pointer-events="none" xlink:href="#635"></use>
                  </g>
                  <g id="635">
                    <g>
                      <path fill="#FFFFFF" fill-opacity="1" stroke="#FFFFFF" stroke-opacity="1" stroke-width="4572" stroke-linecap="butt" stroke-linejoin="round" stroke-miterlimit="8" d="M 325259.30577109 41249.07845311501 C 324597.95402179 41072.13674795502 323901.40386947 41022.462330415015 323217.54217073 41101.38102565501 322871.36140327 41137.40610881501 322535.57029553 41229.046909935016 322234.82215421 41382.899311055015 321726.28833237 41635.07317893501 321278.52266655 41956.341306335016 320906.94048767 42374.94878375501 320281.68823147 43063.37899193502 319824.63680697 43900.18538499501 319626.81645963 44832.76589979501 319325.75621949 46151.224258595015 319243.07331347 47529.25710621502 319396.41162189 48892.330967595015 319548.59326381 50358.47017201502 319858.09730635 51816.161488635014 320253.68115017 53244.04706049502 320287.85422757 53408.25212063502 320383.16702207 53537.12743687502 320491.38480317 53617.76802261501 321150.00926659 54156.94047753501 321803.10973087 54721.053016635015 322456.49697263 55284.09367283502 L 325601.53486489 57966.754626775015 325768.66381369 58114.84403417502 329224.37817975 61087.374698355015 C 329254.08999287 61113.70170411501 329296.66440079 61143.470039635016 329345.97101419 61156.66180371502 329366.33678929 61162.11057583502 329388.63477973 61164.630476735016 329411.79310261 61163.93472893501 329418.38898465 61139.28142223501 329424.69808921 61115.69999843501 329431.29397125 61091.04669173501 329437.88985329 61066.393385035015 329444.19895785 61042.81196123501 329457.10394445 60994.57723073501 330110.20849413 58939.86249503502 330625.20473435 56821.77949283502 330988.90090103 54689.63483753501 331415.03100037 51641.52364811501 331149.66945381 48563.469164875016 330195.74015001 45637.73387261502 330161.56707261 45473.528812475015 330104.09934889 45301.94276487501 330015.09565895 45149.486024835016 329837.66183403 44842.428778955014 329667.60899657 44512.076886755014 329460.28464329 44222.29196011501 329081.54879217 43602.94024669501 328579.46162395 43053.96124359501 327973.15244619 42606.890917035016 327325.20441997 42122.26229717502 326603.21169005 41721.19815171501 325823.87302071 41435.73277481501 325640.17207449 41362.463619955015 325451.17281019 41300.41162203501 325259.30577109 41249.07845311501 Z M 325701.28549301 37089.90848519502 C 325964.96868641 37160.455745275016 326225.78410501 37241.72183435501 326481.30120553 37334.20508037502 327833.93264173 37799.47038065502 329098.17094365 38500.67211177501 330207.72395613 39393.65609839501 330926.33147015 40000.564152455016 331595.54758717 40697.63256295501 332202.26532671 41430.81582277502 332511.49835653 41824.822758955015 332808.89828265 42267.35120311502 333056.99159537 42696.687883195016 333736.13604487 43837.478405055015 334231.86134307 45084.25815861501 334533.20427529 46383.555191715015 334916.29169429 48145.788427335014 335088.29798303 49928.504648335016 335046.00749281 51730.84352227501 335017.54055827 55327.562153715015 334351.34070747 58882.30239375502 333093.79066515 62225.99352167502 332935.43338233 62624.691568675014 332777.07609951 63023.38961567501 332642.58701797 63427.324884335016 L 332629.39525389 63476.63149773501 332610.18116273 63548.447652035014 C 332564.87032089 63717.80515023501 332564.87032089 63717.80515023501 332666.49221995 63823.09904267502 L 332774.71000105 63903.739628415016 333160.91162323 64396.44457499502 C 333454.31577779 64656.42375687502 333754.31581439 64891.74963205501 334054.31585099 65127.075507235015 334186.90016131 65215.38385791502 334251.25054455 65361.24471591502 334236.90211397 65513.61667235502 334223.99712737 65561.85140285501 334228.07768253 65641.04854461501 334215.17269593 65689.28327511501 334195.67182729 65762.17131231501 334207.42014739 65817.00192485502 334194.51516079 65865.23665535502 334078.77884317 66585.46216311501 333842.70486327 67274.64047601502 333540.33872821 67919.66461357502 333095.03562381 68811.30161917502 332589.74946881 69635.20302563501 331986.92196991 70433.00768141501 331216.50419497 71470.82932319502 330380.57937029 72465.85545001502 329508.25291881 73399.45508225501 328710.25794851 74248.41835719501 327894.99065897 75067.49110377501 327031.48863893 75873.65886375502 326174.58250093 76655.17331703502 325317.67636293 77436.68777031501 324417.77271609 78181.42903571502 323352.79412009 79062.33683865503 322262.87543991 79937.72064245501 321137.91379331 80750.89284625501 320492.46532921 81227.17004127502 319853.89952463 81677.72204669501 319190.39363587 82122.75005297503 318526.88774711 82567.77805925501 317924.80835293 82976.40443873501 317274.20745077 83373.19771451502 316433.87829275 83899.56164579501 315543.95574385 84413.80569589502 314661.70095989 84903.68321677501 313509.16211793 85527.99705373502 312352.25594333 86074.18563183502 311158.94814193 86558.94771535503 310193.41566105 86973.70864963502 309204.09976249 87279.88024173502 308203.32232131 87530.14933839501 307819.29648307 87608.88515291503 307441.57974939 87664.03954363501 307070.45889775 87694.54062765502 306992.33363889 87698.90796029501 306912.84971965 87704.06039835501 306839.96168245 87684.55952971501 306778.27667159 87687.58233257502 306718.88588057 87682.03007223501 306663.14796977 87667.117643275 306505.58118346997 87624.96135371501 306378.23409481 87512.78480175501 306304.31199248997 87359.76863735501 306109.89262581 87021.74898021502 305921.49558621 86661.21978217502 305708.73201738996 86293.02281919503 L 305325.91561111 85594.47396401502 C 305219.14127399 85409.69615233502 305130.42436153 85256.16752939502 305048.01655363 85079.05748265501 304611.81297879 84288.11972163501 304193.66682861 83528.43114935502 303756.39137087 82737.20661085502 303710.38518977 82621.52305869502 303602.16740867 82540.88247295501 303512.29382971 82490.41919305502 302999.06889705 82275.00274829502 302492.15306895 82036.00487973502 301986.30912375 81797.29378865502 298875.71532161 80342.52227529502 295764.83474198997 78888.82264483502 292685.49012859 77415.99370681502 290986.06736927 76598.36031881502 289329.44012491 75715.21988107503 287661.26655433 74879.52906841502 287383.69127503 74753.57764083502 287143.67428903 74585.98736479502 286896.27631557 74441.69173507502 286879.77497115 74430.38522051502 286861.05463391 74423.07946007501 286841.76074170996 74417.91746543502 286782.80718221003 74402.14470403502 286716.68418571 74413.16901513502 286683.83652492997 74462.959825875 285695.82652129 75442.56563921503 284466.03230949 75969.25334867502 283147.52118523 76342.41243519502 282592.98118229 76478.90275091502 281984.76723331 76524.07604369502 281384.59261035 76440.45880383502 281285.18014753 76429.94196871502 281195.27830737 76413.92939565501 281113.81520697 76392.13430717502 280658.26497447 76270.25387817502 280472.39240979 75968.97914771501 280466.12651411 75417.11905629502 280464.35929195 75131.79122845503 280487.24537649 74853.05928265501 280527.40378027 74604.21786521502 280649.73597993 73859.33905075502 280789.34049883 73144.35076465501 281000.47439454996 72449.64845261502 L 281071.59520959 72183.82149341502 C 281097.69196027 72086.28014951502 281106.22961423 71959.92016015502 281132.32636491 71862.37881625502 281524.70362799 70490.24651141503 281966.67428195 69130.23408775502 282425.34370019 67802.25595825502 282673.16600019 67167.90825789502 282937.97384195 66564.52296879502 283245.49241507 65998.98275047501 283364.84796061 65746.06077787501 283526.12913209 65529.62521567501 283687.41030357 65313.18965347502 283780.66909843 65157.809024775015 283917.21217961 65038.12970105502 284046.08749585 64942.81690655502 284113.53631751 64883.90573885501 284174.96281209 64847.504112055016 284229.50664715 64836.82767485502 284503.68797105 64743.63536751502 284788.01914301 64737.00705879502 285057.06175091 64808.98820627502 285124.59037361003 64827.05518751501 285190.68510890997 64850.481583255016 285255.63273429 64878.19551059501 285412.08524589 64971.74108293501 285593.19106419 65071.88253731502 285743.04769375 65190.08141635502 286150.19362855 65505.76109979501 286509.88993827 65809.89445701502 286850.37215683 66185.84396853502 287339.63912205 66679.70558161501 287676.44934723 67262.570884635 287890.98013821 67916.09567545501 287947.64862591 68103.54841609501 288089.91271755 68241.53951527501 288267.84527895 68289.14457695502 288304.28929755 68298.89501127502 288342.95230897 68304.64469147503 288382.47565283 68307.17872297502 289879.11594127 68526.11793269502 291345.86570135003 68762.32946165503 292829.60100319 69029.50340187502 293949.68122445 69200.53165927502 295082.86842619 69425.60542379502 296190.33043833 69643.796528795 296287.87178223 69669.89327947501 296407.92266703 69702.01235723501 296518.36899752996 69679.87437741502 296526.12154607 69552.15572767501 296424.49964701 69446.86183523502 296371.89758387 69355.83158977501 L 294514.86973185 65928.89069767501 292626.30591361 62521.07911313501 C 292632.90179565 62496.425806435014 292609.32037185 62490.11670187501 292615.91625389 62465.463395175015 292508.85513929 62281.757466395014 292420.13822683 62128.228843455014 292337.73041893 61951.11879671502 L 290946.71188651 59401.195466915015 C 290886.72883591 59333.45986777502 290857.99497405 59247.666843975014 290829.26111218997 59161.87382017502 290806.83635489 59052.49937257502 290839.24221013 58931.37660487502 290954.92576229 58885.37042377501 291255.67390361 58731.518022655015 291513.13775861 58541.964316555015 291730.03464805 58315.139094635015 292044.84444247 58009.98661997501 292377.71166155 57736.083334055016 292709.50699773 57461.89327065501 293517.02173873 56770.539173815014 294317.94059769 56103.838383675014 295094.49292743 55429.469828595014 295236.27323027 55285.92230359501 295402.70683981 55148.970660635016 295569.14044935 55012.01901767502 L 295569.14044935 55012.01901767502 C 295403.86350631 55045.90531759501 295269.83575201 55061.734192855016 295105.63069187 55095.90727025501 L 295026.14677263 55101.05970831501 C 294368.82820413 55235.32147463501 293717.90352379 55242.64969663502 293051.93507361 55117.308824715015 L 292882.57757541 55071.997982875015 C 292796.46493891 55054.70197645501 292713.35640065 55034.763876295016 292632.96518315 55013.25556529501 291302.75850424997 54657.36471261502 290873.37191849 53746.49825963502 291061.15048000996 52769.88118831501 291209.57943035 51927.46102995501 292142.29749421 51347.709930115016 293290.70301555 51318.41827805502 292246.98083099 50857.69486017501 291599.78090949 49983.88796401501 291746.85119945 49142.25291107502 291946.90009619 48106.89383071501 292784.30536555 47398.26741463502 294291.62209119 47671.75045941501 L 294460.97958939 47717.06130125502 C 294571.82075961 47736.37888063501 294682.29992533 47761.342651995015 294793.77574693 47791.167509915016 295810.99261903 48063.319338435016 296874.82165387 48757.99543197502 297809.27704453 49545.55377673502 L 298102.68119909 49805.53295861501 298186.24567349 49879.577662315016 298396.08535365 50065.51214049502 298479.64982805 50139.556844195016 298682.89362617 50350.14462907502 298748.40067591 50392.94014403502 C 298933.58704937 50572.27874017501 299119.84530573 50751.90411379501 299256.79694869 50918.33772333502 L 299315.70811639 50985.78654499502 299500.89448985 51165.12514113502 299560.87754045 51232.86074027501 299722.48249011 51405.89023185501 C 299887.84421675 51268.65181141502 300017.79141589 51173.62579439502 300190.82090747 51012.020844735016 L 300355.89585663 50875.85430719501 300261.94172251 50746.193885535016 300177.30536521 50671.862404355015 299933.20782405 50425.07498655502 299848.57146675 50350.743505375016 299586.41650093 50072.706898835015 299532.74255489 49981.389875895016 C 299312.22643753 49740.91156265501 299067.05701347 49493.83736737502 298853.13677815 49228.705747435015 L 298775.09630289 49129.720959555016 298519.25044163 48828.10292921502 298417.34176509 48723.880919675015 298168.09178587 48397.609582635014 298091.12319351 48298.91157223501 C 296811.19356539 46686.110639635015 295699.92609621 44833.57949851501 295526.76314097 43153.928620555016 L 295515.01482087 43099.09800801501 295488.50950841 42910.52641865501 C 295194.68511271 40810.363292055015 296257.02659753 39746.12112141501 297687.83605805 39532.799762395014 297941.67031147 39498.48578753501 298193.81673523 39517.70486125501 298439.27791933 39583.37690417501 299316.07813152997 39817.960882815016 300107.40411555 40651.07404655501 300530.23680253 41796.80047345502 300689.19296164997 40232.424585875015 301536.17076717 39007.188021235015 302692.32883705 38850.177719435014 303078.83218439 38800.819974735015 303453.98662537 38819.639634715015 303800.20480207 38912.26876075502 304752.03681727 39166.927162995016 305494.91652033 39983.632913955014 305709.93485705 41524.014241935016 L 305737.51205241 41712.87260877501 305748.18848961 41767.41644383501 C 305787.51400506997 42011.10542321501 305801.11433093 42247.91174307501 305815.78653969 42485.004840415015 305808.03399115 42612.72349015501 305799.20955971 42740.15536241501 305815.03843497 42874.183116715016 305807.28588643 43001.90176645501 305798.74823247 43128.261755815016 305790.99568393 43255.98040555501 305776.64725335 43408.352361995014 305744.24139811 43529.47512969501 305735.70374415 43655.83511905502 305721.35531357 43808.20707549501 305688.94945833 43929.32984319502 305673.81592233 44080.34313925501 305641.41006709 44201.46590695501 305627.34841399 44352.765980495016 305588.34667671 44498.54205489501 L 305478.51090187 44909.073205595014 305368.38834955 45320.67623919502 C 305329.67338975 45465.38043069502 305290.67165247 45611.156505095016 305227.30338597 45749.26481455501 305188.30164869 45895.040888955016 305155.89579345 46016.163656655015 305093.59940985 46154.558743595015 305054.88445005 46299.262935095016 304991.22940606996 46438.443127455015 304952.51444627 46583.147318955016 L 304800.75304549 46957.192059255016 C 304967.18665503 46820.24041629501 305139.92936913 46659.70734953502 305306.36297867 46522.755706575015 305861.65108633 45997.08711455502 306476.92224459 45539.15412167502 307055.50499857 45020.86651711501 307530.15252049 44603.41570619502 308004.80004241003 44185.964895275014 308497.79176647 43798.69139019502 308679.12367437 43623.22718985502 308772.59859371 43552.90144535501 308878.71500081 43581.29241587502 308955.89056961 43601.94039443501 309040.81370439 43675.19999271502 309171.22598771 43797.38549527501 L 311328.90551809 45619.75509531501 311754.10887755 45966.68396749502 313185.79990645 47205.44015979501 C 314138.11530191 48003.51991369501 315084.61992075 48827.61163467501 316036.64853873 49626.763271475014 316096.63158933 49694.49887061502 316186.50516829 49744.96215051501 316313.06715153 49855.780042095015 L 316179.17694629 49094.03747017501 C 315850.63336235 47321.12779735502 315874.86642791 45487.53973467502 316195.10375850997 43706.72828489501 316514.18442261 42028.98217815501 317262.92554496997 40492.60781247501 318383.48285823 39210.773413135015 319138.48031969 38325.036950315014 320073.71371043 37641.43540201501 321149.97929929 37203.46460501501 321993.23234597 36859.363158535016 322913.65597889 36716.239960075014 323829.33573553 36779.74577563501 324453.91927951 36819.35472017501 325086.02470841 36925.29821167501 325701.28549301 37089.90848519502 Z" visibility="visible"></path>
                    </g>
                    <g></g>
                  </g>
                </g>
              </g>
            </g>
            <g id="g1120df3d0b8_0_18328">
              <g id="g1120df3d0b8_0_18317">
                <g id="g1120df3d0b8_0_18314">
                  <g>
                    <g>
                      <path fill="#8FDDEF" fill-opacity="1" d="M 275480.37547842547 65408.240147438686 C 279692.87527542544 66535.27564383869 281328.06829026545 71242.14363273869 281328.06829026545 71242.14363273869 280888.18275692547 71018.78220213868 280453.8257967455 70852.03314537868 280026.1445196455 70737.60893085868 271428.57177874545 68437.36676377869 265172.5799461055 87218.03198841869 263322.67815390544 93488.4056474187 263000.34982296545 94594.42421557868 261841.21509896545 95243.39135923868 260728.60064876545 94945.71633499868 L 251415.01013066547 92453.90681127869 C 250254.16094996547 92143.32680043869 249569.57728492544 90924.12424223869 249934.98790830545 89751.52674143869 252734.55001716546 80545.54344877868 258498.23451450546 72470.28888183869 267815.92282652546 67004.48345345868 270994.64282196545 65135.02982961868 273517.75788852543 64883.150581558686 275480.37547842547 65408.240147438686 Z"></path>
                    </g>
                  </g>
                </g>
                <g id="g1120df3d0b8_0_18315">
                  <g>
                    <g>
                      <path fill="#CDEA9D" fill-opacity="1" d="M 279214.1892616854 70045.99844051868 C 279923.7757414854 70235.84513227869 280643.2909623054 70607.53120791868 281328.0682902654 71242.14363273869 281328.0682902654 71242.14363273869 277022.4070585254 74159.70466131868 273207.4835918854 90067.23739383869 272933.3899914454 91186.1609485987 271840.5474226054 91879.2822675987 270733.3721879454 91660.0192796987 L 265300.2791542254 90647.4853476187 C 265260.0459319654 90639.01834665869 265220.0994871854 90629.47946279868 265181.5117027854 90619.1554735187 263953.1338993854 90290.5084814387 263248.0718229854 88941.77725099868 263744.4450060054 87743.34192433869 265320.4768361254 83887.58253025869 268859.4902232654 76279.59041237869 274003.0338163654 71200.54031097869 274008.1958110054 71181.24641877868 276541.9851919854 69331.06218287868 279214.1892616854 70045.99844051868 Z"></path>
                    </g>
                  </g>
                </g>
                <g id="g1120df3d0b8_0_18316">
                  <g>
                    <g>
                      <path fill="#F2B87E" fill-opacity="1" d="M 275077.48832540546 62427.77854793868 C 276155.80252280546 62716.276692818676 277115.5982284654 63108.601598978676 277944.1304664054 63545.06156731868 282744.45270740543 66046.89180107867 281328.06829026545 71242.14363273868 281328.06829026545 71242.14363273868 280144.27813678543 70231.66607145868 278918.58522746543 69592.46438987867 277671.9854147654 69258.94218063868 268388.4076178654 66775.16242635869 257960.61960568544 81249.99521789869 255006.20125440543 85715.58826893868 254520.12919056544 86467.67352109868 253566.42981338545 86833.91294739868 252696.06089858542 86601.04963363869 L 246672.07900058542 84989.36019603867 C 245293.63759118543 84620.56435675868 244663.56076050544 83000.14842467869 245431.05464678543 81780.06429809867 257798.55905648542 62725.51890601868 268586.16548300546 60691.05412905868 275077.48832540546 62427.77854793868 Z"></path>
                    </g>
                  </g>
                </g>
              </g>
              <g id="g1120df3d0b8_0_18327">
                <g id="g1120df3d0b8_0_18318">
                  <g>
                    <g>
                      <path fill="#F198C5" fill-opacity="1" d="M 303975.12391292007 38930.352363875005 C 304918.38086492004 39182.716546275005 305651.04006692005 39998.985065715 305864.92542432004 41526.428571875 L 305891.43073678005 41715.000161235 305903.17905688006 41769.83077377501 C 306553.12423188007 45831.76194003501 302133.20304180006 52374.77546191501 302133.20304180006 52374.77546191501 302133.20304180006 52374.77546191501 296117.9004322201 47240.327312975 295675.15782620007 43180.996257195 L 295670.00538814004 43101.512337955006 295642.42819278006 42912.653971115 C 295349.6756799801 40812.777621995 296387.3638581 39741.93956931501 297842.82662532007 39535.214092335 298095.58899584005 39500.613339995005 298347.73541960004 39519.832413715005 298594.2684866001 39585.791234115 299467.85305010004 39819.514880315 300254.96672954 40646.906625055 300679.80685888004 41785.129871655 L 300679.80685888004 41785.129871655 C 300679.7316318601 41789.704180735 300682.08694812004 41793.780161875 300685.22736980004 41799.21480339501 300683.15883102006 41794.066939355005 300680.80351476005 41789.99095821501 300679.80685888004 41785.129871655 L 300679.80685888004 41785.129871655 C 300677.8135471201 41775.407698535004 300681.96475528006 41768.478073195 300685.1804039801 41769.338405635004 300686.25228688004 41769.62518311501 300687.03739230003 41770.98384349501 300687.53572024003 41773.414386775 L 300687.53572024003 41773.414386775 C 300686.31338330003 41782.276227455004 300685.37782384007 41790.066185235 300685.22736980004 41799.21480339501 300688.66869956005 41786.352208595 300688.53237612004 41778.275473335 300687.53572024003 41773.414386775 L 300687.53572024003 41773.414386775 C 300853.55782814004 40221.266442615 301697.0943039 39008.892472775005 302841.01029976003 38876.173473175004 303237.31104724004 38820.248107635 303621.40255592007 38835.71579547501 303975.12391292007 38930.352363875005 Z"></path>
                    </g>
                  </g>
                </g>
                <g id="g1120df3d0b8_0_18319">
                  <g>
                    <g>
                      <path fill="#F198C5" fill-opacity="1" d="M 295002.14890873997 47804.41828767501 C 297851.21365694 48566.67282951501 301062.46145208 52787.80617473501 301062.46145208 52787.80617473501 301062.46145208 52787.80617473501 296117.33708261995 55768.59792075501 293206.92564087996 55119.72315465501 L 293037.56814268 55074.41231281501 C 292952.52738908 55057.40308387501 292870.49073371995 55037.75176119501 292791.17139912 55016.53022767501 291479.18672952 54665.514592155014 291028.36248576 53748.91258957501 291216.14104728 52772.295518255014 291388.15142142 51936.18446445501 292296.21617857995 51349.83748257501 293445.69358282 51320.83260799501 292401.97139826 50860.109190115014 291754.77147676 49986.302293955014 291925.42319051997 49150.97634557501 292100.81878056 48109.02138317501 292938.22404992 47400.39496709501 294471.26596516 47680.76067139501 L 294640.62346335995 47726.07151323501 C 294759.54136884 47745.25276917501 294879.95425814 47771.72565495501 295002.14890873997 47804.41828767501 Z"></path>
                    </g>
                  </g>
                </g>
                <g id="g1120df3d0b8_0_18320">
                  <g>
                    <g>
                      <path fill="#DDB2D5" fill-opacity="1" d="M 325419.53356002003 41227.624581775 C 324759.25369362003 41050.969654095 324062.7035413 41001.295236555 323379.1286200401 41079.142048895 323031.58919220004 41115.952237475 322696.86996736005 41207.879816075 322396.4086035201 41360.660334295004 321887.5880042001 41613.906085075 321439.03723296005 41933.815552095 321067.1682766001 42353.494912415 320418.6213740801 43034.544133135 319986.22325628006 43877.946408235 319763.74960224004 44803.931040995005 319487.05589132005 46130.057164735 319403.30110240006 47507.803234875006 319539.65386906004 48839.914684995005 319709.89293564006 50337.303078155004 319995.0304489601 51787.326629835006 320415.26759948005 53221.808083735 320455.74978144007 53362.43172007501 320526.40926924004 53484.711154275006 320651.61259210005 53596.314151275 321311.30893842 54135.773383675005 321964.69618018006 54698.814039875004 322616.72476156004 55262.639801495 L 325762.0494313001 57944.228872535 325929.96348552004 58093.676940315 329392.27373362007 61041.55429779501 C 329413.4715799601 61078.238128055 329446.76104628004 61099.779274275 329482.13318198005 61109.242931115004 329506.78648868005 61115.838813155 329532.08857736003 61115.716620315005 329555.03534978005 61111.518446335 329561.63123182004 61086.865139635 329567.94033638004 61063.283715835 329574.5362184201 61038.630409135 329581.13210046006 61013.977102435005 329587.44120502006 60990.395678635 329594.03708706005 60965.742371935004 330278.10404800007 58894.04209447501 330786.50440618006 56800.612398975005 331132.14314820006 54637.218554935 331576.61744968005 51619.284671355 331317.56500768004 48517.648764315 330363.63570388005 45591.91347205501 330329.46262648003 45427.708411915 330240.74571402004 45274.179788975 330176.68210826005 45127.247048075005 330005.5573879001 44796.608378395 329828.12356298004 44489.551132515 329620.51243222004 44200.838088775 329248.37246314005 43556.833068655 328741.04807326006 43031.722266835 328134.7388955001 42584.651940275005 327486.79086928006 42100.023320415 326764.51136188005 41700.031057855005 325985.4594700201 41413.493798055 325800.39986342005 41341.009748615004 325611.40059912007 41278.957750695 325419.53356002003 41227.624581775 Z M 325829.10742670007 37189.577381555006 C 326093.86250300007 37260.411419115 326354.67792160006 37341.677508195 326609.40991670004 37432.802093835 327963.11323580006 37898.354171595005 329202.69823102007 38592.960020675004 330335.83266730007 39492.253111855 331055.51206422003 40099.447943395004 331723.3695208601 40797.301459315 332306.79261408007 41523.103731675 332640.67895060004 41923.706549895 332919.73467458005 42336.057688215005 333185.1003065401 42795.284896655 333865.3166389401 43936.362195995 334360.75515966007 45184.213832455 334637.7315626601 46475.843100615006 335020.81898166006 48238.076336235004 335216.40669420006 50027.10166179501 335174.90130940004 51830.799196115004 335145.64926944004 55426.15916717501 334487.11718358006 58956.53287799501 333198.03117504006 62319.353313475 333064.61397640005 62723.575359615 332905.18481068005 63121.986629135004 332746.82752786006 63520.684676135 L 332733.9225412601 63568.919406635 332714.42167262005 63641.807443835 C 332669.11083078006 63811.164942035 332669.11083078006 63811.164942035 332795.6728140201 63921.98283361501 L 332903.60381764005 64003.695302255 333322.49807254004 64374.205598235 C 333615.90222710004 64634.18478011501 333915.61548622005 64870.582538195 334215.61552282004 65105.908413375 334347.4147277201 65192.858103675004 334412.55021638004 65340.077622055 334397.41668038006 65491.090918115005 334384.22491630004 65540.397531515 334389.66413184005 65618.809567855 334376.75914524007 65667.044298355 334357.25827660004 65739.932335555 334367.93471380003 65794.476170615 334355.02972720005 65842.710901115 334240.07851500006 66564.29506925501 334004.29131258006 67252.40149925501 333701.9251775201 67897.42563681501 333255.2634127401 68789.84774783501 332749.97725774004 69613.749154295 332148.22164174006 70411.84058755501 331377.80386680004 71449.66222933501 330540.80715922004 72444.401578675 329669.83936812007 73377.216105495 328871.5576203401 74227.251263335 328056.57710828003 75045.252127015 327193.07508824003 75851.419886995 326336.16895024007 76632.93434027501 325477.90415186004 77415.23389897501 324579.35916540003 78159.190058955 323514.09379192005 79041.16974479501 322424.17511174007 79916.553548595 321299.2134651401 80729.725752395 320654.05177852005 81204.93106451501 319990.5458897601 81649.95907079501 319350.6214248001 82101.296181635 318687.4023135201 82545.252305015 318086.10802476003 82955.237344875 317435.7939000801 83350.958737755 316594.10608168005 83878.10777445501 315705.54219316004 84391.56671913501 314822.2155263001 84881.157462535 313670.46178976004 85506.829959875 312512.77050974005 86051.659877595 311320.53459124005 86536.70873859501 310353.64344998007 86952.254778295 309364.61432890006 87257.354487495 308364.6219931401 87508.982244535 307980.59615490003 87587.71805905501 307603.1661987001 87641.800566875 307207.3920403601 87665.705768855 307128.98000402004 87671.14498439501 307073.36428606004 87681.534644115 307001.54813176004 87662.320552955 306939.5763434201 87666.41523871501 306880.47232988005 87659.791095475 306824.7344190801 87644.878666515 306667.16763278004 87602.722376955 306539.53376664006 87491.617707895 306465.89844180003 87337.529660595 306271.19229764 87000.58188635501 306058.42872882006 86632.38492337501 305870.31846670003 86270.78384243502 L 305462.84875372006 85565.639105215 C 305380.44094582007 85388.529058475 305291.7240333601 85235.00043553501 305209.31622546003 85057.890388795 304773.11265062005 84266.952627775 304353.89461754006 83506.977278015 303917.6910427001 82716.039516995 303870.89975618006 82598.997304455 303762.68197508005 82518.356718715 303672.52161864005 82468.965321715 303160.3685688801 82253.83565443501 302653.4527407801 82014.83778587502 302147.89557306 81775.05481189501 299037.01499344007 80321.355181435 295926.42119130003 78866.583668075 292846.78980042005 77394.826612955 291146.2951582001 76576.906447475 289491.02657422004 75692.98090431502 287821.49434326007 74858.075197075 287543.9190639601 74732.12376949501 287304.18885544006 74563.46161055501 287057.5759874 74420.52464121502 287041.07464298006 74409.218126655 287022.6410832201 74400.840483315 287002.27530812006 74395.391711195 286943.3217486201 74379.61894979501 286876.91197464004 74391.71514379501 286844.35109134007 74440.43407163501 285856.05431022006 75421.111767875 284627.61875880003 75947.014371915 283309.10763454007 76320.173458435 282753.20897122007 76457.44887957501 282145.2817997201 76501.550289455 281545.89228218 76419.291709975 281446.4798193601 76408.77487485501 281356.86475668004 76391.690418895 281275.40165628004 76369.895330415 280818.77954088006 76247.728123935 280633.69208162004 75947.812053855 280626.3543030401 75395.665184955 280625.65896378004 75110.62413459501 280648.83182580007 74830.820305895 280688.70345210005 74583.050771355 280809.96376886003 73837.885179415 280949.5682877601 73122.89689331502 281161.77406638005 72428.481358755 281156.6216283201 72348.997439515 281182.43160152005 72252.527978515 281208.52835220005 72154.98663461501 L 281299.15003588004 71816.271638215 C 281692.59918186005 70444.42611085501 282133.49795292004 69084.126909715 282599.83513610007 67731.782250995 282816.40824736 67115.49197529501 283105.8693958201 66518.702568235 283412.31608604005 65952.875572435 283531.67163158004 65699.953599835 283669.37137926003 65477.208933075 283836.96165530005 65237.191947075 283948.8514297801 65110.916741315006 284084.0358505801 64992.02252301501 284220.29215428006 64873.415082195 284281.71864886006 64837.013455395005 284342.85836596007 64801.683711495 284397.40220102004 64791.00727429501 284652.28963272006 64692.652972315 284947.33963368007 64688.89243839501 285209.9509441801 64759.152920995 285275.33580108004 64776.646347275004 285338.2148876801 64799.212410575004 285398.87498146005 64825.77922799501 285579.9807997601 64925.92068237501 285760.01473516005 65025.775359275 285909.87136472005 65143.97423831501 286294.5077586201 65453.63159467501 286677.78549214004 65764.074056455 287017.1958278001 66139.73679049501 287490.54913416004 66602.922769795 287844.34490110003 67216.750484075 288057.80380918004 67869.988497415 288096.17506056005 68057.14032997501 288253.92971014004 68218.802210575 288442.58110054006 68269.27504705501 288474.73758754006 68277.87837145501 288508.82628988003 68283.552824635 288544.06210214004 68284.93974621501 290040.70239058003 68503.87895593501 291506.09349028004 68740.875590315 292989.82879212004 69008.049530535 294111.26767376007 69178.292682515 295243.3829926001 69403.07966955501 296351.63011016004 69622.629434935 296448.09957116004 69648.439408135 296569.22233886004 69680.845263375 296678.59678646 69658.42050607501 296687.42121790006 69530.98863381501 296585.79931884 69425.694741375 296532.4121502801 69333.305835535 L 294675.09752078005 65907.436826335 292787.89236292004 62498.840136375 C 292794.20146748004 62475.25871257501 292769.54816078005 62468.662830535 292776.1440428201 62444.009523835004 292670.15481112007 62260.590372535 292581.4378986601 62107.06174959501 292499.3168682401 61928.87981995501 L 291108.01155834005 59380.028373055 C 291048.31528522004 59311.220891015 291019.29464588006 59226.49975011501 290990.56078402005 59140.706726315 290967.0641438201 59031.04550123501 290999.46999906003 58909.922733535 291116.5122116001 58863.131447015 291415.90169254004 58710.064151315004 291674.7242079201 58519.725339795004 291890.5492144601 58292.61334039501 292205.07223140006 57988.532748635 292537.93945048004 57714.629462715006 292870.80666956 57440.726176795004 293678.32141056005 56749.37207995501 294478.45516410004 56081.31262943501 295254.72071636 55408.015957255004 295803.41294198006 54907.000671935006 296401.41178100003 54419.177150695 296973.9722079001 53923.399087035 297522.66443352005 53422.383801715005 298083.10497924004 52976.199128935004 298656.4505115601 52481.779725655004 299205.42951466003 51979.692557435 299802.35647078004 51491.582258715 300375.7020031001 50997.162855435 300924.39422872005 50496.147570115005 301515.01208028005 50031.61869519501 302063.7043059 49530.603409875 302588.8151077201 49023.279019995 303204.08626598003 48565.346027115 303746.46938704007 48087.912165595 304270.50830596004 47580.300998235005 304885.77946422005 47122.368005355005 305434.4716898401 46621.352720035 305959.58249166 46114.028330155 306604.74417828006 45638.82301803501 307160.0322859401 45113.154426015004 307634.67980786006 44695.703615095 308133.98063648003 44284.848686215 308602.0322763601 43892.051181995004 308797.58543944004 43719.243205995 308896.41977328004 43650.351348895005 309005.75182908005 43679.602651855006 309085.07116368006 43700.824185375 309168.92241556005 43773.797006175 309300.1198043001 43897.341169115 L 311433.43280546006 45712.043004215004 311858.63616492006 46058.971876395 313313.90861762007 47304.037173255005 C 314267.00911850005 48103.475587535 315213.80051482003 48926.495425615 316142.2477090001 49719.337957855 316225.81218340003 49793.382661555006 316315.68576236005 49843.845941455 316441.9609681201 49955.73571593501 L 316308.07076288003 49193.993144015 C 315978.45529604005 47420.796693715005 315979.39371528005 45579.827643575 316324.2843525801 43805.612075835 316618.42493250006 42122.341969955 317367.16605486005 40585.967604275 318487.72336812003 39304.133204935 319267.6609137601 38423.920741255 320201.82242160005 37740.032415475005 321277.80123298004 37303.133501375 322122.41294004006 36958.246949475004 323041.76469006005 36814.836973535 323933.86302290007 36872.033684535 324575.30991580006 36917.302951655 325212.77475920005 37024.680330555 325829.10742670007 37189.577381555006 Z"></path>
                    </g>
                  </g>
                </g>
                <g id="g1120df3d0b8_0_18321">
                  <g>
                    <g>
                      <path fill="#FAE77F" fill-opacity="1" d="M 312818.38979910006 58352.02268401501 C 316829.37561090005 59425.14401417501 312766.31824220007 64758.815108575014 312766.31824220007 64758.815108575014 312766.31824220007 64758.815108575014 314417.28679814003 64611.287985315015 315935.0729845401 65017.364896995015 317435.70904454007 65418.85336899501 318805.24540438 66361.86838655501 318316.9427484401 68526.14584167501 317937.78967612004 70157.95601177501 316961.78773448005 70440.12307915502 315886.68918578007 70152.48526671501 314085.92591378005 69670.69910031502 312008.93891752005 67589.65784747501 312008.93891752005 67589.65784747501 L 312008.93891752005 67589.65784747501 C 312008.93891752005 67589.65784747501 314995.52567540004 73573.52651319501 311114.08977178007 73935.21997169501 310770.41477462003 73966.17241783501 310475.8161357801 73942.487097275 310224.99553718005 73875.38116695502 307665.33917198004 73190.55654471501 309615.78019814007 67909.61599455502 309616.06697562005 67908.544111655 L 309616.06697562005 67908.544111655 C 309615.78019814007 67909.61599455502 308058.90634532005 71500.57792053501 306074.85109742003 70969.75280505502 305682.54195602005 70864.79224737501 305271.63965278 70597.49774847501 304853.62941750005 70107.76863893501 302309.2274754401 67120.61853145501 308567.09589004004 65917.61788359501 308567.09589004004 65917.61788359501 L 308567.09589004004 65917.61788359501 C 308567.09589004004 65917.61788359501 307413.22289196006 65902.94820615501 306220.21722426004 65583.76487091501 304719.58116426005 65182.27639891501 303159.58796554006 64298.57196279502 303766.78941380006 62351.031386495015 304140.4883229 61181.799988435014 304955.8956928201 60976.12189009501 305876.64310392004 61222.463745415014 307719.20980902005 61715.43423353501 309983.71023380005 64014.340770495015 309983.71023380005 64014.340770495015 309983.71023380005 64014.340770495015 307808.71877208 57418.315149695016 312428.99539832 58266.21969509501 312567.20719600003 58290.56294567501 312696.19514850003 58319.330051295015 312818.38979910006 58352.02268401501 Z"></path>
                    </g>
                  </g>
                </g>
                <g id="g1120df3d0b8_0_18322">
                  <g>
                    <g>
                      <path fill="#372D31" fill-opacity="1" d="M 297316.41326069995 70382.69495939501 C 297364.6479912 70395.59994599501 297410.15127033996 70427.30049685501 297443.12569797994 70484.36423281502 299360.1366006 73979.04072405501 301441.63934083993 77438.47225499501 303228.70304431993 81028.17476325501 303269.81530364 81097.75322011502 303185.55009887996 81180.88046299502 303112.66206167993 81161.379594355 303089.08063787996 81155.070489795 303068.08021139994 81139.11443913501 303051.59299757995 81110.58257115501 300709.32597003994 77943.19653439501 298765.80975495995 74259.948453795 297051.34731119993 70690.81869707501 296960.43966711994 70506.840121415 297156.7027086 70339.96511487501 297316.41326069995 70382.69495939501 Z"></path>
                    </g>
                  </g>
                </g>
                <g id="g1120df3d0b8_0_18323">
                  <g>
                    <g>
                      <path fill="#372D31" fill-opacity="1" d="M 317021.75111136003 49969.57707907503 C 317041.04500356 49974.73907371503 317059.47856332 49983.116717055025 317078.90877896 49996.35544695503 317593.98571738 50393.74759903503 318055.59070364 50802.10296579503 318479.63739660004 51252.09718101503 318946.47960452 51636.58434649503 319334.03988708 52128.50418765503 319628.92448632 52674.88308027503 319664.2072644 52706.14639961503 319618.99533676 52754.926423875026 319579.33566946 52744.31565711503 319572.90437206003 52742.59499223503 319566.75985214004 52739.80244445503 319560.40378176 52733.50747049503 319067.46482316003 52446.56164891503 318624.20403904 52068.38358799503 318241.79619454005 51655.94766607503 317763.20566652005 51216.62988805503 317253.65272724006 50794.29765179503 316829.60603428003 50344.30343657503 316684.14042454003 50188.22665153503 316843.81854996004 49921.972017395026 317021.75111136003 49969.57707907503 Z"></path>
                    </g>
                  </g>
                </g>
                <g id="g1120df3d0b8_0_18324">
                  <g>
                    <g>
                      <path fill="#372D31" fill-opacity="1" d="M 329941.89155358 60893.40959361502 C 329960.11356288 60898.28481077502 329977.47523974004 60906.37567663502 329996.12034996005 60918.25574615502 330452.57289816 61247.12719367502 330871.18037558004 61618.70937255502 331259.89732464 62007.56387067502 331582.03534106 62353.33607635502 332000.64281848003 62724.91825523502 332133.05257904006 63200.26111641502 332151.1100037 63231.51030515502 332088.89840370003 63266.55327157502 332065.3169799 63260.24416701502 331631.28918900003 63040.74716709502 331334.96114578005 62598.50550041502 330981.57394062 62270.79071939502 330586.547887 61905.51764507502 330154.74864550005 61583.242079595024 329753.41348732 61241.55042907502 329572.60857710004 61123.11173837502 329757.52769478003 60844.08386705502 329941.89155358 60893.40959361502 Z"></path>
                    </g>
                  </g>
                </g>
                <g id="g1120df3d0b8_0_18325">
                  <g>
                    <g>
                      <path fill="#372D31" fill-opacity="1" d="M 288103.09431224 68683.83480453501 C 288165.26352044 68700.467898375 288216.61041142006 68753.258233335 288212.96210522 68844.17085997501 288244.42954122 70564.017142415 287988.25581638 72491.76133309501 287251.26301412005 74082.966311315 287223.6243138 74143.339627615 287178.93897530006 74160.09948831501 287138.20742510003 74149.201944075 287083.5413972 74134.57629259501 287035.84738644003 74072.425789015 287039.97988998005 74001.16905907501 287323.73081018 72262.28323523501 287715.69951148005 70604.037997135 287871.73178194003 68857.39962475501 287878.06457368005 68717.81503609501 288005.55296834005 68657.738053855 288103.09431224 68683.83480453501 Z"></path>
                    </g>
                  </g>
                </g>
                <g id="g1120df3d0b8_0_18326">
                  <g>
                    <g>
                      <path fill="#FFFFFF" fill-opacity="1" d="M 284775.8180309 65626.211846915 C 284869.0718432 65651.16148767501 284946.62812112 65730.490378855 284944.74744562 65844.84810585501 284839.31600412 66724.041452095 284660.99652542 67583.73392969501 284361.8410565 68409.94866915501 284098.51365942 69299.733668995 283955.52392462 70220.56586369501 283536.03079342 71015.73340829501 283395.17649346 71250.268786955 283149.10393662 71319.96902811501 282934.72735662 71262.613532115 282720.35077662 71205.258036115 282536.59829056 71020.560025475 282519.88580422 70743.868357255 282540.73365388 69116.124203175 283438.68384944 66919.018608975 284547.12128152 65686.77760051501 284610.64457607997 65621.073130915 284698.6424621 65605.563868355 284775.8180309 65626.211846915 Z"></path>
                    </g>
                  </g>
                </g>
              </g>
            </g>
          </g>
          <g id="g1120df3d0b8_0_18343">
            <g>
              <g>
                <path fill="#FFFFFF" fill-opacity="1" d="M 278731.86951337 64013.109275890005 C 278875.2988800367 64190.41240922334 279402.3548967033 64512.72872589 279666.08521337 64761.16207589 279929.81553003663 65009.59542589 280155.3763967033 65391.27910922334 280314.25141337 65503.70937589 280473.1264300367 65616.13964255666 280431.1993800367 65591.77482589001 280619.33531337 65435.74367589 280807.47124670335 65279.712525890005 281149.5761967033 64929.72424255667 281443.06701337 64567.52247589 281736.5578300367 64205.320709223335 282346.39508003666 63583.09929255667 282380.28021337 63262.53307589 282414.1653467033 62941.966859223336 281958.86288003664 62909.273025890005 281646.37781336997 62644.12517589 281333.89274670335 62378.97732589 280742.27644670336 61818.50257589 280505.36981337 61671.64597589 280268.46318003663 61524.78937589 280352.6195967033 61595.04912589 280224.93801337 61762.98557589 280097.2564300367 61930.92202589 279939.08816337 62403.15459255667 279739.28031337 62679.26467589 279539.47246337 62955.374759223334 279181.71946337 63249.96630922334 279026.09091337 63419.64607589001 278870.46236337 63589.32584255667 278854.54591337 63598.43274255667 278805.50901336997 63697.34327589 278756.47211336996 63796.25380922334 278588.44014670333 63835.80614255667 278731.86951337 64013.109275890005 Z"></path>
              </g>
            </g>
          </g>
        </g>
        <g id="g1120df3d0b8_0_18345">
          <g>
            <g>
              <path fill="#FFFFFF" fill-opacity="1" d="M 278003.85567803 76069.22851358 C 277824.02052803 76407.79036358 277666.38686136337 76716.76844691334 277478.42417803 77107.50751358 277290.4614946967 77498.24658024668 276944.00237803 78126.68794691334 276876.07957803 78413.66291358 276808.15677803 78700.63788024666 276946.87777803 78642.87486358 277070.88737803 78829.35731358 277194.89697803 79015.83976358 277382.0051446967 79250.46591358 277620.13717803 79532.55761358001 277858.26921136334 79814.64931358 278294.39886136336 80253.60798024667 278499.67957803 80521.90751358001 278704.9602946967 80790.20704691333 278727.54604469665 81186.60084691334 278851.82147803 81142.35481358001 278976.09691136336 81098.10878024666 279115.4080613633 80567.52469691333 279245.33217803 80256.43131358 279375.25629469665 79945.33793024666 279493.36531136336 79583.59761358 279631.36617803003 79275.79451358 279769.3670446967 78967.99141358 279951.7855446967 78728.31974691333 280073.33737803 78409.61271358 280194.88921136333 78090.90568024667 280480.86922803003 77785.01548024667 280360.67717803 77363.55231358 280240.48512803 76942.08914691333 279610.44472803 76225.19953024667 279352.18507803 75880.83371358 279093.92542803 75536.46789691334 278943.5776113633 75431.47363024666 278811.11927803 75297.35741358 278678.6609446967 75163.24119691334 278691.97901136335 74947.49123024667 278557.43507803 75076.13641358 278422.8911446967 75204.78159691334 278183.69082803 75730.66666358 278003.85567803 76069.22851358 Z"></path>
            </g>
          </g>
        </g>
      </g>
      <g id="g1120df3d0b8_0_18360">
        <g id="g1120df3d0b8_0_18347">
          <g id="shapeWithShadow-636">
            <g filter="url(#shadowFilter-e69_251)">
              <use transform="matrix(1,0,0,1,0,762)" visibility="hidden" pointer-events="none" xlink:href="#636"></use>
            </g>
            <g id="636">
              <g>
                <path fill="#FFFFFF" fill-opacity="1" stroke="#FFFFFF" stroke-opacity="1" stroke-width="4572" stroke-linecap="butt" stroke-linejoin="round" stroke-miterlimit="8" d="M 236337.69542903997 121297.64542063001 C 235692.34310141997 121569.92055376002 235375.09707007997 122292.26150379001 235647.44682775997 122937.79070811001 235672.20589663996 122996.47518123002 236117.86913647997 124052.79569739001 236777.84858849997 125780.90243278001 234617.67582465996 126725.96151698001 225469.39444031997 131104.99941427002 222605.37343529996 139231.68818398 219371.26171515998 148446.89239373003 221752.33677613997 158925.04359144002 224280.16276857996 165328.17419762 224280.16276857996 165328.17419762 226423.43120651998 162406.73745373002 230631.00803717997 160631.55435964002 233170.29644982 159560.22469828 236459.81086205997 158906.21892376003 240485.15585244 159563.66975353 242461.15486917997 157035.41259056 245020.86985581997 154987.63985684002 247946.91985513997 153648.55306122 L 247946.91985513997 153648.55306122 C 248966.22322987998 156228.33702189 249816.90556125998 158324.44698812 250302.93668319998 159640.25768159 251594.58981561998 162865.57084658003 252134.54078269997 165128.23031796003 251982.86551489998 166574.82958746003 251885.53924865997 167654.61969298002 251358.65497871998 168291.69514423003 250155.20075471996 168799.43432023004 248951.74653071997 169307.17349623 247805.82942929998 169375.85549962003 246850.67131671996 168913.82235371 245781.99938623997 168430.55049891002 244851.38018582 167371.44255720003 244081.43361863997 165794.31294559 243787.48515025998 165177.39457758004 243054.64835325998 164910.49319108002 242431.86079233998 165173.24821466 242413.80897897997 165180.86430230003 242396.39201353997 165189.98512002002 242378.34020017998 165197.60120766002 241786.32897925997 165516.50200848002 241509.72709621998 166255.37402460002 241812.79805741998 166889.71447960002 242816.13403721998 169024.22889478 244164.24913085997 170497.46161924003 245800.39337009998 171258.90746902002 247464.25017729998 172010.43391742 249309.45391669997 171956.92215576002 251188.34682391997 171164.21436723002 253243.24491139996 170297.24972421 254347.44270316 168899.01338681002 254550.96922509998 166840.27105592002 254728.59094209998 164967.94276718 254190.420559 162461.68951061 252717.21480288 158726.25188371004 252201.96679519996 157420.99526559003 251351.28446382 155324.88529936003 250319.91897859998 152716.51146717003 253207.96041824 151774.56381927003 256212.68933157998 151441.01027468 259235.66264675997 151721.93264809 261576.49391519997 148357.31144647 264348.97993038 146448.43225768002 266892.78129635996 145375.19857441002 271086.81926699996 143605.72754605 274660.42763694 144108.11493568 274660.42763694 144108.11493568 271826.562719 137798.65115205 266011.13016627997 128769.46062785001 257110.75225678 124638.36466676001 250539.33220171998 121600.36126497001 242730.84776215997 123581.29590135002 239138.15075355998 124818.76623713001 238448.71979386 123104.85771122001 238002.42170609997 122047.03246498002 237977.66263721997 121988.34799186002 237705.31287953997 121342.81878754002 236984.55207443997 121024.73561353 236337.69542903997 121297.64542063001 Z" visibility="visible"></path>
              </g>
              <g></g>
            </g>
          </g>
        </g>
        <g id="g1120df3d0b8_0_18359">
          <g id="g1120df3d0b8_0_18348">
            <g>
              <g>
                <path fill="#CDEA9D" fill-opacity="1" d="M 236286.38554671002 121258.91985998 C 235684.82970413 121512.71718915 235255.59609548002 122170.03799868 235626.89724185 122968.95105747 235751.00896651 123263.12331431 247634.55220885001 152824.10425688 250320.63668454002 159685.01352517 251583.66963418003 162924.59884953 252123.93149016 165188.80978005 252003.10652282002 166623.85168989 251874.80111713 167716.55195547 251406.90923113 168328.96845247 250172.97111187002 168849.56883046 248939.03299261 169370.16920845 247820.68465535002 169426.98988544 246835.23765127 168977.45105493 245753.62084577 168464.73336175 244833.97029703 167433.3936254 244093.45998495002 165842.98514189 243743.07714984 165051.84710343002 243002.77842837002 164912.85450276 242422.36071203 165157.73362417 241804.07051951002 165418.59120115 241368.46601479 166114.91346856 241780.76415027 166922.46809721 242798.56283525002 169088.95855873 244146.38455357 170562.17051741 245771.14847358002 171294.98431451002 247407.66576599 172058.11538243998 249296.60018875002 172022.71844163002 251177.01266885002 171229.36954297998 253262.64112453 170349.43971066 254325.66337713 168931.89552183 254530.84869824 166872.98206292 254725.56439634002 164956.47730891 254157.73220911002 162462.15373948 252696.26913681 158752.24510628 250008.93231387 151890.82667472 238113.12653586 122300.78080857 238001.64893886002 122036.55423057 237703.69721017 121163.11865987 236904.67573923 120998.062283 236286.38554671002 121258.91985998 Z"></path>
              </g>
            </g>
          </g>
          <g id="g1120df3d0b8_0_18349">
            <g>
              <g>
                <path fill="#8FDDEF" fill-opacity="1" d="M 236945.02300310996 125766.13032312 C 235134.19018854998 126530.12345456 225529.89202508997 130922.50152541 222600.66003170997 139263.35776374 219345.00204536 148527.34420699 221744.36853410996 158970.42194131 224274.97428562999 165379.20020720002 224274.97428562999 165379.20020720002 226410.74672519998 162466.34293449 230608.42629435996 160695.33551015 233154.68975102 159621.06306706 236460.37358939997 158967.18677322002 240506.56175849997 159638.11368141 240506.56175849997 159638.11368141 230518.15934758997 138587.33099848 237240.68162790997 125645.5416195 237240.68162790997 125645.5416195 237136.14689453 125685.49486129 236945.02300310996 125766.13032312 Z"></path>
              </g>
            </g>
          </g>
          <g id="g1120df3d0b8_0_18350">
            <g>
              <g>
                <path fill="#F198C5" fill-opacity="1" d="M 237445.29199079 125555.0660728 C 237253.28734411 125636.07312662 237152.60610191 125682.7008185 237152.60610191 125682.7008185 251112.85959217 129898.39549631 259221.73027824 151742.1554859 259221.73027824 151742.1554859 261564.54076518 148375.70028225 264343.99501814 146462.24751718 266895.54300636 145385.74552215 271101.14937286 143611.3937699 274690.28612329 144108.90310761 274690.28612329 144108.90310761 271836.44319135 137836.49910205 266029.43460166 128831.11077704 257121.86244741 124698.80971569 249103.30655899 120976.84191306 239255.24405009 124791.44453334999 237445.29199079 125555.0660728 Z"></path>
              </g>
            </g>
          </g>
          <g id="g1120df3d0b8_0_18351">
            <g>
              <g>
                <path fill="#FAE77F" fill-opacity="1" d="M 237152.60610191 125682.70081849999 C 237152.60610191 125682.70081849999 228026.66944746 141542.36284055 240506.5617585 159638.11368140997 240506.5617585 159638.11368140997 243214.93053854 155665.06558238997 248768.09245284 153322.17808543998 251545.11378762 152150.54854097 255033.55359478 151386.36624901998 259250.79520182 151729.89295023 259250.79520182 151729.89295023 253739.87290417 131039.42066466999 237152.60610191 125682.70081849999 Z"></path>
              </g>
            </g>
          </g>
          <g id="g1120df3d0b8_0_18352">
            <g>
              <g>
                <path fill="#372D31" fill-opacity="1" d="M 246369.4235402 129244.61789491001 C 246134.26188578 129343.83295624002 245906.16047917 129459.78236751001 245688.64234141 129590.97976076 246012.73485631 130769.83329277001 246496.1760353 131915.69588603 247172.5706542 132945.91262204002 248755.36785711002 135219.52699815002 251188.54697394 136476.56961575002 253827.76674636 136989.92656678002 254406.0386498 135569.39319329002 254493.87267839 133975.00261936002 254016.97510724 132515.12012144 253643.46085767 131219.12613985 252799.62329926 130121.56228092001 251643.68809576 129432.69353574 250804.44646484 128921.47043489001 249846.56979201 128702.04424329002 248854.33693501 128809.40965529002 248012.32593441 128766.24367551 247148.8919453 128915.75898376001 246369.4235402 129244.61789491001 Z"></path>
              </g>
            </g>
          </g>
          <g id="g1120df3d0b8_0_18353">
            <g>
              <g>
                <path fill="#FEFEFE" fill-opacity="1" d="M 245688.64234140998 129590.97976075999 L 245688.64234140998 129590.97976075999 C 244780.98666248 130147.18867017 244043.81918296998 130942.72749425 243594.28035246 131928.17449833 243098.36504719 132968.46384458 242907.38994209998 134156.08156433 243118.51026766998 135313.08369292 243677.12517913998 137950.32513051998 245876.45106405 139963.82511362998 248584.27030663998 140310.24828842 249374.94927572 140352.24565999 250172.07839389 140207.87880736 250903.10525968997 139899.45745565998 251317.06023188998 139724.80922035998 251710.48119520998 139496.57248548 252070.15682074998 139220.32113087 252834.89463151 138654.89494569998 253442.65912576998 137879.71293270998 253827.76674636 136989.92656678 251188.54697393999 136476.56961575 248755.36785711 135219.52699815 247172.57065419998 132945.91262204 246496.17603529998 131915.69588603 246012.73485630998 130769.83329277 245688.64234140998 129590.97976075999 Z"></path>
              </g>
            </g>
          </g>
          <g id="g1120df3d0b8_0_18354">
            <g>
              <g>
                <path fill="#372D31" fill-opacity="1" d="M 232835.68513047 134430.56991308 C 232583.78912611 134536.84522222 232339.32496154998 134660.73563655998 232105.67808655 134802.88789065 232400.70567787 135994.00395833 232913.21178044 137127.60401592 233560.16988377 138169.20253234 235143.33867867 140443.69766371 237576.5177955 141700.74028131 240203.47503225 142185.03230875998 240823.07439494 140781.30132318 240881.84349995 139199.17328492 240434.01085238 137727.02825133 240060.49660281 136431.03426974 239216.6590444 135333.47041081 238048.08971323998 134614.65598679 237221.11061799 134132.49780952 236234.54061357 133926.21490885 235258.73855249 133991.37210634 234413.90659298 133958.73406783 233589.61163303 134112.48716964 232835.68513047 134430.56991308 Z"></path>
              </g>
            </g>
          </g>
          <g id="g1120df3d0b8_0_18355">
            <g>
              <g>
                <path fill="#FEFEFE" fill-opacity="1" d="M 232075.73240770996 134815.52201830997 L 232075.73240770996 134815.52201830997 C 231156.69494837 135342.29441215 230431.79000452996 136166.89815980996 229969.98863834998 137123.28024030998 229473.70174109 138162.68883129998 229324.42568723997 139367.98969421998 229523.28347713998 140495.92689923 230095.04167953998 143161.86166841997 232282.10502877997 145146.29672795 234959.60700053998 145504.47327514 235782.98456939997 145557.57578922 236583.08642348996 145420.25497866998 237321.15933136997 145108.86089105 237730.71052726998 144936.07061569998 238121.48922480998 144708.94865679 238486.82097389997 144431.34850549998 239239.29624898997 143836.85739674998 239817.11506440997 143074.30951141997 240203.47503224996 142185.03230875998 237576.51779549997 141700.74028131 235143.33867866997 140443.69766371 233560.16988376997 138169.20253234 232913.21178043997 137127.60401592 232400.70567786996 135994.00395832997 232075.73240770996 134815.52201830997 Z"></path>
              </g>
            </g>
          </g>
          <g id="g1120df3d0b8_0_18356">
            <g>
              <g>
                <path fill="#372D31" fill-opacity="1" d="M 242447.19681408998 142361.01064899 C 242271.04576208998 142435.32904699 242142.58334569997 142666.94525027002 242289.34498534 142862.33385137 242738.24455799998 143434.48981421 243203.57492657998 143964.43756254 243729.16824482998 144469.99781081 243970.04882707997 144713.86757772 244228.61255249998 144916.03829339 244545.67771706998 145094.56469298 244816.50397815998 145325.80033223 245163.14322958 145490.8118489 245501.68820558 145555.4853039 245655.73962771997 145571.4181516 245785.51420495997 145551.94209577 245894.7278572 145505.86468901 246351.83983713997 145313.0084462 246452.17715113997 144660.60805294 246447.57000859999 144187.36284974 246443.58791817998 143359.01850907 246368.84185293998 142525.2535609 246222.82264961 141687.32035248 246170.72874236 141465.47918678 245944.90772924997 141399.93619157 245782.84876141 141468.30911773 245668.35057761 141516.61607643001 245585.10724281997 141631.62641418 245615.51124336998 141804.51687731 245728.91109993999 142483.9821769 245782.92876209997 143187.46338456 245796.49972027 143873.77061232 245819.39262799997 144176.40873657 245817.89803567 144418.78391115 245770.90772383998 144715.62983591 245736.67041919997 144821.37729003 245696.32165998 144875.75159078 245646.11861016 144896.93233421 245561.56610519998 144932.60516525 245449.03354582997 144877.36730565 245292.49013957998 144813.7218969 244253.08154858998 144317.43499964 243500.36477609 143354.69473346 242773.42542217998 142450.59347771 242682.22239257 142330.33001054 242555.52971106998 142315.30483422 242447.19681408998 142361.01064899 Z"></path>
              </g>
            </g>
          </g>
          <g id="g1120df3d0b8_0_18357">
            <g>
              <g>
                <path fill="#DDB2D5" fill-opacity="1" d="M 252551.58527210003 140211.40332374 C 252445.89464090002 140255.99436254 252341.18121439003 140305.36076963 252238.69733982004 140360.01170827998 252046.1154919 140476.53832079 251869.9644399 140550.85671879 251676.13024473 140666.87416803 251323.82814073 140815.51096403 250953.84289356 141005.84681127 250638.69998856002 141242.55913327 250095.60894930002 141679.19617026 249753.32338029004 142343.40974951998 249694.74044511002 143025.92030902 249671.15220428002 143624.15201078 249948.06898519 144199.35323352998 250452.93390036002 144574.62974129 250961.08632052003 144879.00470294998 251567.78388969004 145003.81176071 252188.23858686 144915.30856747 252707.50287856002 144874.68541335998 253232.60049160002 144756.89897689997 253728.46570298003 144547.69268652998 253904.61675498003 144473.37428853 254076.30870310002 144388.48682741 254243.30752663003 144290.0164454 254835.31113729003 143971.77220523998 255353.50551322004 143476.12456583 255720.68774556002 142870.92158899 256314.26744458004 141651.43593083 255606.37647926 140219.49535615 254280.38074358003 139948.91059247 253675.72132283 139885.49546608 253090.60749122003 139983.98902585998 252551.58527210003 140211.40332374 Z"></path>
              </g>
            </g>
          </g>
          <g id="g1120df3d0b8_0_18358">
            <g>
              <g>
                <path fill="#DDB2D5" fill-opacity="1" d="M 237313.25496413 146108.22502451 C 237189.94922773 146160.24790311 237069.47865597 146221.44992629997 236952.35241212 146290.57874683 236746.25568128 146377.53127248998 236553.30224137 146493.17712973998 236389.78531702998 146597.44120658 236319.73761007 146620.76925825 236251.68543434 146646.36798371 236185.62878984 146674.23738295998 235878.2452041 146803.92298747 235606.36846666 146980.88002773 235322.40938202 147185.76029948 234780.19909802 147622.02574448 234453.46356966998 148244.40270121998 234408.02392541998 148955.60659230998 234354.49000575 149566.47242173 234660.47171024 150129.41110881 235153.07408974 150475.62269299 235674.74139282 150809.5717415 236281.43896199 150934.37879925998 236901.0129039 150846.24719800998 237394.03323092998 150807.35863829998 237885.13877509 150685.23795885 238344.01226555 150491.63853206 238541.30144379 150408.4019263 238732.13598691998 150312.32558362998 238914.75438442 150204.15268802998 239548.5946176 149901.45848852998 240066.27983026 149407.06319637 240434.34281786 148801.48862753998 241027.04176162 147582.37456137 240306.88826063 146121.36906310997 238993.66422389 145878.59687575998 238408.94590971 145818.18140141 237833.78132279 145888.61415841998 237313.25496413 146108.22502451 Z"></path>
              </g>
            </g>
          </g>
        </g>
      </g>
      <g id="g1120df3d0b8_0_18363">
        <g id="g1120df3d0b8_0_18361">
          <g id="shapeWithShadow-637">
            <g filter="url(#shadowFilter-e69_325)">
              <use transform="matrix(1,0,0,1,0,762)" visibility="hidden" pointer-events="none" xlink:href="#637"></use>
            </g>
            <g id="637">
              <g>
                <path fill="#FFFFFF" fill-opacity="1" stroke="#FFFFFF" stroke-opacity="1" stroke-width="3048" stroke-linecap="butt" stroke-linejoin="round" stroke-miterlimit="8" d="M 305634.65753875003 112977.12967494 C 305928.70521619 113106.07139145001 306147.97497883 113343.54847278 306270.35318893 113715.19543785001 307282.21299571 116787.02112789001 295468.18962547 126565.30642722 295468.18962547 126565.30642722 295468.18962547 126565.30642722 291361.95446179004 109262.32845621 295374.96006997005 109209.27914601001 295786.85379097005 109199.65061931 296140.24459993 109267.64485458001 296441.13059545 109399.58521566 299128.58960089 110578.05253167001 297577.11137971 116792.79500607001 297577.11137971 116792.79500607001 297577.11137971 116792.79500607001 303510.22005523 112045.55076186001 305634.65753875003 112977.12967494 Z" visibility="visible"></path>
              </g>
              <g></g>
            </g>
          </g>
        </g>
        <g id="g1120df3d0b8_0_18362">
          <g>
            <g>
              <path fill="#CDEA9D" fill-opacity="1" d="M 305634.65753875003 112977.12967494 C 305928.70521619 113106.07139145001 306147.97497883 113343.54847278 306270.35318893 113715.19543785001 307282.21299571 116787.02112789001 295468.18962547 126565.30642722 295468.18962547 126565.30642722 295468.18962547 126565.30642722 291361.95446179004 109262.32845621 295374.96006997005 109209.27914601001 295786.85379097005 109199.65061931 296140.24459993 109267.64485458001 296441.13059545 109399.58521566 299128.58960089 110578.05253167001 297577.11137971 116792.79500607001 297577.11137971 116792.79500607001 297577.11137971 116792.79500607001 303510.22005523 112045.55076186001 305634.65753875003 112977.12967494 Z"></path>
            </g>
          </g>
        </g>
      </g>
      <g id="g1120df3d0b8_0_18366">
        <g id="g1120df3d0b8_0_18364">
          <g id="shapeWithShadow-638">
            <g filter="url(#shadowFilter-e69_338)">
              <use transform="matrix(1,0,0,1,0,762)" visibility="hidden" pointer-events="none" xlink:href="#638"></use>
            </g>
            <g id="638">
              <g>
                <path fill="#FFFFFF" fill-opacity="1" stroke="#FFFFFF" stroke-opacity="1" stroke-width="3048" stroke-linecap="butt" stroke-linejoin="round" stroke-miterlimit="8" d="M 221914.58217438002 91683.66950086 C 222213.79434876 91638.63265192001 222507.96057758 91717.70321766 222792.34016312 91952.43173604002 225143.14160052 93892.39024624001 220641.49780662 107625.87083374002 220641.49780662 107625.87083374002 220641.49780662 107625.87083374002 208670.01685268 95897.47870416 211842.2117892 93837.83180500001 212165.7018498 93623.09543320001 212481.57922458 93499.64376466001 212787.74982162 93453.55954714002 215522.409927 93041.94369520001 217409.87465688 98775.80077516001 217409.87465688 98775.80077516001 217409.87465688 98775.80077516001 219752.83220134 92009.05200638 221914.58217438002 91683.66950086 Z" visibility="visible"></path>
              </g>
              <g></g>
            </g>
          </g>
        </g>
        <g id="g1120df3d0b8_0_18365">
          <g>
            <g>
              <path fill="#F29BC3" fill-opacity="1" d="M 221914.58217438002 91683.66950086 C 222213.79434876 91638.63265192001 222507.96057758 91717.70321766 222792.34016312 91952.43173604002 225143.14160052 93892.39024624001 220641.49780662 107625.87083374002 220641.49780662 107625.87083374002 220641.49780662 107625.87083374002 208670.01685268 95897.47870416 211842.2117892 93837.83180500001 212165.7018498 93623.09543320001 212481.57922458 93499.64376466001 212787.74982162 93453.55954714002 215522.409927 93041.94369520001 217409.87465688 98775.80077516001 217409.87465688 98775.80077516001 217409.87465688 98775.80077516001 219752.83220134 92009.05200638 221914.58217438002 91683.66950086 Z"></path>
            </g>
          </g>
        </g>
      </g>
      <g id="g1120df3d0b8_0_18369">
        <g id="g1120df3d0b8_0_18367">
          <g id="shapeWithShadow-639">
            <g filter="url(#shadowFilter-e69_351)">
              <use transform="matrix(1,0,0,1,0,762)" visibility="hidden" pointer-events="none" xlink:href="#639"></use>
            </g>
            <g id="639">
              <g>
                <path fill="#FFFFFF" fill-opacity="1" stroke="#FFFFFF" stroke-opacity="1" stroke-width="3048" stroke-linecap="butt" stroke-linejoin="round" stroke-miterlimit="8" d="M 247311.09144121 42888.60121075 C 247621.9427038 42930.86477254 247891.65390377 43095.15835603 248106.32547590003 43411.49802988 249881.00935576 46026.090719859996 241404.60792373001 58382.08484527 241404.60792373001 58382.08484527 241404.60792373001 58382.08484527 232905.16325864 43227.183005139996 236661.21252334001 42100.84194052 237045.61006804003 41981.30410402 237395.86576747 41950.38761113 237713.94612919 41993.634046449995 240554.98208728002 42379.90334374 240764.46741538 48634.93711036 240764.46741538 48634.93711036 240764.46741538 48634.93711036 245065.25131149002 42583.25516743 247311.09144121 42888.60121075 Z" visibility="visible"></path>
              </g>
              <g></g>
            </g>
          </g>
        </g>
        <g id="g1120df3d0b8_0_18368">
          <g>
            <g>
              <path fill="#F2B87E" fill-opacity="1" d="M 247311.09144121 42888.60121075 C 247621.9427038 42930.86477254 247891.65390377 43095.15835603 248106.32547590003 43411.49802988 249881.00935576 46026.090719859996 241404.60792373001 58382.08484527 241404.60792373001 58382.08484527 241404.60792373001 58382.08484527 232905.16325864 43227.183005139996 236661.21252334001 42100.84194052 237045.61006804003 41981.30410402 237395.86576747 41950.38761113 237713.94612919 41993.634046449995 240554.98208728002 42379.90334374 240764.46741538 48634.93711036 240764.46741538 48634.93711036 240764.46741538 48634.93711036 245065.25131149002 42583.25516743 247311.09144121 42888.60121075 Z"></path>
            </g>
          </g>
        </g>
      </g>
      <g id="g1120df3d0b8_0_18370">
        <g>
          <g>
            <path fill="#8FDDEF" fill-opacity="1" d="M 75273.488 73227 C 70715.2928 73227 66145.616 73337.449 61586.422399999996 73603.737 58013.648 73792.862 54316.0736 73413.099 50743.2992 74806.572 50618 74870.118 50659.9328 75502.552 50764.2656 75502.552 51822.5696 75752.197 52887.3632 75838.438 53954.1536 75838.438 56132.1632 75838.438 58319.6576 75481.37 60479.1968 75439.006 63779.9072 75313.427 67081.1168 75249.881 70381.8272 75186.335 71461.5968 75175.744 72540.86720000001 75169.692 73620.1376 75169.692 79017.488 75169.692 84414.33919999999 75302.836 89811.6896 75566.098 93530.72959999999 75756.736 97249.27040000001 76136.499 100989.27679999999 76198.532 101323.24160000001 76198.532 101344.208 74615.934 100989.27679999999 74615.934 94407.824 73540.191 87805.904 73413.099 81203.984 73286.007 79230.6464 73248.182 77253.3152 73227 75273.488 73227 Z"></path>
          </g>
        </g>
      </g>
      <g id="g1120df3d0b8_0_18372">
        <g>
          <g>
            <path fill="#F2B87E" fill-opacity="1" d="M 329119.8896 147735.8787 C 328921.6436 147735.8787 328719.1112 147820.5351 328569.0872 148024.1391 323725.4552 154975.6083 318971.8376 161882.07030000002 316595.0288 170133.3903 316416.0716 170922.0879 317065.4612 171623.9859 317792.006 171623.9859 317975.2496 171623.9859 318162.7796 171578.9787 318343.88 171479.3199 322470.6116 169506.5043 325161.3992 165245.82270000002 329377.0736 163540.9071 L 329377.0736 163540.9071 C 329242.052 170447.3691 323142.5048 176501.90910000002 325295.3492 183588.39990000002 325436.8004 184097.4099 325882.586 184374.9543 326348.732 184374.9543 326621.99 184374.9543 326902.7492 184280.65350000001 327134.2148 184081.3359 330497.9672 181076.5695 333233.762 177578.8671 335969.5568 173991.1503 337404.4292 172017.2631 338884.3088 170089.4547 340454.2028 168205.58190000002 341934.0824 166456.73070000001 343682.9336 164976.8511 345162.8132 163226.9283 345724.3316 162628.9755 345287.1188 161719.1871 344606.6528 161719.1871 344470.5596 161719.1871 344325.8936 161754.5499 344176.9412 161837.0631 340499.21 164079.92190000002 337763.4152 168339.5319 335206.5776 171748.2915 332650.8116 175112.04390000002 330228.9956 178475.79630000002 327179.222 181211.59110000002 326775.2288 174619.1079 332470.7828 168788.53230000002 331663.868 161972.0847 331625.2904 161308.7643 331077.7028 160815.8283 330434.7428 160815.8283 330338.2988 160815.8283 330238.64 160826.5443 330138.9812 160850.1195 325923.3068 161837.0631 323142.5048 165200.8155 319823.7596 167712.6459 322111.6256 160940.13390000002 325923.3068 154706.6367 329691.0524 148652.0967 330002.888 148182.7359 329575.3196 147735.8787 329119.8896 147735.8787 Z"></path>
          </g>
        </g>
      </g>
      <g id="g1151fbece90_0_54">
        <g id="g1120df3d0b8_0_18373">
          <g id="shapeWithShadow-640">
            <g filter="url(#shadowFilter-e69_376)">
              <use transform="matrix(1,0,0,1,0,762)" visibility="hidden" pointer-events="none" xlink:href="#640"></use>
            </g>
            <g id="640">
              <g>
                <path fill="#8FDDEF" fill-opacity="1" stroke="#FFFFFF" stroke-opacity="1" stroke-width="3048" stroke-linecap="butt" stroke-linejoin="round" stroke-miterlimit="8" d="M 211670.26357076 25850.279239050004 C 211976.79152735003 25783.580931990004 212286.43821772002 25845.618717530004 212596.41904675 26069.352180530004 215158.82384651 27918.406888710004 211424.37277328002 42429.04590777001 211424.37277328002 42429.04590777001 211424.37277328002 42429.04590777001 198251.05161739 31099.66921079 201394.49696819 28755.685329570002 201714.73941389003 28511.790741570003 202033.23969692 28362.847521630003 202346.89621064003 28294.598091150005 205148.41916273002 27685.006587090003 207486.39406373003 33490.22429931001 207486.39406373003 33490.22429931001 207486.39406373003 33490.22429931001 209455.65848904 26332.161581530003 211670.26357076 25850.279239050004 Z" visibility="visible"></path>
              </g>
              <g></g>
            </g>
          </g>
        </g>
        <g id="g1120df3d0b8_0_18374">
          <g>
            <g>
              <path fill="#8FDDEF" fill-opacity="1" d="M 211670.74610000002 25850.229000000003 C 211977.2759 25783.536 212286.92250000002 25845.5806 212596.9008 26069.3227 215159.28470000002 27918.448800000002 211424.60450000002 42429.177 211424.60450000002 42429.177 211424.60450000002 42429.177 198251.41830000002 31099.412800000002 201394.9076 28755.4647 201715.1546 28511.5737 202033.658 28362.635100000003 202347.3164 28294.3911 205148.8562 27684.848100000003 207486.7499 33490.177200000006 207486.7499 33490.177200000006 207486.7499 33490.177200000006 209456.1277 26332.073 211670.74610000002 25850.229000000003 Z"></path>
            </g>
          </g>
        </g>
      </g>
    </g>
  </g>
</svg>
