<svg xmlns="http://www.w3.org/2000/svg" version="1.1" fill-rule="evenodd" fill="none" stroke="none" stroke-linecap="square" stroke-miterlimit="10" overflow="hidden" preserveAspectRatio="none" width="100%" height="100%" viewBox="0 0 365760 205740" style="line-height: normal;">
    <g transform="translate(0 0) scale(1)">
        <!-- <rect width="100%" height="100%" fill="#FFFDF5"></rect> -->
        <g>
            <!-- Horizontal lines -->
            <path stroke="#EFEFEF" stroke-opacity="1" stroke-width="381" d="M 35981.9791 18148 L 353482.1455 18148"></path>
            <path stroke="#EFEFEF" stroke-opacity="1" stroke-width="381" d="M 35981.9791 26627.4 L 353482.1455 26627.4"></path>
            <path stroke="#EFEFEF" stroke-opacity="1" stroke-width="381" d="M 35981.9791 35106.8 L 353482.1455 35106.8"></path>
            <path stroke="#EFEFEF" stroke-opacity="1" stroke-width="381" d="M 35981.9791 43586.2 L 353482.1455 43586.2"></path>
            <path stroke="#EFEFEF" stroke-opacity="1" stroke-width="381" d="M 35981.9791 52065.6 L 353482.1455 52065.6"></path>
            <path stroke="#EFEFEF" stroke-opacity="1" stroke-width="381" d="M 35981.9791 60545 L 353482.1455 60545"></path>
            <path stroke="#EFEFEF" stroke-opacity="1" stroke-width="381" d="M 35981.9791 69024.4 L 353482.1455 69024.4"></path>
            <path stroke="#EFEFEF" stroke-opacity="1" stroke-width="381" d="M 35981.9791 77503.8 L 353482.1455 77503.8"></path>
            <path stroke="#EFEFEF" stroke-opacity="1" stroke-width="381" d="M 35981.9791 85983.2 L 353482.1455 85983.2"></path>
            <path stroke="#EFEFEF" stroke-opacity="1" stroke-width="381" d="M 35981.9791 94462.6 L 353482.1455 94462.6"></path>
            <path stroke="#EFEFEF" stroke-opacity="1" stroke-width="381" d="M 35981.9791 102942 L 353482.1455 102942"></path>
            <path stroke="#EFEFEF" stroke-opacity="1" stroke-width="381" d="M 35981.9791 111421.4 L 353482.1455 111421.4"></path>
            <path stroke="#EFEFEF" stroke-opacity="1" stroke-width="381" d="M 35981.9791 119900.8 L 353482.1455 119900.8"></path>
            <path stroke="#EFEFEF" stroke-opacity="1" stroke-width="381" d="M 35981.9791 128380.2 L 353482.1455 128380.2"></path>
            <path stroke="#EFEFEF" stroke-opacity="1" stroke-width="381" d="M 35981.9791 136859.6 L 353482.1455 136859.6"></path>
            <path stroke="#EFEFEF" stroke-opacity="1" stroke-width="381" d="M 35981.9791 145339 L 353482.1455 145339"></path>
            <path stroke="#EFEFEF" stroke-opacity="1" stroke-width="381" d="M 35981.9791 153818.4 L 353482.1455 153818.4"></path>
            <path stroke="#EFEFEF" stroke-opacity="1" stroke-width="381" d="M 35981.9791 162297.8 L 353482.1455 162297.8"></path>
            <path stroke="#EFEFEF" stroke-opacity="1" stroke-width="381" d="M 35981.9791 170777.2 L 353482.1455 170777.2"></path>
            <path stroke="#EFEFEF" stroke-opacity="1" stroke-width="381" d="M 35981.9791 179256.6 L 353482.1455 179256.6"></path>
            <path stroke="#EFEFEF" stroke-opacity="1" stroke-width="381" d="M 35981.9791 187736 L 353482.1455 187736"></path>
            <!-- Vertical margin line -->
            <path stroke="#F198C5" stroke-width="1143" d="M 35981.9065 9618.9071 L 35981.9065 196110.9071"></path>
        </g>
    </g>
</svg>
