<svg xmlns="http://www.w3.org/2000/svg"
	xmlns:xlink="http://www.w3.org/1999/xlink" version="1.1" fill-rule="evenodd" fill="none" stroke="none" stroke-linecap="square" stroke-miterlimit="10" overflow="hidden" preserveAspectRatio="none" width="100%" height="100%" viewBox="0 0 365760 205740" style="line-height: normal;">

	<g transform="translate(0 0) scale(1)" id="g2fb0d889b2b_0_364">
		<defs cursor="default">
			<filter id="shadowFilter-e79_13" filterUnits="userSpaceOnUse" x="9813.5051" y="7918.592500000001" width="346135.0384" height="191426.815">
				<feGaussianBlur in="SourceAlpha" stdDeviation="762" result="blur"></feGaussianBlur>
				<feComponentTransfer color-interpolation-filters="sRGB">
					<feFuncR type="linear" slope="0" intercept="0.21568627450980393"></feFuncR>
					<feFuncG type="linear" slope="0" intercept="0.17647058823529413"></feFuncG>
					<feFuncB type="linear" slope="0" intercept="0.19215686274509805"></feFuncB>
					<feFuncA type="linear" slope="0.5" intercept="0"></feFuncA>
				</feComponentTransfer>
			</filter>
			<filter id="shadowFilter-e79_144" filterUnits="userSpaceOnUse" x="323384.5724808022" y="21693.5" width="21946.9317752223" height="22444.021">
				<feGaussianBlur in="SourceAlpha" stdDeviation="381" result="blur"></feGaussianBlur>
				<feComponentTransfer color-interpolation-filters="sRGB">
					<feFuncR type="linear" slope="0" intercept="0"></feFuncR>
					<feFuncG type="linear" slope="0" intercept="0"></feFuncG>
					<feFuncB type="linear" slope="0" intercept="0"></feFuncB>
					<feFuncA type="linear" slope="0.2" intercept="0"></feFuncA>
				</feComponentTransfer>
			</filter>
		</defs>
		<g id="shapeWithShadow-425">
			<g filter="url(#shadowFilter-e79_13)">
				<use transform="matrix(1,0,0,1,0,762)" visibility="hidden" pointer-events="none" xlink:href="#425"></use>
			</g>
			<g id="425">
				<path fill="#FFFDF5" fill-opacity="1" d="M 23422.0975 17716.8681 C 26265.5543 17716.8681 28539.5003 19992.862699999998 28539.5003 22836.319499999998 28539.5003 25679.776299999998 26224.582300000002 27994.6943 23422.0975 27994.6943 20576.5921 27994.6943 18302.646099999998 25679.776299999998 18302.646099999998 22836.319499999998 18302.646099999998 19992.862699999998 20576.5921 17716.8681 23422.0975 17716.8681 Z M 23422.0975 33724.6285 C 26265.5543 33724.6285 28539.5003 35998.5745 28539.5003 38842.0313 28500.5769 41687.5367 26224.582300000002 43961.48269999999 23422.0975 43961.48269999999 20576.5921 43961.48269999999 18302.646099999998 41687.5367 18302.646099999998 38842.0313 18302.646099999998 35998.5745 20576.5921 33724.6285 23422.0975 33724.6285 Z M 23422.0975 49730.340299999996 C 26265.5543 49730.340299999996 28539.5003 52006.3349 28539.5003 54849.7917 28539.5003 57693.2485 26224.582300000002 59969.24310000001 23422.0975 59969.24310000001 20576.5921 59969.24310000001 18302.646099999998 57693.2485 18302.646099999998 54849.7917 18302.646099999998 52006.3349 20576.5921 49730.340299999996 23422.0975 49730.340299999996 Z M 23422.0975 65697.1287 C 26265.5543 65697.1287 28539.5003 68012.0467 28539.5003 70855.5035 28500.5769 73701.0089 26224.582300000002 75974.9549 23422.0975 75974.9549 20576.5921 75974.9549 18302.646099999998 73701.0089 18302.646099999998 70855.5035 18302.646099999998 68012.0467 20576.5921 65697.1287 23422.0975 65697.1287 Z M 23422.0975 81702.8405 C 26265.5543 81702.8405 28539.5003 83978.8351 28539.5003 86822.2919 28539.5003 89665.7487 26224.582300000002 91982.7153 23422.0975 91982.7153 20576.5921 91982.7153 18302.646099999998 89665.7487 18302.646099999998 86822.2919 18302.646099999998 83978.8351 20576.5921 81702.8405 23422.0975 81702.8405 Z M 23422.0975 97710.6009 C 26265.5543 97710.6009 28539.5003 99984.5469 28539.5003 102830.05230000001 28500.5769 105673.50910000001 26224.582300000002 107947.4551 23422.0975 107947.4551 20576.5921 107947.4551 18302.646099999998 105673.50910000001 18302.646099999998 102830.05230000001 18302.646099999998 99984.5469 20576.5921 97710.6009 23422.0975 97710.6009 Z M 23422.0975 113757.2847 C 26265.5543 113757.2847 28539.5003 116033.27930000001 28539.5003 118876.73610000001 28539.5003 121720.19290000001 26224.582300000002 123996.1875 23422.0975 123996.1875 20576.5921 123996.1875 18302.646099999998 121720.19290000001 18302.646099999998 118876.73610000001 18302.646099999998 116033.27930000001 20576.5921 113757.2847 23422.0975 113757.2847 Z M 23422.0975 129724.07310000001 C 26265.5543 129724.07310000001 28539.5003 132038.99109999998 28539.5003 134882.4479 28500.5769 137727.9533 26224.582300000002 140001.8993 23422.0975 140001.8993 20576.5921 140001.8993 18302.646099999998 137727.9533 18302.646099999998 134882.4479 18302.646099999998 132038.99109999998 20576.5921 129724.07310000001 23422.0975 129724.07310000001 Z M 23422.0975 145729.7849 C 26265.5543 145729.7849 28539.5003 148005.77949999998 28539.5003 150890.2083 28539.5003 153733.66509999998 26224.582300000002 156009.6597 23422.0975 156009.6597 20576.5921 156009.6597 18302.646099999998 153733.66509999998 18302.646099999998 150890.2083 18302.646099999998 148005.77949999998 20576.5921 145729.7849 23422.0975 145729.7849 Z M 23422.0975 161737.5453 C 26265.5543 161737.5453 28539.5003 164011.4913 28539.5003 166856.9967 28539.5003 169700.45349999997 26224.582300000002 172015.37149999998 23422.0975 172015.37149999998 20576.5921 172015.37149999998 18302.646099999998 169700.45349999997 18302.646099999998 166856.9967 18302.646099999998 164011.4913 20576.5921 161737.5453 23422.0975 161737.5453 Z M 23422.0975 177743.2571 C 26265.5543 177743.2571 28539.5003 180019.2517 28539.5003 182862.70849999998 28500.5769 185706.1653 26224.582300000002 187982.1599 23422.0975 187982.1599 20576.5921 187982.1599 18302.646099999998 185706.1653 18302.646099999998 182862.70849999998 18302.646099999998 180019.2517 20576.5921 177743.2571 23422.0975 177743.2571 Z M 23989.559699999998 9633.0925 C 17571.2959 9633.0925 12290.0051 14873.4113 12290.0051 21332.647100000002 L 12290.0051 184448.32489999998 C 12290.0051 190825.61669999998 17530.3239 196106.9075 23989.559699999998 196106.9075 L 341770.4403 196106.9075 C 348190.75269999995 196106.9075 353472.0435 190907.5607 353472.0435 184448.32489999998 L 353472.0435 21332.647100000002 C 353472.0435 14873.4113 348190.75269999995 9633.0925 341770.4403 9633.0925 Z" visibility="visible"></path>
			</g>
		</g>
		<path stroke="#EFEFEF" stroke-opacity="1" stroke-width="381" stroke-linecap="butt" stroke-linejoin="round" stroke-miterlimit="8" d="M 35981.9791 18148.000200000002 L 352901.4031 18148.000200000002"></path>
		<path stroke="#EFEFEF" stroke-opacity="1" stroke-width="381" stroke-linecap="butt" stroke-linejoin="round" stroke-miterlimit="8" d="M 35981.9791 26627.40047 L 353482.1455 26627.40047"></path>
		<path stroke="#EFEFEF" stroke-opacity="1" stroke-width="381" stroke-linecap="butt" stroke-linejoin="round" stroke-miterlimit="8" d="M 35981.9791 35106.80074 L 353482.1455 35106.80074"></path>
		<path stroke="#EFEFEF" stroke-opacity="1" stroke-width="381" stroke-linecap="butt" stroke-linejoin="round" stroke-miterlimit="8" d="M 35981.9791 43586.20101 L 353482.1455 43586.20101"></path>
		<path stroke="#EFEFEF" stroke-opacity="1" stroke-width="381" stroke-linecap="butt" stroke-linejoin="round" stroke-miterlimit="8" d="M 35981.9791 52065.60128 L 353482.1455 52065.60128"></path>
		<path stroke="#EFEFEF" stroke-opacity="1" stroke-width="381" stroke-linecap="butt" stroke-linejoin="round" stroke-miterlimit="8" d="M 35981.9791 60545.00155 L 353482.1455 60545.00155"></path>
		<path stroke="#EFEFEF" stroke-opacity="1" stroke-width="381" stroke-linecap="butt" stroke-linejoin="round" stroke-miterlimit="8" d="M 35981.9791 69024.40182 L 353482.1455 69024.40182"></path>
		<path stroke="#EFEFEF" stroke-opacity="1" stroke-width="381" stroke-linecap="butt" stroke-linejoin="round" stroke-miterlimit="8" d="M 35981.9791 77503.80209000001 L 353482.1455 77503.80209000001"></path>
		<path stroke="#EFEFEF" stroke-opacity="1" stroke-width="381" stroke-linecap="butt" stroke-linejoin="round" stroke-miterlimit="8" d="M 35981.9791 85983.20236 L 353482.1455 85983.20236"></path>
		<path stroke="#EFEFEF" stroke-opacity="1" stroke-width="381" stroke-linecap="butt" stroke-linejoin="round" stroke-miterlimit="8" d="M 35981.9791 94462.60263000001 L 353482.1455 94462.60263000001"></path>
		<path stroke="#EFEFEF" stroke-opacity="1" stroke-width="381" stroke-linecap="butt" stroke-linejoin="round" stroke-miterlimit="8" d="M 35981.9791 102942.0029 L 353482.1455 102942.0029"></path>
		<path stroke="#EFEFEF" stroke-opacity="1" stroke-width="381" stroke-linecap="butt" stroke-linejoin="round" stroke-miterlimit="8" d="M 35981.9791 111421.40317 L 353482.1455 111421.40317"></path>
		<path stroke="#EFEFEF" stroke-opacity="1" stroke-width="381" stroke-linecap="butt" stroke-linejoin="round" stroke-miterlimit="8" d="M 35981.9791 119900.80344 L 353482.1455 119900.80344"></path>
		<path stroke="#EFEFEF" stroke-opacity="1" stroke-width="381" stroke-linecap="butt" stroke-linejoin="round" stroke-miterlimit="8" d="M 35981.9791 128380.20371000002 L 353482.1455 128380.20371000002"></path>
		<path stroke="#EFEFEF" stroke-opacity="1" stroke-width="381" stroke-linecap="butt" stroke-linejoin="round" stroke-miterlimit="8" d="M 35981.9791 136859.60398 L 353482.1455 136859.60398"></path>
		<path stroke="#EFEFEF" stroke-opacity="1" stroke-width="381" stroke-linecap="butt" stroke-linejoin="round" stroke-miterlimit="8" d="M 35981.9791 145339.00425 L 353482.1455 145339.00425"></path>
		<path stroke="#EFEFEF" stroke-opacity="1" stroke-width="381" stroke-linecap="butt" stroke-linejoin="round" stroke-miterlimit="8" d="M 35981.9791 153818.40451999998 L 353482.1455 153818.40451999998"></path>
		<path stroke="#EFEFEF" stroke-opacity="1" stroke-width="381" stroke-linecap="butt" stroke-linejoin="round" stroke-miterlimit="8" d="M 35981.9791 162297.80479000002 L 353482.1455 162297.80479000002"></path>
		<path stroke="#EFEFEF" stroke-opacity="1" stroke-width="381" stroke-linecap="butt" stroke-linejoin="round" stroke-miterlimit="8" d="M 35981.9791 170777.20506 L 353482.1455 170777.20506"></path>
		<path stroke="#EFEFEF" stroke-opacity="1" stroke-width="381" stroke-linecap="butt" stroke-linejoin="round" stroke-miterlimit="8" d="M 35981.9791 179256.60533 L 353482.1455 179256.60533"></path>
		<path stroke="#EFEFEF" stroke-opacity="1" stroke-width="381" stroke-linecap="butt" stroke-linejoin="round" stroke-miterlimit="8" d="M 35981.9791 187736.00560000003 L 352953.2551 187736.00560000003"></path>
		<path stroke="#F198C5" stroke-opacity="1" stroke-width="1143" stroke-linecap="butt" stroke-linejoin="round" stroke-miterlimit="8" d="M 35981.9065 9618.9071 L 35981.9065 196110.9071"></path>
	</g>
</svg>