<?xml version="1.0" encoding="UTF-8"?>
<!DOCTYPE svg PUBLIC "-//W3C//DTD SVG 1.1//EN" "http://www.w3.org/Graphics/SVG/1.1/DTD/svg11.dtd">
<svg version="1.2" viewBox="12476 491 12433 3070" preserveAspectRatio="xMidYMid" fill-rule="evenodd" stroke-width="28.222" stroke-linejoin="round" xmlns="http://www.w3.org/2000/svg" xmlns:ooo="http://xml.openoffice.org/svg/export" xmlns:xlink="http://www.w3.org/1999/xlink" xmlns:presentation="http://sun.com/xmlns/staroffice/presentation" xmlns:smil="http://www.w3.org/2001/SMIL20/" xmlns:anim="urn:oasis:names:tc:opendocument:xmlns:animation:1.0" xmlns:svg="urn:oasis:names:tc:opendocument:xmlns:svg-compatible:1.0" xml:space="preserve">
 <defs class="EmbeddedBulletChars">
  <g id="bullet-char-template-57356" transform="scale(0.00048828125,-0.00048828125)">
   <path d="M 580,1141 L 1163,571 580,0 -4,571 580,1141 Z"/>
  </g>
  <g id="bullet-char-template-57354" transform="scale(0.00048828125,-0.00048828125)">
   <path d="M 8,1128 L 1137,1128 1137,0 8,0 8,1128 Z"/>
  </g>
  <g id="bullet-char-template-10146" transform="scale(0.00048828125,-0.00048828125)">
   <path d="M 174,0 L 602,739 174,1481 1456,739 174,0 Z M 1358,739 L 309,1346 659,739 1358,739 Z"/>
  </g>
  <g id="bullet-char-template-10132" transform="scale(0.00048828125,-0.00048828125)">
   <path d="M 2015,739 L 1276,0 717,0 1260,543 174,543 174,936 1260,936 717,1481 1274,1481 2015,739 Z"/>
  </g>
  <g id="bullet-char-template-10007" transform="scale(0.00048828125,-0.00048828125)">
   <path d="M 0,-2 C -7,14 -16,27 -25,37 L 356,567 C 262,823 215,952 215,954 215,979 228,992 255,992 264,992 276,990 289,987 310,991 331,999 354,1012 L 381,999 492,748 772,1049 836,1024 860,1049 C 881,1039 901,1025 922,1006 886,937 835,863 770,784 769,783 710,716 594,584 L 774,223 C 774,196 753,168 711,139 L 727,119 C 717,90 699,76 672,76 641,76 570,178 457,381 L 164,-76 C 142,-110 111,-127 72,-127 30,-127 9,-110 8,-76 1,-67 -2,-52 -2,-32 -2,-23 -1,-13 0,-2 Z"/>
  </g>
  <g id="bullet-char-template-10004" transform="scale(0.00048828125,-0.00048828125)">
   <path d="M 285,-33 C 182,-33 111,30 74,156 52,228 41,333 41,471 41,549 55,616 82,672 116,743 169,778 240,778 293,778 328,747 346,684 L 369,508 C 377,444 397,411 428,410 L 1163,1116 C 1174,1127 1196,1133 1229,1133 1271,1133 1292,1118 1292,1087 L 1292,965 C 1292,929 1282,901 1262,881 L 442,47 C 390,-6 338,-33 285,-33 Z"/>
  </g>
  <g id="bullet-char-template-9679" transform="scale(0.00048828125,-0.00048828125)">
   <path d="M 813,0 C 632,0 489,54 383,161 276,268 223,411 223,592 223,773 276,916 383,1023 489,1130 632,1184 813,1184 992,1184 1136,1130 1245,1023 1353,916 1407,772 1407,592 1407,412 1353,268 1245,161 1136,54 992,0 813,0 Z"/>
  </g>
  <g id="bullet-char-template-8226" transform="scale(0.00048828125,-0.00048828125)">
   <path d="M 346,457 C 273,457 209,483 155,535 101,586 74,649 74,723 74,796 101,859 155,911 209,963 273,989 346,989 419,989 480,963 531,910 582,859 608,796 608,723 608,648 583,586 532,535 482,483 420,457 346,457 Z"/>
  </g>
  <g id="bullet-char-template-8211" transform="scale(0.00048828125,-0.00048828125)">
   <path d="M -4,459 L 1135,459 1135,606 -4,606 -4,459 Z"/>
  </g>
  <g id="bullet-char-template-61548" transform="scale(0.00048828125,-0.00048828125)">
   <path d="M 173,740 C 173,903 231,1043 346,1159 462,1274 601,1332 765,1332 928,1332 1067,1274 1183,1159 1299,1043 1357,903 1357,740 1357,577 1299,437 1183,322 1067,206 928,148 765,148 601,148 462,206 346,322 231,437 173,577 173,740 Z"/>
  </g>
 </defs>
 <g ooo:name="Attendance" class="Page">
  <g class="Group">
   <g class="com.sun.star.drawing.CustomShape">
    <g id="id3">
     <rect class="BoundingBox" stroke="none" fill="none" x="12476" y="491" width="12433" height="3070"/>
     <g style="opacity: 0.2">
      <path fill="rgb(55,45,49)" stroke="none" d="M 24702,709 C 24693,709 24685,711 24677,715 24315,917 23947,1102 23566,1264 L 23556,1244 22718,1587 C 22639,1613 22561,1638 22481,1663 22442,1676 22406,1685 22367,1698 L 22347,1655 21412,1912 21419,1938 C 21291,1963 21160,1987 21028,2009 L 21026,1980 20054,2041 20063,2135 C 19938,2146 19811,2155 19686,2163 L 19680,2094 18709,2080 18708,2181 C 18557,2177 18407,2172 18256,2163 L 18257,2121 17290,2022 17286,2077 C 17146,2060 17006,2038 16865,2017 L 16869,1925 15910,1772 15899,1829 C 15758,1796 15622,1764 15488,1727 L 15491,1701 14567,1410 14552,1455 C 14390,1404 14236,1351 14097,1300 L 14110,1248 13222,859 13188,941 C 12882,803 12710,710 12707,710 12700,706 12692,704 12685,704 12668,704 12650,714 12641,728 12628,754 12637,784 12660,798 12664,798 12838,891 13151,1031 L 12754,2000 C 12737,2039 12767,2075 12805,2075 12811,2075 12818,2075 12825,2073 L 13305,1872 C 13311,1870 13318,1868 13325,1868 13345,1869 13364,1880 13373,1899 L 13645,2431 C 13656,2450 13675,2459 13694,2459 13717,2460 13740,2447 13747,2422 L 14066,1401 C 14206,1451 14360,1502 14525,1556 L 14222,2597 C 14212,2635 14239,2668 14271,2668 14280,2668 14290,2666 14300,2660 L 14757,2411 C 14766,2407 14775,2405 14784,2405 14802,2405 14818,2413 14829,2431 L 15158,2928 C 15168,2945 15184,2953 15201,2954 15225,2954 15249,2938 15256,2909 L 15467,1829 C 15605,1862 15741,1897 15885,1927 L 15739,2987 C 15733,3022 15761,3048 15792,3048 15803,3048 15815,3045 15826,3037 L 16242,2724 C 16252,2717 16264,2712 16275,2712 16289,2712 16303,2719 16314,2732 L 16712,3177 C 16723,3190 16738,3196 16752,3196 16779,3197 16804,3177 16806,3146 L 16858,2111 C 16998,2133 17138,2154 17279,2172 L 17191,3248 C 17189,3282 17216,3306 17245,3306 17258,3306 17271,3301 17283,3291 L 17678,2957 C 17687,2948 17699,2944 17711,2944 17725,2944 17740,2949 17750,2961 L 18175,3383 C 18184,3395 18198,3401 18211,3401 18238,3401 18266,3378 18266,3345 L 18255,2264 18255,2264 C 18409,2273 18560,2278 18710,2279 L 18721,3311 C 18721,3344 18747,3365 18774,3365 18787,3365 18801,3359 18813,3348 L 19179,2977 C 19190,2967 19204,2962 19217,2962 19230,2962 19242,2966 19251,2975 L 19712,3358 C 19722,3367 19734,3372 19745,3372 19774,3373 19802,3346 19800,3314 L 19698,2262 C 19822,2253 19947,2244 20072,2233 L 20154,3265 C 20159,3295 20183,3313 20210,3313 20225,3314 20241,3309 20253,3296 L 20587,2902 C 20598,2888 20613,2882 20629,2882 20640,2882 20651,2885 20662,2893 L 21149,3244 C 21158,3250 21169,3253 21179,3253 21210,3254 21239,3226 21231,3189 L 21044,2107 C 21178,2085 21313,2058 21447,2029 L 21769,3091 C 21776,3116 21799,3129 21821,3130 21840,3130 21858,3121 21867,3102 L 22114,2644 C 22124,2625 22143,2615 22163,2616 22170,2616 22176,2617 22183,2619 L 22733,2860 C 22741,2864 22748,2865 22755,2865 22790,2866 22819,2831 22806,2793 L 22402,1789 C 22438,1780 22474,1767 22507,1757 22569,1739 22632,1720 22694,1698 L 23150,2741 C 23159,2762 23180,2773 23200,2773 23222,2774 23243,2762 23251,2739 L 23440,2255 C 23448,2233 23470,2220 23494,2221 23499,2221 23504,2222 23509,2223 L 24079,2396 C 24084,2397 24089,2398 24094,2398 24133,2399 24163,2356 24142,2318 L 23614,1349 C 23992,1187 24363,1005 24725,801 24748,788 24756,759 24742,733 24734,718 24718,709 24702,709 L 24702,709 Z "/>
      <path fill="none" stroke="rgb(55,45,49)" stroke-width="318" stroke-linejoin="round" d="M 24702,709 C 24693,709 24685,711 24677,715 24315,917 23947,1102 23566,1264 L 23556,1244 22718,1587 C 22639,1613 22561,1638 22481,1663 22442,1676 22406,1685 22367,1698 L 22347,1655 21412,1912 21419,1938 C 21291,1963 21160,1987 21028,2009 L 21026,1980 20054,2041 20063,2135 C 19938,2146 19811,2155 19686,2163 L 19680,2094 18709,2080 18708,2181 C 18557,2177 18407,2172 18256,2163 L 18257,2121 17290,2022 17286,2077 C 17146,2060 17006,2038 16865,2017 L 16869,1925 15910,1772 15899,1829 C 15758,1796 15622,1764 15488,1727 L 15491,1701 14567,1410 14552,1455 C 14390,1404 14236,1351 14097,1300 L 14110,1248 13222,859 13188,941 C 12882,803 12710,710 12707,710 12700,706 12692,704 12685,704 12668,704 12650,714 12641,728 12628,754 12637,784 12660,798 12664,798 12838,891 13151,1031 L 12754,2000 C 12737,2039 12767,2075 12805,2075 12811,2075 12818,2075 12825,2073 L 13305,1872 C 13311,1870 13318,1868 13325,1868 13345,1869 13364,1880 13373,1899 L 13645,2431 C 13656,2450 13675,2459 13694,2459 13717,2460 13740,2447 13747,2422 L 14066,1401 C 14206,1451 14360,1502 14525,1556 L 14222,2597 C 14212,2635 14239,2668 14271,2668 14280,2668 14290,2666 14300,2660 L 14757,2411 C 14766,2407 14775,2405 14784,2405 14802,2405 14818,2413 14829,2431 L 15158,2928 C 15168,2945 15184,2953 15201,2954 15225,2954 15249,2938 15256,2909 L 15467,1829 C 15605,1862 15741,1897 15885,1927 L 15739,2987 C 15733,3022 15761,3048 15792,3048 15803,3048 15815,3045 15826,3037 L 16242,2724 C 16252,2717 16264,2712 16275,2712 16289,2712 16303,2719 16314,2732 L 16712,3177 C 16723,3190 16738,3196 16752,3196 16779,3197 16804,3177 16806,3146 L 16858,2111 C 16998,2133 17138,2154 17279,2172 L 17191,3248 C 17189,3282 17216,3306 17245,3306 17258,3306 17271,3301 17283,3291 L 17678,2957 C 17687,2948 17699,2944 17711,2944 17725,2944 17740,2949 17750,2961 L 18175,3383 C 18184,3395 18198,3401 18211,3401 18238,3401 18266,3378 18266,3345 L 18255,2264 18255,2264 C 18409,2273 18560,2278 18710,2279 L 18721,3311 C 18721,3344 18747,3365 18774,3365 18787,3365 18801,3359 18813,3348 L 19179,2977 C 19190,2967 19204,2962 19217,2962 19230,2962 19242,2966 19251,2975 L 19712,3358 C 19722,3367 19734,3372 19745,3372 19774,3373 19802,3346 19800,3314 L 19698,2262 C 19822,2253 19947,2244 20072,2233 L 20154,3265 C 20159,3295 20183,3313 20210,3313 20225,3314 20241,3309 20253,3296 L 20587,2902 C 20598,2888 20613,2882 20629,2882 20640,2882 20651,2885 20662,2893 L 21149,3244 C 21158,3250 21169,3253 21179,3253 21210,3254 21239,3226 21231,3189 L 21044,2107 C 21178,2085 21313,2058 21447,2029 L 21769,3091 C 21776,3116 21799,3129 21821,3130 21840,3130 21858,3121 21867,3102 L 22114,2644 C 22124,2625 22143,2615 22163,2616 22170,2616 22176,2617 22183,2619 L 22733,2860 C 22741,2864 22748,2865 22755,2865 22790,2866 22819,2831 22806,2793 L 22402,1789 C 22438,1780 22474,1767 22507,1757 22569,1739 22632,1720 22694,1698 L 23150,2741 C 23159,2762 23180,2773 23200,2773 23222,2774 23243,2762 23251,2739 L 23440,2255 C 23448,2233 23470,2220 23494,2221 23499,2221 23504,2222 23509,2223 L 24079,2396 C 24084,2397 24089,2398 24094,2398 24133,2399 24163,2356 24142,2318 L 23614,1349 C 23992,1187 24363,1005 24725,801 24748,788 24756,759 24742,733 24734,718 24718,709 24702,709 Z "/>
     </g>
     <path fill="rgb(255,255,255)" stroke="none" d="M 24702,656 C 24693,656 24685,658 24677,662 24315,864 23947,1049 23566,1211 L 23556,1191 22718,1534 C 22639,1560 22561,1585 22481,1610 22442,1623 22406,1632 22367,1645 L 22347,1602 21412,1859 21419,1885 C 21291,1910 21160,1934 21028,1956 L 21026,1927 20054,1988 20063,2082 C 19938,2093 19811,2102 19686,2110 L 19680,2041 18709,2027 18708,2128 C 18557,2124 18407,2119 18256,2110 L 18257,2068 17290,1969 17286,2024 C 17146,2007 17006,1985 16865,1964 L 16869,1872 15910,1719 15899,1776 C 15758,1743 15622,1711 15488,1674 L 15491,1648 14567,1357 14552,1402 C 14390,1351 14236,1298 14097,1247 L 14110,1195 13222,806 13188,888 C 12882,750 12710,657 12707,657 12700,653 12692,651 12685,651 12668,651 12650,661 12641,675 12628,701 12637,731 12660,745 12664,745 12838,838 13151,978 L 12754,1947 C 12737,1986 12767,2022 12805,2022 12811,2022 12818,2022 12825,2020 L 13305,1819 C 13311,1817 13318,1815 13325,1815 13345,1816 13364,1827 13373,1846 L 13645,2378 C 13656,2397 13675,2406 13694,2406 13717,2407 13740,2394 13747,2369 L 14066,1348 C 14206,1398 14360,1449 14525,1503 L 14222,2544 C 14212,2582 14239,2615 14271,2615 14280,2615 14290,2613 14300,2607 L 14757,2358 C 14766,2354 14775,2352 14784,2352 14802,2352 14818,2360 14829,2378 L 15158,2875 C 15168,2892 15184,2900 15201,2901 15225,2901 15249,2885 15256,2856 L 15467,1776 C 15605,1809 15741,1844 15885,1874 L 15739,2934 C 15733,2969 15761,2995 15792,2995 15803,2995 15815,2992 15826,2984 L 16242,2671 C 16252,2664 16264,2659 16275,2659 16289,2659 16303,2666 16314,2679 L 16712,3124 C 16723,3137 16738,3143 16752,3143 16779,3144 16804,3124 16806,3093 L 16858,2058 C 16998,2080 17138,2101 17279,2119 L 17191,3195 C 17189,3229 17216,3253 17245,3253 17258,3253 17271,3248 17283,3238 L 17678,2904 C 17687,2895 17699,2891 17711,2891 17725,2891 17740,2896 17750,2908 L 18175,3330 C 18184,3342 18198,3348 18211,3348 18238,3348 18266,3325 18266,3292 L 18255,2211 18255,2211 C 18409,2220 18560,2225 18710,2226 L 18721,3258 C 18721,3291 18747,3312 18774,3312 18787,3312 18801,3306 18813,3295 L 19179,2924 C 19190,2914 19204,2909 19217,2909 19230,2909 19242,2913 19251,2922 L 19712,3305 C 19722,3314 19734,3319 19745,3319 19774,3320 19802,3293 19800,3261 L 19698,2209 C 19822,2200 19947,2191 20072,2180 L 20154,3212 C 20159,3242 20183,3260 20210,3260 20225,3261 20241,3256 20253,3243 L 20587,2849 C 20598,2835 20613,2829 20629,2829 20640,2829 20651,2832 20662,2840 L 21149,3191 C 21158,3197 21169,3200 21179,3200 21210,3201 21239,3173 21231,3136 L 21044,2054 C 21178,2032 21313,2005 21447,1976 L 21769,3038 C 21776,3063 21799,3076 21821,3077 21840,3077 21858,3068 21867,3049 L 22114,2591 C 22124,2572 22143,2562 22163,2563 22170,2563 22176,2564 22183,2566 L 22733,2807 C 22741,2811 22748,2812 22755,2812 22790,2813 22819,2778 22806,2740 L 22402,1736 C 22438,1727 22474,1714 22507,1704 22569,1686 22632,1667 22694,1645 L 23150,2688 C 23159,2709 23180,2720 23200,2720 23222,2721 23243,2709 23251,2686 L 23440,2202 C 23448,2180 23470,2167 23494,2168 23499,2168 23504,2169 23509,2170 L 24079,2343 C 24084,2344 24089,2345 24094,2345 24133,2346 24163,2303 24142,2265 L 23614,1296 C 23992,1134 24363,952 24725,748 24748,735 24756,706 24742,680 24734,665 24718,656 24702,656 L 24702,656 Z "/>
     <path fill="none" stroke="rgb(255,255,255)" stroke-width="318" stroke-linejoin="round" d="M 24702,656 C 24693,656 24685,658 24677,662 24315,864 23947,1049 23566,1211 L 23556,1191 22718,1534 C 22639,1560 22561,1585 22481,1610 22442,1623 22406,1632 22367,1645 L 22347,1602 21412,1859 21419,1885 C 21291,1910 21160,1934 21028,1956 L 21026,1927 20054,1988 20063,2082 C 19938,2093 19811,2102 19686,2110 L 19680,2041 18709,2027 18708,2128 C 18557,2124 18407,2119 18256,2110 L 18257,2068 17290,1969 17286,2024 C 17146,2007 17006,1985 16865,1964 L 16869,1872 15910,1719 15899,1776 C 15758,1743 15622,1711 15488,1674 L 15491,1648 14567,1357 14552,1402 C 14390,1351 14236,1298 14097,1247 L 14110,1195 13222,806 13188,888 C 12882,750 12710,657 12707,657 12700,653 12692,651 12685,651 12668,651 12650,661 12641,675 12628,701 12637,731 12660,745 12664,745 12838,838 13151,978 L 12754,1947 C 12737,1986 12767,2022 12805,2022 12811,2022 12818,2022 12825,2020 L 13305,1819 C 13311,1817 13318,1815 13325,1815 13345,1816 13364,1827 13373,1846 L 13645,2378 C 13656,2397 13675,2406 13694,2406 13717,2407 13740,2394 13747,2369 L 14066,1348 C 14206,1398 14360,1449 14525,1503 L 14222,2544 C 14212,2582 14239,2615 14271,2615 14280,2615 14290,2613 14300,2607 L 14757,2358 C 14766,2354 14775,2352 14784,2352 14802,2352 14818,2360 14829,2378 L 15158,2875 C 15168,2892 15184,2900 15201,2901 15225,2901 15249,2885 15256,2856 L 15467,1776 C 15605,1809 15741,1844 15885,1874 L 15739,2934 C 15733,2969 15761,2995 15792,2995 15803,2995 15815,2992 15826,2984 L 16242,2671 C 16252,2664 16264,2659 16275,2659 16289,2659 16303,2666 16314,2679 L 16712,3124 C 16723,3137 16738,3143 16752,3143 16779,3144 16804,3124 16806,3093 L 16858,2058 C 16998,2080 17138,2101 17279,2119 L 17191,3195 C 17189,3229 17216,3253 17245,3253 17258,3253 17271,3248 17283,3238 L 17678,2904 C 17687,2895 17699,2891 17711,2891 17725,2891 17740,2896 17750,2908 L 18175,3330 C 18184,3342 18198,3348 18211,3348 18238,3348 18266,3325 18266,3292 L 18255,2211 18255,2211 C 18409,2220 18560,2225 18710,2226 L 18721,3258 C 18721,3291 18747,3312 18774,3312 18787,3312 18801,3306 18813,3295 L 19179,2924 C 19190,2914 19204,2909 19217,2909 19230,2909 19242,2913 19251,2922 L 19712,3305 C 19722,3314 19734,3319 19745,3319 19774,3320 19802,3293 19800,3261 L 19698,2209 C 19822,2200 19947,2191 20072,2180 L 20154,3212 C 20159,3242 20183,3260 20210,3260 20225,3261 20241,3256 20253,3243 L 20587,2849 C 20598,2835 20613,2829 20629,2829 20640,2829 20651,2832 20662,2840 L 21149,3191 C 21158,3197 21169,3200 21179,3200 21210,3201 21239,3173 21231,3136 L 21044,2054 C 21178,2032 21313,2005 21447,1976 L 21769,3038 C 21776,3063 21799,3076 21821,3077 21840,3077 21858,3068 21867,3049 L 22114,2591 C 22124,2572 22143,2562 22163,2563 22170,2563 22176,2564 22183,2566 L 22733,2807 C 22741,2811 22748,2812 22755,2812 22790,2813 22819,2778 22806,2740 L 22402,1736 C 22438,1727 22474,1714 22507,1704 22569,1686 22632,1667 22694,1645 L 23150,2688 C 23159,2709 23180,2720 23200,2720 23222,2721 23243,2709 23251,2686 L 23440,2202 C 23448,2180 23470,2167 23494,2168 23499,2168 23504,2169 23509,2170 L 24079,2343 C 24084,2344 24089,2345 24094,2345 24133,2346 24163,2303 24142,2265 L 23614,1296 C 23992,1134 24363,952 24725,748 24748,735 24756,706 24742,680 24734,665 24718,656 24702,656 Z "/>
    </g>
   </g>
   <g class="Group">
    <g class="com.sun.star.drawing.CustomShape">
     <g id="id4">
      <rect class="BoundingBox" stroke="none" fill="none" x="12650" y="651" width="12083" height="1579"/>
      <path fill="rgb(55,45,49)" stroke="none" d="M 24683,652 C 24675,652 24666,654 24658,659 23962,1052 23229,1371 22469,1608 21769,1825 21053,1974 20328,2054 19816,2110 19299,2134 18784,2129 18019,2121 17254,2046 16502,1903 15567,1730 14650,1470 13764,1128 13409,994 13059,837 12721,664 12715,660 12707,658 12700,658 12656,658 12628,723 12676,748 13016,925 13369,1081 13727,1219 14617,1564 15540,1825 16478,1998 17252,2143 18038,2216 18823,2228 19332,2233 19835,2209 20337,2152 21072,2072 21795,1920 22494,1702 23264,1462 24004,1141 24706,744 24754,717 24726,652 24683,652 L 24683,652 Z "/>
     </g>
    </g>
    <g class="com.sun.star.drawing.CustomShape">
     <g id="id5">
      <rect class="BoundingBox" stroke="none" fill="none" x="12763" y="815" width="1361" height="1596"/>
      <path fill="rgb(250,231,127)" stroke="none" d="M 13235,816 L 12766,1952 C 12753,1988 12782,2026 12817,2027 12824,2027 12831,2025 12838,2022 L 13320,1821 C 13325,1819 13332,1818 13338,1818 13358,1818 13378,1828 13388,1847 L 13659,2379 C 13670,2399 13689,2410 13708,2410 13729,2410 13750,2396 13757,2370 L 14122,1203 13235,816 13235,816 Z "/>
     </g>
    </g>
    <g class="com.sun.star.drawing.CustomShape">
     <g id="id6">
      <rect class="BoundingBox" stroke="none" fill="none" x="14231" y="1364" width="1269" height="1537"/>
      <path fill="rgb(242,184,126)" stroke="none" d="M 14572,1365 L 14234,2544 C 14223,2581 14252,2614 14285,2614 14294,2614 14303,2612 14311,2607 L 14764,2358 C 14773,2353 14783,2351 14792,2351 14810,2351 14827,2360 14835,2375 L 15163,2874 C 15175,2891 15192,2900 15209,2900 15234,2900 15257,2884 15260,2855 L 15498,1655 14572,1365 14572,1365 Z "/>
     </g>
    </g>
    <g class="com.sun.star.drawing.CustomShape">
     <g id="id7">
      <rect class="BoundingBox" stroke="none" fill="none" x="21400" y="1600" width="1396" height="1476"/>
      <path fill="rgb(242,184,126)" stroke="none" d="M 22336,1600 L 21401,1861 21760,3035 C 21766,3061 21789,3075 21811,3075 21830,3075 21848,3065 21858,3046 L 22103,2589 C 22113,2571 22131,2561 22149,2561 22157,2562 22165,2563 22173,2567 L 22721,2804 C 22728,2808 22735,2810 22743,2810 22777,2810 22806,2774 22790,2736 L 22336,1600 22336,1600 Z "/>
     </g>
    </g>
    <g class="com.sun.star.drawing.CustomShape">
     <g id="id8">
      <rect class="BoundingBox" stroke="none" fill="none" x="15746" y="1717" width="1125" height="1430"/>
      <path fill="rgb(205,234,157)" stroke="none" d="M 15913,1718 L 15747,2935 C 15742,2971 15770,2999 15802,3000 15813,3000 15824,2996 15834,2988 L 16248,2673 C 16259,2667 16270,2663 16281,2663 16296,2663 16310,2669 16320,2680 L 16717,3128 C 16728,3140 16743,3146 16757,3146 16785,3146 16812,3125 16812,3093 L 16870,1871 15913,1718 15913,1718 Z "/>
     </g>
    </g>
    <g class="com.sun.star.drawing.CustomShape">
     <g id="id9">
      <rect class="BoundingBox" stroke="none" fill="none" x="17195" y="1970" width="1074" height="1378"/>
      <path fill="rgb(143,221,239)" stroke="none" d="M 17290,1970 L 17195,3195 C 17193,3229 17221,3255 17251,3255 17263,3255 17276,3251 17286,3241 L 17681,2903 C 17691,2896 17703,2892 17716,2892 17730,2892 17742,2897 17752,2907 L 18176,3330 C 18187,3341 18201,3346 18215,3346 18243,3346 18270,3325 18267,3292 L 18257,2068 17290,1970 17290,1970 Z "/>
     </g>
    </g>
    <g class="com.sun.star.drawing.CustomShape">
     <g id="id10">
      <rect class="BoundingBox" stroke="none" fill="none" x="18704" y="2029" width="1092" height="1291"/>
      <path fill="rgb(241,152,197)" stroke="none" d="M 18705,2029 L 18718,3258 C 18718,3290 18742,3312 18770,3312 18784,3312 18799,3307 18811,3295 L 19174,2924 C 19185,2914 19199,2909 19213,2910 19226,2910 19239,2914 19249,2922 L 19705,3305 C 19715,3314 19727,3318 19738,3318 19768,3318 19798,3292 19794,3257 L 19673,2039 18705,2029 Z "/>
     </g>
    </g>
    <g class="com.sun.star.drawing.CustomShape">
     <g id="id11">
      <rect class="BoundingBox" stroke="none" fill="none" x="22644" y="1188" width="1491" height="1528"/>
      <path fill="rgb(143,221,239)" stroke="none" d="M 23538,1188 L 22644,1557 23137,2680 C 23147,2703 23166,2715 23186,2715 23206,2715 23227,2703 23235,2681 L 23426,2198 C 23435,2177 23455,2163 23476,2163 23482,2163 23487,2164 23492,2166 L 24064,2338 C 24069,2340 24074,2340 24079,2340 24118,2341 24147,2299 24127,2261 L 23538,1188 23538,1188 Z "/>
     </g>
    </g>
    <g class="com.sun.star.drawing.CustomShape">
     <g id="id12">
      <rect class="BoundingBox" stroke="none" fill="none" x="20046" y="1924" width="1180" height="1338"/>
      <path fill="rgb(250,231,127)" stroke="none" d="M 21015,1925 L 20046,1986 20151,3211 C 20152,3242 20177,3260 20203,3260 20218,3261 20234,3254 20245,3241 L 20581,2846 C 20591,2834 20607,2827 20622,2827 20633,2827 20644,2830 20653,2837 L 21139,3185 C 21149,3192 21159,3195 21170,3196 21201,3196 21229,3168 21224,3134 L 21015,1925 21015,1925 Z "/>
     </g>
    </g>
   </g>
  </g>
 </g>
</svg>