<?xml version="1.0" encoding="UTF-8"?>
<!DOCTYPE svg PUBLIC "-//W3C//DTD SVG 1.1//EN" "http://www.w3.org/Graphics/SVG/1.1/DTD/svg11.dtd">
<svg version="1.2" viewBox="5703 1450 15252 3341" preserveAspectRatio="xMidYMid" fill-rule="evenodd" stroke-width="28.222" stroke-linejoin="round" xmlns="http://www.w3.org/2000/svg" xmlns:ooo="http://xml.openoffice.org/svg/export" xmlns:xlink="http://www.w3.org/1999/xlink" xmlns:presentation="http://sun.com/xmlns/staroffice/presentation" xmlns:smil="http://www.w3.org/2001/SMIL20/" xmlns:anim="urn:oasis:names:tc:opendocument:xmlns:animation:1.0" xmlns:svg="urn:oasis:names:tc:opendocument:xmlns:svg-compatible:1.0" xml:space="preserve">
 <defs class="EmbeddedBulletChars">
  <g id="bullet-char-template-57356" transform="scale(0.00048828125,-0.00048828125)">
   <path d="M 580,1141 L 1163,571 580,0 -4,571 580,1141 Z"/>
  </g>
  <g id="bullet-char-template-57354" transform="scale(0.00048828125,-0.00048828125)">
   <path d="M 8,1128 L 1137,1128 1137,0 8,0 8,1128 Z"/>
  </g>
  <g id="bullet-char-template-10146" transform="scale(0.00048828125,-0.00048828125)">
   <path d="M 174,0 L 602,739 174,1481 1456,739 174,0 Z M 1358,739 L 309,1346 659,739 1358,739 Z"/>
  </g>
  <g id="bullet-char-template-10132" transform="scale(0.00048828125,-0.00048828125)">
   <path d="M 2015,739 L 1276,0 717,0 1260,543 174,543 174,936 1260,936 717,1481 1274,1481 2015,739 Z"/>
  </g>
  <g id="bullet-char-template-10007" transform="scale(0.00048828125,-0.00048828125)">
   <path d="M 0,-2 C -7,14 -16,27 -25,37 L 356,567 C 262,823 215,952 215,954 215,979 228,992 255,992 264,992 276,990 289,987 310,991 331,999 354,1012 L 381,999 492,748 772,1049 836,1024 860,1049 C 881,1039 901,1025 922,1006 886,937 835,863 770,784 769,783 710,716 594,584 L 774,223 C 774,196 753,168 711,139 L 727,119 C 717,90 699,76 672,76 641,76 570,178 457,381 L 164,-76 C 142,-110 111,-127 72,-127 30,-127 9,-110 8,-76 1,-67 -2,-52 -2,-32 -2,-23 -1,-13 0,-2 Z"/>
  </g>
  <g id="bullet-char-template-10004" transform="scale(0.00048828125,-0.00048828125)">
   <path d="M 285,-33 C 182,-33 111,30 74,156 52,228 41,333 41,471 41,549 55,616 82,672 116,743 169,778 240,778 293,778 328,747 346,684 L 369,508 C 377,444 397,411 428,410 L 1163,1116 C 1174,1127 1196,1133 1229,1133 1271,1133 1292,1118 1292,1087 L 1292,965 C 1292,929 1282,901 1262,881 L 442,47 C 390,-6 338,-33 285,-33 Z"/>
  </g>
  <g id="bullet-char-template-9679" transform="scale(0.00048828125,-0.00048828125)">
   <path d="M 813,0 C 632,0 489,54 383,161 276,268 223,411 223,592 223,773 276,916 383,1023 489,1130 632,1184 813,1184 992,1184 1136,1130 1245,1023 1353,916 1407,772 1407,592 1407,412 1353,268 1245,161 1136,54 992,0 813,0 Z"/>
  </g>
  <g id="bullet-char-template-8226" transform="scale(0.00048828125,-0.00048828125)">
   <path d="M 346,457 C 273,457 209,483 155,535 101,586 74,649 74,723 74,796 101,859 155,911 209,963 273,989 346,989 419,989 480,963 531,910 582,859 608,796 608,723 608,648 583,586 532,535 482,483 420,457 346,457 Z"/>
  </g>
  <g id="bullet-char-template-8211" transform="scale(0.00048828125,-0.00048828125)">
   <path d="M -4,459 L 1135,459 1135,606 -4,606 -4,459 Z"/>
  </g>
  <g id="bullet-char-template-61548" transform="scale(0.00048828125,-0.00048828125)">
   <path d="M 173,740 C 173,903 231,1043 346,1159 462,1274 601,1332 765,1332 928,1332 1067,1274 1183,1159 1299,1043 1357,903 1357,740 1357,577 1299,437 1183,322 1067,206 928,148 765,148 601,148 462,206 346,322 231,437 173,577 173,740 Z"/>
  </g>
 </defs>
 <g ooo:name="MATH&#x0a;CENTERS" class="Page">
  <g class="Group">
   <g class="com.sun.star.drawing.CustomShape">
    <g id="id3">
     <rect class="BoundingBox" stroke="none" fill="none" x="5703" y="1450" width="15252" height="3341"/>
     <g style="opacity: 0.211764705882353">
      <path fill="rgb(55,45,49)" stroke="none" d="M 8627,1715 C 8100,1715 7551,1801 7016,2061 L 6958,2980 5915,3584 6494,3848 6240,4578 C 6240,4578 7616,4270 7848,4138 8081,4002 8163,4048 8131,3616 8102,3187 8138,3180 8138,3180 8778,3183 9418,3233 10054,3326 10948,3465 12007,3687 13301,3687 13312,3687 13322,3687 13332,3687 14637,3687 15709,3466 16606,3326 17243,3233 17883,3183 18523,3180 18523,3180 18558,3187 18530,3616 18501,4045 18583,4002 18812,4138 19044,4270 20421,4578 20421,4578 L 20170,3848 20742,3584 19699,2980 19638,2061 C 19104,1801 18556,1715 18029,1715 17178,1715 16383,1942 15795,2032 15216,2122 14054,2215 13039,2218 12310,2193 11580,2132 10858,2032 10273,1942 9479,1715 8627,1715 L 8627,1715 Z "/>
      <path fill="none" stroke="rgb(55,45,49)" stroke-width="423" stroke-linejoin="round" d="M 8627,1715 C 8100,1715 7551,1801 7016,2061 L 6958,2980 5915,3584 6494,3848 6240,4578 C 6240,4578 7616,4270 7848,4138 8081,4002 8163,4048 8131,3616 8102,3187 8138,3180 8138,3180 8778,3183 9418,3233 10054,3326 10948,3465 12007,3687 13301,3687 L 13332,3687 C 14637,3687 15709,3466 16606,3326 17243,3233 17883,3183 18523,3180 18523,3180 18558,3187 18530,3616 18501,4045 18583,4002 18812,4138 19044,4270 20421,4578 20421,4578 L 20170,3848 20742,3584 19699,2980 19638,2061 C 19104,1801 18556,1715 18029,1715 17178,1715 16383,1942 15795,2032 15216,2122 14054,2215 13039,2218 12310,2193 11580,2132 10858,2032 10273,1942 9479,1715 8627,1715 Z "/>
     </g>
     <path fill="rgb(255,255,255)" stroke="none" d="M 8627,1662 C 8100,1662 7551,1748 7016,2008 L 6958,2927 5915,3531 6494,3795 6240,4525 C 6240,4525 7616,4217 7848,4085 8081,3949 8163,3995 8131,3563 8102,3134 8138,3127 8138,3127 8778,3130 9418,3180 10054,3273 10948,3412 12007,3634 13301,3634 13312,3634 13322,3634 13332,3634 14637,3634 15709,3413 16606,3273 17243,3180 17883,3130 18523,3127 18523,3127 18558,3134 18530,3563 18501,3992 18583,3949 18812,4085 19044,4217 20421,4525 20421,4525 L 20170,3795 20742,3531 19699,2927 19638,2008 C 19104,1748 18556,1662 18029,1662 17178,1662 16383,1889 15795,1979 15216,2069 14054,2162 13039,2165 12310,2140 11580,2079 10858,1979 10273,1889 9479,1662 8627,1662 L 8627,1662 Z "/>
     <path fill="none" stroke="rgb(255,255,255)" stroke-width="423" stroke-linejoin="round" d="M 8627,1662 C 8100,1662 7551,1748 7016,2008 L 6958,2927 5915,3531 6494,3795 6240,4525 C 6240,4525 7616,4217 7848,4085 8081,3949 8163,3995 8131,3563 8102,3134 8138,3127 8138,3127 8778,3130 9418,3180 10054,3273 10948,3412 12007,3634 13301,3634 L 13332,3634 C 14637,3634 15709,3413 16606,3273 17243,3180 17883,3130 18523,3127 18523,3127 18558,3134 18530,3563 18501,3992 18583,3949 18812,4085 19044,4217 20421,4525 20421,4525 L 20170,3795 20742,3531 19699,2927 19638,2008 C 19104,1748 18556,1662 18029,1662 17178,1662 16383,1889 15795,1979 15216,2069 14054,2162 13039,2165 12310,2140 11580,2079 10858,1979 10273,1889 9479,1662 8627,1662 Z "/>
    </g>
   </g>
   <g class="Group">
    <g class="com.sun.star.drawing.CustomShape">
     <g id="id4">
      <rect class="BoundingBox" stroke="none" fill="none" x="5915" y="1662" width="14828" height="2864"/>
      <path fill="rgb(241,152,197)" stroke="none" d="M 8627,1662 C 8100,1662 7551,1748 7016,2008 L 6958,2927 5915,3531 6494,3795 6240,4525 C 6240,4525 7616,4217 7848,4085 8081,3949 8163,3995 8131,3563 8102,3134 8138,3127 8138,3127 8778,3130 9418,3180 10054,3273 10948,3412 12007,3634 13301,3634 13312,3634 13322,3634 13332,3634 14637,3634 15709,3413 16606,3273 17243,3180 17883,3130 18523,3127 18523,3127 18558,3134 18530,3563 18501,3992 18583,3949 18812,4085 19044,4217 20421,4525 20421,4525 L 20170,3795 20742,3531 19699,2927 19638,2008 C 19104,1748 18556,1662 18029,1662 17178,1662 16383,1889 15795,1979 15216,2069 14054,2162 13039,2165 12310,2140 11580,2079 10858,1979 10273,1889 9479,1662 8627,1662 L 8627,1662 Z "/>
     </g>
    </g>
    <g class="com.sun.star.drawing.CustomShape">
     <g id="id5">
      <rect class="BoundingBox" stroke="none" fill="none" x="6952" y="1981" width="1276" height="1893"/>
      <path fill="rgb(55,45,49)" stroke="none" d="M 6986,1981 C 6972,1981 6958,1990 6958,2010 L 6958,3444 C 6958,3447 6958,3454 6961,3458 6954,3465 6951,3476 6954,3487 6986,3562 7058,3615 7140,3619 7161,3622 7184,3624 7207,3624 7229,3624 7253,3622 7276,3619 7322,3615 7369,3612 7415,3608 7456,3606 7498,3604 7539,3604 7671,3604 7803,3621 7923,3687 7998,3726 8062,3783 8109,3858 8114,3868 8122,3872 8131,3872 8151,3872 8171,3851 8159,3826 8076,3694 7944,3601 7794,3569 7713,3548 7632,3542 7551,3542 7448,3542 7345,3552 7244,3558 7230,3559 7216,3559 7201,3559 7139,3559 7067,3550 7033,3501 7312,3347 7615,3233 7930,3165 8019,3147 8109,3129 8198,3118 8212,3118 8227,3104 8227,3090 8227,3073 8215,3057 8202,3057 8200,3057 8199,3057 8198,3058 7869,3097 7551,3190 7251,3326 7169,3358 7094,3397 7015,3440 L 7015,2010 C 7015,1990 7001,1981 6986,1981 L 6986,1981 Z "/>
     </g>
    </g>
    <g class="com.sun.star.drawing.CustomShape">
     <g id="id6">
      <rect class="BoundingBox" stroke="none" fill="none" x="18431" y="1982" width="1272" height="1894"/>
      <path fill="rgb(55,45,49)" stroke="none" d="M 19670,1982 C 19654,1982 19639,1991 19639,2011 L 19639,3441 C 19564,3398 19485,3358 19407,3326 19106,3191 18788,3098 18459,3058 18458,3058 18457,3058 18455,3058 18442,3058 18431,3074 18431,3090 18431,3108 18445,3123 18459,3123 18549,3133 18638,3148 18727,3169 19042,3233 19346,3348 19628,3505 19591,3554 19519,3563 19458,3563 19444,3563 19430,3563 19417,3562 19314,3554 19210,3544 19107,3544 19025,3544 18944,3550 18863,3569 18713,3602 18581,3698 18498,3830 18486,3852 18506,3875 18525,3875 18534,3875 18543,3870 18549,3859 18591,3787 18656,3727 18731,3687 18851,3622 18985,3604 19118,3604 19160,3604 19201,3606 19242,3609 19289,3612 19335,3616 19382,3619 19403,3623 19425,3625 19448,3625 19471,3625 19494,3623 19518,3619 19600,3616 19671,3562 19700,3487 19703,3476 19703,3466 19696,3458 19696,3455 19700,3448 19700,3444 L 19700,2011 C 19700,1991 19685,1982 19670,1982 L 19670,1982 Z "/>
     </g>
    </g>
   </g>
  </g>
 </g>
</svg>