<?xml version="1.0" encoding="UTF-8"?>
<!DOCTYPE svg PUBLIC "-//W3C//DTD SVG 1.1//EN" "http://www.w3.org/Graphics/SVG/1.1/DTD/svg11.dtd">
<svg version="1.2" viewBox="19385 7713 3634 2660" preserveAspectRatio="xMidYMid" fill-rule="evenodd" stroke-width="28.222" stroke-linejoin="round" xmlns="http://www.w3.org/2000/svg" xmlns:ooo="http://xml.openoffice.org/svg/export" xmlns:xlink="http://www.w3.org/1999/xlink" xmlns:presentation="http://sun.com/xmlns/staroffice/presentation" xmlns:smil="http://www.w3.org/2001/SMIL20/" xmlns:anim="urn:oasis:names:tc:opendocument:xmlns:animation:1.0" xmlns:svg="urn:oasis:names:tc:opendocument:xmlns:svg-compatible:1.0" xml:space="preserve">
 <defs class="EmbeddedBulletChars">
  <g id="bullet-char-template-57356" transform="scale(0.00048828125,-0.00048828125)">
   <path d="M 580,1141 L 1163,571 580,0 -4,571 580,1141 Z"/>
  </g>
  <g id="bullet-char-template-57354" transform="scale(0.00048828125,-0.00048828125)">
   <path d="M 8,1128 L 1137,1128 1137,0 8,0 8,1128 Z"/>
  </g>
  <g id="bullet-char-template-10146" transform="scale(0.00048828125,-0.00048828125)">
   <path d="M 174,0 L 602,739 174,1481 1456,739 174,0 Z M 1358,739 L 309,1346 659,739 1358,739 Z"/>
  </g>
  <g id="bullet-char-template-10132" transform="scale(0.00048828125,-0.00048828125)">
   <path d="M 2015,739 L 1276,0 717,0 1260,543 174,543 174,936 1260,936 717,1481 1274,1481 2015,739 Z"/>
  </g>
  <g id="bullet-char-template-10007" transform="scale(0.00048828125,-0.00048828125)">
   <path d="M 0,-2 C -7,14 -16,27 -25,37 L 356,567 C 262,823 215,952 215,954 215,979 228,992 255,992 264,992 276,990 289,987 310,991 331,999 354,1012 L 381,999 492,748 772,1049 836,1024 860,1049 C 881,1039 901,1025 922,1006 886,937 835,863 770,784 769,783 710,716 594,584 L 774,223 C 774,196 753,168 711,139 L 727,119 C 717,90 699,76 672,76 641,76 570,178 457,381 L 164,-76 C 142,-110 111,-127 72,-127 30,-127 9,-110 8,-76 1,-67 -2,-52 -2,-32 -2,-23 -1,-13 0,-2 Z"/>
  </g>
  <g id="bullet-char-template-10004" transform="scale(0.00048828125,-0.00048828125)">
   <path d="M 285,-33 C 182,-33 111,30 74,156 52,228 41,333 41,471 41,549 55,616 82,672 116,743 169,778 240,778 293,778 328,747 346,684 L 369,508 C 377,444 397,411 428,410 L 1163,1116 C 1174,1127 1196,1133 1229,1133 1271,1133 1292,1118 1292,1087 L 1292,965 C 1292,929 1282,901 1262,881 L 442,47 C 390,-6 338,-33 285,-33 Z"/>
  </g>
  <g id="bullet-char-template-9679" transform="scale(0.00048828125,-0.00048828125)">
   <path d="M 813,0 C 632,0 489,54 383,161 276,268 223,411 223,592 223,773 276,916 383,1023 489,1130 632,1184 813,1184 992,1184 1136,1130 1245,1023 1353,916 1407,772 1407,592 1407,412 1353,268 1245,161 1136,54 992,0 813,0 Z"/>
  </g>
  <g id="bullet-char-template-8226" transform="scale(0.00048828125,-0.00048828125)">
   <path d="M 346,457 C 273,457 209,483 155,535 101,586 74,649 74,723 74,796 101,859 155,911 209,963 273,989 346,989 419,989 480,963 531,910 582,859 608,796 608,723 608,648 583,586 532,535 482,483 420,457 346,457 Z"/>
  </g>
  <g id="bullet-char-template-8211" transform="scale(0.00048828125,-0.00048828125)">
   <path d="M -4,459 L 1135,459 1135,606 -4,606 -4,459 Z"/>
  </g>
  <g id="bullet-char-template-61548" transform="scale(0.00048828125,-0.00048828125)">
   <path d="M 173,740 C 173,903 231,1043 346,1159 462,1274 601,1332 765,1332 928,1332 1067,1274 1183,1159 1299,1043 1357,903 1357,740 1357,577 1299,437 1183,322 1067,206 928,148 765,148 601,148 462,206 346,322 231,437 173,577 173,740 Z"/>
  </g>
 </defs>
 <g ooo:name="Date" class="Page">
  <g class="Group">
   <g class="Group">
    <g class="com.sun.star.drawing.CustomShape">
     <g id="id3">
      <rect class="BoundingBox" stroke="none" fill="none" x="19985" y="7974" width="435" height="475"/>
      <g style="opacity: 0.2">
       <path fill="rgb(55,45,49)" stroke="none" d="M 20203,8186 C 20197,8186 20191,8187 20185,8189 20173,8192 20163,8197 20155,8205 20150,8209 20148,8214 20150,8219 20137,8240 20147,8269 20170,8279 20173,8279 20175,8280 20178,8280 20187,8286 20197,8288 20207,8288 20220,8288 20234,8283 20245,8274 20263,8257 20264,8229 20249,8209 20238,8194 20221,8186 20203,8186 L 20203,8186 Z "/>
       <path fill="none" stroke="rgb(55,45,49)" stroke-width="318" stroke-linejoin="round" d="M 20203,8186 C 20197,8186 20191,8187 20185,8189 20173,8192 20163,8197 20155,8205 20150,8209 20148,8214 20150,8219 20137,8240 20147,8269 20170,8279 20173,8279 20175,8280 20178,8280 20187,8286 20197,8288 20207,8288 20220,8288 20234,8283 20245,8274 20263,8257 20264,8229 20249,8209 20238,8194 20221,8186 20203,8186 Z "/>
      </g>
      <path fill="rgb(255,253,245)" stroke="none" d="M 20203,8133 C 20197,8133 20191,8134 20185,8136 20173,8139 20163,8144 20155,8152 20150,8156 20148,8161 20150,8166 20137,8187 20147,8216 20170,8226 20173,8226 20175,8227 20178,8227 20187,8233 20197,8235 20207,8235 20220,8235 20234,8230 20245,8221 20263,8204 20264,8176 20249,8156 20238,8141 20221,8133 20203,8133 L 20203,8133 Z "/>
      <path fill="none" stroke="rgb(255,255,255)" stroke-width="318" stroke-linejoin="round" d="M 20203,8133 C 20197,8133 20191,8134 20185,8136 20173,8139 20163,8144 20155,8152 20150,8156 20148,8161 20150,8166 20137,8187 20147,8216 20170,8226 20173,8226 20175,8227 20178,8227 20187,8233 20197,8235 20207,8235 20220,8235 20234,8230 20245,8221 20263,8204 20264,8176 20249,8156 20238,8141 20221,8133 20203,8133 Z "/>
     </g>
    </g>
    <g class="com.sun.star.drawing.CustomShape">
     <g id="id4">
      <rect class="BoundingBox" stroke="none" fill="none" x="19385" y="7713" width="3634" height="2660"/>
      <g style="opacity: 0.2">
       <path fill="rgb(55,45,49)" stroke="none" d="M 20254,8150 C 20362,8150 20460,8239 20452,8361 20370,8411 20296,8472 20232,8545 20216,8544 20201,8540 20184,8534 20032,8477 20010,8270 20146,8182 20181,8160 20218,8150 20254,8150 L 20254,8150 Z M 21936,8753 L 22034,8848 C 22035,8848 22035,8848 22037,8849 22022,8861 22007,8873 21992,8884 21977,8839 21957,8795 21936,8753 L 21936,8753 Z M 22087,8967 C 22118,9025 22157,9078 22201,9127 22113,9165 22050,9201 22050,9201 L 22050,9200 C 22049,9133 22042,9067 22025,9004 22047,8992 22067,8980 22087,8967 L 22087,8967 Z M 19934,9772 C 19978,9864 20066,9955 20191,10031 20164,10116 20085,10174 19995,10174 19761,10174 19710,9844 19934,9772 L 19934,9772 Z M 21482,7925 C 21475,7925 21468,7925 21461,7926 21401,7934 21345,7956 21293,7991 21243,8024 21197,8062 21154,8105 21122,8139 21092,8174 21061,8208 21051,8208 21041,8208 21031,8208 20844,8208 20657,8253 20490,8340 20485,8201 20372,8109 20253,8109 20201,8109 20147,8126 20101,8165 19949,8293 20012,8539 20206,8579 20146,8655 20098,8741 20063,8833 L 19995,8821 20078,8590 C 20086,8575 20090,8557 20086,8539 20083,8532 20076,8527 20068,8526 20057,8526 20048,8534 20042,8542 20010,8575 19978,8609 19949,8643 19922,8673 19897,8703 19872,8733 19826,8683 19781,8632 19734,8580 19726,8570 19712,8560 19697,8560 19692,8560 19688,8561 19683,8564 19680,8565 19676,8570 19678,8575 19703,8658 19733,8741 19764,8824 19696,8854 19632,8891 19570,8934 19558,8942 19544,8952 19545,8970 19548,8982 19559,8989 19571,8989 19573,8989 19575,8989 19577,8989 19585,8987 19593,8985 19602,8984 L 19633,8977 19693,8964 19827,8934 19831,8934 C 19837,9015 19847,9098 19862,9180 19862,9198 19869,9215 19879,9228 19884,9233 19889,9235 19895,9235 19897,9235 19898,9235 19900,9234 19909,9233 19915,9226 19919,9218 19922,9208 19924,9200 19925,9190 19929,9180 19930,9168 19932,9158 19937,9137 19940,9115 19944,9093 19950,9049 19954,9004 19957,8959 19977,8960 19998,8962 20020,8962 19993,9068 19977,9180 19972,9289 19972,9289 19821,9460 19915,9729 19915,9733 19917,9734 19919,9738 19748,9794 19695,10011 19821,10139 19870,10189 19932,10212 19994,10212 20092,10212 20188,10154 20224,10050 20397,10146 20632,10213 20916,10213 21250,10213 21653,10120 22100,9872 22100,9872 22135,9904 22186,9942 22183,9947 22180,9952 22177,9958 22162,9975 22155,9997 22155,10018 22158,10035 22172,10050 22188,10058 22198,10062 22208,10064 22219,10064 22222,10064 22226,10063 22230,10063 L 22230,10063 C 22228,10091 22243,10119 22268,10134 22279,10139 22290,10142 22302,10142 22313,10142 22324,10139 22334,10134 22334,10154 22347,10174 22367,10183 22374,10185 22381,10186 22388,10186 22404,10186 22419,10179 22432,10168 22437,10178 22445,10188 22455,10194 22467,10202 22480,10206 22494,10206 22504,10206 22514,10203 22524,10199 22580,10176 22592,10113 22603,10060 22605,10060 22607,10061 22609,10061 22612,10061 22614,10060 22616,10058 22686,10007 22759,9953 22807,9879 22831,9844 22847,9802 22856,9761 22860,9741 22859,9721 22847,9704 22837,9689 22821,9681 22802,9678 22794,9675 22784,9674 22775,9674 22771,9674 22768,9674 22764,9674 22764,9673 22763,9671 22761,9669 22781,9630 22781,9581 22766,9540 22746,9493 22700,9462 22650,9462 22649,9462 22648,9462 22646,9462 22621,9462 22598,9472 22580,9488 22572,9459 22552,9435 22527,9420 22615,9341 22701,9230 22668,9115 22651,9057 22600,9036 22534,9036 22463,9036 22376,9060 22294,9090 L 22281,9062 22223,8922 22459,8863 C 22475,8858 22497,8856 22507,8839 22510,8834 22510,8826 22507,8819 22502,8809 22489,8806 22479,8806 22434,8798 22387,8791 22343,8785 22303,8780 22265,8775 22225,8771 22243,8705 22260,8638 22276,8572 22281,8554 22281,8529 22261,8519 22260,8518 22259,8518 22258,8518 22255,8518 22252,8519 22250,8521 22195,8589 22142,8660 22090,8733 22027,8693 21961,8660 21891,8633 21884,8630 21875,8628 21866,8628 21864,8628 21861,8628 21858,8628 21823,8579 21781,8534 21737,8492 21747,8464 21750,8434 21748,8404 21745,8335 21713,8270 21659,8225 21634,8203 21605,8188 21574,8177 21597,8125 21615,8067 21597,8011 21590,7984 21572,7961 21551,7944 21530,7931 21506,7925 21482,7925 L 21482,7925 Z "/>
       <path fill="none" stroke="rgb(55,45,49)" stroke-width="318" stroke-linejoin="round" d="M 20254,8150 C 20362,8150 20460,8239 20452,8361 20370,8411 20296,8472 20232,8545 20216,8544 20201,8540 20184,8534 20032,8477 20010,8270 20146,8182 20181,8160 20218,8150 20254,8150 Z "/>
       <path fill="none" stroke="rgb(55,45,49)" stroke-width="318" stroke-linejoin="round" d="M 21936,8753 L 22034,8848 C 22035,8848 22035,8848 22037,8849 22022,8861 22007,8873 21992,8884 21977,8839 21957,8795 21936,8753 Z "/>
       <path fill="none" stroke="rgb(55,45,49)" stroke-width="318" stroke-linejoin="round" d="M 22087,8967 C 22118,9025 22157,9078 22201,9127 22113,9165 22050,9201 22050,9201 L 22050,9200 C 22049,9133 22042,9067 22025,9004 22047,8992 22067,8980 22087,8967 Z "/>
       <path fill="none" stroke="rgb(55,45,49)" stroke-width="318" stroke-linejoin="round" d="M 19934,9772 C 19978,9864 20066,9955 20191,10031 20164,10116 20085,10174 19995,10174 19761,10174 19710,9844 19934,9772 Z "/>
       <path fill="none" stroke="rgb(55,45,49)" stroke-width="318" stroke-linejoin="round" d="M 21482,7925 C 21475,7925 21468,7925 21461,7926 21401,7934 21345,7956 21293,7991 21243,8024 21197,8062 21154,8105 21122,8139 21092,8174 21061,8208 L 21031,8208 C 20844,8208 20657,8253 20490,8340 20485,8201 20372,8109 20253,8109 20201,8109 20147,8126 20101,8165 19949,8293 20012,8539 20206,8579 20146,8655 20098,8741 20063,8833 L 19995,8821 20078,8590 C 20086,8575 20090,8557 20086,8539 20083,8532 20076,8527 20068,8526 20057,8526 20048,8534 20042,8542 20010,8575 19978,8609 19949,8643 19922,8673 19897,8703 19872,8733 19826,8683 19781,8632 19734,8580 19726,8570 19712,8560 19697,8560 19692,8560 19688,8561 19683,8564 19680,8565 19676,8570 19678,8575 19703,8658 19733,8741 19764,8824 19696,8854 19632,8891 19570,8934 19558,8942 19544,8952 19545,8970 19548,8982 19559,8989 19571,8989 L 19577,8989 C 19585,8987 19593,8985 19602,8984 L 19633,8977 19693,8964 19827,8934 19831,8934 C 19837,9015 19847,9098 19862,9180 19862,9198 19869,9215 19879,9228 19884,9233 19889,9235 19895,9235 19897,9235 19898,9235 19900,9234 19909,9233 19915,9226 19919,9218 19922,9208 19924,9200 19925,9190 19929,9180 19930,9168 19932,9158 19937,9137 19940,9115 19944,9093 19950,9049 19954,9004 19957,8959 19977,8960 19998,8962 20020,8962 19993,9068 19977,9180 19972,9289 19972,9289 19821,9460 19915,9729 19915,9733 19917,9734 19919,9738 19748,9794 19695,10011 19821,10139 19870,10189 19932,10212 19994,10212 20092,10212 20188,10154 20224,10050 20397,10146 20632,10213 20916,10213 21250,10213 21653,10120 22100,9872 22100,9872 22135,9904 22186,9942 22183,9947 22180,9952 22177,9958 22162,9975 22155,9997 22155,10018 22158,10035 22172,10050 22188,10058 22198,10062 22208,10064 22219,10064 22222,10064 22226,10063 22230,10063 L 22230,10063 C 22228,10091 22243,10119 22268,10134 22279,10139 22290,10142 22302,10142 22313,10142 22324,10139 22334,10134 22334,10154 22347,10174 22367,10183 22374,10185 22381,10186 22388,10186 22404,10186 22419,10179 22432,10168 22437,10178 22445,10188 22455,10194 22467,10202 22480,10206 22494,10206 22504,10206 22514,10203 22524,10199 22580,10176 22592,10113 22603,10060 22605,10060 22607,10061 22609,10061 22612,10061 22614,10060 22616,10058 22686,10007 22759,9953 22807,9879 22831,9844 22847,9802 22856,9761 22860,9741 22859,9721 22847,9704 22837,9689 22821,9681 22802,9678 22794,9675 22784,9674 22775,9674 L 22764,9674 C 22764,9673 22763,9671 22761,9669 22781,9630 22781,9581 22766,9540 22746,9493 22700,9462 22650,9462 L 22646,9462 C 22621,9462 22598,9472 22580,9488 22572,9459 22552,9435 22527,9420 22615,9341 22701,9230 22668,9115 22651,9057 22600,9036 22534,9036 22463,9036 22376,9060 22294,9090 L 22281,9062 22223,8922 22459,8863 C 22475,8858 22497,8856 22507,8839 22510,8834 22510,8826 22507,8819 22502,8809 22489,8806 22479,8806 22434,8798 22387,8791 22343,8785 22303,8780 22265,8775 22225,8771 22243,8705 22260,8638 22276,8572 22281,8554 22281,8529 22261,8519 22260,8518 22259,8518 22258,8518 22255,8518 22252,8519 22250,8521 22195,8589 22142,8660 22090,8733 22027,8693 21961,8660 21891,8633 21884,8630 21875,8628 21866,8628 L 21858,8628 C 21823,8579 21781,8534 21737,8492 21747,8464 21750,8434 21748,8404 21745,8335 21713,8270 21659,8225 21634,8203 21605,8188 21574,8177 21597,8125 21615,8067 21597,8011 21590,7984 21572,7961 21551,7944 21530,7931 21506,7925 21482,7925 Z "/>
      </g>
      <path fill="rgb(255,253,245)" stroke="none" d="M 20254,8097 C 20362,8097 20460,8186 20452,8308 20370,8358 20296,8419 20232,8492 20216,8491 20201,8487 20184,8481 20032,8424 20010,8217 20146,8129 20181,8107 20218,8097 20254,8097 L 20254,8097 Z M 21936,8700 L 22034,8795 C 22035,8795 22035,8795 22037,8796 22022,8808 22007,8820 21992,8831 21977,8786 21957,8742 21936,8700 L 21936,8700 Z M 22087,8914 C 22118,8972 22157,9025 22201,9074 22113,9112 22050,9148 22050,9148 L 22050,9147 C 22049,9080 22042,9014 22025,8951 22047,8939 22067,8927 22087,8914 L 22087,8914 Z M 19934,9719 C 19978,9811 20066,9902 20191,9978 20164,10063 20085,10121 19995,10121 19761,10121 19710,9791 19934,9719 L 19934,9719 Z M 21482,7872 C 21475,7872 21468,7872 21461,7873 21401,7881 21345,7903 21293,7938 21243,7971 21197,8009 21154,8052 21122,8086 21092,8121 21061,8155 21051,8155 21041,8155 21031,8155 20844,8155 20657,8200 20490,8287 20485,8148 20372,8056 20253,8056 20201,8056 20147,8073 20101,8112 19949,8240 20012,8486 20206,8526 20146,8602 20098,8688 20063,8780 L 19995,8768 20078,8537 C 20086,8522 20090,8504 20086,8486 20083,8479 20076,8474 20068,8473 20057,8473 20048,8481 20042,8489 20010,8522 19978,8556 19949,8590 19922,8620 19897,8650 19872,8680 19826,8630 19781,8579 19734,8527 19726,8517 19712,8507 19697,8507 19692,8507 19688,8508 19683,8511 19680,8512 19676,8517 19678,8522 19703,8605 19733,8688 19764,8771 19696,8801 19632,8838 19570,8881 19558,8889 19544,8899 19545,8917 19548,8929 19559,8936 19571,8936 19573,8936 19575,8936 19577,8936 19585,8934 19593,8932 19602,8931 L 19633,8924 19693,8911 19827,8881 19831,8881 C 19837,8962 19847,9045 19862,9127 19862,9145 19869,9162 19879,9175 19884,9180 19889,9182 19895,9182 19897,9182 19898,9182 19900,9181 19909,9180 19915,9173 19919,9165 19922,9155 19924,9147 19925,9137 19929,9127 19930,9115 19932,9105 19937,9084 19940,9062 19944,9040 19950,8996 19954,8951 19957,8906 19977,8907 19998,8909 20020,8909 19993,9015 19977,9127 19972,9236 19972,9236 19821,9407 19915,9676 19915,9680 19917,9681 19919,9685 19748,9741 19695,9958 19821,10086 19870,10136 19932,10159 19994,10159 20092,10159 20188,10101 20224,9997 20397,10093 20632,10160 20916,10160 21250,10160 21653,10067 22100,9819 22100,9819 22135,9851 22186,9889 22183,9894 22180,9899 22177,9905 22162,9922 22155,9944 22155,9965 22158,9982 22172,9997 22188,10005 22198,10009 22208,10011 22219,10011 22222,10011 22226,10010 22230,10010 L 22230,10010 C 22228,10038 22243,10066 22268,10081 22279,10086 22290,10089 22302,10089 22313,10089 22324,10086 22334,10081 22334,10101 22347,10121 22367,10130 22374,10132 22381,10133 22388,10133 22404,10133 22419,10126 22432,10115 22437,10125 22445,10135 22455,10141 22467,10149 22480,10153 22494,10153 22504,10153 22514,10150 22524,10146 22580,10123 22592,10060 22603,10007 22605,10007 22607,10008 22609,10008 22612,10008 22614,10007 22616,10005 22686,9954 22759,9900 22807,9826 22831,9791 22847,9749 22856,9708 22860,9688 22859,9668 22847,9651 22837,9636 22821,9628 22802,9625 22794,9622 22784,9621 22775,9621 22771,9621 22768,9621 22764,9621 22764,9620 22763,9618 22761,9616 22781,9577 22781,9528 22766,9487 22746,9440 22700,9409 22650,9409 22649,9409 22648,9409 22646,9409 22621,9409 22598,9419 22580,9435 22572,9406 22552,9382 22527,9367 22615,9288 22701,9177 22668,9062 22651,9004 22600,8983 22534,8983 22463,8983 22376,9007 22294,9037 L 22281,9009 22223,8869 22459,8810 C 22475,8805 22497,8803 22507,8786 22510,8781 22510,8773 22507,8766 22502,8756 22489,8753 22479,8753 22434,8745 22387,8738 22343,8732 22303,8727 22265,8722 22225,8718 22243,8652 22260,8585 22276,8519 22281,8501 22281,8476 22261,8466 22260,8465 22259,8465 22258,8465 22255,8465 22252,8466 22250,8468 22195,8536 22142,8607 22090,8680 22027,8640 21961,8607 21891,8580 21884,8577 21875,8575 21866,8575 21864,8575 21861,8575 21858,8575 21823,8526 21781,8481 21737,8439 21747,8411 21750,8381 21748,8351 21745,8282 21713,8217 21659,8172 21634,8150 21605,8135 21574,8124 21597,8072 21615,8014 21597,7958 21590,7931 21572,7908 21551,7891 21530,7878 21506,7872 21482,7872 L 21482,7872 Z "/>
      <path fill="none" stroke="rgb(255,255,255)" stroke-width="318" stroke-linejoin="round" d="M 20254,8097 C 20362,8097 20460,8186 20452,8308 20370,8358 20296,8419 20232,8492 20216,8491 20201,8487 20184,8481 20032,8424 20010,8217 20146,8129 20181,8107 20218,8097 20254,8097 Z "/>
      <path fill="none" stroke="rgb(255,255,255)" stroke-width="318" stroke-linejoin="round" d="M 21936,8700 L 22034,8795 C 22035,8795 22035,8795 22037,8796 22022,8808 22007,8820 21992,8831 21977,8786 21957,8742 21936,8700 Z "/>
      <path fill="none" stroke="rgb(255,255,255)" stroke-width="318" stroke-linejoin="round" d="M 22087,8914 C 22118,8972 22157,9025 22201,9074 22113,9112 22050,9148 22050,9148 L 22050,9147 C 22049,9080 22042,9014 22025,8951 22047,8939 22067,8927 22087,8914 Z "/>
      <path fill="none" stroke="rgb(255,255,255)" stroke-width="318" stroke-linejoin="round" d="M 19934,9719 C 19978,9811 20066,9902 20191,9978 20164,10063 20085,10121 19995,10121 19761,10121 19710,9791 19934,9719 Z "/>
      <path fill="none" stroke="rgb(255,255,255)" stroke-width="318" stroke-linejoin="round" d="M 21482,7872 C 21475,7872 21468,7872 21461,7873 21401,7881 21345,7903 21293,7938 21243,7971 21197,8009 21154,8052 21122,8086 21092,8121 21061,8155 L 21031,8155 C 20844,8155 20657,8200 20490,8287 20485,8148 20372,8056 20253,8056 20201,8056 20147,8073 20101,8112 19949,8240 20012,8486 20206,8526 20146,8602 20098,8688 20063,8780 L 19995,8768 20078,8537 C 20086,8522 20090,8504 20086,8486 20083,8479 20076,8474 20068,8473 20057,8473 20048,8481 20042,8489 20010,8522 19978,8556 19949,8590 19922,8620 19897,8650 19872,8680 19826,8630 19781,8579 19734,8527 19726,8517 19712,8507 19697,8507 19692,8507 19688,8508 19683,8511 19680,8512 19676,8517 19678,8522 19703,8605 19733,8688 19764,8771 19696,8801 19632,8838 19570,8881 19558,8889 19544,8899 19545,8917 19548,8929 19559,8936 19571,8936 L 19577,8936 C 19585,8934 19593,8932 19602,8931 L 19633,8924 19693,8911 19827,8881 19831,8881 C 19837,8962 19847,9045 19862,9127 19862,9145 19869,9162 19879,9175 19884,9180 19889,9182 19895,9182 19897,9182 19898,9182 19900,9181 19909,9180 19915,9173 19919,9165 19922,9155 19924,9147 19925,9137 19929,9127 19930,9115 19932,9105 19937,9084 19940,9062 19944,9040 19950,8996 19954,8951 19957,8906 19977,8907 19998,8909 20020,8909 19993,9015 19977,9127 19972,9236 19972,9236 19821,9407 19915,9676 19915,9680 19917,9681 19919,9685 19748,9741 19695,9958 19821,10086 19870,10136 19932,10159 19994,10159 20092,10159 20188,10101 20224,9997 20397,10093 20632,10160 20916,10160 21250,10160 21653,10067 22100,9819 22100,9819 22135,9851 22186,9889 22183,9894 22180,9899 22177,9905 22162,9922 22155,9944 22155,9965 22158,9982 22172,9997 22188,10005 22198,10009 22208,10011 22219,10011 22222,10011 22226,10010 22230,10010 L 22230,10010 C 22228,10038 22243,10066 22268,10081 22279,10086 22290,10089 22302,10089 22313,10089 22324,10086 22334,10081 22334,10101 22347,10121 22367,10130 22374,10132 22381,10133 22388,10133 22404,10133 22419,10126 22432,10115 22437,10125 22445,10135 22455,10141 22467,10149 22480,10153 22494,10153 22504,10153 22514,10150 22524,10146 22580,10123 22592,10060 22603,10007 22605,10007 22607,10008 22609,10008 22612,10008 22614,10007 22616,10005 22686,9954 22759,9900 22807,9826 22831,9791 22847,9749 22856,9708 22860,9688 22859,9668 22847,9651 22837,9636 22821,9628 22802,9625 22794,9622 22784,9621 22775,9621 L 22764,9621 C 22764,9620 22763,9618 22761,9616 22781,9577 22781,9528 22766,9487 22746,9440 22700,9409 22650,9409 L 22646,9409 C 22621,9409 22598,9419 22580,9435 22572,9406 22552,9382 22527,9367 22615,9288 22701,9177 22668,9062 22651,9004 22600,8983 22534,8983 22463,8983 22376,9007 22294,9037 L 22281,9009 22223,8869 22459,8810 C 22475,8805 22497,8803 22507,8786 22510,8781 22510,8773 22507,8766 22502,8756 22489,8753 22479,8753 22434,8745 22387,8738 22343,8732 22303,8727 22265,8722 22225,8718 22243,8652 22260,8585 22276,8519 22281,8501 22281,8476 22261,8466 22260,8465 22259,8465 22258,8465 22255,8465 22252,8466 22250,8468 22195,8536 22142,8607 22090,8680 22027,8640 21961,8607 21891,8580 21884,8577 21875,8575 21866,8575 L 21858,8575 C 21823,8526 21781,8481 21737,8439 21747,8411 21750,8381 21748,8351 21745,8282 21713,8217 21659,8172 21634,8150 21605,8135 21574,8124 21597,8072 21615,8014 21597,7958 21590,7931 21572,7908 21551,7891 21530,7878 21506,7872 21482,7872 Z "/>
     </g>
    </g>
   </g>
   <g class="Group">
    <g class="com.sun.star.drawing.CustomShape">
     <g id="id5">
      <rect class="BoundingBox" stroke="none" fill="none" x="19750" y="9672" width="489" height="488"/>
      <path fill="rgb(55,45,49)" stroke="none" d="M 19994,9711 L 19994,9712 C 20107,9712 20199,9802 20200,9916 20200,10040 20099,10121 19994,10121 19943,10121 19892,10102 19850,10061 19720,9931 19811,9711 19994,9711 L 19994,9711 Z M 19993,9672 C 19933,9672 19871,9694 19821,9744 19669,9896 19777,10159 19994,10159 20129,10159 20238,10051 20238,9916 20238,9769 20118,9672 19993,9672 L 19993,9672 Z "/>
     </g>
    </g>
    <g class="com.sun.star.drawing.CustomShape">
     <g id="id6">
      <rect class="BoundingBox" stroke="none" fill="none" x="20031" y="9765" width="110" height="120"/>
      <path fill="rgb(53,137,201)" stroke="none" d="M 20090,9766 C 20088,9766 20086,9766 20084,9767 20081,9766 20078,9766 20076,9766 20052,9766 20032,9784 20032,9808 20032,9812 20032,9815 20032,9818 20028,9843 20041,9868 20064,9878 20072,9882 20080,9884 20088,9884 20104,9884 20120,9876 20129,9861 20144,9840 20142,9812 20125,9790 20117,9782 20109,9773 20097,9767 20095,9766 20093,9766 20090,9766 L 20090,9766 Z "/>
     </g>
    </g>
    <g class="com.sun.star.drawing.CustomShape">
     <g id="id7">
      <rect class="BoundingBox" stroke="none" fill="none" x="21816" y="8466" width="695" height="681"/>
      <path fill="rgb(250,231,127)" stroke="none" d="M 22257,8466 C 22254,8466 22251,8467 22249,8468 22194,8536 22141,8607 22089,8680 22026,8641 21960,8607 21890,8581 21883,8577 21873,8573 21864,8573 21858,8573 21852,8575 21847,8581 21837,8591 21837,8606 21847,8616 21854,8622 21859,8629 21865,8634 L 21889,8657 21933,8699 22033,8795 C 22033,8795 22035,8795 22035,8797 21970,8848 21908,8903 21849,8961 21837,8973 21820,8984 21817,9002 21816,9009 21819,9017 21824,9022 21829,9026 21835,9029 21841,9029 21844,9029 21846,9028 21849,9027 21859,9026 21867,9022 21875,9019 L 21907,9007 C 21927,8997 21947,8989 21965,8981 22006,8961 22046,8939 22086,8914 22126,8989 22177,9057 22239,9115 22249,9129 22264,9139 22280,9145 22283,9146 22286,9146 22289,9146 22302,9146 22314,9137 22319,9122 22320,9105 22317,9087 22307,9072 L 22280,9007 22222,8870 22460,8810 C 22476,8805 22496,8803 22506,8787 22510,8782 22510,8773 22506,8767 22501,8757 22488,8755 22478,8753 22433,8745 22387,8738 22342,8732 22304,8727 22264,8722 22224,8719 22242,8652 22259,8586 22275,8519 22280,8501 22280,8476 22260,8466 22260,8466 22258,8466 22257,8466 L 22257,8466 Z "/>
     </g>
    </g>
    <g class="com.sun.star.drawing.CustomShape">
     <g id="id8">
      <rect class="BoundingBox" stroke="none" fill="none" x="19544" y="8473" width="724" height="710"/>
      <path fill="rgb(250,231,127)" stroke="none" d="M 20068,8473 C 20056,8473 20048,8481 20041,8489 20010,8522 19978,8557 19949,8590 19922,8620 19897,8650 19872,8680 19826,8630 19781,8579 19734,8529 19726,8518 19711,8507 19697,8507 19692,8507 19688,8508 19683,8511 19680,8512 19676,8517 19678,8522 19703,8605 19733,8688 19764,8772 19696,8801 19632,8838 19570,8881 19558,8889 19544,8901 19545,8918 19548,8929 19559,8937 19571,8937 19573,8937 19575,8937 19577,8936 19585,8934 19593,8933 19602,8931 L 19633,8924 19693,8911 19827,8881 19831,8881 C 19837,8963 19847,9046 19862,9127 19862,9145 19869,9162 19879,9175 19884,9180 19889,9182 19895,9182 19897,9182 19898,9182 19900,9182 19909,9180 19915,9174 19919,9165 19922,9155 19924,9147 19925,9137 19929,9127 19930,9115 19932,9105 19937,9084 19940,9062 19944,9041 19950,8996 19953,8951 19957,8906 19981,8908 20005,8910 20029,8910 20088,8910 20148,8903 20207,8889 20226,8888 20242,8881 20256,8871 20269,8861 20271,8841 20259,8828 20246,8816 20227,8808 20211,8808 L 20143,8795 19995,8768 20078,8537 C 20086,8522 20090,8504 20086,8486 20083,8479 20076,8474 20068,8473 L 20068,8473 Z "/>
     </g>
    </g>
    <g class="com.sun.star.drawing.CustomShape">
     <g id="id9">
      <rect class="BoundingBox" stroke="none" fill="none" x="20016" y="8060" width="474" height="472"/>
      <path fill="rgb(55,45,49)" stroke="none" d="M 20252,8098 C 20275,8098 20299,8102 20322,8111 20489,8173 20497,8404 20336,8477 20308,8489 20280,8495 20253,8495 20123,8495 20016,8364 20067,8228 20096,8148 20171,8098 20252,8098 L 20252,8098 Z M 20250,8061 C 20089,8061 19965,8231 20038,8394 20080,8486 20166,8531 20252,8531 20344,8531 20436,8480 20474,8379 20519,8258 20457,8121 20336,8077 20307,8066 20278,8061 20250,8061 L 20250,8061 Z "/>
     </g>
    </g>
    <g class="com.sun.star.drawing.CustomShape">
     <g id="id10">
      <rect class="BoundingBox" stroke="none" fill="none" x="20144" y="8133" width="117" height="105"/>
      <path fill="rgb(55,45,49)" stroke="none" d="M 20203,8133 C 20197,8133 20191,8134 20185,8136 20173,8139 20163,8144 20155,8152 20150,8156 20148,8161 20150,8166 20137,8187 20146,8216 20170,8226 20173,8226 20175,8227 20178,8227 20187,8233 20197,8236 20207,8236 20220,8236 20234,8230 20245,8221 20263,8204 20264,8176 20250,8156 20238,8141 20221,8133 20203,8133 L 20203,8133 Z "/>
     </g>
    </g>
    <g class="com.sun.star.drawing.CustomShape">
     <g id="id11">
      <rect class="BoundingBox" stroke="none" fill="none" x="19883" y="7872" width="2791" height="2289"/>
      <path fill="rgb(205,234,157)" stroke="none" d="M 21480,7872 C 21474,7872 21467,7872 21460,7873 21400,7881 21344,7905 21292,7938 21242,7971 21196,8009 21153,8052 21121,8086 21091,8121 21060,8155 21051,8155 21041,8155 21028,8155 20815,8155 20025,8220 19971,9236 19971,9236 19820,9407 19914,9676 19996,9907 20364,10160 20915,10160 21250,10160 21652,10066 22099,9819 22099,9819 22318,10013 22451,10018 22452,10018 22454,10018 22455,10018 22587,10018 22739,9686 22361,9485 22361,9485 22728,9281 22665,9062 22648,9004 22598,8983 22532,8983 22349,8983 22049,9148 22049,9148 22049,9148 22059,8735 21735,8438 21745,8409 21749,8379 21747,8351 21744,8280 21712,8215 21657,8172 21632,8150 21604,8135 21573,8125 21596,8072 21614,8016 21596,7959 21589,7931 21571,7908 21549,7891 21529,7878 21505,7872 21480,7872 L 21480,7872 Z "/>
     </g>
    </g>
    <g class="com.sun.star.drawing.CustomShape">
     <g id="id12">
      <rect class="BoundingBox" stroke="none" fill="none" x="21479" y="9147" width="573" height="769"/>
      <path fill="rgb(55,45,49)" stroke="none" d="M 21751,9147 C 21744,9147 21736,9147 21729,9147 21707,9147 21707,9182 21729,9182 21794,9182 21863,9182 21920,9215 21963,9242 21996,9290 21985,9341 21980,9368 21961,9389 21938,9401 21933,9403 21930,9408 21930,9413 L 21923,9413 21900,9409 C 21883,9408 21868,9404 21853,9401 21822,9396 21790,9388 21760,9379 21759,9379 21758,9379 21757,9379 21741,9379 21735,9403 21752,9411 21789,9423 21827,9431 21865,9438 21883,9441 21902,9444 21920,9446 21924,9447 21928,9447 21932,9447 21939,9447 21946,9446 21953,9443 21991,9477 22015,9527 22016,9579 22016,9639 21988,9693 21940,9728 21917,9743 21892,9755 21865,9760 21863,9758 21862,9756 21860,9755 21785,9715 21716,9665 21652,9605 21649,9603 21646,9601 21642,9601 21629,9601 21617,9618 21629,9630 21691,9687 21759,9736 21832,9778 21827,9831 21777,9869 21727,9879 21717,9882 21708,9883 21698,9883 21650,9883 21606,9857 21571,9823 21546,9798 21526,9768 21511,9735 21508,9729 21503,9727 21499,9727 21487,9727 21476,9739 21481,9751 21511,9820 21564,9873 21632,9903 21654,9911 21677,9915 21700,9915 21743,9915 21784,9900 21817,9871 21840,9851 21857,9823 21863,9793 21928,9783 21985,9745 22020,9688 22056,9629 22060,9554 22030,9491 22016,9462 21998,9438 21975,9418 22015,9383 22030,9330 22015,9280 21993,9213 21930,9174 21865,9159 21828,9150 21790,9147 21751,9147 L 21751,9147 Z "/>
     </g>
    </g>
    <g class="com.sun.star.drawing.CustomShape">
     <g id="id13">
      <rect class="BoundingBox" stroke="none" fill="none" x="21066" y="8156" width="670" height="289"/>
      <path fill="rgb(55,45,49)" stroke="none" d="M 21084,8156 C 21065,8156 21060,8184 21078,8188 21252,8224 21431,8261 21586,8352 21629,8377 21669,8406 21705,8440 21709,8443 21713,8444 21717,8444 21730,8444 21741,8428 21729,8415 21592,8290 21415,8231 21239,8189 21189,8178 21138,8166 21088,8156 21087,8156 21085,8156 21084,8156 L 21084,8156 Z "/>
     </g>
    </g>
    <g class="com.sun.star.drawing.CustomShape">
     <g id="id14">
      <rect class="BoundingBox" stroke="none" fill="none" x="20072" y="9503" width="364" height="218"/>
      <path fill="rgb(241,152,197)" stroke="none" d="M 20252,9504 C 20238,9504 20223,9505 20209,9508 20206,9508 20204,9508 20201,9508 20169,9508 20139,9518 20112,9538 20079,9564 20058,9613 20084,9652 20109,9691 20162,9702 20204,9711 20228,9717 20253,9720 20278,9720 20302,9720 20327,9717 20351,9711 20393,9697 20444,9662 20433,9611 20426,9588 20411,9568 20391,9554 20373,9540 20353,9528 20331,9518 20306,9508 20279,9504 20252,9504 L 20252,9504 Z "/>
     </g>
    </g>
    <g class="com.sun.star.drawing.CustomShape">
     <g id="id15">
      <rect class="BoundingBox" stroke="none" fill="none" x="20908" y="9503" width="363" height="216"/>
      <path fill="rgb(241,152,197)" stroke="none" d="M 21088,9503 C 21073,9503 21058,9504 21044,9507 21041,9507 21039,9507 21036,9507 21004,9507 20974,9517 20949,9535 20916,9562 20895,9612 20919,9650 20946,9690 20999,9702 21041,9710 21064,9716 21087,9718 21111,9718 21136,9718 21162,9715 21187,9708 21228,9697 21279,9662 21268,9610 21261,9587 21246,9567 21226,9554 21208,9539 21188,9527 21167,9517 21141,9507 21114,9503 21088,9503 L 21088,9503 Z "/>
     </g>
    </g>
    <g class="com.sun.star.drawing.CustomShape">
     <g id="id16">
      <rect class="BoundingBox" stroke="none" fill="none" x="20799" y="8810" width="581" height="639"/>
      <path fill="rgb(255,255,255)" stroke="none" d="M 21084,8811 C 21067,8814 21049,8819 21032,8824 L 21026,8824 C 20893,8869 20803,8991 20800,9131 20797,9270 20896,9391 21027,9433 21059,9443 21090,9448 21122,9448 21221,9448 21318,9400 21379,9317 21270,9273 21180,9177 21127,9069 21089,8990 21074,8898 21084,8811 L 21084,8811 Z "/>
     </g>
    </g>
    <g class="com.sun.star.drawing.CustomShape">
     <g id="id17">
      <rect class="BoundingBox" stroke="none" fill="none" x="21080" y="8806" width="368" height="513"/>
      <path fill="rgb(55,45,49)" stroke="none" d="M 21141,8806 C 21139,8806 21137,8806 21135,8806 21118,8806 21102,8807 21084,8809 21074,8899 21088,8988 21127,9068 21180,9176 21270,9273 21379,9317 21436,9244 21457,9150 21442,9060 L 21441,9060 C 21426,8990 21389,8925 21334,8879 21281,8832 21212,8806 21141,8806 L 21141,8806 Z "/>
     </g>
    </g>
    <g class="com.sun.star.drawing.CustomShape">
     <g id="id18">
      <rect class="BoundingBox" stroke="none" fill="none" x="20042" y="8813" width="481" height="638"/>
      <path fill="rgb(255,255,255)" stroke="none" d="M 20279,8813 C 20264,8816 20251,8821 20236,8826 L 20231,8826 C 20123,8867 20047,8997 20043,9133 20042,9272 20125,9394 20231,9435 20256,9446 20282,9450 20308,9450 20391,9450 20471,9401 20522,9319 20432,9276 20359,9178 20316,9070 20282,8989 20271,8900 20279,8813 L 20279,8813 Z "/>
     </g>
    </g>
    <g class="com.sun.star.drawing.CustomShape">
     <g id="id19">
      <rect class="BoundingBox" stroke="none" fill="none" x="20278" y="8808" width="302" height="512"/>
      <path fill="rgb(55,45,49)" stroke="none" d="M 20323,8809 C 20308,8809 20295,8810 20282,8813 20272,8901 20283,8989 20316,9071 20360,9178 20433,9276 20524,9319 20532,9306 20539,9291 20546,9276 20575,9210 20585,9135 20574,9064 20564,8996 20532,8933 20486,8883 20444,8835 20384,8809 20323,8809 L 20323,8809 Z "/>
     </g>
    </g>
    <g class="com.sun.star.drawing.CustomShape">
     <g id="id20">
      <rect class="BoundingBox" stroke="none" fill="none" x="20529" y="9392" width="266" height="187"/>
      <path fill="rgb(55,45,49)" stroke="none" d="M 20775,9392 C 20769,9392 20763,9395 20762,9404 20755,9437 20745,9470 20734,9502 20729,9515 20722,9533 20709,9540 20701,9543 20693,9544 20686,9544 20681,9544 20676,9543 20671,9541 20616,9530 20583,9477 20560,9430 20556,9424 20551,9421 20546,9421 20535,9421 20525,9433 20531,9447 20560,9503 20603,9566 20671,9576 20676,9577 20680,9578 20685,9578 20698,9578 20710,9574 20722,9570 20739,9561 20750,9548 20757,9530 20774,9492 20787,9453 20793,9412 20796,9400 20785,9392 20775,9392 L 20775,9392 Z "/>
     </g>
    </g>
    <g class="com.sun.star.drawing.CustomShape">
     <g id="id21">
      <rect class="BoundingBox" stroke="none" fill="none" x="22131" y="9352" width="728" height="801"/>
      <path fill="rgb(143,221,239)" stroke="none" d="M 22461,9352 C 22424,9352 22387,9365 22357,9390 22334,9410 22314,9433 22297,9460 22279,9436 22254,9413 22224,9413 22219,9413 22213,9414 22208,9415 22169,9427 22146,9465 22138,9503 22131,9541 22130,9579 22135,9618 22138,9656 22145,9692 22158,9727 22171,9767 22189,9805 22213,9840 22214,9843 22216,9843 22218,9845 22216,9847 22214,9847 22214,9848 22199,9866 22188,9885 22176,9905 22161,9921 22154,9941 22154,9963 22158,9981 22171,9996 22188,10004 22198,10008 22208,10010 22218,10010 22222,10010 22226,10010 22229,10009 L 22229,10009 C 22228,10037 22243,10066 22267,10079 22278,10085 22290,10088 22301,10088 22313,10088 22324,10085 22334,10079 22334,10100 22347,10120 22367,10129 22374,10131 22380,10131 22387,10131 22403,10131 22419,10126 22432,10114 22437,10124 22445,10134 22455,10139 22467,10147 22481,10152 22495,10152 22504,10152 22514,10149 22523,10145 22580,10122 22591,10059 22603,10006 22605,10007 22607,10007 22609,10007 22612,10007 22614,10006 22616,10004 22686,9953 22759,9898 22807,9825 22831,9788 22847,9749 22855,9705 22860,9687 22857,9667 22849,9651 22837,9636 22821,9627 22802,9624 22794,9621 22785,9620 22775,9620 22770,9620 22765,9620 22759,9621 22779,9578 22781,9530 22764,9486 22744,9438 22696,9407 22644,9407 22620,9408 22596,9418 22578,9433 22568,9398 22542,9370 22507,9359 22492,9354 22476,9352 22461,9352 L 22461,9352 Z "/>
     </g>
    </g>
    <g class="com.sun.star.drawing.CustomShape">
     <g id="id22">
      <rect class="BoundingBox" stroke="none" fill="none" x="22217" y="9452" width="550" height="556"/>
      <path fill="rgb(55,45,49)" stroke="none" d="M 22568,9452 C 22563,9452 22559,9454 22557,9460 22507,9608 22457,9754 22402,9900 22402,9900 22402,9902 22402,9904 L 22271,9851 C 22283,9724 22301,9600 22329,9477 22331,9467 22324,9461 22316,9461 22309,9461 22303,9465 22301,9473 22275,9595 22255,9716 22243,9839 L 22235,9836 C 22233,9835 22232,9835 22231,9835 22218,9835 22212,9853 22225,9861 L 22583,10007 C 22585,10007 22586,10007 22588,10007 22601,10007 22607,9988 22595,9980 L 22559,9965 22559,9965 C 22559,9966 22560,9966 22560,9966 22563,9966 22566,9963 22568,9962 L 22763,9636 C 22767,9630 22766,9621 22759,9616 22757,9614 22754,9613 22752,9613 22747,9613 22743,9616 22741,9620 L 22547,9944 C 22545,9945 22545,9945 22545,9947 22544,9947 22543,9947 22542,9947 22537,9947 22532,9951 22530,9955 L 22427,9914 C 22427,9914 22429,9912 22429,9910 22482,9764 22533,9618 22582,9470 22586,9459 22577,9452 22568,9452 L 22568,9452 Z "/>
     </g>
    </g>
   </g>
  </g>
 </g>
</svg>