<?xml version="1.0" encoding="UTF-8"?>
<!DOCTYPE svg PUBLIC "-//W3C//DTD SVG 1.1//EN" "http://www.w3.org/Graphics/SVG/1.1/DTD/svg11.dtd">
<svg version="1.2" viewBox="8747 9742 3238 3075" preserveAspectRatio="xMidYMid" fill-rule="evenodd" stroke-width="28.222" stroke-linejoin="round" xmlns="http://www.w3.org/2000/svg" xmlns:ooo="http://xml.openoffice.org/svg/export" xmlns:xlink="http://www.w3.org/1999/xlink" xmlns:presentation="http://sun.com/xmlns/staroffice/presentation" xmlns:smil="http://www.w3.org/2001/SMIL20/" xmlns:anim="urn:oasis:names:tc:opendocument:xmlns:animation:1.0" xmlns:svg="urn:oasis:names:tc:opendocument:xmlns:svg-compatible:1.0" xml:space="preserve">
 <defs class="EmbeddedBulletChars">
  <g id="bullet-char-template-57356" transform="scale(0.00048828125,-0.00048828125)">
   <path d="M 580,1141 L 1163,571 580,0 -4,571 580,1141 Z"/>
  </g>
  <g id="bullet-char-template-57354" transform="scale(0.00048828125,-0.00048828125)">
   <path d="M 8,1128 L 1137,1128 1137,0 8,0 8,1128 Z"/>
  </g>
  <g id="bullet-char-template-10146" transform="scale(0.00048828125,-0.00048828125)">
   <path d="M 174,0 L 602,739 174,1481 1456,739 174,0 Z M 1358,739 L 309,1346 659,739 1358,739 Z"/>
  </g>
  <g id="bullet-char-template-10132" transform="scale(0.00048828125,-0.00048828125)">
   <path d="M 2015,739 L 1276,0 717,0 1260,543 174,543 174,936 1260,936 717,1481 1274,1481 2015,739 Z"/>
  </g>
  <g id="bullet-char-template-10007" transform="scale(0.00048828125,-0.00048828125)">
   <path d="M 0,-2 C -7,14 -16,27 -25,37 L 356,567 C 262,823 215,952 215,954 215,979 228,992 255,992 264,992 276,990 289,987 310,991 331,999 354,1012 L 381,999 492,748 772,1049 836,1024 860,1049 C 881,1039 901,1025 922,1006 886,937 835,863 770,784 769,783 710,716 594,584 L 774,223 C 774,196 753,168 711,139 L 727,119 C 717,90 699,76 672,76 641,76 570,178 457,381 L 164,-76 C 142,-110 111,-127 72,-127 30,-127 9,-110 8,-76 1,-67 -2,-52 -2,-32 -2,-23 -1,-13 0,-2 Z"/>
  </g>
  <g id="bullet-char-template-10004" transform="scale(0.00048828125,-0.00048828125)">
   <path d="M 285,-33 C 182,-33 111,30 74,156 52,228 41,333 41,471 41,549 55,616 82,672 116,743 169,778 240,778 293,778 328,747 346,684 L 369,508 C 377,444 397,411 428,410 L 1163,1116 C 1174,1127 1196,1133 1229,1133 1271,1133 1292,1118 1292,1087 L 1292,965 C 1292,929 1282,901 1262,881 L 442,47 C 390,-6 338,-33 285,-33 Z"/>
  </g>
  <g id="bullet-char-template-9679" transform="scale(0.00048828125,-0.00048828125)">
   <path d="M 813,0 C 632,0 489,54 383,161 276,268 223,411 223,592 223,773 276,916 383,1023 489,1130 632,1184 813,1184 992,1184 1136,1130 1245,1023 1353,916 1407,772 1407,592 1407,412 1353,268 1245,161 1136,54 992,0 813,0 Z"/>
  </g>
  <g id="bullet-char-template-8226" transform="scale(0.00048828125,-0.00048828125)">
   <path d="M 346,457 C 273,457 209,483 155,535 101,586 74,649 74,723 74,796 101,859 155,911 209,963 273,989 346,989 419,989 480,963 531,910 582,859 608,796 608,723 608,648 583,586 532,535 482,483 420,457 346,457 Z"/>
  </g>
  <g id="bullet-char-template-8211" transform="scale(0.00048828125,-0.00048828125)">
   <path d="M -4,459 L 1135,459 1135,606 -4,606 -4,459 Z"/>
  </g>
  <g id="bullet-char-template-61548" transform="scale(0.00048828125,-0.00048828125)">
   <path d="M 173,740 C 173,903 231,1043 346,1159 462,1274 601,1332 765,1332 928,1332 1067,1274 1183,1159 1299,1043 1357,903 1357,740 1357,577 1299,437 1183,322 1067,206 928,148 765,148 601,148 462,206 346,322 231,437 173,577 173,740 Z"/>
  </g>
 </defs>
 <g ooo:name="Date" class="Page">
  <g class="Group">
   <g class="com.sun.star.drawing.CustomShape">
    <g id="id3">
     <rect class="BoundingBox" stroke="none" fill="none" x="8747" y="9742" width="3238" height="3075"/>
     <g style="opacity: 0.2">
      <path fill="rgb(55,45,49)" stroke="none" d="M 9333,10171 C 9410,10171 9473,10232 9473,10311 9473,10387 9410,10448 9333,10448 9257,10448 9194,10387 9194,10309 9194,10232 9257,10171 9333,10171 L 9333,10171 Z M 9169,10647 C 9228,10647 9287,10673 9328,10729 9314,10815 9307,10900 9307,10986 9266,11026 9217,11044 9169,11044 9061,11044 8960,10956 8970,10830 8979,10716 9073,10647 9169,10647 L 9169,10647 Z M 11508,11144 C 11626,11144 11726,11250 11704,11376 11686,11478 11598,11542 11507,11542 11465,11542 11422,11528 11386,11499 11414,11386 11435,11270 11445,11156 L 11445,11154 C 11466,11147 11487,11144 11508,11144 L 11508,11144 Z M 10439,9954 C 10027,9954 9702,10060 9496,10339 9498,10329 9498,10321 9498,10311 9498,10219 9425,10144 9332,10144 9241,10144 9166,10219 9166,10311 9166,10402 9241,10477 9332,10477 9367,10477 9398,10467 9426,10447 L 9426,10447 C 9416,10465 9408,10482 9398,10500 9372,10560 9352,10621 9338,10684 9291,10634 9230,10611 9168,10611 9079,10611 8991,10661 8952,10754 8884,10908 8998,11083 9167,11083 9217,11081 9265,11066 9307,11036 9309,11141 9319,11247 9333,11352 9322,11356 9310,11361 9299,11366 9279,11302 9257,11237 9237,11172 9231,11155 9219,11135 9200,11135 9199,11135 9197,11135 9196,11136 9191,11136 9187,11139 9187,11142 9176,11230 9169,11318 9166,11406 9091,11406 9016,11415 8943,11430 8930,11431 8910,11435 8907,11451 8903,11466 8913,11478 8927,11481 8935,11484 8943,11486 8952,11488 L 8983,11494 9043,11506 9179,11534 9182,11534 C 9154,11612 9131,11692 9113,11772 9106,11788 9104,11806 9108,11823 9111,11831 9118,11836 9124,11838 9134,11838 9143,11836 9149,11830 9156,11823 9161,11815 9166,11806 9172,11798 9179,11790 9186,11780 L 9192,11770 C 9194,11778 9196,11786 9197,11795 9207,11830 9219,11863 9254,11886 9249,11893 9250,11904 9259,11908 9284,11919 9311,11924 9338,11924 9368,11924 9398,11917 9425,11904 9450,11893 9473,11879 9493,11863 L 9493,11863 C 9480,11921 9471,11979 9468,12037 9461,12138 9470,12240 9490,12339 9501,12394 9518,12451 9539,12504 9554,12545 9594,12572 9639,12572 9647,12572 9657,12572 9667,12568 9695,12560 9720,12540 9734,12514 9747,12487 9747,12457 9737,12431 9679,12280 9662,12115 9690,11956 L 9690,11956 C 9724,11976 9758,11992 9795,12004 9835,12016 9877,12022 9920,12022 9948,12022 9976,12019 10004,12014 10012,12045 10022,12079 10034,12109 L 10036,12115 C 10052,12153 10064,12195 10071,12235 10074,12276 10072,12319 10062,12359 10051,12412 10034,12466 10014,12517 10001,12552 10008,12590 10032,12618 10052,12643 10082,12656 10114,12656 10120,12656 10127,12656 10134,12655 10170,12648 10202,12622 10215,12587 10252,12482 10288,12371 10283,12251 10280,12192 10268,12133 10248,12079 10243,12067 10240,12055 10235,12044 10223,12014 10213,11982 10205,11951 10203,11941 10202,11933 10202,11924 10223,11906 10245,11886 10263,11865 10338,11948 10436,12004 10545,12031 10560,12034 10577,12037 10592,12039 10577,12225 10609,12411 10683,12582 10695,12608 10718,12630 10746,12638 10756,12642 10768,12643 10780,12643 10780,12643 10781,12643 10782,12643 10859,12643 10907,12563 10876,12494 10816,12356 10791,12205 10803,12055 10804,12044 10804,12034 10806,12024 10833,12016 10858,12007 10882,11996 10944,11969 10999,11931 11045,11883 L 11047,11881 C 11050,11879 11052,11878 11055,11875 11118,12009 11141,12158 11127,12304 11122,12351 11112,12396 11097,12439 11087,12475 11097,12514 11122,12542 11143,12562 11170,12574 11199,12574 11208,12574 11217,12572 11226,12570 11263,12562 11291,12534 11301,12497 11357,12298 11352,12087 11288,11891 L 11284,11884 11284,11884 C 11291,11885 11297,11885 11303,11885 11333,11885 11363,11882 11392,11876 11400,11875 11405,11866 11402,11858 11498,11836 11507,11752 11490,11684 11469,11602 11376,11547 11376,11547 L 11377,11537 C 11419,11566 11465,11579 11510,11579 11619,11579 11723,11503 11744,11383 11769,11235 11653,11107 11512,11107 11492,11107 11471,11110 11450,11116 11465,10948 11449,10779 11400,10618 L 11402,10616 C 11442,10691 11493,10759 11553,10817 11565,10830 11580,10840 11595,10845 11598,10846 11601,10846 11603,10846 11617,10846 11629,10837 11633,10824 11635,10805 11631,10787 11621,10772 L 11595,10709 11537,10571 11774,10511 C 11791,10506 11811,10505 11822,10488 11826,10483 11826,10475 11822,10468 11817,10458 11804,10455 11794,10453 11749,10447 11703,10440 11658,10433 11618,10428 11580,10423 11540,10420 11558,10354 11575,10287 11591,10221 11595,10203 11596,10178 11576,10168 11575,10167 11574,10167 11572,10167 11570,10167 11567,10168 11565,10169 11510,10237 11457,10309 11405,10382 11344,10344 11281,10312 11215,10286 10999,10042 10682,9954 10439,9954 L 10439,9954 Z "/>
      <path fill="none" stroke="rgb(55,45,49)" stroke-width="318" stroke-linejoin="round" d="M 9333,10171 C 9410,10171 9473,10232 9473,10311 9473,10387 9410,10448 9333,10448 9257,10448 9194,10387 9194,10309 9194,10232 9257,10171 9333,10171 Z "/>
      <path fill="none" stroke="rgb(55,45,49)" stroke-width="318" stroke-linejoin="round" d="M 9169,10647 C 9228,10647 9287,10673 9328,10729 9314,10815 9307,10900 9307,10986 9266,11026 9217,11044 9169,11044 9061,11044 8960,10956 8970,10830 8979,10716 9073,10647 9169,10647 Z "/>
      <path fill="none" stroke="rgb(55,45,49)" stroke-width="318" stroke-linejoin="round" d="M 11508,11144 C 11626,11144 11726,11250 11704,11376 11686,11478 11598,11542 11507,11542 11465,11542 11422,11528 11386,11499 11414,11386 11435,11270 11445,11156 L 11445,11154 C 11466,11147 11487,11144 11508,11144 Z "/>
      <path fill="none" stroke="rgb(55,45,49)" stroke-width="318" stroke-linejoin="round" d="M 10439,9954 C 10027,9954 9702,10060 9496,10339 9498,10329 9498,10321 9498,10311 9498,10219 9425,10144 9332,10144 9241,10144 9166,10219 9166,10311 9166,10402 9241,10477 9332,10477 9367,10477 9398,10467 9426,10447 L 9426,10447 C 9416,10465 9408,10482 9398,10500 9372,10560 9352,10621 9338,10684 9291,10634 9230,10611 9168,10611 9079,10611 8991,10661 8952,10754 8884,10908 8998,11083 9167,11083 9217,11081 9265,11066 9307,11036 9309,11141 9319,11247 9333,11352 9322,11356 9310,11361 9299,11366 9279,11302 9257,11237 9237,11172 9231,11155 9219,11135 9200,11135 9199,11135 9197,11135 9196,11136 9191,11136 9187,11139 9187,11142 9176,11230 9169,11318 9166,11406 9091,11406 9016,11415 8943,11430 8930,11431 8910,11435 8907,11451 8903,11466 8913,11478 8927,11481 8935,11484 8943,11486 8952,11488 L 8983,11494 9043,11506 9179,11534 9182,11534 C 9154,11612 9131,11692 9113,11772 9106,11788 9104,11806 9108,11823 9111,11831 9118,11836 9124,11838 9134,11838 9143,11836 9149,11830 9156,11823 9161,11815 9166,11806 9172,11798 9179,11790 9186,11780 L 9192,11770 C 9194,11778 9196,11786 9197,11795 9207,11830 9219,11863 9254,11886 9249,11893 9250,11904 9259,11908 9284,11919 9311,11924 9338,11924 9368,11924 9398,11917 9425,11904 9450,11893 9473,11879 9493,11863 L 9493,11863 C 9480,11921 9471,11979 9468,12037 9461,12138 9470,12240 9490,12339 9501,12394 9518,12451 9539,12504 9554,12545 9594,12572 9639,12572 9647,12572 9657,12572 9667,12568 9695,12560 9720,12540 9734,12514 9747,12487 9747,12457 9737,12431 9679,12280 9662,12115 9690,11956 L 9690,11956 C 9724,11976 9758,11992 9795,12004 9835,12016 9877,12022 9920,12022 9948,12022 9976,12019 10004,12014 10012,12045 10022,12079 10034,12109 L 10036,12115 C 10052,12153 10064,12195 10071,12235 10074,12276 10072,12319 10062,12359 10051,12412 10034,12466 10014,12517 10001,12552 10008,12590 10032,12618 10052,12643 10082,12656 10114,12656 10120,12656 10127,12656 10134,12655 10170,12648 10202,12622 10215,12587 10252,12482 10288,12371 10283,12251 10280,12192 10268,12133 10248,12079 10243,12067 10240,12055 10235,12044 10223,12014 10213,11982 10205,11951 10203,11941 10202,11933 10202,11924 10223,11906 10245,11886 10263,11865 10338,11948 10436,12004 10545,12031 10560,12034 10577,12037 10592,12039 10577,12225 10609,12411 10683,12582 10695,12608 10718,12630 10746,12638 10756,12642 10768,12643 10780,12643 L 10782,12643 C 10859,12643 10907,12563 10876,12494 10816,12356 10791,12205 10803,12055 10804,12044 10804,12034 10806,12024 10833,12016 10858,12007 10882,11996 10944,11969 10999,11931 11045,11883 L 11047,11881 C 11050,11879 11052,11878 11055,11875 11118,12009 11141,12158 11127,12304 11122,12351 11112,12396 11097,12439 11087,12475 11097,12514 11122,12542 11143,12562 11170,12574 11199,12574 11208,12574 11217,12572 11226,12570 11263,12562 11291,12534 11301,12497 11357,12298 11352,12087 11288,11891 L 11284,11884 11284,11884 C 11291,11885 11297,11885 11303,11885 11333,11885 11363,11882 11392,11876 11400,11875 11405,11866 11402,11858 11498,11836 11507,11752 11490,11684 11469,11602 11376,11547 11376,11547 L 11377,11537 C 11419,11566 11465,11579 11510,11579 11619,11579 11723,11503 11744,11383 11769,11235 11653,11107 11512,11107 11492,11107 11471,11110 11450,11116 11465,10948 11449,10779 11400,10618 L 11402,10616 C 11442,10691 11493,10759 11553,10817 11565,10830 11580,10840 11595,10845 11598,10846 11601,10846 11603,10846 11617,10846 11629,10837 11633,10824 11635,10805 11631,10787 11621,10772 L 11595,10709 11537,10571 11774,10511 C 11791,10506 11811,10505 11822,10488 11826,10483 11826,10475 11822,10468 11817,10458 11804,10455 11794,10453 11749,10447 11703,10440 11658,10433 11618,10428 11580,10423 11540,10420 11558,10354 11575,10287 11591,10221 11595,10203 11596,10178 11576,10168 11575,10167 11574,10167 11572,10167 11570,10167 11567,10168 11565,10169 11510,10237 11457,10309 11405,10382 11344,10344 11281,10312 11215,10286 10999,10042 10682,9954 10439,9954 Z "/>
     </g>
     <path fill="rgb(255,255,255)" stroke="none" d="M 9333,10118 C 9410,10118 9473,10179 9473,10258 9473,10334 9410,10395 9333,10395 9257,10395 9194,10334 9194,10256 9194,10179 9257,10118 9333,10118 L 9333,10118 Z M 9169,10594 C 9228,10594 9287,10620 9328,10676 9314,10762 9307,10847 9307,10933 9266,10973 9217,10991 9169,10991 9061,10991 8960,10903 8970,10777 8979,10663 9073,10594 9169,10594 L 9169,10594 Z M 11508,11091 C 11626,11091 11726,11197 11704,11323 11686,11425 11598,11489 11507,11489 11465,11489 11422,11475 11386,11446 11414,11333 11435,11217 11445,11103 L 11445,11101 C 11466,11094 11487,11091 11508,11091 L 11508,11091 Z M 10439,9901 C 10027,9901 9702,10007 9496,10286 9498,10276 9498,10268 9498,10258 9498,10166 9425,10091 9332,10091 9241,10091 9166,10166 9166,10258 9166,10349 9241,10424 9332,10424 9367,10424 9398,10414 9426,10394 L 9426,10394 C 9416,10412 9408,10429 9398,10447 9372,10507 9352,10568 9338,10631 9291,10581 9230,10558 9168,10558 9079,10558 8991,10608 8952,10701 8884,10855 8998,11030 9167,11030 9217,11028 9265,11013 9307,10983 9309,11088 9319,11194 9333,11299 9322,11303 9310,11308 9299,11313 9279,11249 9257,11184 9237,11119 9231,11102 9219,11082 9200,11082 9199,11082 9197,11082 9196,11083 9191,11083 9187,11086 9187,11089 9176,11177 9169,11265 9166,11353 9091,11353 9016,11362 8943,11377 8930,11378 8910,11382 8907,11398 8903,11413 8913,11425 8927,11428 8935,11431 8943,11433 8952,11435 L 8983,11441 9043,11453 9179,11481 9182,11481 C 9154,11559 9131,11639 9113,11719 9106,11735 9104,11753 9108,11770 9111,11778 9118,11783 9124,11785 9134,11785 9143,11783 9149,11777 9156,11770 9161,11762 9166,11753 9172,11745 9179,11737 9186,11727 L 9192,11717 C 9194,11725 9196,11733 9197,11742 9207,11777 9219,11810 9254,11833 9249,11840 9250,11851 9259,11855 9284,11866 9311,11871 9338,11871 9368,11871 9398,11864 9425,11851 9450,11840 9473,11826 9493,11810 L 9493,11810 C 9480,11868 9471,11926 9468,11984 9461,12085 9470,12187 9490,12286 9501,12341 9518,12398 9539,12451 9554,12492 9594,12519 9639,12519 9647,12519 9657,12519 9667,12515 9695,12507 9720,12487 9734,12461 9747,12434 9747,12404 9737,12378 9679,12227 9662,12062 9690,11903 L 9690,11903 C 9724,11923 9758,11939 9795,11951 9835,11963 9877,11969 9920,11969 9948,11969 9976,11966 10004,11961 10012,11992 10022,12026 10034,12056 L 10036,12062 C 10052,12100 10064,12142 10071,12182 10074,12223 10072,12266 10062,12306 10051,12359 10034,12413 10014,12464 10001,12499 10008,12537 10032,12565 10052,12590 10082,12603 10114,12603 10120,12603 10127,12603 10134,12602 10170,12595 10202,12569 10215,12534 10252,12429 10288,12318 10283,12198 10280,12139 10268,12080 10248,12026 10243,12014 10240,12002 10235,11991 10223,11961 10213,11929 10205,11898 10203,11888 10202,11880 10202,11871 10223,11853 10245,11833 10263,11812 10338,11895 10436,11951 10545,11978 10560,11981 10577,11984 10592,11986 10577,12172 10609,12358 10683,12529 10695,12555 10718,12577 10746,12585 10756,12589 10768,12590 10780,12590 10780,12590 10781,12590 10782,12590 10859,12590 10907,12510 10876,12441 10816,12303 10791,12152 10803,12002 10804,11991 10804,11981 10806,11971 10833,11963 10858,11954 10882,11943 10944,11916 10999,11878 11045,11830 L 11047,11828 C 11050,11826 11052,11825 11055,11822 11118,11956 11141,12105 11127,12251 11122,12298 11112,12343 11097,12386 11087,12422 11097,12461 11122,12489 11143,12509 11170,12521 11199,12521 11208,12521 11217,12519 11226,12517 11263,12509 11291,12481 11301,12444 11357,12245 11352,12034 11288,11838 L 11284,11831 11284,11831 C 11291,11832 11297,11832 11303,11832 11333,11832 11363,11829 11392,11823 11400,11822 11405,11813 11402,11805 11498,11783 11507,11699 11490,11631 11469,11549 11376,11494 11376,11494 L 11377,11484 C 11419,11513 11465,11526 11510,11526 11619,11526 11723,11450 11744,11330 11769,11182 11653,11054 11512,11054 11492,11054 11471,11057 11450,11063 11465,10895 11449,10726 11400,10565 L 11402,10563 C 11442,10638 11493,10706 11553,10764 11565,10777 11580,10787 11595,10792 11598,10793 11601,10793 11603,10793 11617,10793 11629,10784 11633,10771 11635,10752 11631,10734 11621,10719 L 11595,10656 11537,10518 11774,10458 C 11791,10453 11811,10452 11822,10435 11826,10430 11826,10422 11822,10415 11817,10405 11804,10402 11794,10400 11749,10394 11703,10387 11658,10380 11618,10375 11580,10370 11540,10367 11558,10301 11575,10234 11591,10168 11595,10150 11596,10125 11576,10115 11575,10114 11574,10114 11572,10114 11570,10114 11567,10115 11565,10116 11510,10184 11457,10256 11405,10329 11344,10291 11281,10259 11215,10233 10999,9989 10682,9901 10439,9901 L 10439,9901 Z "/>
     <path fill="none" stroke="rgb(255,255,255)" stroke-width="318" stroke-linejoin="round" d="M 9333,10118 C 9410,10118 9473,10179 9473,10258 9473,10334 9410,10395 9333,10395 9257,10395 9194,10334 9194,10256 9194,10179 9257,10118 9333,10118 Z "/>
     <path fill="none" stroke="rgb(255,255,255)" stroke-width="318" stroke-linejoin="round" d="M 9169,10594 C 9228,10594 9287,10620 9328,10676 9314,10762 9307,10847 9307,10933 9266,10973 9217,10991 9169,10991 9061,10991 8960,10903 8970,10777 8979,10663 9073,10594 9169,10594 Z "/>
     <path fill="none" stroke="rgb(255,255,255)" stroke-width="318" stroke-linejoin="round" d="M 11508,11091 C 11626,11091 11726,11197 11704,11323 11686,11425 11598,11489 11507,11489 11465,11489 11422,11475 11386,11446 11414,11333 11435,11217 11445,11103 L 11445,11101 C 11466,11094 11487,11091 11508,11091 Z "/>
     <path fill="none" stroke="rgb(255,255,255)" stroke-width="318" stroke-linejoin="round" d="M 10439,9901 C 10027,9901 9702,10007 9496,10286 9498,10276 9498,10268 9498,10258 9498,10166 9425,10091 9332,10091 9241,10091 9166,10166 9166,10258 9166,10349 9241,10424 9332,10424 9367,10424 9398,10414 9426,10394 L 9426,10394 C 9416,10412 9408,10429 9398,10447 9372,10507 9352,10568 9338,10631 9291,10581 9230,10558 9168,10558 9079,10558 8991,10608 8952,10701 8884,10855 8998,11030 9167,11030 9217,11028 9265,11013 9307,10983 9309,11088 9319,11194 9333,11299 9322,11303 9310,11308 9299,11313 9279,11249 9257,11184 9237,11119 9231,11102 9219,11082 9200,11082 9199,11082 9197,11082 9196,11083 9191,11083 9187,11086 9187,11089 9176,11177 9169,11265 9166,11353 9091,11353 9016,11362 8943,11377 8930,11378 8910,11382 8907,11398 8903,11413 8913,11425 8927,11428 8935,11431 8943,11433 8952,11435 L 8983,11441 9043,11453 9179,11481 9182,11481 C 9154,11559 9131,11639 9113,11719 9106,11735 9104,11753 9108,11770 9111,11778 9118,11783 9124,11785 9134,11785 9143,11783 9149,11777 9156,11770 9161,11762 9166,11753 9172,11745 9179,11737 9186,11727 L 9192,11717 C 9194,11725 9196,11733 9197,11742 9207,11777 9219,11810 9254,11833 9249,11840 9250,11851 9259,11855 9284,11866 9311,11871 9338,11871 9368,11871 9398,11864 9425,11851 9450,11840 9473,11826 9493,11810 L 9493,11810 C 9480,11868 9471,11926 9468,11984 9461,12085 9470,12187 9490,12286 9501,12341 9518,12398 9539,12451 9554,12492 9594,12519 9639,12519 9647,12519 9657,12519 9667,12515 9695,12507 9720,12487 9734,12461 9747,12434 9747,12404 9737,12378 9679,12227 9662,12062 9690,11903 L 9690,11903 C 9724,11923 9758,11939 9795,11951 9835,11963 9877,11969 9920,11969 9948,11969 9976,11966 10004,11961 10012,11992 10022,12026 10034,12056 L 10036,12062 C 10052,12100 10064,12142 10071,12182 10074,12223 10072,12266 10062,12306 10051,12359 10034,12413 10014,12464 10001,12499 10008,12537 10032,12565 10052,12590 10082,12603 10114,12603 10120,12603 10127,12603 10134,12602 10170,12595 10202,12569 10215,12534 10252,12429 10288,12318 10283,12198 10280,12139 10268,12080 10248,12026 10243,12014 10240,12002 10235,11991 10223,11961 10213,11929 10205,11898 10203,11888 10202,11880 10202,11871 10223,11853 10245,11833 10263,11812 10338,11895 10436,11951 10545,11978 10560,11981 10577,11984 10592,11986 10577,12172 10609,12358 10683,12529 10695,12555 10718,12577 10746,12585 10756,12589 10768,12590 10780,12590 L 10782,12590 C 10859,12590 10907,12510 10876,12441 10816,12303 10791,12152 10803,12002 10804,11991 10804,11981 10806,11971 10833,11963 10858,11954 10882,11943 10944,11916 10999,11878 11045,11830 L 11047,11828 C 11050,11826 11052,11825 11055,11822 11118,11956 11141,12105 11127,12251 11122,12298 11112,12343 11097,12386 11087,12422 11097,12461 11122,12489 11143,12509 11170,12521 11199,12521 11208,12521 11217,12519 11226,12517 11263,12509 11291,12481 11301,12444 11357,12245 11352,12034 11288,11838 L 11284,11831 11284,11831 C 11291,11832 11297,11832 11303,11832 11333,11832 11363,11829 11392,11823 11400,11822 11405,11813 11402,11805 11498,11783 11507,11699 11490,11631 11469,11549 11376,11494 11376,11494 L 11377,11484 C 11419,11513 11465,11526 11510,11526 11619,11526 11723,11450 11744,11330 11769,11182 11653,11054 11512,11054 11492,11054 11471,11057 11450,11063 11465,10895 11449,10726 11400,10565 L 11402,10563 C 11442,10638 11493,10706 11553,10764 11565,10777 11580,10787 11595,10792 11598,10793 11601,10793 11603,10793 11617,10793 11629,10784 11633,10771 11635,10752 11631,10734 11621,10719 L 11595,10656 11537,10518 11774,10458 C 11791,10453 11811,10452 11822,10435 11826,10430 11826,10422 11822,10415 11817,10405 11804,10402 11794,10400 11749,10394 11703,10387 11658,10380 11618,10375 11580,10370 11540,10367 11558,10301 11575,10234 11591,10168 11595,10150 11596,10125 11576,10115 11575,10114 11574,10114 11572,10114 11570,10114 11567,10115 11565,10116 11510,10184 11457,10256 11405,10329 11344,10291 11281,10259 11215,10233 10999,9989 10682,9901 10439,9901 Z "/>
    </g>
   </g>
   <g class="Group">
    <g class="com.sun.star.drawing.CustomShape">
     <g id="id4">
      <rect class="BoundingBox" stroke="none" fill="none" x="11148" y="10115" width="694" height="682"/>
      <path fill="rgb(250,231,127)" stroke="none" d="M 11588,10115 C 11585,10115 11582,10116 11579,10117 11524,10185 11471,10256 11421,10329 11357,10290 11290,10256 11221,10230 11213,10226 11204,10222 11195,10222 11188,10222 11182,10224 11177,10230 11167,10240 11169,10255 11179,10265 11184,10271 11191,10278 11196,10283 L 11221,10306 11264,10348 11363,10444 C 11363,10444 11365,10444 11367,10446 11300,10497 11239,10552 11179,10610 11167,10622 11151,10633 11149,10651 11148,10658 11149,10666 11156,10671 11161,10675 11166,10678 11172,10678 11174,10678 11177,10677 11179,10676 11189,10675 11197,10671 11206,10668 L 11237,10656 C 11257,10646 11277,10638 11297,10630 11337,10610 11377,10588 11416,10565 11456,10638 11508,10706 11569,10764 11581,10778 11594,10788 11611,10794 11614,10795 11617,10796 11619,10796 11633,10796 11646,10786 11649,10771 11651,10753 11647,10734 11639,10719 L 11611,10656 11553,10519 11790,10459 C 11807,10454 11827,10452 11838,10436 11842,10431 11842,10422 11838,10416 11832,10406 11820,10402 11808,10402 11763,10394 11719,10388 11672,10381 11634,10376 11594,10371 11556,10368 11573,10301 11591,10235 11606,10168 11611,10150 11611,10125 11591,10115 11590,10115 11589,10115 11588,10115 L 11588,10115 Z "/>
     </g>
    </g>
    <g class="com.sun.star.drawing.CustomShape">
     <g id="id5">
      <rect class="BoundingBox" stroke="none" fill="none" x="11288" y="11055" width="473" height="473"/>
      <path fill="rgb(55,45,49)" stroke="none" d="M 11525,11093 C 11634,11093 11722,11181 11722,11291 11722,11411 11624,11490 11522,11490 11474,11490 11424,11472 11384,11432 11259,11306 11347,11093 11525,11093 L 11525,11093 Z M 11523,11055 C 11465,11055 11406,11076 11357,11124 11210,11272 11314,11526 11525,11526 11654,11526 11759,11420 11760,11291 11760,11149 11644,11055 11523,11055 L 11523,11055 Z "/>
     </g>
    </g>
    <g class="com.sun.star.drawing.CustomShape">
     <g id="id6">
      <rect class="BoundingBox" stroke="none" fill="none" x="11559" y="11147" width="105" height="114"/>
      <path fill="rgb(55,45,49)" stroke="none" d="M 11616,11148 C 11614,11148 11611,11148 11609,11149 11607,11149 11605,11148 11603,11148 11580,11148 11561,11166 11561,11189 11561,11190 11561,11194 11561,11197 11556,11220 11567,11245 11591,11255 11597,11259 11605,11260 11612,11260 11628,11260 11643,11252 11652,11239 11666,11219 11666,11192 11650,11172 11642,11162 11634,11154 11624,11149 11621,11148 11619,11148 11616,11148 L 11616,11148 Z "/>
     </g>
    </g>
    <g class="com.sun.star.drawing.CustomShape">
     <g id="id7">
      <rect class="BoundingBox" stroke="none" fill="none" x="8947" y="10558" width="474" height="473"/>
      <path fill="rgb(55,45,49)" stroke="none" d="M 9184,10595 C 9293,10595 9381,10685 9381,10794 9381,10914 9284,10992 9182,10992 9133,10992 9084,10974 9043,10934 8918,10809 9006,10595 9184,10595 L 9184,10595 Z M 9182,10558 C 9124,10558 9066,10579 9018,10627 8869,10776 8973,11030 9184,11030 9313,11029 9420,10924 9420,10794 9420,10652 9303,10558 9182,10558 L 9182,10558 Z "/>
     </g>
    </g>
    <g class="com.sun.star.drawing.CustomShape">
     <g id="id8">
      <rect class="BoundingBox" stroke="none" fill="none" x="9220" y="10650" width="104" height="114"/>
      <path fill="rgb(55,45,49)" stroke="none" d="M 9276,10650 C 9274,10650 9271,10650 9270,10652 9267,10651 9264,10651 9262,10651 9240,10651 9222,10668 9222,10690 9220,10693 9220,10697 9222,10698 9217,10723 9228,10746 9250,10758 9257,10761 9265,10762 9272,10762 9288,10762 9304,10755 9313,10741 9326,10720 9325,10693 9310,10674 9303,10665 9295,10657 9283,10652 9281,10650 9279,10650 9276,10650 L 9276,10650 Z "/>
     </g>
    </g>
    <g class="com.sun.star.drawing.CustomShape">
     <g id="id9">
      <rect class="BoundingBox" stroke="none" fill="none" x="9204" y="9899" width="2308" height="2083"/>
      <path fill="rgb(242,184,126)" stroke="none" d="M 10455,9899 C 9970,9899 9606,10048 9414,10446 9223,10845 9389,11516 9389,11516 9190,11519 9196,11690 9211,11742 9226,11795 9239,11843 9339,11856 9344,11857 9348,11857 9353,11857 9449,11857 9566,11735 9566,11735 9566,11735 9636,11927 9880,11947 9892,11948 9904,11949 9915,11949 10139,11949 10280,11788 10280,11788 10280,11788 10468,11981 10680,11981 10691,11981 10701,11980 10712,11979 10938,11957 11126,11763 11126,11763 11126,11763 11204,11806 11357,11810 11360,11810 11364,11810 11367,11810 11510,11810 11524,11710 11503,11630 11483,11551 11388,11496 11388,11496 11723,10252 10938,9899 10455,9899 L 10455,9899 Z "/>
     </g>
    </g>
    <g class="com.sun.star.drawing.CustomShape">
     <g id="id10">
      <rect class="BoundingBox" stroke="none" fill="none" x="9479" y="11619" width="281" height="902"/>
      <path fill="rgb(242,184,126)" stroke="none" d="M 9643,11619 C 9630,11619 9618,11621 9605,11625 9575,11636 9554,11660 9544,11688 9509,11784 9489,11884 9482,11985 9476,12086 9482,12187 9504,12287 9515,12342 9532,12398 9554,12451 9569,12493 9609,12519 9653,12519 9662,12519 9672,12518 9682,12516 9710,12508 9733,12488 9748,12461 9760,12435 9762,12405 9752,12378 9673,12179 9670,11958 9743,11758 9762,11704 9735,11645 9680,11625 9668,11621 9655,11619 9643,11619 L 9643,11619 Z "/>
     </g>
    </g>
    <g class="com.sun.star.drawing.CustomShape">
     <g id="id11">
      <rect class="BoundingBox" stroke="none" fill="none" x="10000" y="11651" width="297" height="954"/>
      <path fill="rgb(242,184,126)" stroke="none" d="M 10127,11652 C 10126,11652 10124,11652 10123,11652 10086,11653 10053,11675 10036,11708 10006,11768 9995,11834 10004,11899 10013,11954 10026,12007 10046,12057 L 10049,12063 C 10064,12103 10076,12143 10083,12183 10088,12224 10084,12267 10074,12307 10063,12360 10046,12414 10028,12465 10014,12500 10021,12538 10044,12566 10066,12591 10096,12604 10126,12604 10132,12604 10139,12604 10146,12603 10184,12596 10214,12570 10227,12535 10264,12430 10300,12321 10295,12199 10294,12140 10280,12082 10261,12027 10257,12015 10252,12004 10249,11992 10236,11962 10226,11930 10219,11899 10211,11869 10211,11836 10222,11808 10241,11774 10239,11733 10217,11701 10198,11671 10164,11652 10127,11652 L 10127,11652 Z "/>
     </g>
    </g>
    <g class="com.sun.star.drawing.CustomShape">
     <g id="id12">
      <rect class="BoundingBox" stroke="none" fill="none" x="10602" y="11748" width="299" height="845"/>
      <path fill="rgb(242,184,126)" stroke="none" d="M 10730,11748 C 10720,11748 10710,11749 10701,11752 10664,11763 10638,11793 10630,11830 10577,12064 10600,12309 10698,12530 10709,12557 10732,12577 10759,12587 10771,12590 10782,12592 10794,12592 10870,12592 10922,12512 10890,12442 L 10888,12442 C 10829,12304 10804,12153 10815,12002 10819,11961 10825,11918 10835,11878 10844,11840 10832,11801 10804,11777 10783,11757 10757,11748 10730,11748 L 10730,11748 Z "/>
     </g>
    </g>
    <g class="com.sun.star.drawing.CustomShape">
     <g id="id13">
      <rect class="BoundingBox" stroke="none" fill="none" x="11033" y="11624" width="324" height="899"/>
      <path fill="rgb(242,184,126)" stroke="none" d="M 11141,11625 C 11123,11625 11106,11629 11089,11638 11068,11649 11050,11669 11041,11694 11030,11723 11031,11754 11046,11781 11124,11927 11156,12091 11139,12254 11134,12299 11126,12344 11113,12387 11103,12423 11113,12461 11138,12490 11159,12510 11186,12522 11215,12522 11224,12522 11233,12520 11242,12518 11279,12510 11307,12481 11317,12445 11374,12246 11367,12035 11302,11840 11284,11784 11261,11731 11232,11679 11213,11644 11178,11625 11141,11625 L 11141,11625 Z "/>
     </g>
    </g>
    <g class="com.sun.star.drawing.CustomShape">
     <g id="id14">
      <rect class="BoundingBox" stroke="none" fill="none" x="9265" y="11720" width="2154" height="270"/>
      <path fill="rgb(55,45,49)" stroke="none" d="M 9563,11720 C 9559,11720 9555,11721 9551,11725 9517,11761 9477,11793 9432,11818 9407,11831 9379,11838 9352,11838 9331,11838 9310,11834 9291,11826 9288,11825 9285,11824 9283,11824 9277,11824 9271,11827 9267,11833 9263,11841 9266,11851 9274,11856 9299,11866 9325,11871 9351,11871 9381,11871 9412,11864 9440,11851 9485,11829 9527,11799 9561,11763 9620,11852 9707,11919 9809,11950 9850,11962 9893,11968 9935,11968 10064,11968 10190,11912 10277,11811 10352,11894 10450,11952 10558,11977 10596,11985 10636,11989 10675,11989 10817,11989 10956,11934 11059,11831 L 11061,11828 C 11082,11814 11102,11799 11119,11781 11181,11814 11251,11831 11321,11831 11350,11831 11378,11828 11406,11823 11425,11820 11419,11791 11400,11791 11399,11791 11397,11791 11396,11791 11370,11797 11344,11799 11318,11799 11250,11799 11182,11781 11124,11746 11121,11744 11118,11743 11115,11743 11110,11743 11106,11745 11102,11748 11084,11770 11064,11786 11041,11801 11039,11803 11036,11804 11036,11806 L 11032,11808 C 10954,11886 10853,11937 10745,11952 10722,11955 10699,11957 10675,11957 10590,11957 10506,11936 10431,11894 10378,11864 10332,11826 10294,11780 10292,11775 10289,11771 10285,11770 10282,11768 10280,11767 10277,11767 10271,11767 10265,11770 10262,11775 10196,11859 10099,11915 9993,11932 9975,11934 9957,11936 9939,11936 9791,11936 9653,11858 9578,11728 9574,11722 9569,11720 9563,11720 L 9563,11720 Z "/>
     </g>
    </g>
    <g class="com.sun.star.drawing.CustomShape">
     <g id="id15">
      <rect class="BoundingBox" stroke="none" fill="none" x="9746" y="11228" width="322" height="241"/>
      <path fill="rgb(241,152,197)" stroke="none" d="M 9916,11229 C 9906,11229 9897,11230 9887,11232 9872,11235 9859,11240 9845,11248 9839,11248 9834,11250 9827,11252 9794,11260 9741,11280 9747,11370 9752,11450 9807,11461 9839,11465 9855,11467 9871,11468 9888,11468 9913,11468 9938,11465 9963,11461 9983,11458 10003,11451 10021,11441 10045,11431 10061,11411 10064,11386 10079,11308 10025,11270 9996,11253 9973,11237 9945,11229 9916,11229 L 9916,11229 Z "/>
     </g>
    </g>
    <g class="com.sun.star.drawing.CustomShape">
     <g id="id16">
      <rect class="BoundingBox" stroke="none" fill="none" x="10739" y="11229" width="322" height="240"/>
      <path fill="rgb(241,152,197)" stroke="none" d="M 10908,11229 C 10898,11229 10888,11230 10878,11232 10865,11235 10850,11240 10837,11248 10832,11248 10825,11250 10818,11252 10787,11260 10734,11280 10740,11370 10745,11450 10798,11461 10830,11465 10846,11467 10863,11468 10879,11468 10904,11468 10929,11465 10954,11461 10974,11458 10994,11451 11014,11441 11036,11431 11053,11411 11057,11386 11072,11308 11016,11270 10989,11253 10965,11237 10936,11229 10908,11229 L 10908,11229 Z "/>
     </g>
    </g>
    <g class="com.sun.star.drawing.CustomShape">
     <g id="id17">
      <rect class="BoundingBox" stroke="none" fill="none" x="9625" y="10557" width="581" height="639"/>
      <path fill="rgb(255,255,255)" stroke="none" d="M 9910,10557 C 9893,10560 9875,10565 9858,10571 L 9852,10571 C 9719,10616 9629,10737 9626,10877 9623,11016 9722,11137 9853,11180 9884,11190 9916,11195 9947,11195 10047,11195 10143,11148 10205,11064 10094,11019 10005,10922 9951,10815 9913,10734 9900,10645 9910,10557 L 9910,10557 Z "/>
     </g>
    </g>
    <g class="com.sun.star.drawing.CustomShape">
     <g id="id18">
      <rect class="BoundingBox" stroke="none" fill="none" x="9904" y="10553" width="367" height="513"/>
      <path fill="rgb(55,45,49)" stroke="none" d="M 9960,10553 C 9941,10554 9925,10556 9908,10557 9897,10647 9912,10735 9950,10816 10003,10923 10093,11021 10202,11065 10259,10991 10280,10898 10265,10807 L 10265,10807 10264,10808 C 10251,10738 10212,10674 10157,10627 10103,10579 10033,10553 9960,10553 L 9960,10553 Z "/>
     </g>
    </g>
    <g class="com.sun.star.drawing.CustomShape">
     <g id="id19">
      <rect class="BoundingBox" stroke="none" fill="none" x="10546" y="10562" width="581" height="640"/>
      <path fill="rgb(255,255,255)" stroke="none" d="M 10831,10562 L 10831,10562 C 10814,10565 10796,10570 10779,10576 L 10773,10576 C 10642,10621 10550,10742 10547,10882 10544,11021 10645,11142 10774,11185 10805,11195 10837,11200 10868,11200 10968,11200 11064,11153 11126,11069 11017,11024 10927,10927 10874,10820 10836,10739 10821,10649 10831,10562 L 10831,10562 Z "/>
     </g>
    </g>
    <g class="com.sun.star.drawing.CustomShape">
     <g id="id20">
      <rect class="BoundingBox" stroke="none" fill="none" x="10828" y="10558" width="367" height="514"/>
      <path fill="rgb(55,45,49)" stroke="none" d="M 10882,10558 C 10865,10558 10849,10559 10832,10562 10821,10650 10836,10740 10874,10821 10927,10928 11017,11026 11126,11071 11183,10996 11204,10903 11189,10813 L 11188,10813 C 11173,10742 11136,10679 11081,10632 11027,10584 10955,10558 10882,10558 L 10882,10558 Z "/>
     </g>
    </g>
    <g class="com.sun.star.drawing.CustomShape">
     <g id="id21">
      <rect class="BoundingBox" stroke="none" fill="none" x="10294" y="11111" width="195" height="183"/>
      <path fill="rgb(55,45,49)" stroke="none" d="M 10469,11111 C 10463,11111 10456,11114 10454,11124 10449,11149 10441,11175 10431,11200 10426,11213 10419,11225 10413,11237 10411,11243 10404,11258 10396,11258 10389,11258 10381,11242 10378,11237 10371,11227 10364,11215 10358,11204 10346,11180 10334,11154 10326,11129 10324,11120 10318,11117 10311,11117 10301,11117 10291,11125 10295,11137 10305,11169 10318,11200 10334,11230 10348,11252 10364,11292 10396,11292 10428,11292 10444,11253 10454,11228 10469,11197 10479,11165 10487,11132 10489,11119 10479,11111 10469,11111 L 10469,11111 Z "/>
     </g>
    </g>
    <g class="com.sun.star.drawing.CustomShape">
     <g id="id22">
      <rect class="BoundingBox" stroke="none" fill="none" x="9183" y="10090" width="335" height="334"/>
      <path fill="rgb(55,45,49)" stroke="none" d="M 9350,10118 C 9427,10118 9490,10180 9490,10258 9490,10341 9420,10397 9349,10397 9315,10397 9280,10384 9252,10356 9164,10268 9226,10118 9350,10118 L 9350,10118 Z M 9348,10090 C 9308,10090 9266,10105 9232,10138 9128,10243 9202,10423 9350,10423 9442,10423 9517,10348 9517,10256 9517,10156 9434,10090 9348,10090 L 9348,10090 Z "/>
     </g>
    </g>
    <g class="com.sun.star.drawing.CustomShape">
     <g id="id23">
      <rect class="BoundingBox" stroke="none" fill="none" x="9375" y="10155" width="72" height="80"/>
      <path fill="rgb(55,45,49)" stroke="none" d="M 9414,10155 C 9412,10155 9410,10155 9409,10156 9407,10155 9405,10155 9404,10155 9389,10155 9376,10168 9376,10184 9376,10186 9376,10187 9376,10189 9373,10207 9381,10224 9396,10230 9401,10233 9407,10234 9412,10234 9423,10234 9434,10229 9440,10219 9448,10204 9448,10186 9437,10172 9432,10166 9425,10161 9419,10156 9417,10155 9415,10155 9414,10155 L 9414,10155 Z "/>
     </g>
    </g>
    <g class="com.sun.star.drawing.CustomShape">
     <g id="id24">
      <rect class="BoundingBox" stroke="none" fill="none" x="8920" y="11084" width="692" height="704"/>
      <path fill="rgb(143,221,239)" stroke="none" d="M 9215,11084 C 9213,11084 9212,11084 9210,11084 9207,11084 9204,11087 9202,11091 9192,11178 9184,11266 9182,11354 9107,11356 9032,11363 8959,11378 8944,11379 8926,11383 8921,11399 8920,11414 8928,11427 8943,11429 8951,11432 8959,11434 8968,11436 L 8999,11442 9059,11454 9194,11482 9197,11482 C 9170,11560 9147,11640 9127,11720 9120,11736 9120,11754 9124,11771 9127,11779 9132,11784 9140,11786 9142,11786 9143,11786 9145,11786 9152,11786 9160,11783 9164,11778 9170,11771 9177,11763 9182,11754 9189,11746 9195,11738 9200,11728 9213,11711 9225,11693 9237,11675 9262,11637 9283,11597 9303,11555 9378,11597 9458,11627 9541,11643 9550,11646 9560,11648 9570,11648 9577,11648 9584,11647 9590,11645 9607,11640 9615,11623 9609,11607 9602,11592 9589,11579 9572,11570 L 9516,11530 9391,11446 9561,11268 C 9572,11257 9589,11243 9589,11223 9589,11217 9586,11210 9579,11205 9576,11204 9572,11203 9568,11203 9561,11203 9553,11206 9547,11210 9504,11227 9463,11245 9421,11265 9385,11281 9350,11298 9315,11316 9293,11250 9273,11185 9252,11120 9247,11103 9235,11084 9215,11084 L 9215,11084 Z "/>
     </g>
    </g>
   </g>
  </g>
 </g>
</svg>