<?xml version="1.0" encoding="UTF-8"?>
<!DOCTYPE svg PUBLIC "-//W3C//DTD SVG 1.1//EN" "http://www.w3.org/Graphics/SVG/1.1/DTD/svg11.dtd">
<svg version="1.2" viewBox="19260 8790 1680 2183" preserveAspectRatio="xMidYMid" fill-rule="evenodd" stroke-width="28.222" stroke-linejoin="round" xmlns="http://www.w3.org/2000/svg" xmlns:ooo="http://xml.openoffice.org/svg/export" xmlns:xlink="http://www.w3.org/1999/xlink" xmlns:presentation="http://sun.com/xmlns/staroffice/presentation" xmlns:smil="http://www.w3.org/2001/SMIL20/" xmlns:anim="urn:oasis:names:tc:opendocument:xmlns:animation:1.0" xmlns:svg="urn:oasis:names:tc:opendocument:xmlns:svg-compatible:1.0" xml:space="preserve">
 <defs class="EmbeddedBulletChars">
  <g id="bullet-char-template-57356" transform="scale(0.00048828125,-0.00048828125)">
   <path d="M 580,1141 L 1163,571 580,0 -4,571 580,1141 Z"/>
  </g>
  <g id="bullet-char-template-57354" transform="scale(0.00048828125,-0.00048828125)">
   <path d="M 8,1128 L 1137,1128 1137,0 8,0 8,1128 Z"/>
  </g>
  <g id="bullet-char-template-10146" transform="scale(0.00048828125,-0.00048828125)">
   <path d="M 174,0 L 602,739 174,1481 1456,739 174,0 Z M 1358,739 L 309,1346 659,739 1358,739 Z"/>
  </g>
  <g id="bullet-char-template-10132" transform="scale(0.00048828125,-0.00048828125)">
   <path d="M 2015,739 L 1276,0 717,0 1260,543 174,543 174,936 1260,936 717,1481 1274,1481 2015,739 Z"/>
  </g>
  <g id="bullet-char-template-10007" transform="scale(0.00048828125,-0.00048828125)">
   <path d="M 0,-2 C -7,14 -16,27 -25,37 L 356,567 C 262,823 215,952 215,954 215,979 228,992 255,992 264,992 276,990 289,987 310,991 331,999 354,1012 L 381,999 492,748 772,1049 836,1024 860,1049 C 881,1039 901,1025 922,1006 886,937 835,863 770,784 769,783 710,716 594,584 L 774,223 C 774,196 753,168 711,139 L 727,119 C 717,90 699,76 672,76 641,76 570,178 457,381 L 164,-76 C 142,-110 111,-127 72,-127 30,-127 9,-110 8,-76 1,-67 -2,-52 -2,-32 -2,-23 -1,-13 0,-2 Z"/>
  </g>
  <g id="bullet-char-template-10004" transform="scale(0.00048828125,-0.00048828125)">
   <path d="M 285,-33 C 182,-33 111,30 74,156 52,228 41,333 41,471 41,549 55,616 82,672 116,743 169,778 240,778 293,778 328,747 346,684 L 369,508 C 377,444 397,411 428,410 L 1163,1116 C 1174,1127 1196,1133 1229,1133 1271,1133 1292,1118 1292,1087 L 1292,965 C 1292,929 1282,901 1262,881 L 442,47 C 390,-6 338,-33 285,-33 Z"/>
  </g>
  <g id="bullet-char-template-9679" transform="scale(0.00048828125,-0.00048828125)">
   <path d="M 813,0 C 632,0 489,54 383,161 276,268 223,411 223,592 223,773 276,916 383,1023 489,1130 632,1184 813,1184 992,1184 1136,1130 1245,1023 1353,916 1407,772 1407,592 1407,412 1353,268 1245,161 1136,54 992,0 813,0 Z"/>
  </g>
  <g id="bullet-char-template-8226" transform="scale(0.00048828125,-0.00048828125)">
   <path d="M 346,457 C 273,457 209,483 155,535 101,586 74,649 74,723 74,796 101,859 155,911 209,963 273,989 346,989 419,989 480,963 531,910 582,859 608,796 608,723 608,648 583,586 532,535 482,483 420,457 346,457 Z"/>
  </g>
  <g id="bullet-char-template-8211" transform="scale(0.00048828125,-0.00048828125)">
   <path d="M -4,459 L 1135,459 1135,606 -4,606 -4,459 Z"/>
  </g>
  <g id="bullet-char-template-61548" transform="scale(0.00048828125,-0.00048828125)">
   <path d="M 173,740 C 173,903 231,1043 346,1159 462,1274 601,1332 765,1332 928,1332 1067,1274 1183,1159 1299,1043 1357,903 1357,740 1357,577 1299,437 1183,322 1067,206 928,148 765,148 601,148 462,206 346,322 231,437 173,577 173,740 Z"/>
  </g>
 </defs>
 <g ooo:name="page1" class="Page">
  <g class="Group">
   <g class="com.sun.star.drawing.CustomShape">
    <g id="id3">
     <rect class="BoundingBox" stroke="none" fill="none" x="19260" y="8790" width="1680" height="2183"/>
     <g style="opacity: 0.2">
      <path fill="rgb(55,45,49)" stroke="none" d="M 19796,9006 C 19771,9013 19749,9030 19736,9054 19611,9285 19311,9910 19461,10343 19665,10921 20173,10814 20265,10789 20270,10787 20274,10785 20277,10785 L 20283,10783 C 20285,10782 20290,10782 20294,10781 20387,10756 20879,10591 20762,9989 20673,9541 20096,9153 19873,9017 19849,9002 19821,8999 19796,9006 L 19796,9006 Z "/>
      <path fill="none" stroke="rgb(55,45,49)" stroke-width="318" stroke-linejoin="round" d="M 19796,9006 C 19771,9013 19749,9030 19736,9054 19611,9285 19311,9910 19461,10343 19665,10921 20173,10814 20265,10789 20270,10787 20274,10785 20277,10785 L 20283,10783 C 20285,10782 20290,10782 20294,10781 20387,10756 20879,10591 20762,9989 20673,9541 20096,9153 19873,9017 19849,9002 19821,8999 19796,9006 Z "/>
     </g>
     <path fill="rgb(255,255,255)" stroke="none" d="M 19796,8953 C 19771,8960 19749,8977 19736,9001 19611,9232 19311,9857 19461,10290 19665,10868 20173,10761 20265,10736 20270,10734 20274,10732 20277,10732 L 20283,10730 C 20285,10729 20290,10729 20294,10728 20387,10703 20879,10538 20762,9936 20673,9488 20096,9100 19873,8964 19849,8949 19821,8946 19796,8953 L 19796,8953 Z "/>
     <path fill="none" stroke="rgb(255,255,255)" stroke-width="318" stroke-linejoin="round" d="M 19796,8953 C 19771,8960 19749,8977 19736,9001 19611,9232 19311,9857 19461,10290 19665,10868 20173,10761 20265,10736 20270,10734 20274,10732 20277,10732 L 20283,10730 C 20285,10729 20290,10729 20294,10728 20387,10703 20879,10538 20762,9936 20673,9488 20096,9100 19873,8964 19849,8949 19821,8946 19796,8953 Z "/>
    </g>
   </g>
   <g class="Group">
    <g class="com.sun.star.drawing.CustomShape">
     <g id="id4">
      <rect class="BoundingBox" stroke="none" fill="none" x="19419" y="8949" width="1362" height="1812"/>
      <path fill="rgb(250,231,127)" stroke="none" d="M 19796,8953 C 19771,8960 19749,8977 19736,9001 19611,9232 19311,9857 19461,10290 19665,10868 20173,10761 20265,10736 20270,10734 20274,10732 20277,10732 L 20283,10730 C 20285,10729 20290,10729 20294,10728 20387,10703 20879,10538 20762,9936 20673,9488 20096,9100 19873,8964 19849,8949 19821,8946 19796,8953 L 19796,8953 Z "/>
     </g>
    </g>
    <g class="com.sun.star.drawing.CustomShape">
     <g id="id5">
      <rect class="BoundingBox" stroke="none" fill="none" x="20034" y="10084" width="164" height="164"/>
      <path fill="rgb(55,45,49)" stroke="none" d="M 20045,10098 C 20039,10100 20034,10104 20035,10112 20040,10144 20049,10176 20060,10206 20069,10224 20083,10252 20107,10245 20109,10245 20112,10243 20114,10242 20124,10234 20136,10224 20143,10212 20151,10202 20158,10190 20164,10178 20176,10153 20186,10126 20196,10101 20199,10090 20188,10083 20180,10085 20176,10086 20173,10088 20172,10093 20157,10135 20142,10180 20111,10213 20108,10216 20106,10220 20103,10220 20100,10221 20097,10219 20094,10215 20088,10205 20083,10196 20081,10186 20071,10161 20064,10135 20060,10108 20058,10099 20051,10097 20045,10098 L 20045,10098 Z "/>
     </g>
    </g>
    <g class="com.sun.star.drawing.CustomShape">
     <g id="id6">
      <rect class="BoundingBox" stroke="none" fill="none" x="19723" y="10239" width="253" height="183"/>
      <path fill="rgb(241,152,197)" stroke="none" d="M 19800,10255 C 19779,10261 19760,10271 19743,10285 19709,10327 19722,10387 19770,10410 19795,10420 19822,10423 19850,10418 19857,10417 19863,10415 19871,10413 19890,10408 19909,10400 19927,10389 19946,10376 19963,10357 19971,10336 19979,10313 19974,10288 19957,10272 19939,10252 19913,10239 19886,10239 19875,10239 19864,10240 19852,10243 19848,10244 19845,10245 19841,10246 19832,10248 19825,10250 19816,10252 19811,10252 19805,10254 19800,10255 L 19800,10255 Z "/>
     </g>
    </g>
    <g class="com.sun.star.drawing.CustomShape">
     <g id="id7">
      <rect class="BoundingBox" stroke="none" fill="none" x="20331" y="10055" width="252" height="183"/>
      <path fill="rgb(241,152,197)" stroke="none" d="M 20407,10070 C 20387,10076 20367,10086 20351,10102 20316,10141 20330,10204 20377,10226 20403,10236 20430,10239 20457,10234 20464,10233 20471,10231 20477,10229 20498,10224 20517,10216 20535,10205 20554,10192 20570,10173 20579,10152 20586,10129 20579,10104 20564,10088 20546,10067 20521,10056 20495,10056 20479,10055 20463,10057 20446,10062 20441,10063 20432,10065 20424,10067 20418,10067 20413,10069 20407,10070 L 20407,10070 Z "/>
     </g>
    </g>
    <g class="com.sun.star.drawing.CustomShape">
     <g id="id8">
      <rect class="BoundingBox" stroke="none" fill="none" x="19623" y="9935" width="289" height="252"/>
      <path fill="rgb(55,45,49)" stroke="none" d="M 19633,9936 C 19619,9940 19621,9965 19638,9966 19684,9971 19728,9974 19773,9979 L 19842,9986 C 19849,9987 19881,9986 19879,9996 19876,10005 19870,10011 19864,10016 19858,10023 19849,10029 19842,10037 19827,10051 19809,10064 19794,10079 19761,10106 19728,10131 19691,10154 19676,10165 19688,10189 19703,10185 19705,10185 19706,10184 19708,10184 19771,10140 19831,10092 19887,10040 19900,10029 19908,10014 19910,9998 19912,9982 19902,9967 19889,9961 19873,9956 19854,9952 19839,9952 L 19779,9946 C 19732,9943 19686,9938 19639,9935 19637,9935 19635,9935 19633,9936 L 19633,9936 Z "/>
     </g>
    </g>
    <g class="com.sun.star.drawing.CustomShape">
     <g id="id9">
      <rect class="BoundingBox" stroke="none" fill="none" x="20249" y="9681" width="267" height="260"/>
      <path fill="rgb(55,45,49)" stroke="none" d="M 20456,9682 C 20454,9682 20452,9683 20449,9684 L 20360,9760 C 20333,9781 20305,9807 20281,9831 20268,9841 20257,9854 20251,9870 20247,9886 20253,9902 20267,9909 20281,9917 20296,9919 20312,9919 L 20368,9926 20498,9940 C 20499,9939 20500,9939 20501,9939 20509,9937 20513,9931 20514,9923 20514,9915 20507,9907 20497,9907 L 20369,9894 20307,9887 C 20299,9885 20292,9885 20285,9881 20284,9881 20284,9879 20282,9879 20284,9877 20285,9873 20288,9870 20314,9841 20342,9815 20372,9792 L 20473,9708 C 20487,9696 20471,9677 20456,9682 L 20456,9682 Z "/>
     </g>
    </g>
   </g>
  </g>
 </g>
</svg>