<?xml version="1.0" encoding="UTF-8"?>
<!DOCTYPE svg PUBLIC "-//W3C//DTD SVG 1.1//EN" "http://www.w3.org/Graphics/SVG/1.1/DTD/svg11.dtd">
<svg version="1.2" viewBox="21383 10538 2136 2822" preserveAspectRatio="xMidYMid" fill-rule="evenodd" stroke-width="28.222" stroke-linejoin="round" xmlns="http://www.w3.org/2000/svg" xmlns:ooo="http://xml.openoffice.org/svg/export" xmlns:xlink="http://www.w3.org/1999/xlink" xmlns:presentation="http://sun.com/xmlns/staroffice/presentation" xmlns:smil="http://www.w3.org/2001/SMIL20/" xmlns:anim="urn:oasis:names:tc:opendocument:xmlns:animation:1.0" xmlns:svg="urn:oasis:names:tc:opendocument:xmlns:svg-compatible:1.0" xml:space="preserve">
 <defs class="EmbeddedBulletChars">
  <g id="bullet-char-template-57356" transform="scale(0.00048828125,-0.00048828125)">
   <path d="M 580,1141 L 1163,571 580,0 -4,571 580,1141 Z"/>
  </g>
  <g id="bullet-char-template-57354" transform="scale(0.00048828125,-0.00048828125)">
   <path d="M 8,1128 L 1137,1128 1137,0 8,0 8,1128 Z"/>
  </g>
  <g id="bullet-char-template-10146" transform="scale(0.00048828125,-0.00048828125)">
   <path d="M 174,0 L 602,739 174,1481 1456,739 174,0 Z M 1358,739 L 309,1346 659,739 1358,739 Z"/>
  </g>
  <g id="bullet-char-template-10132" transform="scale(0.00048828125,-0.00048828125)">
   <path d="M 2015,739 L 1276,0 717,0 1260,543 174,543 174,936 1260,936 717,1481 1274,1481 2015,739 Z"/>
  </g>
  <g id="bullet-char-template-10007" transform="scale(0.00048828125,-0.00048828125)">
   <path d="M 0,-2 C -7,14 -16,27 -25,37 L 356,567 C 262,823 215,952 215,954 215,979 228,992 255,992 264,992 276,990 289,987 310,991 331,999 354,1012 L 381,999 492,748 772,1049 836,1024 860,1049 C 881,1039 901,1025 922,1006 886,937 835,863 770,784 769,783 710,716 594,584 L 774,223 C 774,196 753,168 711,139 L 727,119 C 717,90 699,76 672,76 641,76 570,178 457,381 L 164,-76 C 142,-110 111,-127 72,-127 30,-127 9,-110 8,-76 1,-67 -2,-52 -2,-32 -2,-23 -1,-13 0,-2 Z"/>
  </g>
  <g id="bullet-char-template-10004" transform="scale(0.00048828125,-0.00048828125)">
   <path d="M 285,-33 C 182,-33 111,30 74,156 52,228 41,333 41,471 41,549 55,616 82,672 116,743 169,778 240,778 293,778 328,747 346,684 L 369,508 C 377,444 397,411 428,410 L 1163,1116 C 1174,1127 1196,1133 1229,1133 1271,1133 1292,1118 1292,1087 L 1292,965 C 1292,929 1282,901 1262,881 L 442,47 C 390,-6 338,-33 285,-33 Z"/>
  </g>
  <g id="bullet-char-template-9679" transform="scale(0.00048828125,-0.00048828125)">
   <path d="M 813,0 C 632,0 489,54 383,161 276,268 223,411 223,592 223,773 276,916 383,1023 489,1130 632,1184 813,1184 992,1184 1136,1130 1245,1023 1353,916 1407,772 1407,592 1407,412 1353,268 1245,161 1136,54 992,0 813,0 Z"/>
  </g>
  <g id="bullet-char-template-8226" transform="scale(0.00048828125,-0.00048828125)">
   <path d="M 346,457 C 273,457 209,483 155,535 101,586 74,649 74,723 74,796 101,859 155,911 209,963 273,989 346,989 419,989 480,963 531,910 582,859 608,796 608,723 608,648 583,586 532,535 482,483 420,457 346,457 Z"/>
  </g>
  <g id="bullet-char-template-8211" transform="scale(0.00048828125,-0.00048828125)">
   <path d="M -4,459 L 1135,459 1135,606 -4,606 -4,459 Z"/>
  </g>
  <g id="bullet-char-template-61548" transform="scale(0.00048828125,-0.00048828125)">
   <path d="M 173,740 C 173,903 231,1043 346,1159 462,1274 601,1332 765,1332 928,1332 1067,1274 1183,1159 1299,1043 1357,903 1357,740 1357,577 1299,437 1183,322 1067,206 928,148 765,148 601,148 462,206 346,322 231,437 173,577 173,740 Z"/>
  </g>
 </defs>
 <g ooo:name="page1" class="Page">
  <g class="Group">
   <g class="com.sun.star.drawing.CustomShape">
    <g id="id3">
     <rect class="BoundingBox" stroke="none" fill="none" x="21383" y="10538" width="2136" height="2822"/>
     <g style="opacity: 0.2">
      <path fill="rgb(55,45,49)" stroke="none" d="M 22729,10753 C 22696,10747 22659,10754 22629,10775 22345,10979 21618,11562 21551,12173 21460,12989 22135,13154 22263,13178 22270,13179 22276,13179 22279,13180 L 22288,13181 C 22290,13182 22296,13184 22303,13185 22431,13209 23121,13295 23328,12500 23481,11905 23009,11102 22817,10810 22796,10779 22764,10760 22729,10753 L 22729,10753 Z "/>
      <path fill="none" stroke="rgb(55,45,49)" stroke-width="318" stroke-linejoin="round" d="M 22729,10753 C 22696,10747 22659,10754 22629,10775 22345,10979 21618,11562 21551,12173 21460,12989 22135,13154 22263,13178 22270,13179 22276,13179 22279,13180 L 22288,13181 C 22290,13182 22296,13184 22303,13185 22431,13209 23121,13295 23328,12500 23481,11905 23009,11102 22817,10810 22796,10779 22764,10760 22729,10753 Z "/>
     </g>
     <path fill="rgb(255,255,255)" stroke="none" d="M 22729,10700 C 22696,10694 22659,10701 22629,10722 22345,10926 21618,11509 21551,12120 21460,12936 22135,13101 22263,13125 22270,13126 22276,13126 22279,13127 L 22288,13128 C 22290,13129 22296,13131 22303,13132 22431,13156 23121,13242 23328,12447 23481,11852 23009,11049 22817,10757 22796,10726 22764,10707 22729,10700 L 22729,10700 Z "/>
     <path fill="none" stroke="rgb(255,255,255)" stroke-width="318" stroke-linejoin="round" d="M 22729,10700 C 22696,10694 22659,10701 22629,10722 22345,10926 21618,11509 21551,12120 21460,12936 22135,13101 22263,13125 22270,13126 22276,13126 22279,13127 L 22288,13128 C 22290,13129 22296,13131 22303,13132 22431,13156 23121,13242 23328,12447 23481,11852 23009,11049 22817,10757 22796,10726 22764,10707 22729,10700 Z "/>
    </g>
   </g>
   <g class="Group">
    <g class="com.sun.star.drawing.CustomShape">
     <g id="id4">
      <rect class="BoundingBox" stroke="none" fill="none" x="21542" y="10697" width="1818" height="2451"/>
      <path fill="rgb(205,234,157)" stroke="none" d="M 22729,10700 C 22696,10694 22659,10701 22629,10722 22345,10926 21618,11509 21551,12120 21460,12936 22135,13101 22263,13125 22270,13126 22276,13126 22279,13127 L 22288,13128 C 22290,13129 22296,13131 22303,13132 22431,13156 23121,13242 23328,12447 23481,11852 23009,11049 22817,10757 22796,10726 22764,10707 22729,10700 L 22729,10700 Z "/>
     </g>
    </g>
    <g class="com.sun.star.drawing.CustomShape">
     <g id="id5">
      <rect class="BoundingBox" stroke="none" fill="none" x="21825" y="11646" width="393" height="482"/>
      <path fill="rgb(55,45,49)" stroke="none" d="M 22174,11651 C 22132,11643 22089,11645 22047,11655 21997,11661 21949,11683 21914,11719 21863,11767 21831,11832 21827,11902 21819,11982 21842,12062 21887,12126 22015,12071 22125,11979 22180,11848 22202,11787 22213,11725 22217,11662 22202,11657 22189,11654 22174,11651 L 22174,11651 Z "/>
     </g>
    </g>
    <g class="com.sun.star.drawing.CustomShape">
     <g id="id6">
      <rect class="BoundingBox" stroke="none" fill="none" x="21886" y="11659" width="525" height="588"/>
      <path fill="rgb(255,255,255)" stroke="none" d="M 22214,11659 L 22214,11659 C 22212,11723 22200,11787 22178,11847 22123,11978 22014,12071 21887,12125 21914,12165 21955,12197 22000,12219 22021,12229 22043,12237 22067,12241 22106,12249 22148,12246 22189,12233 22321,12185 22410,12059 22409,11920 22405,11860 22386,11801 22347,11754 22314,11710 22267,11677 22214,11659 L 22214,11659 Z "/>
     </g>
    </g>
    <g class="com.sun.star.drawing.CustomShape">
     <g id="id7">
      <rect class="BoundingBox" stroke="none" fill="none" x="22573" y="11757" width="393" height="481"/>
      <path fill="rgb(55,45,49)" stroke="none" d="M 22922,11762 C 22880,11754 22837,11756 22795,11766 22745,11772 22697,11794 22659,11830 22609,11877 22579,11943 22575,12013 22567,12093 22590,12173 22635,12236 22763,12182 22872,12093 22928,11959 22950,11898 22961,11836 22965,11773 22950,11768 22937,11765 22922,11762 L 22922,11762 Z "/>
     </g>
    </g>
    <g class="com.sun.star.drawing.CustomShape">
     <g id="id8">
      <rect class="BoundingBox" stroke="none" fill="none" x="22634" y="11772" width="527" height="585"/>
      <path fill="rgb(255,255,255)" stroke="none" d="M 22964,11773 C 22961,11836 22947,11897 22925,11958 22872,12092 22763,12181 22634,12235 22663,12276 22702,12309 22747,12329 22768,12339 22791,12347 22815,12351 22856,12359 22898,12357 22938,12344 23070,12298 23157,12170 23160,12032 L 23157,12031 C 23154,11971 23133,11912 23095,11865 23061,11821 23016,11789 22964,11773 L 22964,11773 Z "/>
     </g>
    </g>
    <g class="com.sun.star.drawing.CustomShape">
     <g id="id9">
      <rect class="BoundingBox" stroke="none" fill="none" x="22324" y="12228" width="228" height="214"/>
      <path fill="rgb(55,45,49)" stroke="none" d="M 22367,12229 C 22359,12228 22351,12230 22347,12239 22338,12279 22330,12324 22324,12365 22323,12393 22327,12434 22356,12440 22359,12440 22362,12441 22365,12441 22386,12438 22402,12432 22418,12422 22434,12414 22449,12403 22463,12392 22493,12370 22520,12344 22545,12317 22557,12305 22548,12291 22537,12289 22533,12288 22527,12289 22522,12294 22482,12335 22440,12382 22383,12404 22376,12407 22370,12408 22367,12407 22363,12407 22361,12404 22360,12396 22359,12382 22358,12367 22361,12354 22364,12317 22370,12283 22381,12247 22381,12237 22374,12231 22367,12229 L 22367,12229 Z "/>
     </g>
    </g>
    <g class="com.sun.star.drawing.CustomShape">
     <g id="id10">
      <rect class="BoundingBox" stroke="none" fill="none" x="21832" y="12270" width="336" height="242"/>
      <path fill="rgb(241,152,197)" stroke="none" d="M 21983,12274 C 21955,12269 21925,12269 21897,12279 21832,12306 21813,12389 21855,12444 21881,12470 21913,12489 21949,12498 21960,12502 21970,12504 21982,12506 22007,12510 22033,12512 22060,12508 22089,12504 22120,12492 22142,12470 22164,12448 22172,12416 22162,12385 22153,12350 22130,12321 22097,12307 22077,12296 22058,12291 22037,12287 22026,12285 22015,12281 22005,12279 21998,12277 21990,12275 21983,12274 L 21983,12274 Z "/>
     </g>
    </g>
    <g class="com.sun.star.drawing.CustomShape">
     <g id="id11">
      <rect class="BoundingBox" stroke="none" fill="none" x="22675" y="12398" width="335" height="243"/>
      <path fill="rgb(241,152,197)" stroke="none" d="M 22826,12402 C 22798,12397 22768,12398 22740,12407 22674,12437 22656,12517 22699,12572 22722,12598 22754,12618 22790,12628 22798,12631 22808,12634 22818,12636 22845,12641 22874,12641 22901,12638 22932,12634 22962,12620 22985,12600 23005,12575 23014,12544 23005,12513 22996,12478 22971,12449 22938,12435 22920,12425 22900,12419 22878,12415 22867,12413 22859,12409 22848,12407 22841,12405 22833,12404 22826,12402 L 22826,12402 Z "/>
     </g>
    </g>
   </g>
  </g>
 </g>
</svg>