<?xml version="1.0" encoding="UTF-8"?>
<!DOCTYPE svg PUBLIC "-//W3C//DTD SVG 1.1//EN" "http://www.w3.org/Graphics/SVG/1.1/DTD/svg11.dtd">
<svg version="1.2" viewBox="22467 7353 1572 2073" preserveAspectRatio="xMidYMid" fill-rule="evenodd" stroke-width="28.222" stroke-linejoin="round" xmlns="http://www.w3.org/2000/svg" xmlns:ooo="http://xml.openoffice.org/svg/export" xmlns:xlink="http://www.w3.org/1999/xlink" xmlns:presentation="http://sun.com/xmlns/staroffice/presentation" xmlns:smil="http://www.w3.org/2001/SMIL20/" xmlns:anim="urn:oasis:names:tc:opendocument:xmlns:animation:1.0" xmlns:svg="urn:oasis:names:tc:opendocument:xmlns:svg-compatible:1.0" xml:space="preserve">
 <defs class="EmbeddedBulletChars">
  <g id="bullet-char-template-57356" transform="scale(0.00048828125,-0.00048828125)">
   <path d="M 580,1141 L 1163,571 580,0 -4,571 580,1141 Z"/>
  </g>
  <g id="bullet-char-template-57354" transform="scale(0.00048828125,-0.00048828125)">
   <path d="M 8,1128 L 1137,1128 1137,0 8,0 8,1128 Z"/>
  </g>
  <g id="bullet-char-template-10146" transform="scale(0.00048828125,-0.00048828125)">
   <path d="M 174,0 L 602,739 174,1481 1456,739 174,0 Z M 1358,739 L 309,1346 659,739 1358,739 Z"/>
  </g>
  <g id="bullet-char-template-10132" transform="scale(0.00048828125,-0.00048828125)">
   <path d="M 2015,739 L 1276,0 717,0 1260,543 174,543 174,936 1260,936 717,1481 1274,1481 2015,739 Z"/>
  </g>
  <g id="bullet-char-template-10007" transform="scale(0.00048828125,-0.00048828125)">
   <path d="M 0,-2 C -7,14 -16,27 -25,37 L 356,567 C 262,823 215,952 215,954 215,979 228,992 255,992 264,992 276,990 289,987 310,991 331,999 354,1012 L 381,999 492,748 772,1049 836,1024 860,1049 C 881,1039 901,1025 922,1006 886,937 835,863 770,784 769,783 710,716 594,584 L 774,223 C 774,196 753,168 711,139 L 727,119 C 717,90 699,76 672,76 641,76 570,178 457,381 L 164,-76 C 142,-110 111,-127 72,-127 30,-127 9,-110 8,-76 1,-67 -2,-52 -2,-32 -2,-23 -1,-13 0,-2 Z"/>
  </g>
  <g id="bullet-char-template-10004" transform="scale(0.00048828125,-0.00048828125)">
   <path d="M 285,-33 C 182,-33 111,30 74,156 52,228 41,333 41,471 41,549 55,616 82,672 116,743 169,778 240,778 293,778 328,747 346,684 L 369,508 C 377,444 397,411 428,410 L 1163,1116 C 1174,1127 1196,1133 1229,1133 1271,1133 1292,1118 1292,1087 L 1292,965 C 1292,929 1282,901 1262,881 L 442,47 C 390,-6 338,-33 285,-33 Z"/>
  </g>
  <g id="bullet-char-template-9679" transform="scale(0.00048828125,-0.00048828125)">
   <path d="M 813,0 C 632,0 489,54 383,161 276,268 223,411 223,592 223,773 276,916 383,1023 489,1130 632,1184 813,1184 992,1184 1136,1130 1245,1023 1353,916 1407,772 1407,592 1407,412 1353,268 1245,161 1136,54 992,0 813,0 Z"/>
  </g>
  <g id="bullet-char-template-8226" transform="scale(0.00048828125,-0.00048828125)">
   <path d="M 346,457 C 273,457 209,483 155,535 101,586 74,649 74,723 74,796 101,859 155,911 209,963 273,989 346,989 419,989 480,963 531,910 582,859 608,796 608,723 608,648 583,586 532,535 482,483 420,457 346,457 Z"/>
  </g>
  <g id="bullet-char-template-8211" transform="scale(0.00048828125,-0.00048828125)">
   <path d="M -4,459 L 1135,459 1135,606 -4,606 -4,459 Z"/>
  </g>
  <g id="bullet-char-template-61548" transform="scale(0.00048828125,-0.00048828125)">
   <path d="M 173,740 C 173,903 231,1043 346,1159 462,1274 601,1332 765,1332 928,1332 1067,1274 1183,1159 1299,1043 1357,903 1357,740 1357,577 1299,437 1183,322 1067,206 928,148 765,148 601,148 462,206 346,322 231,437 173,577 173,740 Z"/>
  </g>
 </defs>
 <g ooo:name="page1" class="Page">
  <g class="Group">
   <g class="com.sun.star.drawing.CustomShape">
    <g id="id3">
     <rect class="BoundingBox" stroke="none" fill="none" x="22467" y="7353" width="1572" height="2073"/>
     <g style="opacity: 0.2">
      <path fill="rgb(55,45,49)" stroke="none" d="M 23397,7566 C 23373,7563 23348,7568 23327,7585 23139,7737 22655,8161 22629,8585 22592,9152 23064,9244 23153,9256 23158,9257 23162,9257 23164,9257 L 23169,9258 C 23171,9258 23174,9259 23179,9260 23268,9272 23747,9309 23865,8754 23951,8340 23601,7800 23459,7603 23444,7581 23421,7569 23397,7566 L 23397,7566 Z "/>
      <path fill="none" stroke="rgb(55,45,49)" stroke-width="318" stroke-linejoin="round" d="M 23397,7566 C 23373,7563 23348,7568 23327,7585 23139,7737 22655,8161 22629,8585 22592,9152 23064,9244 23153,9256 23158,9257 23162,9257 23164,9257 L 23169,9258 C 23171,9258 23174,9259 23179,9260 23268,9272 23747,9309 23865,8754 23951,8340 23601,7800 23459,7603 23444,7581 23421,7569 23397,7566 Z "/>
     </g>
     <path fill="rgb(255,255,255)" stroke="none" d="M 23397,7513 C 23373,7510 23348,7515 23327,7532 23139,7684 22655,8108 22629,8532 22592,9099 23064,9191 23153,9203 23158,9204 23162,9204 23164,9204 L 23169,9205 C 23171,9205 23174,9206 23179,9207 23268,9219 23747,9256 23865,8701 23951,8287 23601,7747 23459,7550 23444,7528 23421,7516 23397,7513 L 23397,7513 Z "/>
     <path fill="none" stroke="rgb(255,255,255)" stroke-width="318" stroke-linejoin="round" d="M 23397,7513 C 23373,7510 23348,7515 23327,7532 23139,7684 22655,8108 22629,8532 22592,9099 23064,9191 23153,9203 23158,9204 23162,9204 23164,9204 L 23169,9205 C 23171,9205 23174,9206 23179,9207 23268,9219 23747,9256 23865,8701 23951,8287 23601,7747 23459,7550 23444,7528 23421,7516 23397,7513 Z "/>
    </g>
   </g>
   <g class="Group">
    <g class="com.sun.star.drawing.CustomShape">
     <g id="id4">
      <rect class="BoundingBox" stroke="none" fill="none" x="22626" y="7512" width="1254" height="1702"/>
      <path fill="rgb(241,152,197)" stroke="none" d="M 23397,7513 C 23373,7510 23348,7515 23327,7532 23139,7684 22655,8108 22629,8532 22592,9099 23064,9191 23153,9203 23158,9204 23162,9204 23164,9204 L 23169,9205 C 23171,9205 23174,9206 23179,9207 23268,9219 23747,9256 23865,8701 23951,8287 23601,7747 23459,7550 23444,7528 23421,7516 23397,7513 L 23397,7513 Z "/>
     </g>
    </g>
    <g class="com.sun.star.drawing.CustomShape">
     <g id="id5">
      <rect class="BoundingBox" stroke="none" fill="none" x="22892" y="8119" width="85" height="183"/>
      <path fill="rgb(55,45,49)" stroke="none" d="M 22929,8120 L 22893,8135 22940,8301 22976,8280 22929,8120 22929,8120 Z "/>
     </g>
    </g>
    <g class="com.sun.star.drawing.CustomShape">
     <g id="id6">
      <rect class="BoundingBox" stroke="none" fill="none" x="22765" y="8204" width="131" height="168"/>
      <path fill="rgb(55,45,49)" stroke="none" d="M 22795,8205 L 22765,8230 22868,8370 22895,8337 22795,8205 22795,8205 Z "/>
     </g>
    </g>
    <g class="com.sun.star.drawing.CustomShape">
     <g id="id7">
      <rect class="BoundingBox" stroke="none" fill="none" x="22682" y="8351" width="167" height="105"/>
      <path fill="rgb(55,45,49)" stroke="none" d="M 22693,8352 L 22682,8390 22842,8455 22847,8413 22693,8352 22693,8352 Z "/>
     </g>
    </g>
    <g class="com.sun.star.drawing.CustomShape">
     <g id="id8">
      <rect class="BoundingBox" stroke="none" fill="none" x="23593" y="8254" width="123" height="173"/>
      <path fill="rgb(55,45,49)" stroke="none" d="M 23683,8254 L 23594,8395 23624,8426 23714,8277 23683,8254 23683,8254 Z "/>
     </g>
    </g>
    <g class="com.sun.star.drawing.CustomShape">
     <g id="id9">
      <rect class="BoundingBox" stroke="none" fill="none" x="23659" y="8370" width="154" height="143"/>
      <path fill="rgb(55,45,49)" stroke="none" d="M 23790,8371 L 23660,8473 23676,8512 23812,8403 23790,8371 23790,8371 Z "/>
     </g>
    </g>
    <g class="com.sun.star.drawing.CustomShape">
     <g id="id10">
      <rect class="BoundingBox" stroke="none" fill="none" x="23676" y="8539" width="174" height="64"/>
      <path fill="rgb(55,45,49)" stroke="none" d="M 23847,8540 L 23682,8558 23676,8601 23849,8579 23847,8540 23847,8540 Z "/>
     </g>
    </g>
    <g class="com.sun.star.drawing.CustomShape">
     <g id="id11">
      <rect class="BoundingBox" stroke="none" fill="none" x="23499" y="8354" width="227" height="375"/>
      <path fill="rgb(55,45,49)" stroke="none" d="M 23546,8357 C 23536,8356 23526,8354 23516,8355 23504,8396 23498,8441 23499,8484 23508,8580 23555,8667 23631,8728 23675,8697 23705,8648 23719,8595 23731,8549 23724,8498 23702,8456 23685,8427 23658,8403 23627,8387 23602,8371 23575,8361 23546,8357 L 23546,8357 Z "/>
     </g>
    </g>
    <g class="com.sun.star.drawing.CustomShape">
     <g id="id12">
      <rect class="BoundingBox" stroke="none" fill="none" x="23322" y="8354" width="310" height="415"/>
      <path fill="rgb(255,255,255)" stroke="none" d="M 23516,8355 L 23516,8355 C 23477,8354 23440,8365 23408,8386 23374,8409 23347,8442 23332,8481 L 23334,8482 C 23304,8574 23334,8675 23410,8735 23434,8752 23461,8761 23490,8765 23506,8767 23521,8768 23537,8767 23571,8761 23602,8748 23630,8728 23557,8667 23508,8580 23499,8484 23498,8440 23504,8396 23516,8355 L 23516,8355 Z "/>
     </g>
    </g>
    <g class="com.sun.star.drawing.CustomShape">
     <g id="id13">
      <rect class="BoundingBox" stroke="none" fill="none" x="22987" y="8264" width="227" height="377"/>
      <path fill="rgb(55,45,49)" stroke="none" d="M 23029,8267 C 23021,8266 23012,8265 23004,8265 22992,8308 22986,8351 22987,8396 22996,8491 23043,8579 23119,8640 23163,8607 23193,8560 23207,8507 23219,8461 23212,8410 23190,8368 23173,8337 23146,8313 23115,8299 23089,8282 23060,8272 23029,8267 L 23029,8267 Z "/>
     </g>
    </g>
    <g class="com.sun.star.drawing.CustomShape">
     <g id="id14">
      <rect class="BoundingBox" stroke="none" fill="none" x="22807" y="8266" width="313" height="415"/>
      <path fill="rgb(255,255,255)" stroke="none" d="M 23003,8266 L 23003,8266 C 22964,8267 22927,8277 22895,8299 22860,8322 22833,8355 22819,8394 22789,8486 22820,8587 22896,8647 22920,8664 22948,8673 22976,8677 22992,8679 23007,8680 23022,8679 23058,8673 23089,8660 23118,8641 23042,8579 22995,8491 22986,8396 22984,8351 22990,8308 23003,8266 L 23003,8266 Z "/>
     </g>
    </g>
    <g class="com.sun.star.drawing.CustomShape">
     <g id="id15">
      <rect class="BoundingBox" stroke="none" fill="none" x="23158" y="8678" width="142" height="167"/>
      <path fill="rgb(55,45,49)" stroke="none" d="M 23171,8678 C 23165,8678 23159,8681 23159,8690 23158,8715 23162,8742 23166,8765 23168,8779 23171,8790 23176,8802 23179,8814 23184,8825 23193,8835 23198,8839 23203,8842 23208,8843 23224,8845 23241,8828 23249,8815 23268,8792 23284,8765 23297,8739 23301,8731 23295,8725 23288,8724 23283,8723 23278,8724 23276,8730 23265,8752 23252,8772 23238,8794 23233,8802 23227,8810 23219,8816 23217,8819 23214,8819 23212,8819 23209,8819 23207,8814 23205,8811 23185,8773 23183,8728 23181,8689 23181,8682 23176,8679 23171,8678 L 23171,8678 Z "/>
     </g>
    </g>
    <g class="com.sun.star.drawing.CustomShape">
     <g id="id16">
      <rect class="BoundingBox" stroke="none" fill="none" x="23383" y="8800" width="234" height="161"/>
      <path fill="rgb(242,184,126)" stroke="none" d="M 23535,8805 C 23531,8804 23526,8803 23521,8803 23513,8802 23504,8802 23499,8802 23483,8800 23469,8800 23454,8802 23429,8805 23408,8818 23394,8838 23382,8856 23380,8878 23388,8899 23399,8917 23416,8933 23435,8941 23454,8950 23473,8956 23492,8958 23498,8959 23504,8959 23510,8960 23535,8960 23560,8955 23582,8942 23622,8916 23627,8859 23590,8827 23574,8815 23555,8807 23535,8805 L 23535,8805 Z "/>
     </g>
    </g>
    <g class="com.sun.star.drawing.CustomShape">
     <g id="id17">
      <rect class="BoundingBox" stroke="none" fill="none" x="22805" y="8703" width="233" height="160"/>
      <path fill="rgb(242,184,126)" stroke="none" d="M 22957,8708 C 22953,8707 22948,8706 22943,8706 22935,8705 22928,8704 22921,8705 22907,8703 22891,8703 22877,8704 22852,8706 22831,8721 22817,8741 22804,8758 22802,8782 22812,8803 22822,8821 22837,8836 22858,8846 22873,8853 22891,8857 22908,8859 22916,8861 22924,8862 22932,8862 22957,8863 22981,8857 23003,8846 23044,8819 23048,8761 23013,8730 22995,8718 22977,8710 22957,8708 L 22957,8708 Z "/>
     </g>
    </g>
   </g>
  </g>
 </g>
</svg>