<?xml version="1.0" encoding="UTF-8"?>
<!DOCTYPE svg PUBLIC "-//W3C//DTD SVG 1.1//EN" "http://www.w3.org/Graphics/SVG/1.1/DTD/svg11.dtd">
<svg version="1.2" viewBox="20350 4725 3871 2660" preserveAspectRatio="xMidYMid" fill-rule="evenodd" stroke-width="28.222" stroke-linejoin="round" xmlns="http://www.w3.org/2000/svg" xmlns:ooo="http://xml.openoffice.org/svg/export" xmlns:xlink="http://www.w3.org/1999/xlink" xmlns:presentation="http://sun.com/xmlns/staroffice/presentation" xmlns:smil="http://www.w3.org/2001/SMIL20/" xmlns:anim="urn:oasis:names:tc:opendocument:xmlns:animation:1.0" xmlns:svg="urn:oasis:names:tc:opendocument:xmlns:svg-compatible:1.0" xml:space="preserve">
 <defs class="EmbeddedBulletChars">
  <g id="bullet-char-template-57356" transform="scale(0.00048828125,-0.00048828125)">
   <path d="M 580,1141 L 1163,571 580,0 -4,571 580,1141 Z"/>
  </g>
  <g id="bullet-char-template-57354" transform="scale(0.00048828125,-0.00048828125)">
   <path d="M 8,1128 L 1137,1128 1137,0 8,0 8,1128 Z"/>
  </g>
  <g id="bullet-char-template-10146" transform="scale(0.00048828125,-0.00048828125)">
   <path d="M 174,0 L 602,739 174,1481 1456,739 174,0 Z M 1358,739 L 309,1346 659,739 1358,739 Z"/>
  </g>
  <g id="bullet-char-template-10132" transform="scale(0.00048828125,-0.00048828125)">
   <path d="M 2015,739 L 1276,0 717,0 1260,543 174,543 174,936 1260,936 717,1481 1274,1481 2015,739 Z"/>
  </g>
  <g id="bullet-char-template-10007" transform="scale(0.00048828125,-0.00048828125)">
   <path d="M 0,-2 C -7,14 -16,27 -25,37 L 356,567 C 262,823 215,952 215,954 215,979 228,992 255,992 264,992 276,990 289,987 310,991 331,999 354,1012 L 381,999 492,748 772,1049 836,1024 860,1049 C 881,1039 901,1025 922,1006 886,937 835,863 770,784 769,783 710,716 594,584 L 774,223 C 774,196 753,168 711,139 L 727,119 C 717,90 699,76 672,76 641,76 570,178 457,381 L 164,-76 C 142,-110 111,-127 72,-127 30,-127 9,-110 8,-76 1,-67 -2,-52 -2,-32 -2,-23 -1,-13 0,-2 Z"/>
  </g>
  <g id="bullet-char-template-10004" transform="scale(0.00048828125,-0.00048828125)">
   <path d="M 285,-33 C 182,-33 111,30 74,156 52,228 41,333 41,471 41,549 55,616 82,672 116,743 169,778 240,778 293,778 328,747 346,684 L 369,508 C 377,444 397,411 428,410 L 1163,1116 C 1174,1127 1196,1133 1229,1133 1271,1133 1292,1118 1292,1087 L 1292,965 C 1292,929 1282,901 1262,881 L 442,47 C 390,-6 338,-33 285,-33 Z"/>
  </g>
  <g id="bullet-char-template-9679" transform="scale(0.00048828125,-0.00048828125)">
   <path d="M 813,0 C 632,0 489,54 383,161 276,268 223,411 223,592 223,773 276,916 383,1023 489,1130 632,1184 813,1184 992,1184 1136,1130 1245,1023 1353,916 1407,772 1407,592 1407,412 1353,268 1245,161 1136,54 992,0 813,0 Z"/>
  </g>
  <g id="bullet-char-template-8226" transform="scale(0.00048828125,-0.00048828125)">
   <path d="M 346,457 C 273,457 209,483 155,535 101,586 74,649 74,723 74,796 101,859 155,911 209,963 273,989 346,989 419,989 480,963 531,910 582,859 608,796 608,723 608,648 583,586 532,535 482,483 420,457 346,457 Z"/>
  </g>
  <g id="bullet-char-template-8211" transform="scale(0.00048828125,-0.00048828125)">
   <path d="M -4,459 L 1135,459 1135,606 -4,606 -4,459 Z"/>
  </g>
  <g id="bullet-char-template-61548" transform="scale(0.00048828125,-0.00048828125)">
   <path d="M 173,740 C 173,903 231,1043 346,1159 462,1274 601,1332 765,1332 928,1332 1067,1274 1183,1159 1299,1043 1357,903 1357,740 1357,577 1299,437 1183,322 1067,206 928,148 765,148 601,148 462,206 346,322 231,437 173,577 173,740 Z"/>
  </g>
 </defs>
 <g ooo:name="Date" class="Page">
  <g class="Group">
   <g class="com.sun.star.drawing.CustomShape">
    <g id="id3">
     <rect class="BoundingBox" stroke="none" fill="none" x="20350" y="4725" width="3871" height="2660"/>
     <g style="opacity: 0.188235294117647">
      <path fill="rgb(55,45,49)" stroke="none" d="M 23175,4975 C 23204,4975 23233,4982 23262,4997 23382,5062 23403,5236 23303,5332 23238,5299 23169,5275 23098,5258 23063,5250 23028,5243 22991,5238 22984,5212 22983,5187 22984,5161 22994,5051 23080,4975 23175,4975 L 23175,4975 Z M 23569,5565 L 23657,5593 23661,5593 C 23648,5620 23638,5647 23627,5674 23617,5652 23608,5632 23597,5611 23589,5596 23579,5581 23569,5565 L 23569,5565 Z M 23174,4937 C 23035,4937 22920,5075 22952,5231 22898,5224 22843,5221 22789,5221 22701,5223 22614,5231 22527,5248 22525,5244 22520,5241 22516,5241 22515,5241 22514,5241 22513,5241 L 22487,5248 C 22449,5182 22398,5125 22335,5083 22239,5015 22128,4970 22013,4953 21972,4946 21931,4942 21890,4942 21817,4942 21743,4954 21673,4977 21647,4986 21623,4997 21601,5015 21580,5030 21566,5055 21562,5084 21562,5115 21588,5136 21611,5148 21638,5159 21665,5171 21694,5180 21747,5202 21788,5250 21806,5309 21830,5378 21827,5453 21825,5524 L 21816,5531 C 21808,5535 21804,5543 21808,5552 21742,5594 21676,5640 21614,5690 21583,5712 21553,5736 21522,5760 21530,5710 21534,5659 21529,5610 21524,5565 21511,5523 21490,5483 21482,5466 21468,5451 21450,5446 21446,5445 21441,5445 21437,5445 21424,5445 21411,5448 21401,5454 21389,5460 21380,5468 21370,5477 L 21365,5477 C 21352,5432 21325,5395 21287,5373 21269,5363 21250,5358 21230,5358 21201,5358 21172,5369 21149,5390 21133,5407 21122,5431 21117,5454 21099,5441 21078,5434 21057,5434 21044,5434 21030,5437 21018,5442 20969,5465 20936,5512 20928,5567 20921,5598 20921,5630 20926,5661 20915,5658 20903,5656 20892,5656 20869,5656 20847,5664 20833,5686 20811,5719 20817,5765 20836,5801 20854,5835 20878,5865 20905,5893 20931,5920 20958,5944 20990,5964 21024,5986 21062,6003 21101,6015 L 21107,6015 C 21107,6017 21107,6019 21107,6020 21109,6043 21110,6066 21114,6090 21115,6097 21117,6106 21118,6114 L 21102,6128 21067,6162 C 20987,6130 20905,6102 20822,6083 20766,6066 20708,6056 20650,6051 20646,6051 20642,6051 20638,6051 20591,6051 20529,6061 20513,6116 20497,6170 20533,6225 20561,6268 20591,6314 20625,6360 20662,6402 20699,6447 20737,6488 20779,6527 20799,6546 20822,6564 20843,6583 20864,6602 20878,6626 20888,6653 20897,6680 20905,6709 20912,6738 20912,6754 20912,6767 20913,6781 20841,6789 20771,6805 20702,6827 20689,6830 20671,6837 20668,6854 20666,6871 20678,6878 20690,6881 20699,6883 20706,6885 20715,6885 L 20747,6888 20804,6895 20937,6909 20942,6909 C 20925,6991 20910,7076 20899,7159 20894,7176 20896,7195 20900,7212 20904,7219 20910,7224 20918,7224 20919,7224 20920,7225 20921,7225 20928,7225 20935,7220 20941,7214 20945,7207 20950,7199 20955,7190 20960,7180 20966,7170 20971,7159 20981,7141 20990,7122 21000,7101 21016,7067 21030,7033 21043,6997 21046,6991 21051,6982 21056,6975 21130,7008 21208,7030 21288,7038 21294,7040 21300,7040 21305,7040 21316,7040 21326,7038 21336,7035 21351,7028 21359,7009 21352,6994 21343,6979 21328,6967 21312,6960 L 21255,6926 21128,6851 21229,6711 C 21383,6779 21542,6837 21704,6881 L 21704,6883 C 21700,6938 21699,6992 21702,7047 21704,7095 21707,7141 21742,7175 21767,7198 21796,7207 21825,7207 21877,7207 21932,7179 21974,7149 22039,7103 22095,7045 22140,6977 22265,6996 22392,7005 22518,7005 22585,7005 22653,7003 22720,6997 22959,6977 23196,6912 23407,6789 23600,6680 23763,6525 23885,6334 23914,6288 23941,6239 23964,6188 23976,6162 23988,6135 23997,6107 24010,6077 24018,6044 24021,6012 24025,5956 23997,5903 23951,5876 23916,5856 23877,5845 23838,5845 23821,5845 23803,5847 23786,5852 23755,5859 23725,5867 23696,5877 23690,5853 23682,5828 23675,5804 L 23682,5794 C 23709,5756 23733,5719 23755,5678 23823,5727 23898,5765 23976,5790 23989,5795 24001,5798 24013,5798 24017,5798 24021,5797 24025,5797 24041,5792 24050,5777 24047,5760 24041,5743 24029,5727 24015,5717 L 23964,5671 23851,5574 24029,5408 C 24042,5396 24058,5384 24060,5366 24061,5357 24058,5350 24052,5345 24047,5343 24042,5341 24037,5341 24031,5341 24026,5343 24021,5345 23978,5359 23936,5374 23895,5391 23859,5405 23824,5419 23789,5434 23775,5364 23760,5296 23744,5228 23739,5210 23730,5187 23711,5187 23710,5187 23710,5187 23709,5187 23704,5187 23701,5188 23699,5194 23682,5282 23667,5371 23656,5461 23625,5458 23594,5457 23563,5457 23538,5457 23513,5458 23488,5460 23459,5429 23425,5403 23391,5379 23374,5369 23356,5359 23337,5349 23459,5217 23403,4997 23238,4946 23216,4940 23195,4937 23174,4937 L 23174,4937 Z "/>
      <path fill="none" stroke="rgb(55,45,49)" stroke-width="318" stroke-linejoin="round" d="M 23175,4975 C 23204,4975 23233,4982 23262,4997 23382,5062 23403,5236 23303,5332 23238,5299 23169,5275 23098,5258 23063,5250 23028,5243 22991,5238 22984,5212 22983,5187 22984,5161 22994,5051 23080,4975 23175,4975 Z "/>
      <path fill="none" stroke="rgb(55,45,49)" stroke-width="318" stroke-linejoin="round" d="M 23569,5565 L 23657,5593 23661,5593 C 23648,5620 23638,5647 23627,5674 23617,5652 23608,5632 23597,5611 23589,5596 23579,5581 23569,5565 Z "/>
      <path fill="none" stroke="rgb(55,45,49)" stroke-width="318" stroke-linejoin="round" d="M 23174,4937 C 23035,4937 22920,5075 22952,5231 22898,5224 22843,5221 22789,5221 22701,5223 22614,5231 22527,5248 22525,5244 22520,5241 22516,5241 L 22513,5241 22487,5248 C 22449,5182 22398,5125 22335,5083 22239,5015 22128,4970 22013,4953 21972,4946 21931,4942 21890,4942 21817,4942 21743,4954 21673,4977 21647,4986 21623,4997 21601,5015 21580,5030 21566,5055 21562,5084 21562,5115 21588,5136 21611,5148 21638,5159 21665,5171 21694,5180 21747,5202 21788,5250 21806,5309 21830,5378 21827,5453 21825,5524 L 21816,5531 C 21808,5535 21804,5543 21808,5552 21742,5594 21676,5640 21614,5690 21583,5712 21553,5736 21522,5760 21530,5710 21534,5659 21529,5610 21524,5565 21511,5523 21490,5483 21482,5466 21468,5451 21450,5446 21446,5445 21441,5445 21437,5445 21424,5445 21411,5448 21401,5454 21389,5460 21380,5468 21370,5477 L 21365,5477 C 21352,5432 21325,5395 21287,5373 21269,5363 21250,5358 21230,5358 21201,5358 21172,5369 21149,5390 21133,5407 21122,5431 21117,5454 21099,5441 21078,5434 21057,5434 21044,5434 21030,5437 21018,5442 20969,5465 20936,5512 20928,5567 20921,5598 20921,5630 20926,5661 20915,5658 20903,5656 20892,5656 20869,5656 20847,5664 20833,5686 20811,5719 20817,5765 20836,5801 20854,5835 20878,5865 20905,5893 20931,5920 20958,5944 20990,5964 21024,5986 21062,6003 21101,6015 L 21107,6015 21107,6020 C 21109,6043 21110,6066 21114,6090 21115,6097 21117,6106 21118,6114 L 21102,6128 21067,6162 C 20987,6130 20905,6102 20822,6083 20766,6066 20708,6056 20650,6051 L 20638,6051 C 20591,6051 20529,6061 20513,6116 20497,6170 20533,6225 20561,6268 20591,6314 20625,6360 20662,6402 20699,6447 20737,6488 20779,6527 20799,6546 20822,6564 20843,6583 20864,6602 20878,6626 20888,6653 20897,6680 20905,6709 20912,6738 20912,6754 20912,6767 20913,6781 20841,6789 20771,6805 20702,6827 20689,6830 20671,6837 20668,6854 20666,6871 20678,6878 20690,6881 20699,6883 20706,6885 20715,6885 L 20747,6888 20804,6895 20937,6909 20942,6909 C 20925,6991 20910,7076 20899,7159 20894,7176 20896,7195 20900,7212 20904,7219 20910,7224 20918,7224 20919,7224 20920,7225 20921,7225 20928,7225 20935,7220 20941,7214 20945,7207 20950,7199 20955,7190 20960,7180 20966,7170 20971,7159 20981,7141 20990,7122 21000,7101 21016,7067 21030,7033 21043,6997 21046,6991 21051,6982 21056,6975 21130,7008 21208,7030 21288,7038 21294,7040 21300,7040 21305,7040 21316,7040 21326,7038 21336,7035 21351,7028 21359,7009 21352,6994 21343,6979 21328,6967 21312,6960 L 21255,6926 21128,6851 21229,6711 C 21383,6779 21542,6837 21704,6881 L 21704,6883 C 21700,6938 21699,6992 21702,7047 21704,7095 21707,7141 21742,7175 21767,7198 21796,7207 21825,7207 21877,7207 21932,7179 21974,7149 22039,7103 22095,7045 22140,6977 22265,6996 22392,7005 22518,7005 22585,7005 22653,7003 22720,6997 22959,6977 23196,6912 23407,6789 23600,6680 23763,6525 23885,6334 23914,6288 23941,6239 23964,6188 23976,6162 23988,6135 23997,6107 24010,6077 24018,6044 24021,6012 24025,5956 23997,5903 23951,5876 23916,5856 23877,5845 23838,5845 23821,5845 23803,5847 23786,5852 23755,5859 23725,5867 23696,5877 23690,5853 23682,5828 23675,5804 L 23682,5794 C 23709,5756 23733,5719 23755,5678 23823,5727 23898,5765 23976,5790 23989,5795 24001,5798 24013,5798 24017,5798 24021,5797 24025,5797 24041,5792 24050,5777 24047,5760 24041,5743 24029,5727 24015,5717 L 23964,5671 23851,5574 24029,5408 C 24042,5396 24058,5384 24060,5366 24061,5357 24058,5350 24052,5345 24047,5343 24042,5341 24037,5341 24031,5341 24026,5343 24021,5345 23978,5359 23936,5374 23895,5391 23859,5405 23824,5419 23789,5434 23775,5364 23760,5296 23744,5228 23739,5210 23730,5187 23711,5187 L 23709,5187 C 23704,5187 23701,5188 23699,5194 23682,5282 23667,5371 23656,5461 23625,5458 23594,5457 23563,5457 23538,5457 23513,5458 23488,5460 23459,5429 23425,5403 23391,5379 23374,5369 23356,5359 23337,5349 23459,5217 23403,4997 23238,4946 23216,4940 23195,4937 23174,4937 Z "/>
     </g>
     <path fill="rgb(255,255,255)" stroke="none" d="M 23175,4922 C 23204,4922 23233,4929 23262,4944 23382,5009 23403,5183 23303,5279 23238,5246 23169,5222 23098,5205 23063,5197 23028,5190 22991,5185 22984,5159 22983,5134 22984,5108 22994,4998 23080,4922 23175,4922 L 23175,4922 Z M 23569,5512 L 23657,5540 23661,5540 C 23648,5567 23638,5594 23627,5621 23617,5599 23608,5579 23597,5558 23589,5543 23579,5528 23569,5512 L 23569,5512 Z M 23174,4884 C 23035,4884 22920,5022 22952,5178 22898,5171 22843,5168 22789,5168 22701,5170 22614,5178 22527,5195 22525,5191 22520,5188 22516,5188 22515,5188 22514,5188 22513,5188 L 22487,5195 C 22449,5129 22398,5072 22335,5030 22239,4962 22128,4917 22013,4900 21972,4893 21931,4889 21890,4889 21817,4889 21743,4901 21673,4924 21647,4933 21623,4944 21601,4962 21580,4977 21566,5002 21562,5031 21562,5062 21588,5083 21611,5095 21638,5106 21665,5118 21694,5127 21747,5149 21788,5197 21806,5256 21830,5325 21827,5400 21825,5471 L 21816,5478 C 21808,5482 21804,5490 21808,5499 21742,5541 21676,5587 21614,5637 21583,5659 21553,5683 21522,5707 21530,5657 21534,5606 21529,5557 21524,5512 21511,5470 21490,5430 21482,5413 21468,5398 21450,5393 21446,5392 21441,5392 21437,5392 21424,5392 21411,5395 21401,5401 21389,5407 21380,5415 21370,5424 L 21365,5424 C 21352,5379 21325,5342 21287,5320 21269,5310 21250,5305 21230,5305 21201,5305 21172,5316 21149,5337 21133,5354 21122,5378 21117,5401 21099,5388 21078,5381 21057,5381 21044,5381 21030,5384 21018,5389 20969,5412 20936,5459 20928,5514 20921,5545 20921,5577 20926,5608 20915,5605 20903,5603 20892,5603 20869,5603 20847,5611 20833,5633 20811,5666 20817,5712 20836,5748 20854,5782 20878,5812 20905,5840 20931,5867 20958,5891 20990,5911 21024,5933 21062,5950 21101,5962 L 21107,5962 C 21107,5964 21107,5966 21107,5967 21109,5990 21110,6013 21114,6037 21115,6044 21117,6053 21118,6061 L 21102,6075 21067,6109 C 20987,6077 20905,6049 20822,6030 20766,6013 20708,6003 20650,5998 20646,5998 20642,5998 20638,5998 20591,5998 20529,6008 20513,6063 20497,6117 20533,6172 20561,6215 20591,6261 20625,6307 20662,6349 20699,6394 20737,6435 20779,6474 20799,6493 20822,6511 20843,6530 20864,6549 20878,6573 20888,6600 20897,6627 20905,6656 20912,6685 20912,6701 20912,6714 20913,6728 20841,6736 20771,6752 20702,6774 20689,6777 20671,6784 20668,6801 20666,6818 20678,6825 20690,6828 20699,6830 20706,6832 20715,6832 L 20747,6835 20804,6842 20937,6856 20942,6856 C 20925,6938 20910,7023 20899,7106 20894,7123 20896,7142 20900,7159 20904,7166 20910,7171 20918,7171 20919,7171 20920,7172 20921,7172 20928,7172 20935,7167 20941,7161 20945,7154 20950,7146 20955,7137 20960,7127 20966,7117 20971,7106 20981,7088 20990,7069 21000,7048 21016,7014 21030,6980 21043,6944 21046,6938 21051,6929 21056,6922 21130,6955 21208,6977 21288,6985 21294,6987 21300,6987 21305,6987 21316,6987 21326,6985 21336,6982 21351,6975 21359,6956 21352,6941 21343,6926 21328,6914 21312,6907 L 21255,6873 21128,6798 21229,6658 C 21383,6726 21542,6784 21704,6828 L 21704,6830 C 21700,6885 21699,6939 21702,6994 21704,7042 21707,7088 21742,7122 21767,7145 21796,7154 21825,7154 21877,7154 21932,7126 21974,7096 22039,7050 22095,6992 22140,6924 22265,6943 22392,6952 22518,6952 22585,6952 22653,6950 22720,6944 22959,6924 23196,6859 23407,6736 23600,6627 23763,6472 23885,6281 23914,6235 23941,6186 23964,6135 23976,6109 23988,6082 23997,6054 24010,6024 24018,5991 24021,5959 24025,5903 23997,5850 23951,5823 23916,5803 23877,5792 23838,5792 23821,5792 23803,5794 23786,5799 23755,5806 23725,5814 23696,5824 23690,5800 23682,5775 23675,5751 L 23682,5741 C 23709,5703 23733,5666 23755,5625 23823,5674 23898,5712 23976,5737 23989,5742 24001,5745 24013,5745 24017,5745 24021,5744 24025,5744 24041,5739 24050,5724 24047,5707 24041,5690 24029,5674 24015,5664 L 23964,5618 23851,5521 24029,5355 C 24042,5343 24058,5331 24060,5313 24061,5304 24058,5297 24052,5292 24047,5290 24042,5288 24037,5288 24031,5288 24026,5290 24021,5292 23978,5306 23936,5321 23895,5338 23859,5352 23824,5366 23789,5381 23775,5311 23760,5243 23744,5175 23739,5157 23730,5134 23711,5134 23710,5134 23710,5134 23709,5134 23704,5134 23701,5135 23699,5141 23682,5229 23667,5318 23656,5408 23625,5405 23594,5404 23563,5404 23538,5404 23513,5405 23488,5407 23459,5376 23425,5350 23391,5326 23374,5316 23356,5306 23337,5296 23459,5164 23403,4944 23238,4893 23216,4887 23195,4884 23174,4884 L 23174,4884 Z "/>
     <path fill="none" stroke="rgb(255,255,255)" stroke-width="318" stroke-linejoin="round" d="M 23175,4922 C 23204,4922 23233,4929 23262,4944 23382,5009 23403,5183 23303,5279 23238,5246 23169,5222 23098,5205 23063,5197 23028,5190 22991,5185 22984,5159 22983,5134 22984,5108 22994,4998 23080,4922 23175,4922 Z "/>
     <path fill="none" stroke="rgb(255,255,255)" stroke-width="318" stroke-linejoin="round" d="M 23569,5512 L 23657,5540 23661,5540 C 23648,5567 23638,5594 23627,5621 23617,5599 23608,5579 23597,5558 23589,5543 23579,5528 23569,5512 Z "/>
     <path fill="none" stroke="rgb(255,255,255)" stroke-width="318" stroke-linejoin="round" d="M 23174,4884 C 23035,4884 22920,5022 22952,5178 22898,5171 22843,5168 22789,5168 22701,5170 22614,5178 22527,5195 22525,5191 22520,5188 22516,5188 L 22513,5188 22487,5195 C 22449,5129 22398,5072 22335,5030 22239,4962 22128,4917 22013,4900 21972,4893 21931,4889 21890,4889 21817,4889 21743,4901 21673,4924 21647,4933 21623,4944 21601,4962 21580,4977 21566,5002 21562,5031 21562,5062 21588,5083 21611,5095 21638,5106 21665,5118 21694,5127 21747,5149 21788,5197 21806,5256 21830,5325 21827,5400 21825,5471 L 21816,5478 C 21808,5482 21804,5490 21808,5499 21742,5541 21676,5587 21614,5637 21583,5659 21553,5683 21522,5707 21530,5657 21534,5606 21529,5557 21524,5512 21511,5470 21490,5430 21482,5413 21468,5398 21450,5393 21446,5392 21441,5392 21437,5392 21424,5392 21411,5395 21401,5401 21389,5407 21380,5415 21370,5424 L 21365,5424 C 21352,5379 21325,5342 21287,5320 21269,5310 21250,5305 21230,5305 21201,5305 21172,5316 21149,5337 21133,5354 21122,5378 21117,5401 21099,5388 21078,5381 21057,5381 21044,5381 21030,5384 21018,5389 20969,5412 20936,5459 20928,5514 20921,5545 20921,5577 20926,5608 20915,5605 20903,5603 20892,5603 20869,5603 20847,5611 20833,5633 20811,5666 20817,5712 20836,5748 20854,5782 20878,5812 20905,5840 20931,5867 20958,5891 20990,5911 21024,5933 21062,5950 21101,5962 L 21107,5962 21107,5967 C 21109,5990 21110,6013 21114,6037 21115,6044 21117,6053 21118,6061 L 21102,6075 21067,6109 C 20987,6077 20905,6049 20822,6030 20766,6013 20708,6003 20650,5998 L 20638,5998 C 20591,5998 20529,6008 20513,6063 20497,6117 20533,6172 20561,6215 20591,6261 20625,6307 20662,6349 20699,6394 20737,6435 20779,6474 20799,6493 20822,6511 20843,6530 20864,6549 20878,6573 20888,6600 20897,6627 20905,6656 20912,6685 20912,6701 20912,6714 20913,6728 20841,6736 20771,6752 20702,6774 20689,6777 20671,6784 20668,6801 20666,6818 20678,6825 20690,6828 20699,6830 20706,6832 20715,6832 L 20747,6835 20804,6842 20937,6856 20942,6856 C 20925,6938 20910,7023 20899,7106 20894,7123 20896,7142 20900,7159 20904,7166 20910,7171 20918,7171 20919,7171 20920,7172 20921,7172 20928,7172 20935,7167 20941,7161 20945,7154 20950,7146 20955,7137 20960,7127 20966,7117 20971,7106 20981,7088 20990,7069 21000,7048 21016,7014 21030,6980 21043,6944 21046,6938 21051,6929 21056,6922 21130,6955 21208,6977 21288,6985 21294,6987 21300,6987 21305,6987 21316,6987 21326,6985 21336,6982 21351,6975 21359,6956 21352,6941 21343,6926 21328,6914 21312,6907 L 21255,6873 21128,6798 21229,6658 C 21383,6726 21542,6784 21704,6828 L 21704,6830 C 21700,6885 21699,6939 21702,6994 21704,7042 21707,7088 21742,7122 21767,7145 21796,7154 21825,7154 21877,7154 21932,7126 21974,7096 22039,7050 22095,6992 22140,6924 22265,6943 22392,6952 22518,6952 22585,6952 22653,6950 22720,6944 22959,6924 23196,6859 23407,6736 23600,6627 23763,6472 23885,6281 23914,6235 23941,6186 23964,6135 23976,6109 23988,6082 23997,6054 24010,6024 24018,5991 24021,5959 24025,5903 23997,5850 23951,5823 23916,5803 23877,5792 23838,5792 23821,5792 23803,5794 23786,5799 23755,5806 23725,5814 23696,5824 23690,5800 23682,5775 23675,5751 L 23682,5741 C 23709,5703 23733,5666 23755,5625 23823,5674 23898,5712 23976,5737 23989,5742 24001,5745 24013,5745 24017,5745 24021,5744 24025,5744 24041,5739 24050,5724 24047,5707 24041,5690 24029,5674 24015,5664 L 23964,5618 23851,5521 24029,5355 C 24042,5343 24058,5331 24060,5313 24061,5304 24058,5297 24052,5292 24047,5290 24042,5288 24037,5288 24031,5288 24026,5290 24021,5292 23978,5306 23936,5321 23895,5338 23859,5352 23824,5366 23789,5381 23775,5311 23760,5243 23744,5175 23739,5157 23730,5134 23711,5134 L 23709,5134 C 23704,5134 23701,5135 23699,5141 23682,5229 23667,5318 23656,5408 23625,5405 23594,5404 23563,5404 23538,5404 23513,5405 23488,5407 23459,5376 23425,5350 23391,5326 23374,5316 23356,5306 23337,5296 23459,5164 23403,4944 23238,4893 23216,4887 23195,4884 23174,4884 Z "/>
    </g>
   </g>
   <g class="Group">
    <g class="com.sun.star.drawing.CustomShape">
     <g id="id4">
      <rect class="BoundingBox" stroke="none" fill="none" x="23401" y="5132" width="661" height="714"/>
      <path fill="rgb(242,184,126)" stroke="none" d="M 23710,5133 C 23709,5133 23709,5133 23708,5133 23705,5133 23700,5136 23700,5139 23681,5228 23666,5317 23657,5407 23626,5404 23596,5403 23566,5403 23524,5403 23482,5406 23440,5411 23426,5412 23408,5414 23402,5429 23399,5443 23407,5458 23419,5462 23427,5465 23434,5469 23442,5470 L 23472,5481 23528,5498 23657,5539 23660,5539 C 23626,5615 23597,5695 23572,5776 23564,5791 23562,5810 23564,5829 23567,5835 23572,5842 23578,5844 23580,5844 23583,5845 23585,5845 23591,5845 23597,5842 23602,5837 23609,5832 23615,5823 23621,5817 23628,5808 23634,5799 23641,5791 23655,5774 23668,5757 23681,5738 23708,5702 23732,5663 23756,5624 23823,5673 23897,5711 23976,5735 23988,5740 24000,5742 24013,5742 24017,5742 24021,5742 24025,5742 24040,5738 24048,5723 24046,5706 24040,5689 24028,5673 24014,5663 L 23963,5619 23852,5520 24030,5354 C 24041,5342 24059,5330 24061,5312 24061,5303 24057,5296 24052,5291 24047,5289 24041,5287 24036,5287 24030,5287 24025,5289 24020,5291 23979,5307 23937,5320 23895,5337 23859,5351 23823,5365 23788,5380 23774,5312 23759,5242 23745,5174 23740,5155 23729,5133 23710,5133 L 23710,5133 Z "/>
     </g>
    </g>
    <g class="com.sun.star.drawing.CustomShape">
     <g id="id5">
      <rect class="BoundingBox" stroke="none" fill="none" x="22946" y="4884" width="458" height="486"/>
      <path fill="rgb(55,45,49)" stroke="none" d="M 23173,4922 C 23179,4922 23185,4923 23192,4923 23298,4933 23375,5032 23367,5145 23356,5260 23266,5331 23174,5331 23121,5331 23068,5308 23028,5258 22923,5123 23014,4922 23173,4922 L 23173,4922 Z M 23173,4884 C 23124,4884 23073,4901 23028,4940 22873,5079 22953,5348 23155,5369 23161,5369 23167,5369 23173,5369 23290,5369 23391,5275 23402,5149 23415,4995 23298,4884 23173,4884 L 23173,4884 Z "/>
     </g>
    </g>
    <g class="com.sun.star.drawing.CustomShape">
     <g id="id6">
      <rect class="BoundingBox" stroke="none" fill="none" x="23218" y="4988" width="100" height="120"/>
      <path fill="rgb(55,45,49)" stroke="none" d="M 23277,4988 C 23275,4988 23273,4988 23271,4990 23267,4989 23264,4989 23260,4989 23240,4989 23223,5004 23220,5026 23220,5029 23220,5031 23220,5034 23214,5058 23223,5085 23244,5099 23251,5104 23259,5107 23268,5107 23282,5107 23296,5100 23306,5087 23320,5067 23320,5038 23308,5016 23301,5005 23293,4997 23284,4990 23281,4988 23279,4988 23277,4988 L 23277,4988 Z "/>
     </g>
    </g>
    <g class="com.sun.star.drawing.CustomShape">
     <g id="id7">
      <rect class="BoundingBox" stroke="none" fill="none" x="20508" y="4890" width="3515" height="2240"/>
      <path fill="rgb(143,221,239)" stroke="none" d="M 21894,4890 C 21819,4890 21744,4901 21671,4925 21646,4932 21622,4945 21601,4962 21579,4978 21564,5003 21561,5030 21561,5061 21586,5082 21611,5095 21636,5107 21665,5117 21692,5126 21745,5150 21787,5198 21805,5256 21829,5325 21825,5400 21825,5472 21824,5477 21825,5482 21829,5484 21755,5532 21683,5583 21612,5637 21434,5772 21269,5922 21104,6074 L 21067,6108 C 20987,6077 20905,6050 20822,6031 20766,6016 20708,6004 20650,6001 20644,6000 20637,6000 20630,6000 20583,6000 20528,6012 20513,6064 20497,6118 20532,6173 20561,6215 20591,6263 20625,6307 20662,6350 20699,6394 20737,6435 20779,6475 20800,6495 20822,6512 20843,6531 20862,6550 20878,6573 20888,6601 20897,6630 20905,6660 20912,6689 20920,6722 20928,6754 20937,6785 20953,6846 20977,6904 21010,6959 21013,6963 21017,6965 21022,6965 21026,6965 21030,6963 21034,6959 21094,6856 21138,6744 21163,6628 21165,6630 21167,6631 21168,6633 21344,6715 21526,6783 21712,6834 21712,6836 21712,6838 21712,6841 21715,6904 21723,6967 21732,7030 21732,7056 21740,7082 21755,7104 21771,7120 21793,7129 21815,7129 21817,7129 21819,7129 21821,7129 21823,7129 21825,7129 21827,7129 21927,7129 22013,7051 22080,6981 22098,6962 22114,6943 22128,6925 22257,6945 22386,6955 22516,6955 22583,6955 22651,6952 22718,6947 22957,6926 23196,6862 23407,6739 23598,6631 23762,6475 23885,6285 23914,6238 23940,6188 23964,6139 23975,6111 23986,6084 23996,6057 24008,6026 24016,5994 24021,5961 24025,5905 23997,5849 23949,5822 23916,5802 23878,5792 23840,5792 23821,5792 23803,5794 23784,5799 23754,5805 23723,5813 23694,5825 23672,5733 23638,5643 23596,5559 23547,5465 23476,5385 23390,5327 23300,5271 23201,5228 23096,5204 23002,5180 22904,5168 22808,5168 22802,5168 22795,5168 22789,5169 22688,5170 22588,5181 22491,5203 22452,5133 22398,5073 22335,5030 22237,4962 22127,4918 22011,4899 21972,4893 21933,4890 21894,4890 L 21894,4890 Z "/>
     </g>
    </g>
    <g class="com.sun.star.drawing.CustomShape">
     <g id="id8">
      <rect class="BoundingBox" stroke="none" fill="none" x="21699" y="6495" width="584" height="661"/>
      <path fill="rgb(55,45,49)" stroke="none" d="M 21763,6495 C 21755,6495 21747,6499 21745,6510 21729,6615 21711,6723 21703,6832 21700,6887 21699,6941 21700,6996 21703,7042 21707,7090 21740,7124 21765,7146 21794,7155 21823,7155 21876,7155 21931,7127 21973,7098 22040,7050 22096,6991 22141,6921 22194,6840 22239,6757 22280,6670 22284,6661 22279,6651 22271,6648 22269,6647 22267,6647 22266,6647 22259,6647 22254,6651 22251,6658 22182,6798 22110,6945 21990,7043 21961,7069 21928,7090 21892,7105 21874,7115 21853,7120 21832,7120 21814,7120 21797,7116 21780,7108 21764,7101 21751,7088 21745,7072 21737,7052 21732,7030 21734,7008 21731,6956 21731,6905 21734,6856 21743,6740 21758,6626 21777,6513 21780,6501 21772,6495 21763,6495 L 21763,6495 Z "/>
     </g>
    </g>
    <g class="com.sun.star.drawing.CustomShape">
     <g id="id9">
      <rect class="BoundingBox" stroke="none" fill="none" x="21804" y="5189" width="725" height="323"/>
      <path fill="rgb(55,45,49)" stroke="none" d="M 22513,5189 C 22320,5231 22134,5299 21960,5393 21910,5419 21862,5448 21814,5478 21806,5482 21803,5492 21806,5501 21809,5507 21816,5510 21822,5510 21824,5510 21826,5510 21828,5509 21993,5403 22173,5320 22359,5264 22412,5248 22465,5233 22519,5221 22533,5212 22529,5190 22513,5189 L 22513,5189 Z "/>
     </g>
    </g>
    <g class="com.sun.star.drawing.CustomShape">
     <g id="id10">
      <rect class="BoundingBox" stroke="none" fill="none" x="22852" y="5947" width="1117" height="608"/>
      <path fill="rgb(255,255,255)" stroke="none" d="M 23919,5989 L 23921,5996 C 23919,5993 23917,5993 23916,5991 L 23919,5989 23919,5989 Z M 23930,6039 C 23932,6045 23932,6051 23933,6056 L 23927,6056 C 23929,6052 23930,6049 23930,6045 L 23930,6039 23930,6039 Z M 23703,6163 C 23704,6167 23706,6170 23707,6173 L 23704,6172 C 23703,6168 23701,6167 23699,6165 L 23703,6163 23703,6163 Z M 23666,6247 L 23671,6248 C 23674,6252 23679,6254 23683,6257 L 23685,6260 C 23679,6257 23672,6252 23666,6247 L 23666,6247 Z M 23536,6276 L 23533,6281 C 23531,6283 23528,6284 23526,6286 23526,6284 23528,6284 23528,6283 23531,6279 23533,6277 23536,6276 L 23536,6276 Z M 22917,6387 L 22917,6397 C 22917,6393 22914,6390 22913,6387 L 22917,6387 Z M 23212,6402 C 23214,6404 23214,6404 23214,6405 L 23212,6405 23211,6402 23212,6402 Z M 23259,6441 L 23259,6450 23254,6446 C 23255,6445 23257,6443 23259,6441 L 23259,6441 Z M 23930,5947 C 23928,5947 23926,5947 23924,5948 L 23858,5984 C 23839,5994 23820,6003 23812,6025 23808,6030 23810,6035 23812,6039 23800,6040 23788,6045 23778,6054 23765,6064 23752,6076 23739,6090 23733,6095 23728,6103 23723,6110 23719,6114 23714,6119 23712,6124 23709,6124 23706,6124 23704,6126 23687,6131 23671,6138 23656,6148 23640,6155 23626,6165 23613,6177 23610,6179 23608,6182 23606,6184 23605,6183 23604,6183 23603,6183 23596,6183 23589,6188 23587,6197 23584,6193 23579,6191 23575,6191 23569,6191 23563,6195 23560,6202 L 23558,6213 C 23556,6211 23552,6210 23549,6210 23547,6210 23544,6210 23542,6211 L 23502,6228 C 23497,6230 23494,6233 23494,6238 23480,6242 23467,6247 23456,6252 23451,6255 23448,6259 23448,6264 23443,6264 23440,6267 23437,6271 23432,6268 23427,6267 23423,6267 23422,6267 23420,6267 23419,6267 23381,6271 23342,6283 23307,6300 23304,6301 23302,6303 23300,6306 23296,6308 23291,6312 23289,6315 L 23284,6315 C 23263,6315 23244,6317 23225,6322 23204,6327 23185,6332 23166,6339 23163,6341 23161,6342 23159,6344 L 23155,6346 C 23153,6347 23150,6349 23148,6351 L 23148,6349 C 23147,6342 23142,6337 23134,6335 23103,6335 23073,6341 23044,6349 23036,6351 23028,6356 23021,6361 23017,6361 23012,6363 23009,6366 23007,6363 23004,6361 23001,6358 22990,6354 22978,6352 22967,6352 22963,6352 22959,6352 22956,6353 L 22916,6353 C 22913,6353 22910,6352 22907,6352 22899,6352 22891,6353 22885,6359 L 22885,6356 C 22883,6347 22875,6343 22868,6343 22859,6343 22851,6350 22853,6363 22860,6392 22868,6421 22877,6450 22880,6463 22885,6475 22890,6489 22893,6503 22898,6516 22905,6528 22911,6544 22926,6553 22941,6553 22948,6553 22955,6551 22962,6547 22981,6532 22988,6499 22994,6475 23002,6450 23007,6424 23012,6397 23021,6421 23030,6445 23039,6468 23050,6491 23070,6525 23095,6532 23098,6532 23101,6533 23104,6533 23133,6533 23144,6487 23147,6462 23150,6433 23151,6402 23150,6371 L 23150,6371 C 23175,6414 23207,6451 23246,6480 23255,6490 23268,6495 23281,6495 23284,6495 23287,6495 23291,6494 23326,6480 23323,6436 23321,6404 23320,6390 23318,6376 23316,6363 L 23316,6363 C 23329,6378 23344,6392 23360,6404 23371,6414 23384,6422 23398,6429 23410,6436 23423,6440 23437,6440 23439,6440 23442,6440 23445,6439 23462,6436 23467,6417 23470,6402 23472,6383 23472,6364 23469,6347 23465,6335 23462,6325 23459,6313 L 23459,6313 C 23493,6346 23530,6373 23568,6393 23571,6395 23573,6395 23576,6395 23581,6395 23585,6393 23587,6388 23600,6364 23605,6337 23605,6310 23605,6298 23603,6284 23603,6271 23602,6259 23600,6245 23597,6233 23595,6230 23592,6226 23590,6223 L 23592,6216 C 23608,6240 23629,6260 23651,6277 23669,6290 23692,6305 23714,6305 23720,6305 23726,6304 23731,6301 23760,6289 23757,6250 23755,6223 23752,6201 23746,6179 23738,6156 L 23738,6156 C 23759,6168 23780,6180 23800,6190 23813,6197 23833,6209 23849,6209 23859,6209 23867,6205 23872,6192 23879,6168 23879,6141 23871,6117 23866,6100 23861,6083 23858,6066 L 23858,6066 C 23889,6078 23921,6088 23953,6095 23953,6095 23954,6095 23955,6095 23962,6095 23968,6084 23967,6074 23964,6035 23956,5998 23946,5960 23944,5952 23937,5947 23930,5947 L 23930,5947 Z "/>
     </g>
    </g>
    <g class="com.sun.star.drawing.CustomShape">
     <g id="id11">
      <rect class="BoundingBox" stroke="none" fill="none" x="22511" y="6287" width="243" height="157"/>
      <path fill="rgb(241,152,197)" stroke="none" d="M 22602,6287 C 22576,6287 22552,6294 22531,6316 22515,6334 22509,6357 22512,6383 22517,6405 22531,6424 22552,6433 22566,6440 22582,6443 22598,6443 22629,6443 22662,6431 22690,6419 22701,6414 22712,6407 22723,6399 22734,6393 22744,6383 22750,6369 22758,6346 22747,6318 22725,6310 22704,6298 22681,6292 22658,6292 22655,6292 22651,6292 22648,6293 L 22645,6293 C 22631,6289 22616,6287 22602,6287 L 22602,6287 Z "/>
     </g>
    </g>
    <g class="com.sun.star.drawing.CustomShape">
     <g id="id12">
      <rect class="BoundingBox" stroke="none" fill="none" x="23016" y="5431" width="516" height="644"/>
      <path fill="rgb(255,255,255)" stroke="none" d="M 23211,5431 C 23235,5516 23235,5608 23211,5693 23177,5807 23112,5920 23016,5981 23073,6042 23149,6074 23226,6074 23272,6074 23318,6062 23362,6039 23475,5976 23551,5840 23526,5702 23501,5564 23398,5458 23269,5436 L 23262,5436 C 23245,5432 23229,5431 23211,5431 L 23211,5431 Z "/>
     </g>
    </g>
    <g class="com.sun.star.drawing.CustomShape">
     <g id="id13">
      <rect class="BoundingBox" stroke="none" fill="none" x="22917" y="5429" width="313" height="553"/>
      <path fill="rgb(55,45,49)" stroke="none" d="M 23198,5429 C 23186,5429 23173,5430 23162,5433 23094,5445 23032,5482 22989,5538 22945,5595 22920,5663 22918,5736 L 22918,5735 22918,5735 C 22917,5827 22952,5916 23014,5981 23110,5917 23178,5806 23211,5690 23235,5605 23235,5515 23211,5429 23207,5429 23203,5429 23198,5429 L 23198,5429 Z "/>
     </g>
    </g>
    <g class="com.sun.star.drawing.CustomShape">
     <g id="id14">
      <rect class="BoundingBox" stroke="none" fill="none" x="22386" y="5582" width="518" height="644"/>
      <path fill="rgb(255,255,255)" stroke="none" d="M 22583,5582 C 22607,5667 22607,5759 22583,5844 22549,5960 22482,6071 22386,6134 22444,6193 22520,6225 22597,6225 22643,6225 22690,6213 22733,6190 22847,6127 22923,5991 22897,5853 22871,5716 22769,5611 22640,5587 L 22634,5587 C 22616,5583 22599,5582 22583,5582 L 22583,5582 Z "/>
     </g>
    </g>
    <g class="com.sun.star.drawing.CustomShape">
     <g id="id15">
      <rect class="BoundingBox" stroke="none" fill="none" x="22289" y="5582" width="312" height="552"/>
      <path fill="rgb(55,45,49)" stroke="none" d="M 22583,5582 C 22565,5582 22549,5582 22533,5585 22466,5597 22404,5634 22361,5692 22317,5747 22292,5817 22290,5889 22289,5981 22324,6069 22386,6133 22482,6071 22549,5960 22583,5844 22605,5759 22605,5667 22583,5582 L 22583,5582 Z "/>
     </g>
    </g>
    <g class="com.sun.star.drawing.CustomShape">
     <g id="id16">
      <rect class="BoundingBox" stroke="none" fill="none" x="22834" y="5894" width="1135" height="476"/>
      <path fill="rgb(55,45,49)" stroke="none" d="M 23951,5894 C 23948,5894 23944,5895 23940,5899 23828,6015 23700,6110 23559,6180 23418,6252 23267,6300 23113,6322 23052,6330 22991,6335 22929,6335 22903,6335 22877,6334 22850,6332 22850,6332 22850,6332 22849,6332 22831,6332 22829,6365 22849,6366 22875,6368 22901,6369 22927,6369 23060,6369 23193,6350 23322,6312 23474,6267 23620,6196 23753,6104 23828,6051 23897,5991 23961,5925 23974,5913 23964,5894 23951,5894 L 23951,5894 Z "/>
     </g>
    </g>
    <g class="com.sun.star.drawing.CustomShape">
     <g id="id17">
      <rect class="BoundingBox" stroke="none" fill="none" x="20814" y="5306" width="716" height="809"/>
      <path fill="rgb(241,152,197)" stroke="none" d="M 21226,5306 C 21197,5306 21168,5316 21145,5337 21129,5354 21118,5376 21113,5401 21095,5388 21075,5381 21054,5381 21040,5381 21027,5384 21013,5389 20965,5412 20932,5458 20924,5514 20919,5545 20917,5575 20922,5608 20911,5605 20899,5603 20887,5603 20864,5603 20843,5610 20829,5632 20807,5666 20813,5712 20832,5746 20850,5782 20874,5812 20901,5839 20927,5867 20956,5891 20986,5911 21021,5933 21058,5950 21098,5962 L 21103,5962 C 21103,5964 21103,5966 21103,5967 21105,5989 21106,6013 21110,6036 21111,6058 21118,6080 21132,6097 21142,6105 21154,6109 21166,6109 21171,6109 21176,6109 21182,6107 21195,6102 21206,6093 21214,6083 21228,6103 21250,6114 21272,6114 21277,6114 21281,6113 21286,6112 21308,6107 21328,6090 21336,6068 21346,6080 21361,6088 21375,6088 21380,6088 21385,6087 21390,6085 21413,6076 21427,6054 21429,6030 21436,6034 21445,6036 21454,6036 21457,6036 21459,6036 21462,6036 21485,6032 21506,6017 21517,5995 21542,5938 21512,5882 21488,5833 21493,5831 21496,5826 21496,5822 21517,5736 21536,5645 21525,5555 21520,5512 21509,5470 21488,5430 21480,5413 21465,5400 21448,5393 21443,5392 21439,5392 21434,5392 21421,5392 21409,5395 21398,5401 21385,5408 21374,5417 21363,5429 21352,5383 21323,5342 21283,5320 21265,5310 21245,5306 21226,5306 L 21226,5306 Z "/>
     </g>
    </g>
    <g class="com.sun.star.drawing.CustomShape">
     <g id="id18">
      <rect class="BoundingBox" stroke="none" fill="none" x="20932" y="5419" width="553" height="554"/>
      <path fill="rgb(55,45,49)" stroke="none" d="M 21128,5419 C 21120,5419 21112,5426 21116,5436 21172,5585 21225,5733 21276,5883 21278,5885 21278,5885 21279,5887 L 21148,5933 C 21079,5827 21014,5716 20958,5602 20956,5597 20952,5596 20948,5596 20938,5596 20929,5607 20934,5619 20990,5730 21053,5839 21120,5943 L 21112,5945 C 21099,5953 21105,5972 21117,5972 21118,5972 21119,5972 21120,5972 L 21476,5848 C 21488,5841 21484,5820 21470,5820 21469,5820 21468,5820 21467,5820 L 21432,5834 C 21435,5830 21436,5825 21436,5822 L 21377,5438 C 21375,5429 21369,5424 21363,5424 21355,5424 21348,5431 21350,5440 L 21409,5824 C 21409,5824 21409,5825 21409,5827 21404,5829 21401,5836 21404,5842 L 21302,5878 C 21302,5877 21302,5875 21302,5875 21250,5725 21197,5576 21141,5428 21139,5421 21133,5419 21128,5419 L 21128,5419 Z "/>
     </g>
    </g>
    <g class="com.sun.star.drawing.CustomShape">
     <g id="id19">
      <rect class="BoundingBox" stroke="none" fill="none" x="20670" y="6447" width="687" height="726"/>
      <path fill="rgb(242,184,126)" stroke="none" d="M 20924,6447 C 20922,6447 20920,6447 20918,6447 20913,6449 20910,6452 20910,6456 20908,6546 20910,6637 20916,6729 20844,6736 20773,6753 20704,6775 20690,6778 20672,6785 20671,6802 20668,6819 20680,6826 20693,6830 20701,6831 20709,6833 20717,6833 L 20749,6836 20807,6843 20940,6857 20943,6857 C 20924,6939 20910,7022 20900,7108 20895,7125 20895,7143 20902,7161 20905,7167 20911,7172 20918,7172 20927,7172 20935,7169 20940,7162 20947,7154 20951,7147 20956,7138 20961,7128 20966,7118 20971,7108 20982,7089 20992,7068 21001,7050 21020,7007 21038,6964 21052,6922 21128,6956 21206,6976 21288,6985 21295,6986 21302,6987 21309,6987 21319,6987 21329,6985 21338,6981 21352,6975 21361,6956 21352,6940 21343,6923 21330,6911 21314,6905 L 21255,6870 21128,6797 21272,6597 C 21283,6584 21296,6568 21295,6550 21295,6541 21290,6534 21283,6533 21280,6532 21276,6531 21273,6531 21265,6531 21258,6534 21253,6539 21215,6562 21176,6584 21137,6609 21105,6630 21073,6650 21041,6673 21014,6609 20988,6545 20961,6481 20954,6465 20942,6447 20924,6447 L 20924,6447 Z "/>
     </g>
    </g>
   </g>
  </g>
 </g>
</svg>