<?xml version='1.0' encoding='utf-8'?>
<svg xmlns="http://www.w3.org/2000/svg" width="100%" height="100%" viewBox="0 0 10000 7388" preserveAspectRatio="xMidYMid meet"><path fill="#F2B87E" fill-opacity="1" d="M 6086.54 0.00 C 5301.58 0.00 4132.99 745.42 3717.10 1022.68 2290.35 2012.18 1168.13 3362.57 159.54 4751.15 0.00 4968.87 216.81 5208.85 438.62 5208.85 507.25 5208.85 576.79 5185.67 635.43 5131.58 1909.91 3876.19 3089.41 2506.70 4667.97 1650.83 4934.32 1498.57 5200.67 1365.39 5486.11 1270.40 5542.93 1251.31 5600.20 1232.22 5657.02 1213.13 L 5657.02 1213.13 C 5638.38 1308.12 5600.20 1403.12 5562.02 1498.57 5486.11 1707.65 5391.12 1916.73 5276.58 2107.18 4839.33 2963.05 4363.89 3762.10 4097.54 4713.42 3907.10 5283.85 3545.75 6349.26 3831.19 6957.87 3968.46 7255.58 4230.26 7387.85 4507.98 7387.85 4691.15 7387.85 4882.05 7330.12 5048.41 7224.22 5847.46 6691.51 6532.43 5778.37 7216.94 5112.95 8054.18 4313.89 8890.96 3533.93 9690.01 2715.79 10000.00 2420.80 9725.92 2010.82 9391.85 2010.82 9295.49 2010.82 9194.13 2045.36 9100.50 2126.27 8301.44 2848.96 7502.39 3609.84 6703.33 4351.62 L 5391.12 5588.38 C 5238.85 5740.65 5029.32 5873.82 4877.51 6044.73 4877.51 5987.91 4896.14 5930.64 4915.23 5854.73 5124.77 4865.23 5486.11 3895.28 6018.82 3001.23 6361.07 2392.62 6912.87 1498.57 6836.51 737.69 6785.15 192.72 6485.61 0.00 6086.54 0.00 Z" /></svg>