<?xml version='1.0' encoding='utf-8'?>
<svg xmlns="http://www.w3.org/2000/svg" width="100%" height="100%" viewBox="0 0 10000 12501" preserveAspectRatio="xMidYMid meet"><path fill="#F2B87E" fill-opacity="1" d="M 4334.55 0.00 C 4266.91 0.00 4197.81 28.88 4146.62 98.35 2493.97 2470.20 872.03 4826.69 61.06 7642.05 0.00 7911.15 221.57 8150.64 469.47 8150.64 531.99 8150.64 595.98 8135.28 657.77 8101.28 2065.81 7428.15 2983.91 5974.41 4422.30 5392.69 L 4422.30 5392.69 C 4376.23 7749.18 2295.06 9814.99 3029.62 12232.91 3077.88 12406.58 3229.98 12501.28 3389.03 12501.28 3482.27 12501.28 3578.06 12469.10 3657.04 12401.10 4804.75 11375.87 5738.21 10182.45 6671.66 8958.32 7161.24 8284.83 7666.18 7627.06 8201.83 6984.28 8706.76 6387.57 9303.47 5882.63 9808.41 5285.56 10000.00 5081.54 9850.82 4771.12 9618.65 4771.12 9572.21 4771.12 9522.85 4783.18 9472.03 4811.33 8217.18 5576.60 7283.73 7029.98 6411.33 8193.05 5539.31 9340.77 4712.98 10488.48 3672.39 11421.94 3534.55 9172.58 5477.88 7183.18 5202.56 4857.40 5189.40 4631.08 5002.56 4462.89 4783.18 4462.89 4750.27 4462.89 4716.27 4466.54 4682.27 4474.59 3243.88 4811.33 2295.06 5959.05 1162.71 6816.09 1943.33 4505.30 3243.88 2378.43 4529.43 312.61 4635.83 152.47 4489.95 0.00 4334.55 0.00 Z" /></svg>