<?xml version="1.0" encoding="UTF-8"?>
<!DOCTYPE svg PUBLIC "-//W3C//DTD SVG 1.1//EN" "http://www.w3.org/Graphics/SVG/1.1/DTD/svg11.dtd">
<svg version="1.2" viewBox="2782 7429 918 1000" preserveAspectRatio="xMidYMid" fill-rule="evenodd" stroke-width="28.222" stroke-linejoin="round" xmlns="http://www.w3.org/2000/svg" xmlns:ooo="http://xml.openoffice.org/svg/export" xmlns:xlink="http://www.w3.org/1999/xlink" xmlns:presentation="http://sun.com/xmlns/staroffice/presentation" xmlns:smil="http://www.w3.org/2001/SMIL20/" xmlns:anim="urn:oasis:names:tc:opendocument:xmlns:animation:1.0" xmlns:svg="urn:oasis:names:tc:opendocument:xmlns:svg-compatible:1.0" xml:space="preserve">
 <defs class="EmbeddedBulletChars">
  <g id="bullet-char-template-57356" transform="scale(0.00048828125,-0.00048828125)">
   <path d="M 580,1141 L 1163,571 580,0 -4,571 580,1141 Z"/>
  </g>
  <g id="bullet-char-template-57354" transform="scale(0.00048828125,-0.00048828125)">
   <path d="M 8,1128 L 1137,1128 1137,0 8,0 8,1128 Z"/>
  </g>
  <g id="bullet-char-template-10146" transform="scale(0.00048828125,-0.00048828125)">
   <path d="M 174,0 L 602,739 174,1481 1456,739 174,0 Z M 1358,739 L 309,1346 659,739 1358,739 Z"/>
  </g>
  <g id="bullet-char-template-10132" transform="scale(0.00048828125,-0.00048828125)">
   <path d="M 2015,739 L 1276,0 717,0 1260,543 174,543 174,936 1260,936 717,1481 1274,1481 2015,739 Z"/>
  </g>
  <g id="bullet-char-template-10007" transform="scale(0.00048828125,-0.00048828125)">
   <path d="M 0,-2 C -7,14 -16,27 -25,37 L 356,567 C 262,823 215,952 215,954 215,979 228,992 255,992 264,992 276,990 289,987 310,991 331,999 354,1012 L 381,999 492,748 772,1049 836,1024 860,1049 C 881,1039 901,1025 922,1006 886,937 835,863 770,784 769,783 710,716 594,584 L 774,223 C 774,196 753,168 711,139 L 727,119 C 717,90 699,76 672,76 641,76 570,178 457,381 L 164,-76 C 142,-110 111,-127 72,-127 30,-127 9,-110 8,-76 1,-67 -2,-52 -2,-32 -2,-23 -1,-13 0,-2 Z"/>
  </g>
  <g id="bullet-char-template-10004" transform="scale(0.00048828125,-0.00048828125)">
   <path d="M 285,-33 C 182,-33 111,30 74,156 52,228 41,333 41,471 41,549 55,616 82,672 116,743 169,778 240,778 293,778 328,747 346,684 L 369,508 C 377,444 397,411 428,410 L 1163,1116 C 1174,1127 1196,1133 1229,1133 1271,1133 1292,1118 1292,1087 L 1292,965 C 1292,929 1282,901 1262,881 L 442,47 C 390,-6 338,-33 285,-33 Z"/>
  </g>
  <g id="bullet-char-template-9679" transform="scale(0.00048828125,-0.00048828125)">
   <path d="M 813,0 C 632,0 489,54 383,161 276,268 223,411 223,592 223,773 276,916 383,1023 489,1130 632,1184 813,1184 992,1184 1136,1130 1245,1023 1353,916 1407,772 1407,592 1407,412 1353,268 1245,161 1136,54 992,0 813,0 Z"/>
  </g>
  <g id="bullet-char-template-8226" transform="scale(0.00048828125,-0.00048828125)">
   <path d="M 346,457 C 273,457 209,483 155,535 101,586 74,649 74,723 74,796 101,859 155,911 209,963 273,989 346,989 419,989 480,963 531,910 582,859 608,796 608,723 608,648 583,586 532,535 482,483 420,457 346,457 Z"/>
  </g>
  <g id="bullet-char-template-8211" transform="scale(0.00048828125,-0.00048828125)">
   <path d="M -4,459 L 1135,459 1135,606 -4,606 -4,459 Z"/>
  </g>
  <g id="bullet-char-template-61548" transform="scale(0.00048828125,-0.00048828125)">
   <path d="M 173,740 C 173,903 231,1043 346,1159 462,1274 601,1332 765,1332 928,1332 1067,1274 1183,1159 1299,1043 1357,903 1357,740 1357,577 1299,437 1183,322 1067,206 928,148 765,148 601,148 462,206 346,322 231,437 173,577 173,740 Z"/>
  </g>
 </defs>
 <g ooo:name="Attendance" class="Page">
  <g class="Group">
   <g class="com.sun.star.drawing.CustomShape">
    <g id="id3">
     <rect class="BoundingBox" stroke="none" fill="none" x="2782" y="7429" width="918" height="1000"/>
     <g style="opacity: 0.2">
      <path fill="rgb(55,45,49)" stroke="none" d="M 3145,7588 C 3140,7588 3136,7588 3132,7590 3114,7596 3104,7615 3104,7633 3098,7683 3092,7730 3092,7780 3092,7814 3070,7848 3037,7861 2996,7879 2956,7901 2916,7923 2901,7929 2889,7948 2889,7966 2889,7985 2901,8004 2922,8010 2972,8029 3021,8053 3073,8075 3092,8082 3104,8097 3107,8116 3117,8169 3126,8222 3138,8274 3141,8293 3147,8315 3172,8321 3175,8322 3179,8322 3182,8322 3198,8322 3211,8309 3221,8296 3255,8259 3289,8215 3326,8178 3332,8169 3339,8162 3351,8159 3356,8156 3362,8154 3367,8154 3371,8154 3375,8155 3379,8156 L 3536,8175 C 3540,8176 3544,8176 3548,8176 3562,8176 3576,8171 3585,8159 3601,8141 3588,8122 3579,8103 3554,8057 3527,8010 3499,7963 3486,7948 3486,7926 3496,7910 3517,7861 3539,7808 3564,7758 3576,7742 3573,7721 3560,7705 3552,7694 3541,7690 3528,7690 3523,7690 3517,7691 3511,7693 3468,7705 3422,7714 3379,7727 3369,7731 3359,7732 3349,7732 3326,7732 3301,7722 3286,7705 3252,7668 3215,7637 3181,7605 3172,7594 3158,7588 3145,7588 L 3145,7588 Z "/>
      <path fill="none" stroke="rgb(55,45,49)" stroke-width="212" stroke-linejoin="round" d="M 3145,7588 C 3140,7588 3136,7588 3132,7590 3114,7596 3104,7615 3104,7633 3098,7683 3092,7730 3092,7780 3092,7814 3070,7848 3037,7861 2996,7879 2956,7901 2916,7923 2901,7929 2889,7948 2889,7966 2889,7985 2901,8004 2922,8010 2972,8029 3021,8053 3073,8075 3092,8082 3104,8097 3107,8116 3117,8169 3126,8222 3138,8274 3141,8293 3147,8315 3172,8321 3175,8322 3179,8322 3182,8322 3198,8322 3211,8309 3221,8296 3255,8259 3289,8215 3326,8178 3332,8169 3339,8162 3351,8159 3356,8156 3362,8154 3367,8154 3371,8154 3375,8155 3379,8156 L 3536,8175 C 3540,8176 3544,8176 3548,8176 3562,8176 3576,8171 3585,8159 3601,8141 3588,8122 3579,8103 3554,8057 3527,8010 3499,7963 3486,7948 3486,7926 3496,7910 3517,7861 3539,7808 3564,7758 3576,7742 3573,7721 3560,7705 3552,7694 3541,7690 3528,7690 3523,7690 3517,7691 3511,7693 3468,7705 3422,7714 3379,7727 3369,7731 3359,7732 3349,7732 3326,7732 3301,7722 3286,7705 3252,7668 3215,7637 3181,7605 3172,7594 3158,7588 3145,7588 Z "/>
     </g>
     <path fill="rgb(143,221,239)" stroke="none" d="M 3145,7535 C 3140,7535 3136,7535 3132,7537 3114,7543 3104,7562 3104,7580 3098,7630 3092,7677 3092,7727 3092,7761 3070,7795 3037,7808 2996,7826 2956,7848 2916,7870 2901,7876 2889,7895 2889,7913 2889,7932 2901,7951 2922,7957 2972,7976 3021,8000 3073,8022 3092,8029 3104,8044 3107,8063 3117,8116 3126,8169 3138,8221 3141,8240 3147,8262 3172,8268 3175,8269 3179,8269 3182,8269 3198,8269 3211,8256 3221,8243 3255,8206 3289,8162 3326,8125 3332,8116 3339,8109 3351,8106 3356,8103 3362,8101 3367,8101 3371,8101 3375,8102 3379,8103 L 3536,8122 C 3540,8123 3544,8123 3548,8123 3562,8123 3576,8118 3585,8106 3601,8088 3588,8069 3579,8050 3554,8004 3527,7957 3499,7910 3486,7895 3486,7873 3496,7857 3517,7808 3539,7755 3564,7705 3576,7689 3573,7668 3560,7652 3552,7641 3541,7637 3528,7637 3523,7637 3517,7638 3511,7640 3468,7652 3422,7661 3379,7674 3369,7678 3359,7679 3349,7679 3326,7679 3301,7669 3286,7652 3252,7615 3215,7584 3181,7552 3172,7541 3158,7535 3145,7535 L 3145,7535 Z "/>
     <path fill="none" stroke="rgb(255,255,255)" stroke-width="212" stroke-linejoin="round" d="M 3145,7535 C 3140,7535 3136,7535 3132,7537 3114,7543 3104,7562 3104,7580 3098,7630 3092,7677 3092,7727 3092,7761 3070,7795 3037,7808 2996,7826 2956,7848 2916,7870 2901,7876 2889,7895 2889,7913 2889,7932 2901,7951 2922,7957 2972,7976 3021,8000 3073,8022 3092,8029 3104,8044 3107,8063 3117,8116 3126,8169 3138,8221 3141,8240 3147,8262 3172,8268 3175,8269 3179,8269 3182,8269 3198,8269 3211,8256 3221,8243 3255,8206 3289,8162 3326,8125 3332,8116 3339,8109 3351,8106 3356,8103 3362,8101 3367,8101 3371,8101 3375,8102 3379,8103 L 3536,8122 C 3540,8123 3544,8123 3548,8123 3562,8123 3576,8118 3585,8106 3601,8088 3588,8069 3579,8050 3554,8004 3527,7957 3499,7910 3486,7895 3486,7873 3496,7857 3517,7808 3539,7755 3564,7705 3576,7689 3573,7668 3560,7652 3552,7641 3541,7637 3528,7637 3523,7637 3517,7638 3511,7640 3468,7652 3422,7661 3379,7674 3369,7678 3359,7679 3349,7679 3326,7679 3301,7669 3286,7652 3252,7615 3215,7584 3181,7552 3172,7541 3158,7535 3145,7535 Z "/>
    </g>
   </g>
   <g class="com.sun.star.drawing.CustomShape">
    <g id="id4">
     <rect class="BoundingBox" stroke="none" fill="none" x="2889" y="7538" width="707" height="728"/>
     <path fill="rgb(143,221,239)" stroke="none" d="M 3558,7654 C 3546,7639 3528,7636 3509,7642 3466,7654 3420,7664 3380,7676 3346,7688 3306,7679 3285,7651 3251,7617 3214,7587 3181,7553 3168,7541 3147,7535 3131,7541 L 3131,7541 3131,7541 C 3113,7547 3104,7565 3104,7584 3101,7630 3091,7679 3091,7725 3091,7762 3070,7796 3036,7805 2999,7827 2956,7848 2919,7870 2901,7876 2889,7894 2889,7913 2889,7931 2901,7950 2922,7953 2972,7974 3021,7996 3073,8017 3091,8023 3104,8042 3107,8060 3116,8113 3125,8165 3137,8217 3141,8236 3147,8257 3171,8263 3193,8270 3208,8254 3220,8239 3254,8199 3291,8159 3325,8119 3331,8113 3337,8106 3349,8100 3359,8097 3368,8097 3380,8097 L 3534,8119 C 3555,8125 3577,8119 3589,8100 3601,8082 3592,8063 3583,8045 3555,7999 3528,7953 3500,7910 3488,7894 3488,7873 3497,7854 3522,7805 3543,7756 3568,7707 3574,7688 3574,7667 3558,7654 L 3558,7654 Z "/>
    </g>
   </g>
  </g>
 </g>
</svg>