<?xml version="1.0" encoding="UTF-8"?>
<!DOCTYPE svg PUBLIC "-//W3C//DTD SVG 1.1//EN" "http://www.w3.org/Graphics/SVG/1.1/DTD/svg11.dtd">
<svg version="1.2" viewBox="3834 8118 3939 4098" preserveAspectRatio="xMidYMid" fill-rule="evenodd" stroke-width="28.222" stroke-linejoin="round" xmlns="http://www.w3.org/2000/svg" xmlns:ooo="http://xml.openoffice.org/svg/export" xmlns:xlink="http://www.w3.org/1999/xlink" xmlns:presentation="http://sun.com/xmlns/staroffice/presentation" xmlns:smil="http://www.w3.org/2001/SMIL20/" xmlns:anim="urn:oasis:names:tc:opendocument:xmlns:animation:1.0" xmlns:svg="urn:oasis:names:tc:opendocument:xmlns:svg-compatible:1.0" xml:space="preserve">
 <defs class="EmbeddedBulletChars">
  <g id="bullet-char-template-57356" transform="scale(0.00048828125,-0.00048828125)">
   <path d="M 580,1141 L 1163,571 580,0 -4,571 580,1141 Z"/>
  </g>
  <g id="bullet-char-template-57354" transform="scale(0.00048828125,-0.00048828125)">
   <path d="M 8,1128 L 1137,1128 1137,0 8,0 8,1128 Z"/>
  </g>
  <g id="bullet-char-template-10146" transform="scale(0.00048828125,-0.00048828125)">
   <path d="M 174,0 L 602,739 174,1481 1456,739 174,0 Z M 1358,739 L 309,1346 659,739 1358,739 Z"/>
  </g>
  <g id="bullet-char-template-10132" transform="scale(0.00048828125,-0.00048828125)">
   <path d="M 2015,739 L 1276,0 717,0 1260,543 174,543 174,936 1260,936 717,1481 1274,1481 2015,739 Z"/>
  </g>
  <g id="bullet-char-template-10007" transform="scale(0.00048828125,-0.00048828125)">
   <path d="M 0,-2 C -7,14 -16,27 -25,37 L 356,567 C 262,823 215,952 215,954 215,979 228,992 255,992 264,992 276,990 289,987 310,991 331,999 354,1012 L 381,999 492,748 772,1049 836,1024 860,1049 C 881,1039 901,1025 922,1006 886,937 835,863 770,784 769,783 710,716 594,584 L 774,223 C 774,196 753,168 711,139 L 727,119 C 717,90 699,76 672,76 641,76 570,178 457,381 L 164,-76 C 142,-110 111,-127 72,-127 30,-127 9,-110 8,-76 1,-67 -2,-52 -2,-32 -2,-23 -1,-13 0,-2 Z"/>
  </g>
  <g id="bullet-char-template-10004" transform="scale(0.00048828125,-0.00048828125)">
   <path d="M 285,-33 C 182,-33 111,30 74,156 52,228 41,333 41,471 41,549 55,616 82,672 116,743 169,778 240,778 293,778 328,747 346,684 L 369,508 C 377,444 397,411 428,410 L 1163,1116 C 1174,1127 1196,1133 1229,1133 1271,1133 1292,1118 1292,1087 L 1292,965 C 1292,929 1282,901 1262,881 L 442,47 C 390,-6 338,-33 285,-33 Z"/>
  </g>
  <g id="bullet-char-template-9679" transform="scale(0.00048828125,-0.00048828125)">
   <path d="M 813,0 C 632,0 489,54 383,161 276,268 223,411 223,592 223,773 276,916 383,1023 489,1130 632,1184 813,1184 992,1184 1136,1130 1245,1023 1353,916 1407,772 1407,592 1407,412 1353,268 1245,161 1136,54 992,0 813,0 Z"/>
  </g>
  <g id="bullet-char-template-8226" transform="scale(0.00048828125,-0.00048828125)">
   <path d="M 346,457 C 273,457 209,483 155,535 101,586 74,649 74,723 74,796 101,859 155,911 209,963 273,989 346,989 419,989 480,963 531,910 582,859 608,796 608,723 608,648 583,586 532,535 482,483 420,457 346,457 Z"/>
  </g>
  <g id="bullet-char-template-8211" transform="scale(0.00048828125,-0.00048828125)">
   <path d="M -4,459 L 1135,459 1135,606 -4,606 -4,459 Z"/>
  </g>
  <g id="bullet-char-template-61548" transform="scale(0.00048828125,-0.00048828125)">
   <path d="M 173,740 C 173,903 231,1043 346,1159 462,1274 601,1332 765,1332 928,1332 1067,1274 1183,1159 1299,1043 1357,903 1357,740 1357,577 1299,437 1183,322 1067,206 928,148 765,148 601,148 462,206 346,322 231,437 173,577 173,740 Z"/>
  </g>
 </defs>
 <g ooo:name="Attendance" class="Page">
  <g class="Group">
   <g class="com.sun.star.drawing.CustomShape">
    <g id="id3">
     <rect class="BoundingBox" stroke="none" fill="none" x="3834" y="8118" width="3939" height="4098"/>
     <g style="opacity: 0.2">
      <path fill="rgb(55,45,49)" stroke="none" d="M 6071,8330 C 5989,8330 5931,8379 5879,8442 5725,8632 5556,8813 5417,9016 5322,9157 5207,9202 5069,9202 5033,9202 4996,9199 4957,9194 4730,9163 4504,9144 4277,9119 4260,9117 4242,9116 4225,9116 4147,9116 4076,9137 4027,9210 3968,9305 3993,9393 4053,9484 4205,9720 4350,9959 4500,10195 4558,10287 4569,10369 4522,10470 4410,10718 4305,10969 4205,11221 4169,11316 4125,11420 4208,11511 4254,11561 4306,11578 4361,11578 4403,11578 4447,11568 4491,11555 4748,11486 5006,11420 5263,11351 5291,11341 5321,11337 5351,11337 5374,11337 5396,11340 5419,11345 5469,11358 5516,11384 5555,11420 5754,11597 5955,11773 6152,11952 6214,12007 6277,12056 6354,12056 6377,12056 6401,12051 6426,12042 6540,11996 6549,11884 6558,11784 6580,11511 6598,11239 6607,10967 6613,10855 6658,10784 6748,10731 6989,10588 7225,10440 7466,10300 7560,10246 7623,10179 7611,10067 7598,9961 7520,9908 7430,9874 7216,9791 7004,9705 6790,9632 6609,9568 6486,9477 6457,9265 6422,9022 6353,8784 6299,8543 6277,8448 6241,8369 6134,8338 L 6125,8336 6118,8334 C 6102,8331 6086,8330 6071,8330 L 6071,8330 Z "/>
      <path fill="none" stroke="rgb(55,45,49)" stroke-width="318" stroke-linejoin="round" d="M 6071,8330 C 5989,8330 5931,8379 5879,8442 5725,8632 5556,8813 5417,9016 5322,9157 5207,9202 5069,9202 5033,9202 4996,9199 4957,9194 4730,9163 4504,9144 4277,9119 4260,9117 4242,9116 4225,9116 4147,9116 4076,9137 4027,9210 3968,9305 3993,9393 4053,9484 4205,9720 4350,9959 4500,10195 4558,10287 4569,10369 4522,10470 4410,10718 4305,10969 4205,11221 4169,11316 4125,11420 4208,11511 4254,11561 4306,11578 4361,11578 4403,11578 4447,11568 4491,11555 4748,11486 5006,11420 5263,11351 5291,11341 5321,11337 5351,11337 5374,11337 5396,11340 5419,11345 5469,11358 5516,11384 5555,11420 5754,11597 5955,11773 6152,11952 6214,12007 6277,12056 6354,12056 6377,12056 6401,12051 6426,12042 6540,11996 6549,11884 6558,11784 6580,11511 6598,11239 6607,10967 6613,10855 6658,10784 6748,10731 6989,10588 7225,10440 7466,10300 7560,10246 7623,10179 7611,10067 7598,9961 7520,9908 7430,9874 7216,9791 7004,9705 6790,9632 6609,9568 6486,9477 6457,9265 6422,9022 6353,8784 6299,8543 6277,8448 6241,8369 6134,8338 L 6125,8336 6118,8334 C 6102,8331 6086,8330 6071,8330 Z "/>
     </g>
     <path fill="rgb(255,255,255)" stroke="none" d="M 6071,8277 C 5989,8277 5931,8326 5879,8389 5725,8579 5556,8760 5417,8963 5322,9104 5207,9149 5069,9149 5033,9149 4996,9146 4957,9141 4730,9110 4504,9091 4277,9066 4260,9064 4242,9063 4225,9063 4147,9063 4076,9084 4027,9157 3968,9252 3993,9340 4053,9431 4205,9667 4350,9906 4500,10142 4558,10234 4569,10316 4522,10417 4410,10665 4305,10916 4205,11168 4169,11263 4125,11367 4208,11458 4254,11508 4306,11525 4361,11525 4403,11525 4447,11515 4491,11502 4748,11433 5006,11367 5263,11298 5291,11288 5321,11284 5351,11284 5374,11284 5396,11287 5419,11292 5469,11305 5516,11331 5555,11367 5754,11544 5955,11720 6152,11899 6214,11954 6277,12003 6354,12003 6377,12003 6401,11998 6426,11989 6540,11943 6549,11831 6558,11731 6580,11458 6598,11186 6607,10914 6613,10802 6658,10731 6748,10678 6989,10535 7225,10387 7466,10247 7560,10193 7623,10126 7611,10014 7598,9908 7520,9855 7430,9821 7216,9738 7004,9652 6790,9579 6609,9515 6486,9424 6457,9212 6422,8969 6353,8731 6299,8490 6277,8395 6241,8316 6134,8285 L 6125,8283 6118,8281 C 6102,8278 6086,8277 6071,8277 L 6071,8277 Z "/>
     <path fill="none" stroke="rgb(255,255,255)" stroke-width="318" stroke-linejoin="round" d="M 6071,8277 C 5989,8277 5931,8326 5879,8389 5725,8579 5556,8760 5417,8963 5322,9104 5207,9149 5069,9149 5033,9149 4996,9146 4957,9141 4730,9110 4504,9091 4277,9066 4260,9064 4242,9063 4225,9063 4147,9063 4076,9084 4027,9157 3968,9252 3993,9340 4053,9431 4205,9667 4350,9906 4500,10142 4558,10234 4569,10316 4522,10417 4410,10665 4305,10916 4205,11168 4169,11263 4125,11367 4208,11458 4254,11508 4306,11525 4361,11525 4403,11525 4447,11515 4491,11502 4748,11433 5006,11367 5263,11298 5291,11288 5321,11284 5351,11284 5374,11284 5396,11287 5419,11292 5469,11305 5516,11331 5555,11367 5754,11544 5955,11720 6152,11899 6214,11954 6277,12003 6354,12003 6377,12003 6401,11998 6426,11989 6540,11943 6549,11831 6558,11731 6580,11458 6598,11186 6607,10914 6613,10802 6658,10731 6748,10678 6989,10535 7225,10387 7466,10247 7560,10193 7623,10126 7611,10014 7598,9908 7520,9855 7430,9821 7216,9738 7004,9652 6790,9579 6609,9515 6486,9424 6457,9212 6422,8969 6353,8731 6299,8490 6277,8395 6241,8316 6134,8285 L 6125,8283 6118,8281 C 6102,8278 6086,8277 6071,8277 Z "/>
    </g>
   </g>
   <g class="com.sun.star.drawing.CustomShape">
    <g id="id4">
     <rect class="BoundingBox" stroke="none" fill="none" x="4000" y="8285" width="3609" height="3685"/>
     <path fill="rgb(250,231,127)" stroke="none" d="M 4035,9155 C 4091,9067 4185,9056 4282,9065 4508,9087 4734,9107 4960,9137 5148,9163 5299,9137 5420,8964 5558,8763 5726,8585 5881,8397 5942,8321 6009,8269 6117,8290 L 6127,8292 6134,8294 C 6240,8323 6276,8400 6298,8496 6352,8733 6421,8967 6455,9208 6484,9419 6609,9509 6788,9571 7003,9645 7212,9728 7425,9809 7515,9844 7595,9896 7606,10001 7618,10111 7555,10178 7463,10232 7223,10371 6988,10517 6748,10658 6656,10712 6611,10783 6605,10893 6596,11162 6578,11431 6556,11698 6547,11798 6538,11910 6425,11955 6314,11997 6231,11937 6152,11866 5955,11689 5754,11516 5556,11339 5478,11267 5368,11240 5265,11272 5008,11339 4752,11406 4496,11474 4394,11503 4293,11518 4214,11431 4131,11341 4172,11238 4210,11146 4311,10897 4416,10649 4526,10403 4571,10302 4562,10221 4505,10133 4355,9894 4210,9657 4058,9426 4001,9336 3974,9247 4035,9155 L 4035,9155 Z "/>
    </g>
   </g>
   <g class="com.sun.star.drawing.CustomShape">
    <g id="id5">
     <rect class="BoundingBox" stroke="none" fill="none" x="4746" y="10233" width="400" height="294"/>
     <path fill="rgb(241,152,197)" stroke="none" d="M 5141,10430 C 5123,10506 5021,10544 4913,10516 4805,10489 4731,10404 4749,10328 4767,10254 4870,10215 4978,10242 5086,10271 5161,10354 5141,10430 L 5141,10430 Z "/>
    </g>
   </g>
   <g class="com.sun.star.drawing.CustomShape">
    <g id="id6">
     <rect class="BoundingBox" stroke="none" fill="none" x="6112" y="10585" width="400" height="294"/>
     <path fill="rgb(241,152,197)" stroke="none" d="M 6508,10782 C 6490,10858 6387,10896 6279,10868 6171,10839 6097,10755 6115,10680 6133,10606 6236,10567 6344,10594 6452,10621 6527,10706 6508,10782 L 6508,10782 Z "/>
    </g>
   </g>
   <g class="com.sun.star.drawing.CustomShape">
    <g id="id7">
     <rect class="BoundingBox" stroke="none" fill="none" x="4906" y="9561" width="718" height="712"/>
     <path fill="rgb(255,255,255)" stroke="none" d="M 5254,9561 C 5097,9561 4954,9667 4915,9826 4872,10019 4991,10211 5182,10259 5213,10268 5243,10272 5273,10272 5430,10272 5573,10166 5614,10007 5656,9813 5538,9622 5347,9573 5316,9565 5284,9561 5254,9561 L 5254,9561 Z "/>
    </g>
   </g>
   <g class="com.sun.star.drawing.CustomShape">
    <g id="id8">
     <rect class="BoundingBox" stroke="none" fill="none" x="4907" y="9560" width="453" height="705"/>
     <path fill="rgb(55,45,49)" stroke="none" d="M 4916,9825 C 4873,10018 4992,10209 5183,10258 5192,10260 5201,10262 5208,10264 5420,9995 5367,9726 5299,9563 5123,9542 4959,9653 4916,9825 L 4916,9825 Z "/>
    </g>
   </g>
   <g class="com.sun.star.drawing.CustomShape">
    <g id="id9">
     <rect class="BoundingBox" stroke="none" fill="none" x="5880" y="9810" width="717" height="713"/>
     <path fill="rgb(255,255,255)" stroke="none" d="M 6226,9810 C 6071,9810 5928,9915 5889,10075 5846,10268 5965,10460 6156,10509 6187,10517 6217,10521 6247,10521 6404,10521 6547,10415 6586,10254 6630,10062 6512,9869 6319,9822 6288,9814 6257,9810 6226,9810 L 6226,9810 Z "/>
    </g>
   </g>
   <g class="com.sun.star.drawing.CustomShape">
    <g id="id10">
     <rect class="BoundingBox" stroke="none" fill="none" x="5881" y="9810" width="452" height="706"/>
     <path fill="rgb(55,45,49)" stroke="none" d="M 5890,10075 C 5847,10268 5966,10459 6157,10508 6166,10510 6173,10512 6182,10514 6394,10243 6339,9976 6271,9813 6096,9792 5931,9903 5890,10075 L 5890,10075 Z "/>
    </g>
   </g>
   <g class="com.sun.star.drawing.CustomShape">
    <g id="id11">
     <rect class="BoundingBox" stroke="none" fill="none" x="5063" y="9335" width="346" height="133"/>
     <path fill="rgb(55,45,49)" stroke="none" d="M 5216,9335 C 5180,9335 5144,9338 5109,9344 5080,9351 5062,9376 5064,9405 5061,9429 5075,9448 5097,9457 L 5117,9457 C 5147,9452 5180,9448 5212,9448 5258,9448 5301,9454 5344,9465 5348,9467 5352,9467 5355,9467 5417,9459 5427,9376 5370,9354 5319,9340 5268,9335 5216,9335 L 5216,9335 Z "/>
    </g>
   </g>
   <g class="com.sun.star.drawing.CustomShape">
    <g id="id12">
     <rect class="BoundingBox" stroke="none" fill="none" x="6245" y="9599" width="329" height="219"/>
     <path fill="rgb(55,45,49)" stroke="none" d="M 6306,9599 C 6282,9599 6260,9613 6251,9635 6241,9655 6244,9680 6260,9696 6266,9700 6271,9702 6278,9703 6353,9723 6423,9758 6484,9807 6492,9814 6503,9817 6513,9817 6530,9817 6548,9808 6559,9794 6578,9772 6577,9738 6555,9718 6484,9662 6405,9622 6318,9600 6315,9599 6309,9599 6306,9599 L 6306,9599 Z "/>
    </g>
   </g>
   <g class="com.sun.star.drawing.CustomShape">
    <g id="id13">
     <rect class="BoundingBox" stroke="none" fill="none" x="5515" y="10296" width="323" height="317"/>
     <path fill="rgb(55,45,49)" stroke="none" d="M 5574,10296 C 5556,10296 5538,10305 5531,10328 5503,10432 5503,10573 5631,10605 5646,10610 5660,10612 5673,10612 5784,10612 5814,10472 5835,10378 5843,10345 5815,10323 5788,10323 5771,10323 5753,10333 5748,10356 5736,10407 5732,10519 5661,10519 5578,10519 5605,10396 5620,10351 5630,10317 5602,10296 5574,10296 L 5574,10296 Z "/>
    </g>
   </g>
  </g>
 </g>
</svg>