<?xml version="1.0" encoding="UTF-8"?>
<!DOCTYPE svg PUBLIC "-//W3C//DTD SVG 1.1//EN" "http://www.w3.org/Graphics/SVG/1.1/DTD/svg11.dtd">
<svg version="1.2" viewBox="3276 2195 5492 4416" preserveAspectRatio="xMidYMid" fill-rule="evenodd" stroke-width="28.222" stroke-linejoin="round" xmlns="http://www.w3.org/2000/svg" xmlns:ooo="http://xml.openoffice.org/svg/export" xmlns:xlink="http://www.w3.org/1999/xlink" xmlns:presentation="http://sun.com/xmlns/staroffice/presentation" xmlns:smil="http://www.w3.org/2001/SMIL20/" xmlns:anim="urn:oasis:names:tc:opendocument:xmlns:animation:1.0" xmlns:svg="urn:oasis:names:tc:opendocument:xmlns:svg-compatible:1.0" xml:space="preserve">
 <defs class="EmbeddedBulletChars">
  <g id="bullet-char-template-57356" transform="scale(0.00048828125,-0.00048828125)">
   <path d="M 580,1141 L 1163,571 580,0 -4,571 580,1141 Z"/>
  </g>
  <g id="bullet-char-template-57354" transform="scale(0.00048828125,-0.00048828125)">
   <path d="M 8,1128 L 1137,1128 1137,0 8,0 8,1128 Z"/>
  </g>
  <g id="bullet-char-template-10146" transform="scale(0.00048828125,-0.00048828125)">
   <path d="M 174,0 L 602,739 174,1481 1456,739 174,0 Z M 1358,739 L 309,1346 659,739 1358,739 Z"/>
  </g>
  <g id="bullet-char-template-10132" transform="scale(0.00048828125,-0.00048828125)">
   <path d="M 2015,739 L 1276,0 717,0 1260,543 174,543 174,936 1260,936 717,1481 1274,1481 2015,739 Z"/>
  </g>
  <g id="bullet-char-template-10007" transform="scale(0.00048828125,-0.00048828125)">
   <path d="M 0,-2 C -7,14 -16,27 -25,37 L 356,567 C 262,823 215,952 215,954 215,979 228,992 255,992 264,992 276,990 289,987 310,991 331,999 354,1012 L 381,999 492,748 772,1049 836,1024 860,1049 C 881,1039 901,1025 922,1006 886,937 835,863 770,784 769,783 710,716 594,584 L 774,223 C 774,196 753,168 711,139 L 727,119 C 717,90 699,76 672,76 641,76 570,178 457,381 L 164,-76 C 142,-110 111,-127 72,-127 30,-127 9,-110 8,-76 1,-67 -2,-52 -2,-32 -2,-23 -1,-13 0,-2 Z"/>
  </g>
  <g id="bullet-char-template-10004" transform="scale(0.00048828125,-0.00048828125)">
   <path d="M 285,-33 C 182,-33 111,30 74,156 52,228 41,333 41,471 41,549 55,616 82,672 116,743 169,778 240,778 293,778 328,747 346,684 L 369,508 C 377,444 397,411 428,410 L 1163,1116 C 1174,1127 1196,1133 1229,1133 1271,1133 1292,1118 1292,1087 L 1292,965 C 1292,929 1282,901 1262,881 L 442,47 C 390,-6 338,-33 285,-33 Z"/>
  </g>
  <g id="bullet-char-template-9679" transform="scale(0.00048828125,-0.00048828125)">
   <path d="M 813,0 C 632,0 489,54 383,161 276,268 223,411 223,592 223,773 276,916 383,1023 489,1130 632,1184 813,1184 992,1184 1136,1130 1245,1023 1353,916 1407,772 1407,592 1407,412 1353,268 1245,161 1136,54 992,0 813,0 Z"/>
  </g>
  <g id="bullet-char-template-8226" transform="scale(0.00048828125,-0.00048828125)">
   <path d="M 346,457 C 273,457 209,483 155,535 101,586 74,649 74,723 74,796 101,859 155,911 209,963 273,989 346,989 419,989 480,963 531,910 582,859 608,796 608,723 608,648 583,586 532,535 482,483 420,457 346,457 Z"/>
  </g>
  <g id="bullet-char-template-8211" transform="scale(0.00048828125,-0.00048828125)">
   <path d="M -4,459 L 1135,459 1135,606 -4,606 -4,459 Z"/>
  </g>
  <g id="bullet-char-template-61548" transform="scale(0.00048828125,-0.00048828125)">
   <path d="M 173,740 C 173,903 231,1043 346,1159 462,1274 601,1332 765,1332 928,1332 1067,1274 1183,1159 1299,1043 1357,903 1357,740 1357,577 1299,437 1183,322 1067,206 928,148 765,148 601,148 462,206 346,322 231,437 173,577 173,740 Z"/>
  </g>
 </defs>
 <g ooo:name="Attendance" class="Page">
  <g class="Group">
   <g class="com.sun.star.drawing.CustomShape">
    <g id="id3">
     <rect class="BoundingBox" stroke="none" fill="none" x="3276" y="2195" width="5492" height="4416"/>
     <g style="opacity: 0.2">
      <path fill="rgb(55,45,49)" stroke="none" d="M 8564,4656 L 8474,4588 8290,4450 7852,4090 C 7551,4194 7252,4299 6951,4403 7252,4299 7553,4194 7852,4089 7809,4050 7767,4011 7724,3971 7639,3890 7556,3807 7473,3724 L 7386,3257 7298,2832 C 7280,2728 7263,2626 7247,2523 7231,2421 7190,2388 7125,2418 6888,2529 6651,2634 6415,2745 6224,2834 6030,2913 5848,3015 5696,3100 5549,3195 5402,3288 5312,3179 5218,3073 5128,2964 5068,2892 5001,2839 4894,2860 L 4887,2862 4879,2864 C 4774,2892 4739,2969 4718,3063 4670,3273 4610,3480 4574,3694 L 4219,3976 3878,4246 C 3789,4279 3702,4313 3614,4346 3527,4378 3450,4431 3437,4531 3427,4639 3487,4704 3577,4757 3812,4893 4044,5035 4277,5173 4366,5226 4412,5293 4417,5402 4426,5663 4443,5926 4465,6188 4474,6285 4482,6393 4594,6437 4702,6477 4783,6419 4859,6351 4925,6292 4990,6234 5055,6178 L 5865,5806 C 6071,5859 6276,5912 6481,5966 6582,5994 6681,6009 6759,5924 6838,5836 6797,5735 6760,5645 6736,5582 6711,5520 6684,5459 L 6919,5369 7349,5205 7779,5041 8209,4878 8423,4797 8531,4755 8585,4734 C 8598,4730 8609,4727 8607,4711 8607,4685 8585,4672 8564,4656 L 8564,4656 Z M 6157,3673 L 6157,3673 6235,3646 6157,3673 Z "/>
      <path fill="none" stroke="rgb(55,45,49)" stroke-width="318" stroke-linejoin="round" d="M 8564,4656 L 8474,4588 8290,4450 7852,4090 C 7551,4194 7252,4299 6951,4403 7252,4299 7553,4194 7852,4089 7809,4050 7767,4011 7724,3971 7639,3890 7556,3807 7473,3724 L 7386,3257 7298,2832 C 7280,2728 7263,2626 7247,2523 7231,2421 7190,2388 7125,2418 6888,2529 6651,2634 6415,2745 6224,2834 6030,2913 5848,3015 5696,3100 5549,3195 5402,3288 5312,3179 5218,3073 5128,2964 5068,2892 5001,2839 4894,2860 L 4887,2862 4879,2864 C 4774,2892 4739,2969 4718,3063 4670,3273 4610,3480 4574,3694 L 4219,3976 3878,4246 C 3789,4279 3702,4313 3614,4346 3527,4378 3450,4431 3437,4531 3427,4639 3487,4704 3577,4757 3812,4893 4044,5035 4277,5173 4366,5226 4412,5293 4417,5402 4426,5663 4443,5926 4465,6188 4474,6285 4482,6393 4594,6437 4702,6477 4783,6419 4859,6351 4925,6292 4990,6234 5055,6178 L 5865,5806 C 6071,5859 6276,5912 6481,5966 6582,5994 6681,6009 6759,5924 6838,5836 6797,5735 6760,5645 6736,5582 6711,5520 6684,5459 L 6919,5369 7349,5205 7779,5041 8209,4878 8423,4797 8531,4755 8585,4734 C 8598,4730 8609,4727 8607,4711 8607,4685 8585,4672 8564,4656 Z "/>
      <path fill="none" stroke="rgb(55,45,49)" stroke-width="318" stroke-linejoin="round" d="M 6157,3673 L 6157,3673 6235,3646 6157,3673 Z "/>
     </g>
     <path fill="rgb(255,255,255)" stroke="none" d="M 8564,4603 L 8474,4535 8290,4397 7852,4037 C 7551,4141 7252,4246 6951,4350 7252,4246 7553,4141 7852,4036 7809,3997 7767,3958 7724,3918 7639,3837 7556,3754 7473,3671 L 7386,3204 7298,2779 C 7280,2675 7263,2573 7247,2470 7231,2368 7190,2335 7125,2365 6888,2476 6651,2581 6415,2692 6224,2781 6030,2860 5848,2962 5696,3047 5549,3142 5402,3235 5312,3126 5218,3020 5128,2911 5068,2839 5001,2786 4894,2807 L 4887,2809 4879,2811 C 4774,2839 4739,2916 4718,3010 4670,3220 4610,3427 4574,3641 L 4219,3923 3878,4193 C 3789,4226 3702,4260 3614,4293 3527,4325 3450,4378 3437,4478 3427,4586 3487,4651 3577,4704 3812,4840 4044,4982 4277,5120 4366,5173 4412,5240 4417,5349 4426,5610 4443,5873 4465,6135 4474,6232 4482,6340 4594,6384 4702,6424 4783,6366 4859,6298 4925,6239 4990,6181 5055,6125 L 5865,5753 C 6071,5806 6276,5859 6481,5913 6582,5941 6681,5956 6759,5871 6838,5783 6797,5682 6760,5592 6736,5529 6711,5467 6684,5406 L 6919,5316 7349,5152 7779,4988 8209,4825 8423,4744 8531,4702 8585,4681 C 8598,4677 8609,4674 8607,4658 8607,4632 8585,4619 8564,4603 L 8564,4603 Z M 6157,3620 L 6157,3620 6235,3593 6157,3620 Z "/>
     <path fill="none" stroke="rgb(255,255,255)" stroke-width="318" stroke-linejoin="round" d="M 8564,4603 L 8474,4535 8290,4397 7852,4037 C 7551,4141 7252,4246 6951,4350 7252,4246 7553,4141 7852,4036 7809,3997 7767,3958 7724,3918 7639,3837 7556,3754 7473,3671 L 7386,3204 7298,2779 C 7280,2675 7263,2573 7247,2470 7231,2368 7190,2335 7125,2365 6888,2476 6651,2581 6415,2692 6224,2781 6030,2860 5848,2962 5696,3047 5549,3142 5402,3235 5312,3126 5218,3020 5128,2911 5068,2839 5001,2786 4894,2807 L 4887,2809 4879,2811 C 4774,2839 4739,2916 4718,3010 4670,3220 4610,3427 4574,3641 L 4219,3923 3878,4193 C 3789,4226 3702,4260 3614,4293 3527,4325 3450,4378 3437,4478 3427,4586 3487,4651 3577,4704 3812,4840 4044,4982 4277,5120 4366,5173 4412,5240 4417,5349 4426,5610 4443,5873 4465,6135 4474,6232 4482,6340 4594,6384 4702,6424 4783,6366 4859,6298 4925,6239 4990,6181 5055,6125 L 5865,5753 C 6071,5806 6276,5859 6481,5913 6582,5941 6681,5956 6759,5871 6838,5783 6797,5682 6760,5592 6736,5529 6711,5467 6684,5406 L 6919,5316 7349,5152 7779,4988 8209,4825 8423,4744 8531,4702 8585,4681 C 8598,4677 8609,4674 8607,4658 8607,4632 8585,4619 8564,4603 Z "/>
     <path fill="none" stroke="rgb(255,255,255)" stroke-width="318" stroke-linejoin="round" d="M 6157,3620 L 6157,3620 6235,3593 6157,3620 Z "/>
    </g>
   </g>
   <g class="Group">
    <g class="com.sun.star.drawing.CustomShape">
     <g id="id4">
      <rect class="BoundingBox" stroke="none" fill="none" x="6162" y="4038" width="2127" height="1022"/>
      <path fill="rgb(250,231,127)" stroke="none" d="M 7851,4038 L 8288,4397 C 8149,4450 8013,4510 7872,4559 7489,4690 7103,4817 6718,4942 6591,4984 6463,5020 6334,5059 L 6352,4979 C 6318,4953 6270,4935 6246,4898 6168,4785 6128,4672 6200,4593 6226,4591 6251,4589 6276,4584 6502,4507 6726,4429 6951,4350 7251,4246 7551,4142 7851,4038 L 7851,4038 Z "/>
     </g>
    </g>
    <g class="com.sun.star.drawing.CustomShape">
     <g id="id5">
      <rect class="BoundingBox" stroke="none" fill="none" x="5285" y="2778" width="2102" height="1045"/>
      <path fill="rgb(205,234,157)" stroke="none" d="M 7297,2778 L 7386,3204 C 7223,3261 7063,3319 6900,3374 6680,3448 6459,3518 6239,3592 6018,3666 5794,3746 5572,3822 L 5311,3490 5285,3441 C 5378,3409 5472,3381 5563,3347 5757,3277 5948,3199 6142,3130 6421,3035 6701,2942 6983,2852 7084,2820 7191,2802 7297,2778 L 7297,2778 Z "/>
     </g>
    </g>
    <g class="com.sun.star.drawing.CustomShape">
     <g id="id6">
      <rect class="BoundingBox" stroke="none" fill="none" x="6335" y="4397" width="2269" height="1090"/>
      <path fill="rgb(242,184,126)" stroke="none" d="M 6335,5058 C 6463,5019 6592,4984 6719,4941 7103,4816 7488,4689 7871,4559 8012,4509 8149,4449 8287,4397 L 8468,4534 8560,4603 C 8580,4619 8601,4631 8603,4658 8603,4675 8592,4677 8580,4682 L 8527,4702 8419,4744 8206,4825 7777,4987 7349,5151 6920,5315 6491,5478 6470,5486 C 6463,5435 6467,5384 6447,5335 6417,5241 6373,5150 6335,5058 L 6335,5058 Z "/>
     </g>
    </g>
    <g class="com.sun.star.drawing.CustomShape">
     <g id="id7">
      <rect class="BoundingBox" stroke="none" fill="none" x="5570" y="3205" width="1901" height="888"/>
      <path fill="rgb(143,221,239)" stroke="none" d="M 5571,3823 C 5793,3747 6013,3669 6237,3593 6460,3518 6678,3449 6899,3375 7061,3320 7222,3262 7384,3206 L 7470,3671 C 7336,3717 7201,3761 7066,3809 6807,3902 6548,3997 6290,4092 L 6158,4043 C 6040,4029 5920,4010 5803,4003 5706,3997 5632,3944 5571,3823 L 5571,3823 Z "/>
     </g>
    </g>
    <g class="com.sun.star.drawing.CustomShape">
     <g id="id8">
      <rect class="BoundingBox" stroke="none" fill="none" x="6202" y="3671" width="1650" height="923"/>
      <path fill="rgb(241,152,197)" stroke="none" d="M 6291,4092 C 6549,3997 6808,3901 7067,3808 7201,3760 7337,3716 7471,3671 7556,3753 7639,3836 7722,3917 7764,3960 7808,3997 7851,4035 7551,4141 7251,4245 6951,4349 6727,4427 6501,4506 6277,4582 6251,4589 6226,4591 6202,4593 6216,4550 6228,4508 6237,4464 6251,4337 6364,4273 6291,4092 L 6291,4092 Z "/>
     </g>
    </g>
    <g class="com.sun.star.drawing.CustomShape">
     <g id="id9">
      <rect class="BoundingBox" stroke="none" fill="none" x="5184" y="2353" width="2115" height="1091"/>
      <path fill="rgb(221,178,213)" stroke="none" d="M 7297,2778 C 7191,2803 7083,2820 6983,2852 6700,2942 6420,3036 6141,3131 5945,3200 5755,3277 5563,3348 5471,3382 5376,3412 5282,3442 L 5184,3380 C 5406,3240 5623,3090 5852,2962 6032,2859 6228,2780 6416,2692 6653,2582 6889,2475 7124,2365 7191,2334 7229,2365 7245,2469 7263,2573 7279,2676 7297,2778 L 7297,2778 Z "/>
     </g>
    </g>
    <g class="com.sun.star.drawing.CustomShape">
     <g id="id10">
      <rect class="BoundingBox" stroke="none" fill="none" x="5030" y="5634" width="928" height="506"/>
      <path fill="rgb(253,96,133)" stroke="none" d="M 5030,6138 C 5201,5972 5354,5774 5552,5651 5640,5597 5818,5688 5956,5713 L 5030,6138 Z "/>
     </g>
    </g>
    <g class="com.sun.star.drawing.CustomShape">
     <g id="id11">
      <rect class="BoundingBox" stroke="none" fill="none" x="3713" y="3776" width="919" height="554"/>
      <path fill="rgb(205,234,157)" stroke="none" d="M 4631,3776 C 4573,3853 4531,3966 4453,4005 4213,4128 3959,4224 3713,4329 L 4226,3922 4631,3776 Z "/>
     </g>
    </g>
    <g class="com.sun.star.drawing.CustomShape">
     <g id="id12">
      <rect class="BoundingBox" stroke="none" fill="none" x="4225" y="3569" width="446" height="356"/>
      <path fill="rgb(221,178,213)" stroke="none" d="M 4630,3777 L 4225,3924 4670,3569 4630,3777 Z "/>
     </g>
    </g>
    <g class="com.sun.star.drawing.CustomShape">
     <g id="id13">
      <rect class="BoundingBox" stroke="none" fill="none" x="3445" y="2801" width="3524" height="3598"/>
      <path fill="rgb(250,231,127)" stroke="none" d="M 6934,3650 C 6877,3566 6787,3553 6692,3562 6471,3585 6251,3605 6031,3635 5847,3657 5699,3635 5581,3463 5447,3268 5283,3093 5133,2910 5071,2837 5006,2785 4900,2806 L 4893,2807 4884,2809 C 4780,2837 4745,2915 4724,3008 4671,3240 4604,3469 4570,3703 4542,3910 4420,3998 4246,4058 4036,4130 3831,4213 3623,4292 3535,4326 3459,4377 3447,4477 3435,4585 3496,4650 3586,4703 3821,4839 4052,4982 4285,5119 4373,5172 4419,5239 4422,5349 4433,5610 4450,5873 4472,6135 4479,6232 4487,6340 4600,6384 4708,6424 4789,6366 4865,6297 5057,6125 5253,5955 5447,5783 5523,5712 5630,5686 5731,5717 5981,5783 6232,5848 6482,5917 6583,5943 6680,5959 6757,5874 6838,5786 6798,5684 6761,5594 6662,5350 6560,5109 6452,4869 6408,4770 6417,4691 6473,4605 6620,4377 6762,4146 6911,3918 6967,3829 6993,3740 6934,3650 L 6934,3650 Z "/>
     </g>
    </g>
    <g class="com.sun.star.drawing.CustomShape">
     <g id="id14">
      <rect class="BoundingBox" stroke="none" fill="none" x="4435" y="4290" width="780" height="784"/>
      <path fill="rgb(255,255,255)" stroke="none" d="M 4840,4291 C 5054,4298 5222,4480 5213,4693 5204,4908 5024,5078 4809,5072 4595,5063 4428,4883 4436,4668 4445,4453 4625,4286 4840,4291 L 4840,4291 Z "/>
     </g>
    </g>
    <g class="com.sun.star.drawing.CustomShape">
     <g id="id15">
      <rect class="BoundingBox" stroke="none" fill="none" x="4481" y="4291" width="703" height="548"/>
      <path fill="rgb(55,45,49)" stroke="none" d="M 4481,4503 C 4488,4628 4560,4739 4671,4798 4844,4887 5057,4819 5145,4644 5165,4607 5177,4567 5182,4526 5123,4389 4990,4297 4840,4292 4689,4287 4549,4369 4481,4503 L 4481,4503 Z "/>
     </g>
    </g>
    <g class="com.sun.star.drawing.CustomShape">
     <g id="id16">
      <rect class="BoundingBox" stroke="none" fill="none" x="5345" y="4033" width="778" height="780"/>
      <path fill="rgb(255,255,255)" stroke="none" d="M 5775,4035 C 5988,4058 6144,4250 6119,4463 6094,4676 5904,4831 5690,4810 5475,4787 5322,4595 5348,4382 5371,4169 5561,4014 5775,4035 L 5775,4035 Z "/>
     </g>
    </g>
    <g class="com.sun.star.drawing.CustomShape">
     <g id="id17">
      <rect class="BoundingBox" stroke="none" fill="none" x="5401" y="4033" width="699" height="549"/>
      <path fill="rgb(55,45,49)" stroke="none" d="M 5402,4222 C 5402,4348 5465,4462 5571,4527 5736,4631 5955,4579 6055,4409 6077,4374 6092,4335 6099,4295 6052,4152 5925,4051 5777,4035 5625,4020 5481,4094 5402,4222 L 5402,4222 Z "/>
     </g>
    </g>
    <g class="com.sun.star.drawing.CustomShape">
     <g id="id18">
      <rect class="BoundingBox" stroke="none" fill="none" x="5401" y="3820" width="313" height="140"/>
      <path fill="rgb(55,45,49)" stroke="none" d="M 5685,3834 C 5592,3803 5486,3824 5414,3893 5377,3926 5433,3982 5470,3947 5523,3900 5599,3885 5664,3910 5713,3926 5734,3850 5685,3834 L 5685,3834 Z "/>
     </g>
    </g>
    <g class="com.sun.star.drawing.CustomShape">
     <g id="id19">
      <rect class="BoundingBox" stroke="none" fill="none" x="4537" y="4059" width="303" height="165"/>
      <path fill="rgb(55,45,49)" stroke="none" d="M 4805,4064 C 4707,4047 4608,4084 4546,4161 4515,4202 4578,4247 4610,4207 4655,4152 4726,4128 4796,4143 4847,4151 4855,4073 4805,4064 L 4805,4064 Z "/>
     </g>
    </g>
    <g class="com.sun.star.drawing.CustomShape">
     <g id="id20">
      <rect class="BoundingBox" stroke="none" fill="none" x="4671" y="5101" width="311" height="227"/>
      <path fill="rgb(241,152,197)" stroke="none" d="M 4853,5101 C 4836,5101 4818,5103 4800,5107 4718,5126 4660,5190 4674,5250 4685,5297 4738,5327 4802,5327 4818,5327 4835,5325 4852,5321 4936,5301 4993,5238 4978,5178 4967,5130 4915,5101 4853,5101 L 4853,5101 Z "/>
     </g>
    </g>
    <g class="com.sun.star.drawing.CustomShape">
     <g id="id21">
      <rect class="BoundingBox" stroke="none" fill="none" x="5874" y="4788" width="311" height="228"/>
      <path fill="rgb(241,152,197)" stroke="none" d="M 6053,4788 C 6038,4788 6021,4789 6005,4793 5920,4814 5864,4878 5876,4938 5887,4985 5942,5015 6005,5015 6021,5015 6038,5013 6054,5009 6139,4989 6196,4924 6181,4866 6171,4818 6117,4788 6053,4788 L 6053,4788 Z "/>
     </g>
    </g>
    <g class="com.sun.star.drawing.CustomShape">
     <g id="id22">
      <rect class="BoundingBox" stroke="none" fill="none" x="5072" y="4531" width="2" height="4"/>
      <path fill="rgb(255,255,255)" stroke="none" d="M 5072,4531 C 5072,4531 5072,4531 5073,4534 5073,4532 5072,4531 5072,4531 L 5072,4531 Z "/>
     </g>
    </g>
    <g class="com.sun.star.drawing.CustomShape">
     <g id="id23">
      <rect class="BoundingBox" stroke="none" fill="none" x="5256" y="4908" width="325" height="275"/>
      <path fill="rgb(55,45,49)" stroke="none" d="M 5557,4937 C 5529,4883 5437,4912 5465,4969 5487,5013 5501,5064 5442,5083 5386,5103 5367,5053 5351,5009 5331,4951 5240,4983 5259,5041 5296,5142 5363,5201 5474,5175 5585,5147 5600,5025 5557,4937 L 5557,4937 Z "/>
     </g>
    </g>
   </g>
  </g>
 </g>
</svg>