<?xml version="1.0" encoding="UTF-8"?>
<!DOCTYPE svg PUBLIC "-//W3C//DTD SVG 1.1//EN" "http://www.w3.org/Graphics/SVG/1.1/DTD/svg11.dtd">
<svg version="1.2" viewBox="16601 996 1368 1455" preserveAspectRatio="xMidYMid" fill-rule="evenodd" stroke-width="28.222" stroke-linejoin="round" xmlns="http://www.w3.org/2000/svg" xmlns:ooo="http://xml.openoffice.org/svg/export" xmlns:xlink="http://www.w3.org/1999/xlink" xmlns:presentation="http://sun.com/xmlns/staroffice/presentation" xmlns:smil="http://www.w3.org/2001/SMIL20/" xmlns:anim="urn:oasis:names:tc:opendocument:xmlns:animation:1.0" xmlns:svg="urn:oasis:names:tc:opendocument:xmlns:svg-compatible:1.0" xml:space="preserve">
 <defs class="EmbeddedBulletChars">
  <g id="bullet-char-template-57356" transform="scale(0.00048828125,-0.00048828125)">
   <path d="M 580,1141 L 1163,571 580,0 -4,571 580,1141 Z"/>
  </g>
  <g id="bullet-char-template-57354" transform="scale(0.00048828125,-0.00048828125)">
   <path d="M 8,1128 L 1137,1128 1137,0 8,0 8,1128 Z"/>
  </g>
  <g id="bullet-char-template-10146" transform="scale(0.00048828125,-0.00048828125)">
   <path d="M 174,0 L 602,739 174,1481 1456,739 174,0 Z M 1358,739 L 309,1346 659,739 1358,739 Z"/>
  </g>
  <g id="bullet-char-template-10132" transform="scale(0.00048828125,-0.00048828125)">
   <path d="M 2015,739 L 1276,0 717,0 1260,543 174,543 174,936 1260,936 717,1481 1274,1481 2015,739 Z"/>
  </g>
  <g id="bullet-char-template-10007" transform="scale(0.00048828125,-0.00048828125)">
   <path d="M 0,-2 C -7,14 -16,27 -25,37 L 356,567 C 262,823 215,952 215,954 215,979 228,992 255,992 264,992 276,990 289,987 310,991 331,999 354,1012 L 381,999 492,748 772,1049 836,1024 860,1049 C 881,1039 901,1025 922,1006 886,937 835,863 770,784 769,783 710,716 594,584 L 774,223 C 774,196 753,168 711,139 L 727,119 C 717,90 699,76 672,76 641,76 570,178 457,381 L 164,-76 C 142,-110 111,-127 72,-127 30,-127 9,-110 8,-76 1,-67 -2,-52 -2,-32 -2,-23 -1,-13 0,-2 Z"/>
  </g>
  <g id="bullet-char-template-10004" transform="scale(0.00048828125,-0.00048828125)">
   <path d="M 285,-33 C 182,-33 111,30 74,156 52,228 41,333 41,471 41,549 55,616 82,672 116,743 169,778 240,778 293,778 328,747 346,684 L 369,508 C 377,444 397,411 428,410 L 1163,1116 C 1174,1127 1196,1133 1229,1133 1271,1133 1292,1118 1292,1087 L 1292,965 C 1292,929 1282,901 1262,881 L 442,47 C 390,-6 338,-33 285,-33 Z"/>
  </g>
  <g id="bullet-char-template-9679" transform="scale(0.00048828125,-0.00048828125)">
   <path d="M 813,0 C 632,0 489,54 383,161 276,268 223,411 223,592 223,773 276,916 383,1023 489,1130 632,1184 813,1184 992,1184 1136,1130 1245,1023 1353,916 1407,772 1407,592 1407,412 1353,268 1245,161 1136,54 992,0 813,0 Z"/>
  </g>
  <g id="bullet-char-template-8226" transform="scale(0.00048828125,-0.00048828125)">
   <path d="M 346,457 C 273,457 209,483 155,535 101,586 74,649 74,723 74,796 101,859 155,911 209,963 273,989 346,989 419,989 480,963 531,910 582,859 608,796 608,723 608,648 583,586 532,535 482,483 420,457 346,457 Z"/>
  </g>
  <g id="bullet-char-template-8211" transform="scale(0.00048828125,-0.00048828125)">
   <path d="M -4,459 L 1135,459 1135,606 -4,606 -4,459 Z"/>
  </g>
  <g id="bullet-char-template-61548" transform="scale(0.00048828125,-0.00048828125)">
   <path d="M 173,740 C 173,903 231,1043 346,1159 462,1274 601,1332 765,1332 928,1332 1067,1274 1183,1159 1299,1043 1357,903 1357,740 1357,577 1299,437 1183,322 1067,206 928,148 765,148 601,148 462,206 346,322 231,437 173,577 173,740 Z"/>
  </g>
 </defs>
 <g ooo:name="page1" class="Page">
  <g class="Group">
   <g class="com.sun.star.drawing.CustomShape">
    <g id="id3">
     <rect class="BoundingBox" stroke="none" fill="none" x="16601" y="996" width="1368" height="1455"/>
     <g style="opacity: 0.2">
      <path fill="rgb(0,0,0)" stroke="none" d="M 17377,1156 C 17368,1156 17358,1160 17351,1168 L 17145,1410 C 17136,1419 17127,1424 17113,1424 L 16749,1378 C 16717,1378 16699,1405 16712,1433 L 16895,1788 C 16895,1797 16899,1807 16895,1816 L 16813,2185 C 16809,2206 16828,2225 16850,2225 16856,2225 16862,2224 16867,2221 L 17155,2071 C 17160,2069 17165,2068 17171,2068 17181,2068 17192,2071 17200,2080 L 17465,2335 C 17472,2341 17480,2344 17488,2344 17505,2344 17521,2331 17524,2312 L 17583,1943 C 17588,1939 17588,1930 17592,1925 L 17852,1633 C 17871,1610 17861,1583 17834,1574 L 17501,1497 C 17487,1492 17478,1483 17474,1469 L 17410,1182 C 17407,1165 17392,1156 17377,1156 L 17377,1156 Z "/>
      <path fill="none" stroke="rgb(0,0,0)" stroke-width="212" stroke-linejoin="round" d="M 17377,1156 C 17368,1156 17358,1160 17351,1168 L 17145,1410 C 17136,1419 17127,1424 17113,1424 L 16749,1378 C 16717,1378 16699,1405 16712,1433 L 16895,1788 C 16895,1797 16899,1807 16895,1816 L 16813,2185 C 16809,2206 16828,2225 16850,2225 16856,2225 16862,2224 16867,2221 L 17155,2071 C 17160,2069 17165,2068 17171,2068 17181,2068 17192,2071 17200,2080 L 17465,2335 C 17472,2341 17480,2344 17488,2344 17505,2344 17521,2331 17524,2312 L 17583,1943 C 17588,1939 17588,1930 17592,1925 L 17852,1633 C 17871,1610 17861,1583 17834,1574 L 17501,1497 C 17487,1492 17478,1483 17474,1469 L 17410,1182 C 17407,1165 17392,1156 17377,1156 Z "/>
     </g>
     <path fill="rgb(255,255,255)" stroke="none" d="M 17377,1103 C 17368,1103 17358,1107 17351,1115 L 17145,1357 C 17136,1366 17127,1371 17113,1371 L 16749,1325 C 16717,1325 16699,1352 16712,1380 L 16895,1735 C 16895,1744 16899,1754 16895,1763 L 16813,2132 C 16809,2153 16828,2172 16850,2172 16856,2172 16862,2171 16867,2168 L 17155,2018 C 17160,2016 17165,2015 17171,2015 17181,2015 17192,2018 17200,2027 L 17465,2282 C 17472,2288 17480,2291 17488,2291 17505,2291 17521,2278 17524,2259 L 17583,1890 C 17588,1886 17588,1877 17592,1872 L 17852,1580 C 17871,1557 17861,1530 17834,1521 L 17501,1444 C 17487,1439 17478,1430 17474,1416 L 17410,1129 C 17407,1112 17392,1103 17377,1103 L 17377,1103 Z "/>
     <path fill="none" stroke="rgb(255,255,255)" stroke-width="212" stroke-linejoin="round" d="M 17377,1103 C 17368,1103 17358,1107 17351,1115 L 17145,1357 C 17136,1366 17127,1371 17113,1371 L 16749,1325 C 16717,1325 16699,1352 16712,1380 L 16895,1735 C 16895,1744 16899,1754 16895,1763 L 16813,2132 C 16809,2153 16828,2172 16850,2172 16856,2172 16862,2171 16867,2168 L 17155,2018 C 17160,2016 17165,2015 17171,2015 17181,2015 17192,2018 17200,2027 L 17465,2282 C 17472,2288 17480,2291 17488,2291 17505,2291 17521,2278 17524,2259 L 17583,1890 C 17588,1886 17588,1877 17592,1872 L 17852,1580 C 17871,1557 17861,1530 17834,1521 L 17501,1444 C 17487,1439 17478,1430 17474,1416 L 17410,1129 C 17407,1112 17392,1103 17377,1103 Z "/>
    </g>
   </g>
   <g class="com.sun.star.drawing.CustomShape">
    <g id="id4">
     <rect class="BoundingBox" stroke="none" fill="none" x="16707" y="1102" width="1156" height="1190"/>
     <path fill="rgb(250,231,127)" stroke="none" d="M 17377,1103 C 17368,1103 17358,1107 17351,1115 L 17145,1357 C 17136,1366 17127,1371 17113,1371 L 16749,1325 C 16717,1325 16699,1352 16712,1380 L 16895,1735 C 16895,1744 16899,1754 16895,1763 L 16813,2132 C 16809,2153 16828,2172 16850,2172 16856,2172 16862,2171 16867,2168 L 17155,2018 C 17160,2016 17165,2015 17171,2015 17181,2015 17192,2018 17200,2027 L 17465,2282 C 17472,2288 17480,2291 17488,2291 17505,2291 17521,2278 17524,2259 L 17583,1890 C 17588,1886 17588,1877 17592,1872 L 17852,1580 C 17871,1557 17861,1530 17834,1521 L 17501,1444 C 17487,1439 17478,1430 17474,1416 L 17410,1129 C 17407,1112 17392,1103 17377,1103 L 17377,1103 Z "/>
    </g>
   </g>
  </g>
 </g>
</svg>