<?xml version="1.0" encoding="UTF-8"?>
<!DOCTYPE svg PUBLIC "-//W3C//DTD SVG 1.1//EN" "http://www.w3.org/Graphics/SVG/1.1/DTD/svg11.dtd">
<svg version="1.2" viewBox="20203 6449 3274 3422" preserveAspectRatio="xMidYMid" fill-rule="evenodd" stroke-width="28.222" stroke-linejoin="round" xmlns="http://www.w3.org/2000/svg" xmlns:ooo="http://xml.openoffice.org/svg/export" xmlns:xlink="http://www.w3.org/1999/xlink" xmlns:presentation="http://sun.com/xmlns/staroffice/presentation" xmlns:smil="http://www.w3.org/2001/SMIL20/" xmlns:anim="urn:oasis:names:tc:opendocument:xmlns:animation:1.0" xmlns:svg="urn:oasis:names:tc:opendocument:xmlns:svg-compatible:1.0" xml:space="preserve">
 <defs class="EmbeddedBulletChars">
  <g id="bullet-char-template-57356" transform="scale(0.00048828125,-0.00048828125)">
   <path d="M 580,1141 L 1163,571 580,0 -4,571 580,1141 Z"/>
  </g>
  <g id="bullet-char-template-57354" transform="scale(0.00048828125,-0.00048828125)">
   <path d="M 8,1128 L 1137,1128 1137,0 8,0 8,1128 Z"/>
  </g>
  <g id="bullet-char-template-10146" transform="scale(0.00048828125,-0.00048828125)">
   <path d="M 174,0 L 602,739 174,1481 1456,739 174,0 Z M 1358,739 L 309,1346 659,739 1358,739 Z"/>
  </g>
  <g id="bullet-char-template-10132" transform="scale(0.00048828125,-0.00048828125)">
   <path d="M 2015,739 L 1276,0 717,0 1260,543 174,543 174,936 1260,936 717,1481 1274,1481 2015,739 Z"/>
  </g>
  <g id="bullet-char-template-10007" transform="scale(0.00048828125,-0.00048828125)">
   <path d="M 0,-2 C -7,14 -16,27 -25,37 L 356,567 C 262,823 215,952 215,954 215,979 228,992 255,992 264,992 276,990 289,987 310,991 331,999 354,1012 L 381,999 492,748 772,1049 836,1024 860,1049 C 881,1039 901,1025 922,1006 886,937 835,863 770,784 769,783 710,716 594,584 L 774,223 C 774,196 753,168 711,139 L 727,119 C 717,90 699,76 672,76 641,76 570,178 457,381 L 164,-76 C 142,-110 111,-127 72,-127 30,-127 9,-110 8,-76 1,-67 -2,-52 -2,-32 -2,-23 -1,-13 0,-2 Z"/>
  </g>
  <g id="bullet-char-template-10004" transform="scale(0.00048828125,-0.00048828125)">
   <path d="M 285,-33 C 182,-33 111,30 74,156 52,228 41,333 41,471 41,549 55,616 82,672 116,743 169,778 240,778 293,778 328,747 346,684 L 369,508 C 377,444 397,411 428,410 L 1163,1116 C 1174,1127 1196,1133 1229,1133 1271,1133 1292,1118 1292,1087 L 1292,965 C 1292,929 1282,901 1262,881 L 442,47 C 390,-6 338,-33 285,-33 Z"/>
  </g>
  <g id="bullet-char-template-9679" transform="scale(0.00048828125,-0.00048828125)">
   <path d="M 813,0 C 632,0 489,54 383,161 276,268 223,411 223,592 223,773 276,916 383,1023 489,1130 632,1184 813,1184 992,1184 1136,1130 1245,1023 1353,916 1407,772 1407,592 1407,412 1353,268 1245,161 1136,54 992,0 813,0 Z"/>
  </g>
  <g id="bullet-char-template-8226" transform="scale(0.00048828125,-0.00048828125)">
   <path d="M 346,457 C 273,457 209,483 155,535 101,586 74,649 74,723 74,796 101,859 155,911 209,963 273,989 346,989 419,989 480,963 531,910 582,859 608,796 608,723 608,648 583,586 532,535 482,483 420,457 346,457 Z"/>
  </g>
  <g id="bullet-char-template-8211" transform="scale(0.00048828125,-0.00048828125)">
   <path d="M -4,459 L 1135,459 1135,606 -4,606 -4,459 Z"/>
  </g>
  <g id="bullet-char-template-61548" transform="scale(0.00048828125,-0.00048828125)">
   <path d="M 173,740 C 173,903 231,1043 346,1159 462,1274 601,1332 765,1332 928,1332 1067,1274 1183,1159 1299,1043 1357,903 1357,740 1357,577 1299,437 1183,322 1067,206 928,148 765,148 601,148 462,206 346,322 231,437 173,577 173,740 Z"/>
  </g>
 </defs>
 <g ooo:name="Choice_Time!" class="Page">
  <g class="Group">
   <g class="Group">
    <g class="Group">
     <g class="com.sun.star.drawing.CustomShape">
      <g id="id3">
       <rect class="BoundingBox" stroke="none" fill="none" x="20203" y="6449" width="3274" height="3422"/>
       <g style="opacity: 0.188235294117647">
        <path fill="rgb(55,45,49)" stroke="none" d="M 20477,7166 C 20534,7100 20610,7100 20690,7118 20872,7161 21056,7200 21237,7248 21389,7289 21515,7283 21632,7151 21766,7003 21921,6873 22067,6735 22126,6680 22186,6642 22272,6672 L 22286,6677 C 22371,6712 22392,6780 22400,6859 22420,7060 22453,7258 22455,7459 22458,7635 22550,7721 22690,7790 22858,7873 23023,7964 23188,8051 23260,8089 23319,8140 23317,8227 23315,8319 23258,8367 23176,8402 22966,8490 22756,8588 22546,8678 22465,8712 22422,8764 22407,8855 22370,9074 22328,9292 22282,9509 22265,9590 22246,9681 22150,9705 22054,9729 21992,9671 21935,9605 21792,9440 21644,9276 21501,9112 21444,9044 21356,9011 21269,9025 21051,9055 20834,9082 20617,9113 20531,9125 20446,9128 20391,9047 20331,8964 20378,8882 20417,8811 20526,8617 20637,8425 20753,8236 20801,8159 20802,8089 20765,8010 20665,7804 20570,7594 20469,7388 20430,7311 20418,7235 20477,7166 L 20477,7166 Z "/>
        <path fill="none" stroke="rgb(55,45,49)" stroke-width="318" stroke-linejoin="round" d="M 20477,7166 C 20534,7100 20610,7100 20690,7118 20872,7161 21056,7200 21237,7248 21389,7289 21515,7283 21632,7151 21766,7003 21921,6873 22067,6735 22126,6680 22186,6642 22272,6672 L 22286,6677 C 22371,6712 22392,6780 22400,6859 22420,7060 22453,7258 22455,7459 22458,7635 22550,7721 22690,7790 22858,7873 23023,7964 23188,8051 23260,8089 23319,8140 23317,8227 23315,8319 23258,8367 23176,8402 22966,8490 22756,8588 22546,8678 22465,8712 22422,8764 22407,8855 22370,9074 22328,9292 22282,9509 22265,9590 22246,9681 22150,9705 22054,9729 21992,9671 21935,9605 21792,9440 21644,9276 21501,9112 21444,9044 21356,9011 21269,9025 21051,9055 20834,9082 20617,9113 20531,9125 20446,9128 20391,9047 20331,8964 20378,8882 20417,8811 20526,8617 20637,8425 20753,8236 20801,8159 20802,8089 20765,8010 20665,7804 20570,7594 20469,7388 20430,7311 20418,7235 20477,7166 Z "/>
       </g>
       <path fill="rgb(255,255,255)" stroke="none" d="M 20477,7113 C 20534,7047 20610,7047 20690,7065 20872,7108 21056,7147 21237,7195 21389,7236 21515,7230 21632,7098 21766,6950 21921,6820 22067,6682 22126,6627 22186,6589 22272,6619 L 22286,6624 C 22371,6659 22392,6727 22400,6806 22420,7007 22453,7205 22455,7406 22458,7582 22550,7668 22690,7737 22858,7820 23023,7911 23188,7998 23260,8036 23319,8087 23317,8174 23315,8266 23258,8314 23176,8349 22966,8437 22756,8535 22546,8625 22465,8659 22422,8711 22407,8802 22370,9021 22328,9239 22282,9456 22265,9537 22246,9628 22150,9652 22054,9676 21992,9618 21935,9552 21792,9387 21644,9223 21501,9059 21444,8991 21356,8958 21269,8972 21051,9002 20834,9029 20617,9060 20531,9072 20446,9075 20391,8994 20331,8911 20378,8829 20417,8758 20526,8564 20637,8372 20753,8183 20801,8106 20802,8036 20765,7957 20665,7751 20570,7541 20469,7335 20430,7258 20418,7182 20477,7113 L 20477,7113 Z "/>
       <path fill="none" stroke="rgb(255,255,255)" stroke-width="318" stroke-linejoin="round" d="M 20477,7113 C 20534,7047 20610,7047 20690,7065 20872,7108 21056,7147 21237,7195 21389,7236 21515,7230 21632,7098 21766,6950 21921,6820 22067,6682 22126,6627 22186,6589 22272,6619 L 22286,6624 C 22371,6659 22392,6727 22400,6806 22420,7007 22453,7205 22455,7406 22458,7582 22550,7668 22690,7737 22858,7820 23023,7911 23188,7998 23260,8036 23319,8087 23317,8174 23315,8266 23258,8314 23176,8349 22966,8437 22756,8535 22546,8625 22465,8659 22422,8711 22407,8802 22370,9021 22328,9239 22282,9456 22265,9537 22246,9628 22150,9652 22054,9676 21992,9618 21935,9552 21792,9387 21644,9223 21501,9059 21444,8991 21356,8958 21269,8972 21051,9002 20834,9029 20617,9060 20531,9072 20446,9075 20391,8994 20331,8911 20378,8829 20417,8758 20526,8564 20637,8372 20753,8183 20801,8106 20802,8036 20765,7957 20665,7751 20570,7541 20469,7335 20430,7258 20418,7182 20477,7113 Z "/>
      </g>
     </g>
     <g class="com.sun.star.drawing.CustomShape">
      <g id="id4">
       <rect class="BoundingBox" stroke="none" fill="none" x="20969" y="7552" width="787" height="808"/>
       <g style="opacity: 0.188235294117647">
        <path fill="rgb(55,45,49)" stroke="none" d="M 21506,7931 C 21466,8013 21410,8136 21299,8101 21173,8060 21218,7914 21252,7823 21272,7770 21188,7739 21169,7791 21115,7935 21091,8106 21254,8180 21424,8256 21527,8092 21590,7963 21616,7911 21530,7879 21506,7931 L 21506,7931 Z "/>
        <path fill="none" stroke="rgb(55,45,49)" stroke-width="318" stroke-linejoin="round" d="M 21506,7931 C 21466,8013 21410,8136 21299,8101 21173,8060 21218,7914 21252,7823 21272,7770 21188,7739 21169,7791 21115,7935 21091,8106 21254,8180 21424,8256 21527,8092 21590,7963 21616,7911 21530,7879 21506,7931 Z "/>
       </g>
       <path fill="rgb(255,255,255)" stroke="none" d="M 21506,7878 C 21466,7960 21410,8083 21299,8048 21173,8007 21218,7861 21252,7770 21272,7717 21188,7686 21169,7738 21115,7882 21091,8053 21254,8127 21424,8203 21527,8039 21590,7910 21616,7858 21530,7826 21506,7878 L 21506,7878 Z "/>
       <path fill="none" stroke="rgb(255,255,255)" stroke-width="318" stroke-linejoin="round" d="M 21506,7878 C 21466,7960 21410,8083 21299,8048 21173,8007 21218,7861 21252,7770 21272,7717 21188,7686 21169,7738 21115,7882 21091,8053 21254,8127 21424,8203 21527,8039 21590,7910 21616,7858 21530,7826 21506,7878 Z "/>
      </g>
     </g>
     <g class="com.sun.star.drawing.CustomShape">
      <g id="id5">
       <rect class="BoundingBox" stroke="none" fill="none" x="21804" y="7868" width="747" height="756"/>
       <g style="opacity: 0.188235294117647">
        <path fill="rgb(55,45,49)" stroke="none" d="M 22304,8216 C 22274,8296 22236,8395 22134,8367 22026,8338 22050,8209 22066,8127 22077,8070 21988,8063 21976,8119 21950,8247 21955,8403 22102,8451 22167,8476 22238,8462 22290,8418 22338,8374 22366,8306 22388,8248 22408,8194 22324,8162 22304,8216 L 22304,8216 Z "/>
        <path fill="none" stroke="rgb(55,45,49)" stroke-width="318" stroke-linejoin="round" d="M 22304,8216 C 22274,8296 22236,8395 22134,8367 22026,8338 22050,8209 22066,8127 22077,8070 21988,8063 21976,8119 21950,8247 21955,8403 22102,8451 22167,8476 22238,8462 22290,8418 22338,8374 22366,8306 22388,8248 22408,8194 22324,8162 22304,8216 Z "/>
       </g>
       <path fill="rgb(255,255,255)" stroke="none" d="M 22304,8163 C 22274,8243 22236,8342 22134,8314 22026,8285 22050,8156 22066,8074 22077,8017 21988,8010 21976,8066 21950,8194 21955,8350 22102,8398 22167,8423 22238,8409 22290,8365 22338,8321 22366,8253 22388,8195 22408,8141 22324,8109 22304,8163 L 22304,8163 Z "/>
       <path fill="none" stroke="rgb(255,255,255)" stroke-width="318" stroke-linejoin="round" d="M 22304,8163 C 22274,8243 22236,8342 22134,8314 22026,8285 22050,8156 22066,8074 22077,8017 21988,8010 21976,8066 21950,8194 21955,8350 22102,8398 22167,8423 22238,8409 22290,8365 22338,8321 22366,8253 22388,8195 22408,8141 22324,8109 22304,8163 Z "/>
      </g>
     </g>
     <g class="com.sun.star.drawing.CustomShape">
      <g id="id6">
       <rect class="BoundingBox" stroke="none" fill="none" x="21193" y="7349" width="575" height="506"/>
       <g style="opacity: 0.188235294117647">
        <path fill="rgb(55,45,49)" stroke="none" d="M 21579,7610 C 21522,7581 21463,7564 21400,7562 21343,7558 21334,7646 21393,7651 21447,7654 21499,7668 21548,7692 21570,7701 21597,7689 21606,7666 21612,7643 21601,7618 21579,7610 L 21579,7610 Z "/>
        <path fill="none" stroke="rgb(55,45,49)" stroke-width="318" stroke-linejoin="round" d="M 21579,7610 C 21522,7581 21463,7564 21400,7562 21343,7558 21334,7646 21393,7651 21447,7654 21499,7668 21548,7692 21570,7701 21597,7689 21606,7666 21612,7643 21601,7618 21579,7610 Z "/>
       </g>
       <path fill="rgb(255,255,255)" stroke="none" d="M 21579,7557 C 21522,7528 21463,7511 21400,7509 21343,7505 21334,7593 21393,7598 21447,7601 21499,7615 21548,7639 21570,7648 21597,7636 21606,7613 21612,7590 21601,7565 21579,7557 L 21579,7557 Z "/>
       <path fill="none" stroke="rgb(255,255,255)" stroke-width="318" stroke-linejoin="round" d="M 21579,7557 C 21522,7528 21463,7511 21400,7509 21343,7505 21334,7593 21393,7598 21447,7601 21499,7615 21548,7639 21570,7648 21597,7636 21606,7613 21612,7590 21601,7565 21579,7557 Z "/>
      </g>
     </g>
     <g class="com.sun.star.drawing.CustomShape">
      <g id="id7">
       <rect class="BoundingBox" stroke="none" fill="none" x="21923" y="7609" width="550" height="513"/>
       <g style="opacity: 0.188235294117647">
        <path fill="rgb(55,45,49)" stroke="none" d="M 22292,7882 C 22246,7857 22195,7838 22143,7824 22088,7809 22057,7894 22111,7908 22155,7918 22198,7934 22239,7954 22290,7985 22343,7912 22292,7882 L 22292,7882 Z "/>
        <path fill="none" stroke="rgb(55,45,49)" stroke-width="318" stroke-linejoin="round" d="M 22292,7882 C 22246,7857 22195,7838 22143,7824 22088,7809 22057,7894 22111,7908 22155,7918 22198,7934 22239,7954 22290,7985 22343,7912 22292,7882 Z "/>
       </g>
       <path fill="rgb(255,255,255)" stroke="none" d="M 22292,7829 C 22246,7804 22195,7785 22143,7771 22088,7756 22057,7841 22111,7855 22155,7865 22198,7881 22239,7901 22290,7932 22343,7859 22292,7829 L 22292,7829 Z "/>
       <path fill="none" stroke="rgb(255,255,255)" stroke-width="318" stroke-linejoin="round" d="M 22292,7829 C 22246,7804 22195,7785 22143,7771 22088,7756 22057,7841 22111,7855 22155,7865 22198,7881 22239,7901 22290,7932 22343,7859 22292,7829 Z "/>
      </g>
     </g>
     <g class="com.sun.star.drawing.CustomShape">
      <g id="id8">
       <rect class="BoundingBox" stroke="none" fill="none" x="20837" y="7966" width="658" height="600"/>
       <g style="opacity: 0.188235294117647">
        <path fill="rgb(55,45,49)" stroke="none" d="M 21201,8197 C 21110,8163 21020,8176 21000,8230 20981,8281 21038,8353 21130,8387 21221,8422 21311,8405 21331,8354 21351,8300 21292,8232 21201,8197 L 21201,8197 Z "/>
        <path fill="none" stroke="rgb(55,45,49)" stroke-width="318" stroke-linejoin="round" d="M 21201,8197 C 21110,8163 21020,8176 21000,8230 20981,8281 21038,8353 21130,8387 21221,8422 21311,8405 21331,8354 21351,8300 21292,8232 21201,8197 Z "/>
       </g>
       <path fill="rgb(255,255,255)" stroke="none" d="M 21201,8144 C 21110,8110 21020,8123 21000,8177 20981,8228 21038,8300 21130,8334 21221,8369 21311,8352 21331,8301 21351,8247 21292,8179 21201,8144 L 21201,8144 Z "/>
       <path fill="none" stroke="rgb(255,255,255)" stroke-width="318" stroke-linejoin="round" d="M 21201,8144 C 21110,8110 21020,8123 21000,8177 20981,8228 21038,8300 21130,8334 21221,8369 21311,8352 21331,8301 21351,8247 21292,8179 21201,8144 Z "/>
      </g>
     </g>
     <g class="com.sun.star.drawing.CustomShape">
      <g id="id9">
       <rect class="BoundingBox" stroke="none" fill="none" x="21797" y="8324" width="660" height="601"/>
       <g style="opacity: 0.188235294117647">
        <path fill="rgb(55,45,49)" stroke="none" d="M 22161,8555 C 22070,8521 21980,8536 21960,8588 21940,8641 21998,8711 22090,8745 22182,8780 22273,8766 22293,8713 22312,8661 22253,8590 22161,8555 L 22161,8555 Z "/>
        <path fill="none" stroke="rgb(55,45,49)" stroke-width="318" stroke-linejoin="round" d="M 22161,8555 C 22070,8521 21980,8536 21960,8588 21940,8641 21998,8711 22090,8745 22182,8780 22273,8766 22293,8713 22312,8661 22253,8590 22161,8555 Z "/>
       </g>
       <path fill="rgb(255,255,255)" stroke="none" d="M 22161,8502 C 22070,8468 21980,8483 21960,8535 21940,8588 21998,8658 22090,8692 22182,8727 22273,8713 22293,8660 22312,8608 22253,8537 22161,8502 L 22161,8502 Z "/>
       <path fill="none" stroke="rgb(255,255,255)" stroke-width="318" stroke-linejoin="round" d="M 22161,8502 C 22070,8468 21980,8483 21960,8535 21940,8588 21998,8658 22090,8692 22182,8727 22273,8713 22293,8660 22312,8608 22253,8537 22161,8502 Z "/>
      </g>
     </g>
    </g>
    <g class="com.sun.star.drawing.CustomShape">
     <g id="id10">
      <rect class="BoundingBox" stroke="none" fill="none" x="21331" y="8133" width="620" height="651"/>
      <g style="opacity: 0.188235294117647">
       <path fill="rgb(55,45,49)" stroke="none" d="M 21589,8614 C 21697,8654 21755,8556 21787,8470 21795,8450 21784,8433 21769,8427 21753,8421 21734,8427 21727,8448 21708,8496 21685,8571 21617,8555 21613,8553 21608,8553 21604,8551 21537,8526 21551,8446 21574,8389 21582,8370 21570,8353 21555,8348 21539,8342 21520,8347 21513,8366 21476,8460 21475,8570 21585,8612 21587,8613 21587,8613 21589,8614 L 21589,8614 Z "/>
       <path fill="none" stroke="rgb(55,45,49)" stroke-width="318" stroke-linejoin="round" d="M 21589,8614 C 21697,8654 21755,8556 21787,8470 21795,8450 21784,8433 21769,8427 21753,8421 21734,8427 21727,8448 21708,8496 21685,8571 21617,8555 21613,8553 21608,8553 21604,8551 21537,8526 21551,8446 21574,8389 21582,8370 21570,8353 21555,8348 21539,8342 21520,8347 21513,8366 21476,8460 21475,8570 21585,8612 L 21589,8614 Z "/>
      </g>
      <path fill="rgb(255,255,255)" stroke="none" d="M 21589,8561 C 21697,8601 21755,8503 21787,8417 21795,8397 21784,8380 21769,8374 21753,8368 21734,8374 21727,8395 21708,8443 21685,8518 21617,8502 21613,8500 21608,8500 21604,8498 21537,8473 21551,8393 21574,8336 21582,8317 21570,8300 21555,8295 21539,8289 21520,8294 21513,8313 21476,8407 21475,8517 21585,8559 21587,8560 21587,8560 21589,8561 L 21589,8561 Z "/>
      <path fill="none" stroke="rgb(255,255,255)" stroke-width="318" stroke-linejoin="round" d="M 21589,8561 C 21697,8601 21755,8503 21787,8417 21795,8397 21784,8380 21769,8374 21753,8368 21734,8374 21727,8395 21708,8443 21685,8518 21617,8502 21613,8500 21608,8500 21604,8498 21537,8473 21551,8393 21574,8336 21582,8317 21570,8300 21555,8295 21539,8289 21520,8294 21513,8313 21476,8407 21475,8517 21585,8559 L 21589,8561 Z "/>
     </g>
    </g>
   </g>
   <g class="Group">
    <g class="Group">
     <g class="com.sun.star.drawing.CustomShape">
      <g id="id11">
       <rect class="BoundingBox" stroke="none" fill="none" x="20362" y="6608" width="2956" height="3051"/>
       <path fill="rgb(250,231,127)" stroke="none" d="M 20477,7113 C 20534,7047 20610,7047 20690,7065 20872,7108 21056,7147 21237,7195 21389,7236 21515,7230 21632,7098 21766,6950 21921,6820 22067,6682 22126,6627 22186,6589 22272,6619 L 22286,6624 C 22371,6659 22392,6727 22400,6806 22420,7007 22453,7205 22455,7406 22458,7582 22550,7668 22690,7737 22858,7820 23023,7911 23188,7998 23260,8036 23319,8087 23317,8174 23315,8266 23258,8314 23176,8349 22966,8437 22756,8535 22546,8625 22465,8659 22422,8711 22407,8802 22370,9021 22328,9239 22282,9456 22265,9537 22246,9628 22150,9652 22054,9676 21992,9618 21935,9552 21792,9387 21644,9223 21501,9059 21444,8991 21356,8958 21269,8972 21051,9002 20834,9029 20617,9060 20531,9072 20446,9075 20391,8994 20331,8911 20378,8829 20417,8758 20526,8564 20637,8372 20753,8183 20801,8106 20802,8036 20765,7957 20665,7751 20570,7541 20469,7335 20430,7258 20418,7182 20477,7113 L 20477,7113 Z "/>
      </g>
     </g>
     <g class="com.sun.star.drawing.CustomShape">
      <g id="id12">
       <rect class="BoundingBox" stroke="none" fill="none" x="21128" y="7711" width="469" height="437"/>
       <path fill="rgb(55,45,49)" stroke="none" d="M 21506,7878 C 21466,7960 21410,8083 21299,8048 21173,8007 21218,7861 21252,7770 21272,7717 21188,7686 21169,7738 21115,7882 21091,8053 21254,8127 21424,8203 21527,8039 21590,7910 21616,7858 21530,7826 21506,7878 L 21506,7878 Z "/>
      </g>
     </g>
     <g class="com.sun.star.drawing.CustomShape">
      <g id="id13">
       <rect class="BoundingBox" stroke="none" fill="none" x="21963" y="8027" width="429" height="385"/>
       <path fill="rgb(55,45,49)" stroke="none" d="M 22304,8163 C 22274,8243 22236,8342 22134,8314 22026,8285 22050,8156 22066,8074 22077,8017 21988,8010 21976,8066 21950,8194 21955,8350 22102,8398 22167,8423 22238,8409 22290,8365 22338,8321 22366,8253 22388,8195 22408,8141 22324,8109 22304,8163 L 22304,8163 Z "/>
      </g>
     </g>
     <g class="com.sun.star.drawing.CustomShape">
      <g id="id14">
       <rect class="BoundingBox" stroke="none" fill="none" x="21352" y="7508" width="257" height="135"/>
       <path fill="rgb(55,45,49)" stroke="none" d="M 21579,7557 C 21522,7528 21463,7511 21400,7509 21343,7505 21334,7593 21393,7598 21447,7601 21499,7615 21548,7639 21570,7648 21597,7636 21606,7613 21612,7590 21601,7565 21579,7557 L 21579,7557 Z "/>
      </g>
     </g>
     <g class="com.sun.star.drawing.CustomShape">
      <g id="id15">
       <rect class="BoundingBox" stroke="none" fill="none" x="22082" y="7768" width="232" height="142"/>
       <path fill="rgb(55,45,49)" stroke="none" d="M 22292,7829 C 22246,7804 22195,7785 22143,7771 22088,7756 22057,7841 22111,7855 22155,7865 22198,7881 22239,7901 22290,7932 22343,7859 22292,7829 L 22292,7829 Z "/>
      </g>
     </g>
     <g class="com.sun.star.drawing.CustomShape">
      <g id="id16">
       <rect class="BoundingBox" stroke="none" fill="none" x="20996" y="8125" width="340" height="229"/>
       <path fill="rgb(241,152,197)" stroke="none" d="M 21201,8144 C 21110,8110 21020,8123 21000,8177 20981,8228 21038,8300 21130,8334 21221,8369 21311,8352 21331,8301 21351,8247 21292,8179 21201,8144 L 21201,8144 Z "/>
      </g>
     </g>
     <g class="com.sun.star.drawing.CustomShape">
      <g id="id17">
       <rect class="BoundingBox" stroke="none" fill="none" x="21956" y="8483" width="342" height="230"/>
       <path fill="rgb(241,152,197)" stroke="none" d="M 22161,8502 C 22070,8468 21980,8483 21960,8535 21940,8588 21998,8658 22090,8692 22182,8727 22273,8713 22293,8660 22312,8608 22253,8537 22161,8502 L 22161,8502 Z "/>
      </g>
     </g>
    </g>
    <g class="com.sun.star.drawing.CustomShape">
     <g id="id18">
      <rect class="BoundingBox" stroke="none" fill="none" x="21490" y="8292" width="302" height="280"/>
      <path fill="rgb(55,45,49)" stroke="none" d="M 21589,8561 C 21697,8601 21755,8503 21787,8417 21795,8397 21784,8380 21769,8374 21753,8368 21734,8374 21727,8395 21708,8443 21685,8518 21617,8502 21613,8500 21608,8500 21604,8498 21537,8473 21551,8393 21574,8336 21582,8317 21570,8300 21555,8295 21539,8289 21520,8294 21513,8313 21476,8407 21475,8517 21585,8559 21587,8560 21587,8560 21589,8561 L 21589,8561 Z "/>
     </g>
    </g>
   </g>
  </g>
 </g>
</svg>