<?xml version="1.0" encoding="UTF-8"?>
<!DOCTYPE svg PUBLIC "-//W3C//DTD SVG 1.1//EN" "http://www.w3.org/Graphics/SVG/1.1/DTD/svg11.dtd">
<svg version="1.2" viewBox="7081 6176 1204 1249" preserveAspectRatio="xMidYMid" fill-rule="evenodd" stroke-width="28.222" stroke-linejoin="round" xmlns="http://www.w3.org/2000/svg" xmlns:ooo="http://xml.openoffice.org/svg/export" xmlns:xlink="http://www.w3.org/1999/xlink" xmlns:presentation="http://sun.com/xmlns/staroffice/presentation" xmlns:smil="http://www.w3.org/2001/SMIL20/" xmlns:anim="urn:oasis:names:tc:opendocument:xmlns:animation:1.0" xmlns:svg="urn:oasis:names:tc:opendocument:xmlns:svg-compatible:1.0" xml:space="preserve">
 <defs class="EmbeddedBulletChars">
  <g id="bullet-char-template-57356" transform="scale(0.00048828125,-0.00048828125)">
   <path d="M 580,1141 L 1163,571 580,0 -4,571 580,1141 Z"/>
  </g>
  <g id="bullet-char-template-57354" transform="scale(0.00048828125,-0.00048828125)">
   <path d="M 8,1128 L 1137,1128 1137,0 8,0 8,1128 Z"/>
  </g>
  <g id="bullet-char-template-10146" transform="scale(0.00048828125,-0.00048828125)">
   <path d="M 174,0 L 602,739 174,1481 1456,739 174,0 Z M 1358,739 L 309,1346 659,739 1358,739 Z"/>
  </g>
  <g id="bullet-char-template-10132" transform="scale(0.00048828125,-0.00048828125)">
   <path d="M 2015,739 L 1276,0 717,0 1260,543 174,543 174,936 1260,936 717,1481 1274,1481 2015,739 Z"/>
  </g>
  <g id="bullet-char-template-10007" transform="scale(0.00048828125,-0.00048828125)">
   <path d="M 0,-2 C -7,14 -16,27 -25,37 L 356,567 C 262,823 215,952 215,954 215,979 228,992 255,992 264,992 276,990 289,987 310,991 331,999 354,1012 L 381,999 492,748 772,1049 836,1024 860,1049 C 881,1039 901,1025 922,1006 886,937 835,863 770,784 769,783 710,716 594,584 L 774,223 C 774,196 753,168 711,139 L 727,119 C 717,90 699,76 672,76 641,76 570,178 457,381 L 164,-76 C 142,-110 111,-127 72,-127 30,-127 9,-110 8,-76 1,-67 -2,-52 -2,-32 -2,-23 -1,-13 0,-2 Z"/>
  </g>
  <g id="bullet-char-template-10004" transform="scale(0.00048828125,-0.00048828125)">
   <path d="M 285,-33 C 182,-33 111,30 74,156 52,228 41,333 41,471 41,549 55,616 82,672 116,743 169,778 240,778 293,778 328,747 346,684 L 369,508 C 377,444 397,411 428,410 L 1163,1116 C 1174,1127 1196,1133 1229,1133 1271,1133 1292,1118 1292,1087 L 1292,965 C 1292,929 1282,901 1262,881 L 442,47 C 390,-6 338,-33 285,-33 Z"/>
  </g>
  <g id="bullet-char-template-9679" transform="scale(0.00048828125,-0.00048828125)">
   <path d="M 813,0 C 632,0 489,54 383,161 276,268 223,411 223,592 223,773 276,916 383,1023 489,1130 632,1184 813,1184 992,1184 1136,1130 1245,1023 1353,916 1407,772 1407,592 1407,412 1353,268 1245,161 1136,54 992,0 813,0 Z"/>
  </g>
  <g id="bullet-char-template-8226" transform="scale(0.00048828125,-0.00048828125)">
   <path d="M 346,457 C 273,457 209,483 155,535 101,586 74,649 74,723 74,796 101,859 155,911 209,963 273,989 346,989 419,989 480,963 531,910 582,859 608,796 608,723 608,648 583,586 532,535 482,483 420,457 346,457 Z"/>
  </g>
  <g id="bullet-char-template-8211" transform="scale(0.00048828125,-0.00048828125)">
   <path d="M -4,459 L 1135,459 1135,606 -4,606 -4,459 Z"/>
  </g>
  <g id="bullet-char-template-61548" transform="scale(0.00048828125,-0.00048828125)">
   <path d="M 173,740 C 173,903 231,1043 346,1159 462,1274 601,1332 765,1332 928,1332 1067,1274 1183,1159 1299,1043 1357,903 1357,740 1357,577 1299,437 1183,322 1067,206 928,148 765,148 601,148 462,206 346,322 231,437 173,577 173,740 Z"/>
  </g>
 </defs>
 <g ooo:name="Attendance" class="Page">
  <g class="Group">
   <g class="com.sun.star.drawing.CustomShape">
    <g id="id3">
     <rect class="BoundingBox" stroke="none" fill="none" x="7081" y="6176" width="1204" height="1249"/>
     <g style="opacity: 0.2">
      <path fill="rgb(55,45,49)" stroke="none" d="M 7901,6335 C 7885,6335 7869,6341 7857,6351 7803,6386 7746,6421 7695,6461 7671,6480 7649,6488 7626,6488 7605,6488 7584,6481 7562,6471 7507,6446 7451,6423 7394,6399 7384,6393 7372,6390 7360,6390 7347,6390 7334,6393 7323,6401 7303,6421 7298,6451 7308,6476 7330,6548 7347,6620 7370,6692 7379,6716 7372,6744 7355,6764 7306,6818 7259,6875 7214,6932 7197,6952 7178,6977 7192,7007 7207,7037 7229,7037 7259,7039 7330,7039 7402,7044 7473,7047 7488,7047 7500,7049 7512,7057 7527,7064 7537,7074 7544,7089 7581,7151 7621,7211 7658,7273 7672,7296 7686,7317 7716,7317 7718,7317 7720,7317 7722,7317 7754,7315 7763,7285 7773,7260 7800,7193 7827,7124 7850,7054 7857,7029 7879,7009 7904,7004 7978,6987 8049,6967 8123,6950 8150,6945 8172,6932 8177,6903 8180,6875 8170,6850 8147,6838 8098,6801 8051,6761 8000,6726 7960,6694 7933,6664 7943,6605 7953,6540 7953,6473 7958,6406 7963,6381 7953,6356 7931,6341 L 7928,6341 C 7920,6337 7911,6335 7901,6335 L 7901,6335 Z "/>
      <path fill="none" stroke="rgb(55,45,49)" stroke-width="212" stroke-linejoin="round" d="M 7901,6335 C 7885,6335 7869,6341 7857,6351 7803,6386 7746,6421 7695,6461 7671,6480 7649,6488 7626,6488 7605,6488 7584,6481 7562,6471 7507,6446 7451,6423 7394,6399 7384,6393 7372,6390 7360,6390 7347,6390 7334,6393 7323,6401 7303,6421 7298,6451 7308,6476 7330,6548 7347,6620 7370,6692 7379,6716 7372,6744 7355,6764 7306,6818 7259,6875 7214,6932 7197,6952 7178,6977 7192,7007 7207,7037 7229,7037 7259,7039 7330,7039 7402,7044 7473,7047 7488,7047 7500,7049 7512,7057 7527,7064 7537,7074 7544,7089 7581,7151 7621,7211 7658,7273 7672,7296 7686,7317 7716,7317 L 7722,7317 C 7754,7315 7763,7285 7773,7260 7800,7193 7827,7124 7850,7054 7857,7029 7879,7009 7904,7004 7978,6987 8049,6967 8123,6950 8150,6945 8172,6932 8177,6903 8180,6875 8170,6850 8147,6838 8098,6801 8051,6761 8000,6726 7960,6694 7933,6664 7943,6605 7953,6540 7953,6473 7958,6406 7963,6381 7953,6356 7931,6341 L 7928,6341 C 7920,6337 7911,6335 7901,6335 Z "/>
     </g>
     <path fill="rgb(205,234,157)" stroke="none" d="M 7901,6282 C 7885,6282 7869,6288 7857,6298 7803,6333 7746,6368 7695,6408 7671,6427 7649,6435 7626,6435 7605,6435 7584,6428 7562,6418 7507,6393 7451,6370 7394,6346 7384,6340 7372,6337 7360,6337 7347,6337 7334,6340 7323,6348 7303,6368 7298,6398 7308,6423 7330,6495 7347,6567 7370,6639 7379,6663 7372,6691 7355,6711 7306,6765 7259,6822 7214,6879 7197,6899 7178,6924 7192,6954 7207,6984 7229,6984 7259,6986 7330,6986 7402,6991 7473,6994 7488,6994 7500,6996 7512,7004 7527,7011 7537,7021 7544,7036 7581,7098 7621,7158 7658,7220 7672,7243 7686,7264 7716,7264 7718,7264 7720,7264 7722,7264 7754,7262 7763,7232 7773,7207 7800,7140 7827,7071 7850,7001 7857,6976 7879,6956 7904,6951 7978,6934 8049,6914 8123,6897 8150,6892 8172,6879 8177,6850 8180,6822 8170,6797 8147,6785 8098,6748 8051,6708 8000,6673 7960,6641 7933,6611 7943,6552 7953,6487 7953,6420 7958,6353 7963,6328 7953,6303 7931,6288 L 7928,6288 C 7920,6284 7911,6282 7901,6282 L 7901,6282 Z "/>
     <path fill="none" stroke="rgb(255,255,255)" stroke-width="212" stroke-linejoin="round" d="M 7901,6282 C 7885,6282 7869,6288 7857,6298 7803,6333 7746,6368 7695,6408 7671,6427 7649,6435 7626,6435 7605,6435 7584,6428 7562,6418 7507,6393 7451,6370 7394,6346 7384,6340 7372,6337 7360,6337 7347,6337 7334,6340 7323,6348 7303,6368 7298,6398 7308,6423 7330,6495 7347,6567 7370,6639 7379,6663 7372,6691 7355,6711 7306,6765 7259,6822 7214,6879 7197,6899 7178,6924 7192,6954 7207,6984 7229,6984 7259,6986 7330,6986 7402,6991 7473,6994 7488,6994 7500,6996 7512,7004 7527,7011 7537,7021 7544,7036 7581,7098 7621,7158 7658,7220 7672,7243 7686,7264 7716,7264 L 7722,7264 C 7754,7262 7763,7232 7773,7207 7800,7140 7827,7071 7850,7001 7857,6976 7879,6956 7904,6951 7978,6934 8049,6914 8123,6897 8150,6892 8172,6879 8177,6850 8180,6822 8170,6797 8147,6785 8098,6748 8051,6708 8000,6673 7960,6641 7933,6611 7943,6552 7953,6487 7953,6420 7958,6353 7963,6328 7953,6303 7931,6288 L 7928,6288 C 7920,6284 7911,6282 7901,6282 Z "/>
    </g>
   </g>
   <g class="com.sun.star.drawing.CustomShape">
    <g id="id4">
     <rect class="BoundingBox" stroke="none" fill="none" x="7188" y="6287" width="988" height="974"/>
     <path fill="rgb(205,234,157)" stroke="none" d="M 8174,6848 C 8176,6823 8167,6798 8145,6784 8096,6747 8046,6710 7997,6673 7956,6644 7931,6612 7941,6556 7951,6490 7951,6423 7956,6360 7961,6335 7951,6308 7929,6293 L 7929,6293 7926,6293 C 7904,6284 7875,6286 7855,6303 7801,6340 7745,6372 7693,6414 7649,6448 7608,6443 7563,6421 7507,6396 7451,6374 7394,6350 7372,6337 7345,6340 7323,6355 7304,6372 7299,6401 7308,6426 7331,6497 7348,6570 7370,6639 7380,6666 7372,6693 7355,6713 7306,6767 7259,6821 7215,6877 7198,6899 7179,6921 7193,6950 7208,6980 7235,6985 7262,6985 7333,6987 7404,6990 7478,6992 7507,6992 7532,7007 7546,7034 7583,7095 7622,7154 7659,7215 7674,7240 7691,7260 7723,7260 7755,7257 7767,7228 7777,7203 7804,7137 7828,7068 7850,7000 7858,6975 7880,6955 7907,6950 7978,6933 8051,6914 8123,6897 8147,6889 8169,6877 8174,6848 L 8174,6848 Z "/>
    </g>
   </g>
  </g>
 </g>
</svg>