<?xml version="1.0" encoding="UTF-8"?>
<!DOCTYPE svg PUBLIC "-//W3C//DTD SVG 1.1//EN" "http://www.w3.org/Graphics/SVG/1.1/DTD/svg11.dtd">
<svg version="1.2" viewBox="8295 11420 1206 1246" preserveAspectRatio="xMidYMid" fill-rule="evenodd" stroke-width="28.222" stroke-linejoin="round" xmlns="http://www.w3.org/2000/svg" xmlns:ooo="http://xml.openoffice.org/svg/export" xmlns:xlink="http://www.w3.org/1999/xlink" xmlns:presentation="http://sun.com/xmlns/staroffice/presentation" xmlns:smil="http://www.w3.org/2001/SMIL20/" xmlns:anim="urn:oasis:names:tc:opendocument:xmlns:animation:1.0" xmlns:svg="urn:oasis:names:tc:opendocument:xmlns:svg-compatible:1.0" xml:space="preserve">
 <defs class="EmbeddedBulletChars">
  <g id="bullet-char-template-57356" transform="scale(0.00048828125,-0.00048828125)">
   <path d="M 580,1141 L 1163,571 580,0 -4,571 580,1141 Z"/>
  </g>
  <g id="bullet-char-template-57354" transform="scale(0.00048828125,-0.00048828125)">
   <path d="M 8,1128 L 1137,1128 1137,0 8,0 8,1128 Z"/>
  </g>
  <g id="bullet-char-template-10146" transform="scale(0.00048828125,-0.00048828125)">
   <path d="M 174,0 L 602,739 174,1481 1456,739 174,0 Z M 1358,739 L 309,1346 659,739 1358,739 Z"/>
  </g>
  <g id="bullet-char-template-10132" transform="scale(0.00048828125,-0.00048828125)">
   <path d="M 2015,739 L 1276,0 717,0 1260,543 174,543 174,936 1260,936 717,1481 1274,1481 2015,739 Z"/>
  </g>
  <g id="bullet-char-template-10007" transform="scale(0.00048828125,-0.00048828125)">
   <path d="M 0,-2 C -7,14 -16,27 -25,37 L 356,567 C 262,823 215,952 215,954 215,979 228,992 255,992 264,992 276,990 289,987 310,991 331,999 354,1012 L 381,999 492,748 772,1049 836,1024 860,1049 C 881,1039 901,1025 922,1006 886,937 835,863 770,784 769,783 710,716 594,584 L 774,223 C 774,196 753,168 711,139 L 727,119 C 717,90 699,76 672,76 641,76 570,178 457,381 L 164,-76 C 142,-110 111,-127 72,-127 30,-127 9,-110 8,-76 1,-67 -2,-52 -2,-32 -2,-23 -1,-13 0,-2 Z"/>
  </g>
  <g id="bullet-char-template-10004" transform="scale(0.00048828125,-0.00048828125)">
   <path d="M 285,-33 C 182,-33 111,30 74,156 52,228 41,333 41,471 41,549 55,616 82,672 116,743 169,778 240,778 293,778 328,747 346,684 L 369,508 C 377,444 397,411 428,410 L 1163,1116 C 1174,1127 1196,1133 1229,1133 1271,1133 1292,1118 1292,1087 L 1292,965 C 1292,929 1282,901 1262,881 L 442,47 C 390,-6 338,-33 285,-33 Z"/>
  </g>
  <g id="bullet-char-template-9679" transform="scale(0.00048828125,-0.00048828125)">
   <path d="M 813,0 C 632,0 489,54 383,161 276,268 223,411 223,592 223,773 276,916 383,1023 489,1130 632,1184 813,1184 992,1184 1136,1130 1245,1023 1353,916 1407,772 1407,592 1407,412 1353,268 1245,161 1136,54 992,0 813,0 Z"/>
  </g>
  <g id="bullet-char-template-8226" transform="scale(0.00048828125,-0.00048828125)">
   <path d="M 346,457 C 273,457 209,483 155,535 101,586 74,649 74,723 74,796 101,859 155,911 209,963 273,989 346,989 419,989 480,963 531,910 582,859 608,796 608,723 608,648 583,586 532,535 482,483 420,457 346,457 Z"/>
  </g>
  <g id="bullet-char-template-8211" transform="scale(0.00048828125,-0.00048828125)">
   <path d="M -4,459 L 1135,459 1135,606 -4,606 -4,459 Z"/>
  </g>
  <g id="bullet-char-template-61548" transform="scale(0.00048828125,-0.00048828125)">
   <path d="M 173,740 C 173,903 231,1043 346,1159 462,1274 601,1332 765,1332 928,1332 1067,1274 1183,1159 1299,1043 1357,903 1357,740 1357,577 1299,437 1183,322 1067,206 928,148 765,148 601,148 462,206 346,322 231,437 173,577 173,740 Z"/>
  </g>
 </defs>
 <g ooo:name="Attendance" class="Page">
  <g class="Group">
   <g class="com.sun.star.drawing.CustomShape">
    <g id="id3">
     <rect class="BoundingBox" stroke="none" fill="none" x="8295" y="11420" width="1206" height="1246"/>
     <g style="opacity: 0.2">
      <path fill="rgb(55,45,49)" stroke="none" d="M 8865,11580 C 8839,11583 8817,11605 8811,11630 8789,11690 8761,11751 8742,11814 8729,11861 8689,11896 8638,11899 8579,11909 8522,11925 8459,11937 8434,11941 8412,11956 8403,11982 8397,12007 8409,12036 8434,12048 8491,12096 8547,12143 8607,12191 8629,12207 8638,12235 8635,12260 8626,12333 8620,12406 8616,12479 8616,12508 8610,12536 8638,12552 8647,12556 8657,12559 8667,12559 8684,12559 8702,12551 8714,12539 8773,12501 8833,12460 8896,12422 8905,12413 8921,12409 8934,12406 8946,12406 8962,12409 8974,12416 9037,12444 9103,12473 9169,12501 9182,12509 9195,12513 9208,12513 9222,12513 9235,12509 9248,12501 9273,12479 9267,12451 9260,12425 9245,12352 9226,12283 9207,12213 9197,12188 9204,12159 9223,12140 9273,12083 9320,12026 9370,11969 9392,11953 9399,11922 9389,11899 9378,11877 9356,11864 9334,11864 9331,11864 9329,11864 9326,11865 9267,11861 9204,11858 9144,11855 9139,11856 9134,11856 9129,11856 9085,11856 9045,11832 9028,11792 9000,11732 8962,11678 8927,11621 8918,11595 8896,11580 8868,11580 L 8865,11580 Z "/>
      <path fill="none" stroke="rgb(55,45,49)" stroke-width="212" stroke-linejoin="round" d="M 8865,11580 C 8839,11583 8817,11605 8811,11630 8789,11690 8761,11751 8742,11814 8729,11861 8689,11896 8638,11899 8579,11909 8522,11925 8459,11937 8434,11941 8412,11956 8403,11982 8397,12007 8409,12036 8434,12048 8491,12096 8547,12143 8607,12191 8629,12207 8638,12235 8635,12260 8626,12333 8620,12406 8616,12479 8616,12508 8610,12536 8638,12552 8647,12556 8657,12559 8667,12559 8684,12559 8702,12551 8714,12539 8773,12501 8833,12460 8896,12422 8905,12413 8921,12409 8934,12406 8946,12406 8962,12409 8974,12416 9037,12444 9103,12473 9169,12501 9182,12509 9195,12513 9208,12513 9222,12513 9235,12509 9248,12501 9273,12479 9267,12451 9260,12425 9245,12352 9226,12283 9207,12213 9197,12188 9204,12159 9223,12140 9273,12083 9320,12026 9370,11969 9392,11953 9399,11922 9389,11899 9378,11877 9356,11864 9334,11864 9331,11864 9329,11864 9326,11865 9267,11861 9204,11858 9144,11855 9139,11856 9134,11856 9129,11856 9085,11856 9045,11832 9028,11792 9000,11732 8962,11678 8927,11621 8918,11595 8896,11580 8868,11580 L 8865,11580 Z "/>
     </g>
     <path fill="rgb(241,152,197)" stroke="none" d="M 8865,11527 C 8839,11530 8817,11552 8811,11577 8789,11637 8761,11698 8742,11761 8729,11808 8689,11843 8638,11846 8579,11856 8522,11872 8459,11884 8434,11888 8412,11903 8403,11929 8397,11954 8409,11983 8434,11995 8491,12043 8547,12090 8607,12138 8629,12154 8638,12182 8635,12207 8626,12280 8620,12353 8616,12426 8616,12455 8610,12483 8638,12499 8647,12503 8657,12506 8667,12506 8684,12506 8702,12498 8714,12486 8773,12448 8833,12407 8896,12369 8905,12360 8921,12356 8934,12353 8946,12353 8962,12356 8974,12363 9037,12391 9103,12420 9169,12448 9182,12456 9195,12460 9208,12460 9222,12460 9235,12456 9248,12448 9273,12426 9267,12398 9260,12372 9245,12299 9226,12230 9207,12160 9197,12135 9204,12106 9223,12087 9273,12030 9320,11973 9370,11916 9392,11900 9399,11869 9389,11846 9378,11824 9356,11811 9334,11811 9331,11811 9329,11811 9326,11812 9267,11808 9204,11805 9144,11802 9139,11803 9134,11803 9129,11803 9085,11803 9045,11779 9028,11739 9000,11679 8962,11625 8927,11568 8918,11542 8896,11527 8868,11527 L 8865,11527 Z "/>
     <path fill="none" stroke="rgb(255,255,255)" stroke-width="212" stroke-linejoin="round" d="M 8865,11527 C 8839,11530 8817,11552 8811,11577 8789,11637 8761,11698 8742,11761 8729,11808 8689,11843 8638,11846 8579,11856 8522,11872 8459,11884 8434,11888 8412,11903 8403,11929 8397,11954 8409,11983 8434,11995 8491,12043 8547,12090 8607,12138 8629,12154 8638,12182 8635,12207 8626,12280 8620,12353 8616,12426 8616,12455 8610,12483 8638,12499 8647,12503 8657,12506 8667,12506 8684,12506 8702,12498 8714,12486 8773,12448 8833,12407 8896,12369 8905,12360 8921,12356 8934,12353 8946,12353 8962,12356 8974,12363 9037,12391 9103,12420 9169,12448 9182,12456 9195,12460 9208,12460 9222,12460 9235,12456 9248,12448 9273,12426 9267,12398 9260,12372 9245,12299 9226,12230 9207,12160 9197,12135 9204,12106 9223,12087 9273,12030 9320,11973 9370,11916 9392,11900 9399,11869 9389,11846 9378,11824 9356,11811 9334,11811 9331,11811 9329,11811 9326,11812 9267,11808 9204,11805 9144,11802 9139,11803 9134,11803 9129,11803 9085,11803 9045,11779 9028,11739 9000,11679 8962,11625 8927,11568 8918,11542 8896,11527 8868,11527 L 8865,11527 Z "/>
    </g>
   </g>
   <g class="com.sun.star.drawing.CustomShape">
    <g id="id4">
     <rect class="BoundingBox" stroke="none" fill="none" x="8403" y="11530" width="990" height="968"/>
     <path fill="rgb(241,152,197)" stroke="none" d="M 9387,11846 C 9375,11824 9350,11808 9325,11811 9265,11808 9203,11805 9143,11802 9093,11808 9046,11783 9027,11739 8999,11680 8962,11626 8927,11570 8918,11545 8896,11530 8868,11530 L 8865,11530 C 8840,11533 8818,11551 8811,11576 8790,11639 8761,11698 8743,11761 8730,11808 8690,11839 8639,11842 8580,11855 8521,11867 8461,11883 8436,11883 8414,11902 8405,11927 8399,11952 8411,11980 8433,11993 8492,12039 8549,12086 8605,12133 8627,12149 8639,12177 8633,12202 8627,12274 8621,12346 8614,12418 8614,12446 8611,12474 8639,12490 8664,12502 8696,12499 8715,12477 8774,12440 8836,12399 8896,12362 8918,12346 8949,12343 8974,12355 9040,12384 9106,12412 9168,12440 9193,12456 9224,12456 9246,12440 9271,12418 9265,12390 9259,12365 9243,12293 9224,12224 9206,12155 9196,12130 9203,12102 9221,12083 9271,12027 9318,11971 9368,11914 9390,11899 9397,11870 9387,11846 L 9387,11846 Z "/>
    </g>
   </g>
  </g>
 </g>
</svg>