<?xml version="1.0" encoding="UTF-8"?>
<!DOCTYPE svg PUBLIC "-//W3C//DTD SVG 1.1//EN" "http://www.w3.org/Graphics/SVG/1.1/DTD/svg11.dtd">
<svg version="1.2" viewBox="15189 8257 4043 3886" preserveAspectRatio="xMidYMid" fill-rule="evenodd" stroke-width="28.222" stroke-linejoin="round" xmlns="http://www.w3.org/2000/svg" xmlns:ooo="http://xml.openoffice.org/svg/export" xmlns:xlink="http://www.w3.org/1999/xlink" xmlns:presentation="http://sun.com/xmlns/staroffice/presentation" xmlns:smil="http://www.w3.org/2001/SMIL20/" xmlns:anim="urn:oasis:names:tc:opendocument:xmlns:animation:1.0" xmlns:svg="urn:oasis:names:tc:opendocument:xmlns:svg-compatible:1.0" xml:space="preserve">
 <defs class="EmbeddedBulletChars">
  <g id="bullet-char-template-57356" transform="scale(0.00048828125,-0.00048828125)">
   <path d="M 580,1141 L 1163,571 580,0 -4,571 580,1141 Z"/>
  </g>
  <g id="bullet-char-template-57354" transform="scale(0.00048828125,-0.00048828125)">
   <path d="M 8,1128 L 1137,1128 1137,0 8,0 8,1128 Z"/>
  </g>
  <g id="bullet-char-template-10146" transform="scale(0.00048828125,-0.00048828125)">
   <path d="M 174,0 L 602,739 174,1481 1456,739 174,0 Z M 1358,739 L 309,1346 659,739 1358,739 Z"/>
  </g>
  <g id="bullet-char-template-10132" transform="scale(0.00048828125,-0.00048828125)">
   <path d="M 2015,739 L 1276,0 717,0 1260,543 174,543 174,936 1260,936 717,1481 1274,1481 2015,739 Z"/>
  </g>
  <g id="bullet-char-template-10007" transform="scale(0.00048828125,-0.00048828125)">
   <path d="M 0,-2 C -7,14 -16,27 -25,37 L 356,567 C 262,823 215,952 215,954 215,979 228,992 255,992 264,992 276,990 289,987 310,991 331,999 354,1012 L 381,999 492,748 772,1049 836,1024 860,1049 C 881,1039 901,1025 922,1006 886,937 835,863 770,784 769,783 710,716 594,584 L 774,223 C 774,196 753,168 711,139 L 727,119 C 717,90 699,76 672,76 641,76 570,178 457,381 L 164,-76 C 142,-110 111,-127 72,-127 30,-127 9,-110 8,-76 1,-67 -2,-52 -2,-32 -2,-23 -1,-13 0,-2 Z"/>
  </g>
  <g id="bullet-char-template-10004" transform="scale(0.00048828125,-0.00048828125)">
   <path d="M 285,-33 C 182,-33 111,30 74,156 52,228 41,333 41,471 41,549 55,616 82,672 116,743 169,778 240,778 293,778 328,747 346,684 L 369,508 C 377,444 397,411 428,410 L 1163,1116 C 1174,1127 1196,1133 1229,1133 1271,1133 1292,1118 1292,1087 L 1292,965 C 1292,929 1282,901 1262,881 L 442,47 C 390,-6 338,-33 285,-33 Z"/>
  </g>
  <g id="bullet-char-template-9679" transform="scale(0.00048828125,-0.00048828125)">
   <path d="M 813,0 C 632,0 489,54 383,161 276,268 223,411 223,592 223,773 276,916 383,1023 489,1130 632,1184 813,1184 992,1184 1136,1130 1245,1023 1353,916 1407,772 1407,592 1407,412 1353,268 1245,161 1136,54 992,0 813,0 Z"/>
  </g>
  <g id="bullet-char-template-8226" transform="scale(0.00048828125,-0.00048828125)">
   <path d="M 346,457 C 273,457 209,483 155,535 101,586 74,649 74,723 74,796 101,859 155,911 209,963 273,989 346,989 419,989 480,963 531,910 582,859 608,796 608,723 608,648 583,586 532,535 482,483 420,457 346,457 Z"/>
  </g>
  <g id="bullet-char-template-8211" transform="scale(0.00048828125,-0.00048828125)">
   <path d="M -4,459 L 1135,459 1135,606 -4,606 -4,459 Z"/>
  </g>
  <g id="bullet-char-template-61548" transform="scale(0.00048828125,-0.00048828125)">
   <path d="M 173,740 C 173,903 231,1043 346,1159 462,1274 601,1332 765,1332 928,1332 1067,1274 1183,1159 1299,1043 1357,903 1357,740 1357,577 1299,437 1183,322 1067,206 928,148 765,148 601,148 462,206 346,322 231,437 173,577 173,740 Z"/>
  </g>
 </defs>
 <g ooo:name="Monday" class="Page">
  <g class="Group">
   <g class="com.sun.star.drawing.CustomShape">
    <g id="id3">
     <rect class="BoundingBox" stroke="none" fill="none" x="15189" y="8257" width="4043" height="3886"/>
     <g style="opacity: 0.2">
      <path fill="rgb(55,45,49)" stroke="none" d="M 16410,8476 C 16366,8495 16344,8545 16363,8590 16364,8594 16395,8667 16440,8787 16291,8853 15655,9157 15457,9721 15232,10361 15398,11089 15574,11534 15574,11534 15721,11331 16014,11207 16190,11133 16419,11087 16698,11133 16835,10958 17014,10816 17217,10723 L 17217,10723 C 17287,10902 17346,11048 17380,11139 17469,11363 17507,11520 17496,11620 17490,11696 17453,11740 17370,11775 17286,11810 17206,11815 17140,11783 17066,11750 17001,11676 16948,11566 16928,11524 16877,11505 16834,11523 16833,11524 16831,11525 16830,11525 16788,11547 16770,11598 16791,11643 16860,11790 16954,11893 17067,11946 17183,11998 17311,11994 17441,11939 17584,11879 17661,11782 17675,11639 17687,11509 17650,11335 17548,11076 17512,10985 17452,10839 17382,10658 17582,10593 17790,10570 18000,10590 18163,10355 18356,10223 18532,10148 18823,10026 19071,10061 19071,10061 18874,9623 18471,8995 17853,8708 17397,8497 16854,8634 16605,8721 16557,8601 16527,8528 16525,8524 16506,8479 16455,8457 16410,8476 L 16410,8476 Z "/>
      <path fill="none" stroke="rgb(55,45,49)" stroke-width="318" stroke-linejoin="round" d="M 16410,8476 C 16366,8495 16344,8545 16363,8590 16364,8594 16395,8667 16440,8787 16291,8853 15655,9157 15457,9721 15232,10361 15398,11089 15574,11534 15574,11534 15721,11331 16014,11207 16190,11133 16419,11087 16698,11133 16835,10958 17014,10816 17217,10723 L 17217,10723 C 17287,10902 17346,11048 17380,11139 17469,11363 17507,11520 17496,11620 17490,11696 17453,11740 17370,11775 17286,11810 17206,11815 17140,11783 17066,11750 17001,11676 16948,11566 16928,11524 16877,11505 16834,11523 L 16830,11525 C 16788,11547 16770,11598 16791,11643 16860,11790 16954,11893 17067,11946 17183,11998 17311,11994 17441,11939 17584,11879 17661,11782 17675,11639 17687,11509 17650,11335 17548,11076 17512,10985 17452,10839 17382,10658 17582,10593 17790,10570 18000,10590 18163,10355 18356,10223 18532,10148 18823,10026 19071,10061 19071,10061 18874,9623 18471,8995 17853,8708 17397,8497 16854,8634 16605,8721 16557,8601 16527,8528 16525,8524 16506,8479 16455,8457 16410,8476 Z "/>
     </g>
     <path fill="rgb(255,255,255)" stroke="none" d="M 16410,8423 C 16366,8442 16344,8492 16363,8537 16364,8541 16395,8614 16440,8734 16291,8800 15655,9104 15457,9668 15232,10308 15398,11036 15574,11481 15574,11481 15721,11278 16014,11154 16190,11080 16419,11034 16698,11080 16835,10905 17014,10763 17217,10670 L 17217,10670 C 17287,10849 17346,10995 17380,11086 17469,11310 17507,11467 17496,11567 17490,11643 17453,11687 17370,11722 17286,11757 17206,11762 17140,11730 17066,11697 17001,11623 16948,11513 16928,11471 16877,11452 16834,11470 16833,11471 16831,11472 16830,11472 16788,11494 16770,11545 16791,11590 16860,11737 16954,11840 17067,11893 17183,11945 17311,11941 17441,11886 17584,11826 17661,11729 17675,11586 17687,11456 17650,11282 17548,11023 17512,10932 17452,10786 17382,10605 17582,10540 17790,10517 18000,10537 18163,10302 18356,10170 18532,10095 18823,9973 19071,10008 19071,10008 18874,9570 18471,8942 17853,8655 17397,8444 16854,8581 16605,8668 16557,8548 16527,8475 16525,8471 16506,8426 16455,8404 16410,8423 L 16410,8423 Z "/>
     <path fill="none" stroke="rgb(255,255,255)" stroke-width="318" stroke-linejoin="round" d="M 16410,8423 C 16366,8442 16344,8492 16363,8537 16364,8541 16395,8614 16440,8734 16291,8800 15655,9104 15457,9668 15232,10308 15398,11036 15574,11481 15574,11481 15721,11278 16014,11154 16190,11080 16419,11034 16698,11080 16835,10905 17014,10763 17217,10670 L 17217,10670 C 17287,10849 17346,10995 17380,11086 17469,11310 17507,11467 17496,11567 17490,11643 17453,11687 17370,11722 17286,11757 17206,11762 17140,11730 17066,11697 17001,11623 16948,11513 16928,11471 16877,11452 16834,11470 L 16830,11472 C 16788,11494 16770,11545 16791,11590 16860,11737 16954,11840 17067,11893 17183,11945 17311,11941 17441,11886 17584,11826 17661,11729 17675,11586 17687,11456 17650,11282 17548,11023 17512,10932 17452,10786 17382,10605 17582,10540 17790,10517 18000,10537 18163,10302 18356,10170 18532,10095 18823,9973 19071,10008 19071,10008 18874,9570 18471,8942 17853,8655 17397,8444 16854,8581 16605,8668 16557,8548 16527,8475 16525,8471 16506,8426 16455,8404 16410,8423 Z "/>
    </g>
   </g>
   <g class="Group">
    <g class="com.sun.star.drawing.CustomShape">
     <g id="id4">
      <rect class="BoundingBox" stroke="none" fill="none" x="16352" y="8412" width="1326" height="3522"/>
      <path fill="rgb(205,234,157)" stroke="none" d="M 16408,8421 C 16366,8438 16336,8483 16362,8539 16371,8559 17195,10612 17382,11089 17469,11313 17508,11471 17499,11570 17490,11646 17457,11689 17372,11725 17286,11761 17209,11765 17140,11733 17065,11698 17001,11626 16949,11516 16925,11461 16874,11451 16834,11469 16790,11487 16761,11534 16789,11591 16860,11741 16953,11844 17066,11895 17180,11948 17310,11945 17441,11890 17586,11829 17660,11730 17674,11587 17688,11455 17648,11281 17547,11023 17360,10548 16535,8493 16527,8474 16507,8413 16451,8402 16408,8421 L 16408,8421 Z "/>
     </g>
    </g>
    <g class="com.sun.star.drawing.CustomShape">
     <g id="id5">
      <rect class="BoundingBox" stroke="none" fill="none" x="15346" y="8725" width="1355" height="2761"/>
      <path fill="rgb(143,221,239)" stroke="none" d="M 16452,8734 C 16327,8787 15660,9091 15456,9671 15231,10314 15397,11039 15573,11484 15573,11484 15721,11282 16012,11159 16189,11084 16418,11039 16700,11085 16700,11085 16006,9624 16473,8726 16473,8726 16466,8728 16452,8734 L 16452,8734 Z "/>
     </g>
    </g>
    <g class="com.sun.star.drawing.CustomShape">
     <g id="id6">
      <rect class="BoundingBox" stroke="none" fill="none" x="16468" y="8548" width="2608" height="1990"/>
      <path fill="rgb(241,152,197)" stroke="none" d="M 16489,8719 C 16475,8725 16468,8728 16468,8728 17437,9020 18000,10537 18000,10537 18163,10303 18355,10171 18532,10096 18824,9973 19075,10008 19075,10008 18875,9572 18473,8947 17855,8660 17297,8401 16614,8666 16489,8719 L 16489,8719 Z "/>
     </g>
    </g>
    <g class="com.sun.star.drawing.CustomShape">
     <g id="id7">
      <rect class="BoundingBox" stroke="none" fill="none" x="16244" y="8727" width="1759" height="2359"/>
      <path fill="rgb(250,231,127)" stroke="none" d="M 16469,8727 C 16469,8727 15835,9828 16701,11084 16701,11084 16889,10809 17275,10646 17467,10565 17710,10512 18002,10536 18002,10536 17620,9099 16469,8727 L 16469,8727 Z "/>
     </g>
    </g>
    <g class="com.sun.star.drawing.CustomShape">
     <g id="id8">
      <rect class="BoundingBox" stroke="none" fill="none" x="17060" y="8942" width="602" height="572"/>
      <path fill="rgb(55,45,49)" stroke="none" d="M 17108,8975 C 17092,8982 17076,8990 17061,8998 17084,9081 17117,9160 17164,9232 17273,9389 17443,9477 17626,9512 17666,9414 17672,9304 17638,9202 17613,9112 17554,9036 17474,8988 17416,8953 17350,8937 17280,8945 17222,8941 17162,8952 17108,8975 L 17108,8975 Z "/>
     </g>
    </g>
    <g class="com.sun.star.drawing.CustomShape">
     <g id="id9">
      <rect class="BoundingBox" stroke="none" fill="none" x="16876" y="8998" width="750" height="746"/>
      <path fill="rgb(254,254,254)" stroke="none" d="M 17061,8999 L 17061,8999 C 16998,9037 16947,9093 16915,9160 16881,9233 16868,9315 16882,9396 16922,9579 17074,9718 17262,9742 17316,9745 17372,9736 17423,9715 17451,9703 17478,9687 17504,9667 17557,9628 17599,9574 17625,9512 17443,9476 17274,9389 17164,9231 17117,9160 17084,9081 17061,8999 L 17061,8999 Z "/>
     </g>
    </g>
    <g class="com.sun.star.drawing.CustomShape">
     <g id="id10">
      <rect class="BoundingBox" stroke="none" fill="none" x="16117" y="9304" width="600" height="572"/>
      <path fill="rgb(55,45,49)" stroke="none" d="M 16168,9336 C 16151,9343 16134,9352 16117,9362 16138,9444 16173,9523 16218,9595 16328,9754 16497,9841 16679,9875 16722,9776 16726,9667 16695,9565 16670,9475 16611,9399 16530,9349 16472,9315 16403,9301 16336,9306 16277,9303 16220,9314 16168,9336 L 16168,9336 Z "/>
     </g>
    </g>
    <g class="com.sun.star.drawing.CustomShape">
     <g id="id11">
      <rect class="BoundingBox" stroke="none" fill="none" x="15932" y="9361" width="749" height="745"/>
      <path fill="rgb(254,254,254)" stroke="none" d="M 16115,9362 L 16115,9362 C 16051,9397 16002,9455 15970,9521 15935,9593 15925,9676 15938,9755 15979,9940 16130,10078 16315,10103 16373,10107 16429,10098 16480,10076 16508,10064 16535,10048 16561,10029 16613,9988 16653,9935 16679,9873 16497,9839 16329,9751 16219,9594 16174,9521 16138,9443 16115,9362 L 16115,9362 Z "/>
     </g>
    </g>
    <g class="com.sun.star.drawing.CustomShape">
     <g id="id12">
      <rect class="BoundingBox" stroke="none" fill="none" x="16820" y="9821" width="294" height="288"/>
      <path fill="rgb(55,45,49)" stroke="none" d="M 16835,9886 C 16823,9891 16815,9907 16824,9920 16855,9960 16887,9997 16924,10032 16941,10049 16959,10063 16981,10076 17000,10092 17024,10103 17047,10108 17058,10108 17067,10108 17075,10104 17106,10091 17113,10046 17113,10012 17113,9955 17108,9897 17097,9839 17094,9824 17078,9819 17067,9823 17059,9827 17054,9836 17055,9847 17063,9894 17066,9943 17068,9991 17069,10011 17069,10029 17066,10050 17063,10056 17061,10061 17057,10062 17051,10064 17043,10060 17033,10056 16960,10021 16908,9954 16858,9892 16851,9884 16843,9883 16835,9886 L 16835,9886 Z "/>
     </g>
    </g>
    <g class="com.sun.star.drawing.CustomShape">
     <g id="id13">
      <rect class="BoundingBox" stroke="none" fill="none" x="17338" y="9716" width="435" height="350"/>
      <path fill="rgb(221,178,213)" stroke="none" d="M 17537,9737 C 17530,9740 17522,9743 17516,9747 17502,9755 17490,9760 17477,9768 17452,9778 17426,9791 17404,9808 17366,9838 17342,9884 17338,9931 17337,9973 17356,10013 17391,10039 17426,10060 17469,10068 17512,10062 17548,10060 17584,10051 17618,10037 17630,10032 17643,10026 17654,10019 17695,9997 17731,9963 17757,9921 17798,9836 17749,9736 17656,9718 17614,9714 17574,9721 17537,9737 L 17537,9737 Z "/>
     </g>
    </g>
    <g class="com.sun.star.drawing.CustomShape">
     <g id="id14">
      <rect class="BoundingBox" stroke="none" fill="none" x="16277" y="10128" width="436" height="349"/>
      <path fill="rgb(221,178,213)" stroke="none" d="M 16480,10146 C 16472,10149 16463,10153 16454,10158 16441,10163 16427,10172 16416,10179 16411,10180 16406,10182 16402,10184 16380,10193 16362,10205 16342,10220 16304,10250 16282,10293 16278,10343 16275,10385 16296,10424 16329,10448 16366,10471 16408,10480 16451,10474 16486,10471 16519,10463 16552,10450 16565,10444 16579,10437 16591,10430 16635,10408 16672,10374 16697,10332 16738,10248 16688,10146 16597,10129 16556,10126 16517,10130 16480,10146 L 16480,10146 Z "/>
     </g>
    </g>
   </g>
  </g>
 </g>
</svg>