<?xml version="1.0" encoding="UTF-8"?>
<!DOCTYPE svg PUBLIC "-//W3C//DTD SVG 1.1//EN" "http://www.w3.org/Graphics/SVG/1.1/DTD/svg11.dtd">
<svg version="1.2" viewBox="16850 2393 6579 4423" preserveAspectRatio="xMidYMid" fill-rule="evenodd" stroke-width="28.222" stroke-linejoin="round" xmlns="http://www.w3.org/2000/svg" xmlns:ooo="http://xml.openoffice.org/svg/export" xmlns:xlink="http://www.w3.org/1999/xlink" xmlns:presentation="http://sun.com/xmlns/staroffice/presentation" xmlns:smil="http://www.w3.org/2001/SMIL20/" xmlns:anim="urn:oasis:names:tc:opendocument:xmlns:animation:1.0" xmlns:svg="urn:oasis:names:tc:opendocument:xmlns:svg-compatible:1.0" xml:space="preserve">
 <defs class="EmbeddedBulletChars">
  <g id="bullet-char-template-57356" transform="scale(0.00048828125,-0.00048828125)">
   <path d="M 580,1141 L 1163,571 580,0 -4,571 580,1141 Z"/>
  </g>
  <g id="bullet-char-template-57354" transform="scale(0.00048828125,-0.00048828125)">
   <path d="M 8,1128 L 1137,1128 1137,0 8,0 8,1128 Z"/>
  </g>
  <g id="bullet-char-template-10146" transform="scale(0.00048828125,-0.00048828125)">
   <path d="M 174,0 L 602,739 174,1481 1456,739 174,0 Z M 1358,739 L 309,1346 659,739 1358,739 Z"/>
  </g>
  <g id="bullet-char-template-10132" transform="scale(0.00048828125,-0.00048828125)">
   <path d="M 2015,739 L 1276,0 717,0 1260,543 174,543 174,936 1260,936 717,1481 1274,1481 2015,739 Z"/>
  </g>
  <g id="bullet-char-template-10007" transform="scale(0.00048828125,-0.00048828125)">
   <path d="M 0,-2 C -7,14 -16,27 -25,37 L 356,567 C 262,823 215,952 215,954 215,979 228,992 255,992 264,992 276,990 289,987 310,991 331,999 354,1012 L 381,999 492,748 772,1049 836,1024 860,1049 C 881,1039 901,1025 922,1006 886,937 835,863 770,784 769,783 710,716 594,584 L 774,223 C 774,196 753,168 711,139 L 727,119 C 717,90 699,76 672,76 641,76 570,178 457,381 L 164,-76 C 142,-110 111,-127 72,-127 30,-127 9,-110 8,-76 1,-67 -2,-52 -2,-32 -2,-23 -1,-13 0,-2 Z"/>
  </g>
  <g id="bullet-char-template-10004" transform="scale(0.00048828125,-0.00048828125)">
   <path d="M 285,-33 C 182,-33 111,30 74,156 52,228 41,333 41,471 41,549 55,616 82,672 116,743 169,778 240,778 293,778 328,747 346,684 L 369,508 C 377,444 397,411 428,410 L 1163,1116 C 1174,1127 1196,1133 1229,1133 1271,1133 1292,1118 1292,1087 L 1292,965 C 1292,929 1282,901 1262,881 L 442,47 C 390,-6 338,-33 285,-33 Z"/>
  </g>
  <g id="bullet-char-template-9679" transform="scale(0.00048828125,-0.00048828125)">
   <path d="M 813,0 C 632,0 489,54 383,161 276,268 223,411 223,592 223,773 276,916 383,1023 489,1130 632,1184 813,1184 992,1184 1136,1130 1245,1023 1353,916 1407,772 1407,592 1407,412 1353,268 1245,161 1136,54 992,0 813,0 Z"/>
  </g>
  <g id="bullet-char-template-8226" transform="scale(0.00048828125,-0.00048828125)">
   <path d="M 346,457 C 273,457 209,483 155,535 101,586 74,649 74,723 74,796 101,859 155,911 209,963 273,989 346,989 419,989 480,963 531,910 582,859 608,796 608,723 608,648 583,586 532,535 482,483 420,457 346,457 Z"/>
  </g>
  <g id="bullet-char-template-8211" transform="scale(0.00048828125,-0.00048828125)">
   <path d="M -4,459 L 1135,459 1135,606 -4,606 -4,459 Z"/>
  </g>
  <g id="bullet-char-template-61548" transform="scale(0.00048828125,-0.00048828125)">
   <path d="M 173,740 C 173,903 231,1043 346,1159 462,1274 601,1332 765,1332 928,1332 1067,1274 1183,1159 1299,1043 1357,903 1357,740 1357,577 1299,437 1183,322 1067,206 928,148 765,148 601,148 462,206 346,322 231,437 173,577 173,740 Z"/>
  </g>
 </defs>
 <g ooo:name="Monday" class="Page">
  <g class="Group">
   <g class="Group">
    <g class="Group">
     <g class="Group">
      <g class="com.sun.star.drawing.CustomShape">
       <g id="id3">
        <rect class="BoundingBox" stroke="none" fill="none" x="16850" y="4144" width="2851" height="2672"/>
        <g style="opacity: 0.2">
         <path fill="rgb(55,45,49)" stroke="none" d="M 19093,4391 C 19167,4411 19234,4439 19293,4469 19504,4579 19540,4767 19541,4888 L 19540,4891 19539,4902 C 19537,4934 19534,4966 19527,4998 L 19526,4999 19526,5001 C 19526,5001 19227,5204 18962,6310 18943,6388 18867,6436 18790,6420 L 18442,6354 18413,6350 18393,6345 C 18388,6342 18383,6340 18378,6339 L 18376,6338 C 18372,6335 18367,6333 18363,6330 18358,6326 18351,6322 18347,6320 18336,6353 18326,6385 18316,6415 18314,6424 18311,6435 18309,6443 L 18308,6445 18301,6472 18301,6474 18294,6499 18293,6501 18288,6522 18287,6527 18282,6544 18280,6551 C 18257,6628 18177,6671 18100,6651 L 17448,6476 C 17415,6467 17385,6446 17365,6418 17339,6380 17332,6333 17345,6289 L 17345,6288 C 17351,6268 17358,6248 17365,6228 L 17368,6220 C 17373,6201 17379,6183 17385,6165 L 17386,6163 C 17401,6123 17415,6081 17432,6041 L 17119,5958 C 17096,5951 17075,5940 17057,5924 L 17054,5919 C 17050,5915 17046,5910 17043,5906 17035,5899 17031,5891 17026,5882 17017,5865 17011,5844 17011,5824 17007,5797 17014,5770 17026,5746 17028,5742 17031,5737 17033,5734 17048,5713 17061,5691 17076,5670 L 17090,5647 17117,5609 17137,5580 17157,5552 17178,5519 17189,5505 C 17211,5476 17232,5445 17253,5417 17265,5401 17276,5387 17288,5373 L 17291,5367 C 17303,5352 17316,5337 17327,5323 18060,4381 18692,4284 19093,4391 L 19093,4391 Z "/>
         <path fill="none" stroke="rgb(55,45,49)" stroke-width="318" stroke-linejoin="round" d="M 19093,4391 C 19167,4411 19234,4439 19293,4469 19504,4579 19540,4767 19541,4888 L 19540,4891 19539,4902 C 19537,4934 19534,4966 19527,4998 L 19526,4999 19526,5001 C 19526,5001 19227,5204 18962,6310 18943,6388 18867,6436 18790,6420 L 18442,6354 18413,6350 18393,6345 C 18388,6342 18383,6340 18378,6339 L 18376,6338 C 18372,6335 18367,6333 18363,6330 18358,6326 18351,6322 18347,6320 18336,6353 18326,6385 18316,6415 L 18309,6443 18308,6445 18301,6472 18301,6474 18294,6499 18293,6501 18288,6522 18287,6527 18282,6544 18280,6551 C 18257,6628 18177,6671 18100,6651 L 17448,6476 C 17415,6467 17385,6446 17365,6418 17339,6380 17332,6333 17345,6289 L 17345,6288 C 17351,6268 17358,6248 17365,6228 L 17368,6220 C 17373,6201 17379,6183 17385,6165 L 17386,6163 C 17401,6123 17415,6081 17432,6041 L 17119,5958 C 17096,5951 17075,5940 17057,5924 L 17054,5919 C 17050,5915 17046,5910 17043,5906 17035,5899 17031,5891 17026,5882 17017,5865 17011,5844 17011,5824 17007,5797 17014,5770 17026,5746 17028,5742 17031,5737 17033,5734 17048,5713 17061,5691 17076,5670 L 17090,5647 17117,5609 17137,5580 17157,5552 17178,5519 17189,5505 C 17211,5476 17232,5445 17253,5417 17265,5401 17276,5387 17288,5373 L 17291,5367 C 17303,5352 17316,5337 17327,5323 18060,4381 18692,4284 19093,4391 Z "/>
        </g>
        <path fill="rgb(255,255,255)" stroke="none" d="M 19093,4338 C 19167,4358 19234,4386 19293,4416 19504,4526 19540,4714 19541,4835 L 19540,4838 19539,4849 C 19537,4881 19534,4913 19527,4945 L 19526,4946 19526,4948 C 19526,4948 19227,5151 18962,6257 18943,6335 18867,6383 18790,6367 L 18442,6301 18413,6297 18393,6292 C 18388,6289 18383,6287 18378,6286 L 18376,6285 C 18372,6282 18367,6280 18363,6277 18358,6273 18351,6269 18347,6267 18336,6300 18326,6332 18316,6362 18314,6371 18311,6382 18309,6390 L 18308,6392 18301,6419 18301,6421 18294,6446 18293,6448 18288,6469 18287,6474 18282,6491 18280,6498 C 18257,6575 18177,6618 18100,6598 L 17448,6423 C 17415,6414 17385,6393 17365,6365 17339,6327 17332,6280 17345,6236 L 17345,6235 C 17351,6215 17358,6195 17365,6175 L 17368,6167 C 17373,6148 17379,6130 17385,6112 L 17386,6110 C 17401,6070 17415,6028 17432,5988 L 17119,5905 C 17096,5898 17075,5887 17057,5871 L 17054,5866 C 17050,5862 17046,5857 17043,5853 17035,5846 17031,5838 17026,5829 17017,5812 17011,5791 17011,5771 17007,5744 17014,5717 17026,5693 17028,5689 17031,5684 17033,5681 17048,5660 17061,5638 17076,5617 L 17090,5594 17117,5556 17137,5527 17157,5499 17178,5466 17189,5452 C 17211,5423 17232,5392 17253,5364 17265,5348 17276,5334 17288,5320 L 17291,5314 C 17303,5299 17316,5284 17327,5270 18060,4328 18692,4231 19093,4338 L 19093,4338 Z "/>
        <path fill="none" stroke="rgb(255,255,255)" stroke-width="318" stroke-linejoin="round" d="M 19093,4338 C 19167,4358 19234,4386 19293,4416 19504,4526 19540,4714 19541,4835 L 19540,4838 19539,4849 C 19537,4881 19534,4913 19527,4945 L 19526,4946 19526,4948 C 19526,4948 19227,5151 18962,6257 18943,6335 18867,6383 18790,6367 L 18442,6301 18413,6297 18393,6292 C 18388,6289 18383,6287 18378,6286 L 18376,6285 C 18372,6282 18367,6280 18363,6277 18358,6273 18351,6269 18347,6267 18336,6300 18326,6332 18316,6362 L 18309,6390 18308,6392 18301,6419 18301,6421 18294,6446 18293,6448 18288,6469 18287,6474 18282,6491 18280,6498 C 18257,6575 18177,6618 18100,6598 L 17448,6423 C 17415,6414 17385,6393 17365,6365 17339,6327 17332,6280 17345,6236 L 17345,6235 C 17351,6215 17358,6195 17365,6175 L 17368,6167 C 17373,6148 17379,6130 17385,6112 L 17386,6110 C 17401,6070 17415,6028 17432,5988 L 17119,5905 C 17096,5898 17075,5887 17057,5871 L 17054,5866 C 17050,5862 17046,5857 17043,5853 17035,5846 17031,5838 17026,5829 17017,5812 17011,5791 17011,5771 17007,5744 17014,5717 17026,5693 17028,5689 17031,5684 17033,5681 17048,5660 17061,5638 17076,5617 L 17090,5594 17117,5556 17137,5527 17157,5499 17178,5466 17189,5452 C 17211,5423 17232,5392 17253,5364 17265,5348 17276,5334 17288,5320 L 17291,5314 C 17303,5299 17316,5284 17327,5270 18060,4328 18692,4231 19093,4338 Z "/>
       </g>
      </g>
      <g class="com.sun.star.drawing.CustomShape">
       <g id="id4">
        <rect class="BoundingBox" stroke="none" fill="none" x="19319" y="2393" width="4110" height="3911"/>
        <g style="opacity: 0.211764705882353">
         <path fill="rgb(55,45,49)" stroke="none" d="M 22588,2917 C 22543,2905 22494,2902 22447,2907 22423,2910 22399,2916 22379,2927 22343,2945 22312,2966 22286,2995 22243,3044 22211,3102 22198,3166 22176,3258 22170,3354 22181,3449 22192,3550 22213,3651 22241,3751 22243,3762 22250,3771 22257,3777 22303,3814 22348,3853 22394,3892 L 22612,4079 22624,4089 22864,4295 C 22866,4298 22869,4299 22873,4300 22874,4301 22875,4301 22877,4301 22877,4299 22877,4298 22878,4296 22878,4294 22879,4292 22880,4289 22925,4146 22961,3999 22987,3851 23016,3639 22998,3425 22931,3222 22929,3211 22925,3199 22919,3189 22907,3167 22894,3144 22880,3124 22854,3081 22819,3043 22777,3012 22732,2978 22682,2950 22627,2931 22615,2925 22602,2921 22588,2917 L 22588,2917 Z M 22619,2629 C 22637,2634 22656,2639 22673,2646 22767,2678 22855,2726 22932,2789 22982,2831 23028,2879 23070,2930 23092,2958 23113,2988 23130,3018 23177,3097 23212,3184 23232,3274 23259,3397 23271,3520 23268,3645 23266,3895 23219,4142 23132,4374 23122,4402 23110,4429 23101,4458 L 23100,4461 23098,4466 C 23095,4478 23095,4478 23103,4485 L 23111,4490 23137,4526 C 23157,4543 23178,4559 23199,4576 23208,4582 23213,4592 23212,4602 23211,4606 23211,4611 23210,4614 23208,4620 23209,4624 23208,4627 23200,4677 23185,4725 23163,4770 23132,4832 23097,4889 23055,4945 23002,5016 22944,5086 22883,5150 22828,5209 22771,5266 22711,5322 22652,5376 22592,5430 22529,5482 22456,5544 22380,5604 22302,5661 22257,5694 22213,5725 22167,5757 22121,5787 22079,5816 22033,5843 21976,5879 21914,5915 21853,5950 21773,5993 21692,6031 21609,6064 21542,6093 21473,6114 21404,6132 21377,6137 21351,6141 21326,6143 21319,6144 21314,6143 21309,6142 21305,6143 21301,6143 21297,6142 21285,6139 21277,6130 21272,6120 21259,6096 21246,6071 21231,6045 L 21204,5997 C 21196,5984 21191,5974 21185,5962 21155,5907 21126,5854 21095,5799 21092,5791 21084,5786 21079,5782 21042,5767 21007,5751 20972,5734 20756,5633 20540,5531 20326,5430 20209,5372 20094,5312 19978,5254 19959,5244 19942,5233 19925,5223 19923,5222 19922,5221 19920,5221 19917,5220 19912,5221 19910,5224 19841,5293 19756,5329 19664,5355 19625,5364 19583,5367 19542,5362 19535,5361 19528,5360 19523,5359 19491,5350 19478,5329 19478,5291 19477,5271 19479,5252 19482,5234 19491,5182 19501,5133 19515,5084 L 19520,5066 C 19522,5059 19523,5050 19525,5043 19551,4948 19583,4854 19614,4762 19631,4718 19650,4676 19671,4636 19680,4619 19690,4604 19701,4589 19708,4578 19718,4570 19727,4563 19731,4559 19736,4556 19739,4555 19758,4549 19778,4549 19796,4554 19801,4555 19806,4557 19811,4559 19822,4565 19834,4572 19844,4580 19873,4602 19898,4624 19921,4649 19955,4683 19979,4724 19994,4769 19997,4783 20007,4792 20020,4796 20022,4797 20025,4796 20028,4797 20131,4812 20233,4828 20336,4846 20415,4859 20493,4875 20570,4889 20577,4891 20585,4893 20592,4892 20593,4883 20586,4876 20583,4870 L 20454,4631 20323,4395 C 20323,4394 20321,4393 20321,4391 20315,4378 20308,4368 20302,4355 L 20206,4178 C 20202,4174 20200,4168 20198,4161 20197,4154 20199,4146 20207,4142 20227,4132 20245,4118 20260,4102 20282,4081 20305,4063 20329,4043 20384,3996 20440,3949 20494,3902 20504,3892 20515,3883 20527,3874 L 20527,3874 C 20515,3876 20506,3876 20495,3879 L 20489,3879 C 20443,3889 20399,3889 20352,3881 L 20340,3877 C 20334,3876 20328,3875 20323,3874 20230,3849 20201,3785 20214,3717 20224,3659 20289,3618 20368,3617 20296,3585 20251,3524 20261,3466 20275,3394 20333,3345 20438,3363 L 20450,3366 C 20457,3368 20465,3370 20473,3372 20544,3391 20617,3439 20683,3494 L 20703,3512 20709,3516 20723,3530 20728,3535 20743,3550 20748,3553 C 20761,3566 20773,3577 20782,3589 L 20787,3593 20800,3606 20804,3611 20815,3623 C 20827,3613 20836,3606 20848,3595 L 20859,3586 20853,3577 20847,3572 20830,3555 20824,3549 20805,3530 20802,3524 C 20787,3507 20769,3490 20755,3472 L 20749,3465 20731,3444 20725,3437 20707,3414 20702,3407 C 20613,3295 20536,3167 20524,3050 L 20523,3046 20521,3033 C 20501,2887 20575,2813 20674,2798 20691,2796 20710,2797 20726,2802 20787,2818 20842,2876 20871,2955 20883,2847 20942,2762 21021,2751 21048,2747 21074,2749 21099,2755 21164,2773 21217,2829 21231,2937 L 21233,2950 21234,2953 C 21237,2970 21237,2987 21238,3003 21238,3012 21238,3021 21238,3031 21238,3039 21237,3048 21236,3057 21236,3067 21233,3076 21233,3084 21231,3095 21229,3104 21228,3114 21226,3123 21225,3133 21222,3144 L 21215,3172 21207,3201 C 21205,3210 21202,3221 21197,3230 21195,3240 21192,3248 21188,3259 21185,3268 21181,3278 21179,3288 L 21168,3314 C 21180,3304 21192,3294 21203,3283 21241,3247 21284,3215 21325,3179 21357,3151 21390,3121 21425,3094 21438,3082 21444,3078 21451,3079 21457,3081 21463,3086 21472,3094 L 21621,3221 21651,3245 21750,3331 C 21816,3386 21882,3444 21948,3499 21952,3504 21959,3507 21967,3515 L 21958,3463 C 21935,3339 21937,3212 21959,3088 21982,2972 22033,2865 22111,2776 22163,2714 22229,2668 22303,2637 22361,2613 22425,2602 22489,2607 22533,2610 22576,2618 22619,2629 L 22619,2629 Z "/>
         <path fill="none" stroke="rgb(55,45,49)" stroke-width="318" stroke-linejoin="round" d="M 22588,2917 C 22543,2905 22494,2902 22447,2907 22423,2910 22399,2916 22379,2927 22343,2945 22312,2966 22286,2995 22243,3044 22211,3102 22198,3166 22176,3258 22170,3354 22181,3449 22192,3550 22213,3651 22241,3751 22243,3762 22250,3771 22257,3777 22303,3814 22348,3853 22394,3892 L 22612,4079 22624,4089 22864,4295 C 22866,4298 22869,4299 22873,4300 22874,4301 22875,4301 22877,4301 L 22878,4296 22880,4289 C 22925,4146 22961,3999 22987,3851 23016,3639 22998,3425 22931,3222 22929,3211 22925,3199 22919,3189 22907,3167 22894,3144 22880,3124 22854,3081 22819,3043 22777,3012 22732,2978 22682,2950 22627,2931 22615,2925 22602,2921 22588,2917 Z "/>
         <path fill="none" stroke="rgb(55,45,49)" stroke-width="318" stroke-linejoin="round" d="M 22619,2629 C 22637,2634 22656,2639 22673,2646 22767,2678 22855,2726 22932,2789 22982,2831 23028,2879 23070,2930 23092,2958 23113,2988 23130,3018 23177,3097 23212,3184 23232,3274 23259,3397 23271,3520 23268,3645 23266,3895 23219,4142 23132,4374 23122,4402 23110,4429 23101,4458 L 23100,4461 23098,4466 C 23095,4478 23095,4478 23103,4485 L 23111,4490 23137,4526 C 23157,4543 23178,4559 23199,4576 23208,4582 23213,4592 23212,4602 23211,4606 23211,4611 23210,4614 23208,4620 23209,4624 23208,4627 23200,4677 23185,4725 23163,4770 23132,4832 23097,4889 23055,4945 23002,5016 22944,5086 22883,5150 22828,5209 22771,5266 22711,5322 22652,5376 22592,5430 22529,5482 22456,5544 22380,5604 22302,5661 22257,5694 22213,5725 22167,5757 22121,5787 22079,5816 22033,5843 21976,5879 21914,5915 21853,5950 21773,5993 21692,6031 21609,6064 21542,6093 21473,6114 21404,6132 21377,6137 21351,6141 21326,6143 21319,6144 21314,6143 21309,6142 21305,6143 21301,6143 21297,6142 21285,6139 21277,6130 21272,6120 21259,6096 21246,6071 21231,6045 L 21204,5997 C 21196,5984 21191,5974 21185,5962 21155,5907 21126,5854 21095,5799 21092,5791 21084,5786 21079,5782 21042,5767 21007,5751 20972,5734 20756,5633 20540,5531 20326,5430 20209,5372 20094,5312 19978,5254 19959,5244 19942,5233 19925,5223 19923,5222 19922,5221 19920,5221 19917,5220 19912,5221 19910,5224 19841,5293 19756,5329 19664,5355 19625,5364 19583,5367 19542,5362 19535,5361 19528,5360 19523,5359 19491,5350 19478,5329 19478,5291 19477,5271 19479,5252 19482,5234 19491,5182 19501,5133 19515,5084 L 19520,5066 C 19522,5059 19523,5050 19525,5043 19551,4948 19583,4854 19614,4762 19631,4718 19650,4676 19671,4636 19680,4619 19690,4604 19701,4589 19708,4578 19718,4570 19727,4563 19731,4559 19736,4556 19739,4555 19758,4549 19778,4549 19796,4554 19801,4555 19806,4557 19811,4559 19822,4565 19834,4572 19844,4580 19873,4602 19898,4624 19921,4649 19955,4683 19979,4724 19994,4769 19997,4783 20007,4792 20020,4796 20022,4797 20025,4796 20028,4797 20131,4812 20233,4828 20336,4846 20415,4859 20493,4875 20570,4889 20577,4891 20585,4893 20592,4892 20593,4883 20586,4876 20583,4870 L 20454,4631 20323,4395 C 20323,4394 20321,4393 20321,4391 20315,4378 20308,4368 20302,4355 L 20206,4178 C 20202,4174 20200,4168 20198,4161 20197,4154 20199,4146 20207,4142 20227,4132 20245,4118 20260,4102 20282,4081 20305,4063 20329,4043 20384,3996 20440,3949 20494,3902 20504,3892 20515,3883 20527,3874 L 20527,3874 C 20515,3876 20506,3876 20495,3879 L 20489,3879 C 20443,3889 20399,3889 20352,3881 L 20340,3877 C 20334,3876 20328,3875 20323,3874 20230,3849 20201,3785 20214,3717 20224,3659 20289,3618 20368,3617 20296,3585 20251,3524 20261,3466 20275,3394 20333,3345 20438,3363 L 20450,3366 C 20457,3368 20465,3370 20473,3372 20544,3391 20617,3439 20683,3494 L 20703,3512 20709,3516 20723,3530 20728,3535 20743,3550 20748,3553 C 20761,3566 20773,3577 20782,3589 L 20787,3593 20800,3606 20804,3611 20815,3623 C 20827,3613 20836,3606 20848,3595 L 20859,3586 20853,3577 20847,3572 20830,3555 20824,3549 20805,3530 20802,3524 C 20787,3507 20769,3490 20755,3472 L 20749,3465 20731,3444 20725,3437 20707,3414 20702,3407 C 20613,3295 20536,3167 20524,3050 L 20523,3046 20521,3033 C 20501,2887 20575,2813 20674,2798 20691,2796 20710,2797 20726,2802 20787,2818 20842,2876 20871,2955 20883,2847 20942,2762 21021,2751 21048,2747 21074,2749 21099,2755 21164,2773 21217,2829 21231,2937 L 21233,2950 21234,2953 C 21237,2970 21237,2987 21238,3003 21238,3012 21238,3021 21238,3031 21238,3039 21237,3048 21236,3057 21236,3067 21233,3076 21233,3084 21231,3095 21229,3104 21228,3114 21226,3123 21225,3133 21222,3144 L 21215,3172 21207,3201 C 21205,3210 21202,3221 21197,3230 21195,3240 21192,3248 21188,3259 21185,3268 21181,3278 21179,3288 L 21168,3314 C 21180,3304 21192,3294 21203,3283 21241,3247 21284,3215 21325,3179 21357,3151 21390,3121 21425,3094 21438,3082 21444,3078 21451,3079 21457,3081 21463,3086 21472,3094 L 21621,3221 21651,3245 21750,3331 C 21816,3386 21882,3444 21948,3499 21952,3504 21959,3507 21967,3515 L 21958,3463 C 21935,3339 21937,3212 21959,3088 21982,2972 22033,2865 22111,2776 22163,2714 22229,2668 22303,2637 22361,2613 22425,2602 22489,2607 22533,2610 22576,2618 22619,2629 Z "/>
        </g>
        <path fill="rgb(255,255,255)" stroke="none" d="M 22588,2864 C 22543,2852 22494,2849 22447,2854 22423,2857 22399,2863 22379,2874 22343,2892 22312,2913 22286,2942 22243,2991 22211,3049 22198,3113 22176,3205 22170,3301 22181,3396 22192,3497 22213,3598 22241,3698 22243,3709 22250,3718 22257,3724 22303,3761 22348,3800 22394,3839 L 22612,4026 22624,4036 22864,4242 C 22866,4245 22869,4246 22873,4247 22874,4248 22875,4248 22877,4248 22877,4246 22877,4245 22878,4243 22878,4241 22879,4239 22880,4236 22925,4093 22961,3946 22987,3798 23016,3586 22998,3372 22931,3169 22929,3158 22925,3146 22919,3136 22907,3114 22894,3091 22880,3071 22854,3028 22819,2990 22777,2959 22732,2925 22682,2897 22627,2878 22615,2872 22602,2868 22588,2864 L 22588,2864 Z M 22619,2576 C 22637,2581 22656,2586 22673,2593 22767,2625 22855,2673 22932,2736 22982,2778 23028,2826 23070,2877 23092,2905 23113,2935 23130,2965 23177,3044 23212,3131 23232,3221 23259,3344 23271,3467 23268,3592 23266,3842 23219,4089 23132,4321 23122,4349 23110,4376 23101,4405 L 23100,4408 23098,4413 C 23095,4425 23095,4425 23103,4432 L 23111,4437 23137,4473 C 23157,4490 23178,4506 23199,4523 23208,4529 23213,4539 23212,4549 23211,4553 23211,4558 23210,4561 23208,4567 23209,4571 23208,4574 23200,4624 23185,4672 23163,4717 23132,4779 23097,4836 23055,4892 23002,4963 22944,5033 22883,5097 22828,5156 22771,5213 22711,5269 22652,5323 22592,5377 22529,5429 22456,5491 22380,5551 22302,5608 22257,5641 22213,5672 22167,5704 22121,5734 22079,5763 22033,5790 21976,5826 21914,5862 21853,5897 21773,5940 21692,5978 21609,6011 21542,6040 21473,6061 21404,6079 21377,6084 21351,6088 21326,6090 21319,6091 21314,6090 21309,6089 21305,6090 21301,6090 21297,6089 21285,6086 21277,6077 21272,6067 21259,6043 21246,6018 21231,5992 L 21204,5944 C 21196,5931 21191,5921 21185,5909 21155,5854 21126,5801 21095,5746 21092,5738 21084,5733 21079,5729 21042,5714 21007,5698 20972,5681 20756,5580 20540,5478 20326,5377 20209,5319 20094,5259 19978,5201 19959,5191 19942,5180 19925,5170 19923,5169 19922,5168 19920,5168 19917,5167 19912,5168 19910,5171 19841,5240 19756,5276 19664,5302 19625,5311 19583,5314 19542,5309 19535,5308 19528,5307 19523,5306 19491,5297 19478,5276 19478,5238 19477,5218 19479,5199 19482,5181 19491,5129 19501,5080 19515,5031 L 19520,5013 C 19522,5006 19523,4997 19525,4990 19551,4895 19583,4801 19614,4709 19631,4665 19650,4623 19671,4583 19680,4566 19690,4551 19701,4536 19708,4525 19718,4517 19727,4510 19731,4506 19736,4503 19739,4502 19758,4496 19778,4496 19796,4501 19801,4502 19806,4504 19811,4506 19822,4512 19834,4519 19844,4527 19873,4549 19898,4571 19921,4596 19955,4630 19979,4671 19994,4716 19997,4730 20007,4739 20020,4743 20022,4744 20025,4743 20028,4744 20131,4759 20233,4775 20336,4793 20415,4806 20493,4822 20570,4836 20577,4838 20585,4840 20592,4839 20593,4830 20586,4823 20583,4817 L 20454,4578 20323,4342 C 20323,4341 20321,4340 20321,4338 20315,4325 20308,4315 20302,4302 L 20206,4125 C 20202,4121 20200,4115 20198,4108 20197,4101 20199,4093 20207,4089 20227,4079 20245,4065 20260,4049 20282,4028 20305,4010 20329,3990 20384,3943 20440,3896 20494,3849 20504,3839 20515,3830 20527,3821 L 20527,3821 C 20515,3823 20506,3823 20495,3826 L 20489,3826 C 20443,3836 20399,3836 20352,3828 L 20340,3824 C 20334,3823 20328,3822 20323,3821 20230,3796 20201,3732 20214,3664 20224,3606 20289,3565 20368,3564 20296,3532 20251,3471 20261,3413 20275,3341 20333,3292 20438,3310 L 20450,3313 C 20457,3315 20465,3317 20473,3319 20544,3338 20617,3386 20683,3441 L 20703,3459 20709,3463 20723,3477 20728,3482 20743,3497 20748,3500 C 20761,3513 20773,3524 20782,3536 L 20787,3540 20800,3553 20804,3558 20815,3570 C 20827,3560 20836,3553 20848,3542 L 20859,3533 20853,3524 20847,3519 20830,3502 20824,3496 20805,3477 20802,3471 C 20787,3454 20769,3437 20755,3419 L 20749,3412 20731,3391 20725,3384 20707,3361 20702,3354 C 20613,3242 20536,3114 20524,2997 L 20523,2993 20521,2980 C 20501,2834 20575,2760 20674,2745 20691,2743 20710,2744 20726,2749 20787,2765 20842,2823 20871,2902 20883,2794 20942,2709 21021,2698 21048,2694 21074,2696 21099,2702 21164,2720 21217,2776 21231,2884 L 21233,2897 21234,2900 C 21237,2917 21237,2934 21238,2950 21238,2959 21238,2968 21238,2978 21238,2986 21237,2995 21236,3004 21236,3014 21233,3023 21233,3031 21231,3042 21229,3051 21228,3061 21226,3070 21225,3080 21222,3091 L 21215,3119 21207,3148 C 21205,3157 21202,3168 21197,3177 21195,3187 21192,3195 21188,3206 21185,3215 21181,3225 21179,3235 L 21168,3261 C 21180,3251 21192,3241 21203,3230 21241,3194 21284,3162 21325,3126 21357,3098 21390,3068 21425,3041 21438,3029 21444,3025 21451,3026 21457,3028 21463,3033 21472,3041 L 21621,3168 21651,3192 21750,3278 C 21816,3333 21882,3391 21948,3446 21952,3451 21959,3454 21967,3462 L 21958,3410 C 21935,3286 21937,3159 21959,3035 21982,2919 22033,2812 22111,2723 22163,2661 22229,2615 22303,2584 22361,2560 22425,2549 22489,2554 22533,2557 22576,2565 22619,2576 L 22619,2576 Z "/>
        <path fill="none" stroke="rgb(255,255,255)" stroke-width="318" stroke-linejoin="round" d="M 22588,2864 C 22543,2852 22494,2849 22447,2854 22423,2857 22399,2863 22379,2874 22343,2892 22312,2913 22286,2942 22243,2991 22211,3049 22198,3113 22176,3205 22170,3301 22181,3396 22192,3497 22213,3598 22241,3698 22243,3709 22250,3718 22257,3724 22303,3761 22348,3800 22394,3839 L 22612,4026 22624,4036 22864,4242 C 22866,4245 22869,4246 22873,4247 22874,4248 22875,4248 22877,4248 L 22878,4243 22880,4236 C 22925,4093 22961,3946 22987,3798 23016,3586 22998,3372 22931,3169 22929,3158 22925,3146 22919,3136 22907,3114 22894,3091 22880,3071 22854,3028 22819,2990 22777,2959 22732,2925 22682,2897 22627,2878 22615,2872 22602,2868 22588,2864 Z "/>
        <path fill="none" stroke="rgb(255,255,255)" stroke-width="318" stroke-linejoin="round" d="M 22619,2576 C 22637,2581 22656,2586 22673,2593 22767,2625 22855,2673 22932,2736 22982,2778 23028,2826 23070,2877 23092,2905 23113,2935 23130,2965 23177,3044 23212,3131 23232,3221 23259,3344 23271,3467 23268,3592 23266,3842 23219,4089 23132,4321 23122,4349 23110,4376 23101,4405 L 23100,4408 23098,4413 C 23095,4425 23095,4425 23103,4432 L 23111,4437 23137,4473 C 23157,4490 23178,4506 23199,4523 23208,4529 23213,4539 23212,4549 23211,4553 23211,4558 23210,4561 23208,4567 23209,4571 23208,4574 23200,4624 23185,4672 23163,4717 23132,4779 23097,4836 23055,4892 23002,4963 22944,5033 22883,5097 22828,5156 22771,5213 22711,5269 22652,5323 22592,5377 22529,5429 22456,5491 22380,5551 22302,5608 22257,5641 22213,5672 22167,5704 22121,5734 22079,5763 22033,5790 21976,5826 21914,5862 21853,5897 21773,5940 21692,5978 21609,6011 21542,6040 21473,6061 21404,6079 21377,6084 21351,6088 21326,6090 21319,6091 21314,6090 21309,6089 21305,6090 21301,6090 21297,6089 21285,6086 21277,6077 21272,6067 21259,6043 21246,6018 21231,5992 L 21204,5944 C 21196,5931 21191,5921 21185,5909 21155,5854 21126,5801 21095,5746 21092,5738 21084,5733 21079,5729 21042,5714 21007,5698 20972,5681 20756,5580 20540,5478 20326,5377 20209,5319 20094,5259 19978,5201 19959,5191 19942,5180 19925,5170 19923,5169 19922,5168 19920,5168 19917,5167 19912,5168 19910,5171 19841,5240 19756,5276 19664,5302 19625,5311 19583,5314 19542,5309 19535,5308 19528,5307 19523,5306 19491,5297 19478,5276 19478,5238 19477,5218 19479,5199 19482,5181 19491,5129 19501,5080 19515,5031 L 19520,5013 C 19522,5006 19523,4997 19525,4990 19551,4895 19583,4801 19614,4709 19631,4665 19650,4623 19671,4583 19680,4566 19690,4551 19701,4536 19708,4525 19718,4517 19727,4510 19731,4506 19736,4503 19739,4502 19758,4496 19778,4496 19796,4501 19801,4502 19806,4504 19811,4506 19822,4512 19834,4519 19844,4527 19873,4549 19898,4571 19921,4596 19955,4630 19979,4671 19994,4716 19997,4730 20007,4739 20020,4743 20022,4744 20025,4743 20028,4744 20131,4759 20233,4775 20336,4793 20415,4806 20493,4822 20570,4836 20577,4838 20585,4840 20592,4839 20593,4830 20586,4823 20583,4817 L 20454,4578 20323,4342 C 20323,4341 20321,4340 20321,4338 20315,4325 20308,4315 20302,4302 L 20206,4125 C 20202,4121 20200,4115 20198,4108 20197,4101 20199,4093 20207,4089 20227,4079 20245,4065 20260,4049 20282,4028 20305,4010 20329,3990 20384,3943 20440,3896 20494,3849 20504,3839 20515,3830 20527,3821 L 20527,3821 C 20515,3823 20506,3823 20495,3826 L 20489,3826 C 20443,3836 20399,3836 20352,3828 L 20340,3824 C 20334,3823 20328,3822 20323,3821 20230,3796 20201,3732 20214,3664 20224,3606 20289,3565 20368,3564 20296,3532 20251,3471 20261,3413 20275,3341 20333,3292 20438,3310 L 20450,3313 C 20457,3315 20465,3317 20473,3319 20544,3338 20617,3386 20683,3441 L 20703,3459 20709,3463 20723,3477 20728,3482 20743,3497 20748,3500 C 20761,3513 20773,3524 20782,3536 L 20787,3540 20800,3553 20804,3558 20815,3570 C 20827,3560 20836,3553 20848,3542 L 20859,3533 20853,3524 20847,3519 20830,3502 20824,3496 20805,3477 20802,3471 C 20787,3454 20769,3437 20755,3419 L 20749,3412 20731,3391 20725,3384 20707,3361 20702,3354 C 20613,3242 20536,3114 20524,2997 L 20523,2993 20521,2980 C 20501,2834 20575,2760 20674,2745 20691,2743 20710,2744 20726,2749 20787,2765 20842,2823 20871,2902 20883,2794 20942,2709 21021,2698 21048,2694 21074,2696 21099,2702 21164,2720 21217,2776 21231,2884 L 21233,2897 21234,2900 C 21237,2917 21237,2934 21238,2950 21238,2959 21238,2968 21238,2978 21238,2986 21237,2995 21236,3004 21236,3014 21233,3023 21233,3031 21231,3042 21229,3051 21228,3061 21226,3070 21225,3080 21222,3091 L 21215,3119 21207,3148 C 21205,3157 21202,3168 21197,3177 21195,3187 21192,3195 21188,3206 21185,3215 21181,3225 21179,3235 L 21168,3261 C 21180,3251 21192,3241 21203,3230 21241,3194 21284,3162 21325,3126 21357,3098 21390,3068 21425,3041 21438,3029 21444,3025 21451,3026 21457,3028 21463,3033 21472,3041 L 21621,3168 21651,3192 21750,3278 C 21816,3333 21882,3391 21948,3446 21952,3451 21959,3454 21967,3462 L 21958,3410 C 21935,3286 21937,3159 21959,3035 21982,2919 22033,2812 22111,2723 22163,2661 22229,2615 22303,2584 22361,2560 22425,2549 22489,2554 22533,2557 22576,2565 22619,2576 Z "/>
       </g>
      </g>
     </g>
     <g class="Group">
      <g class="Group">
       <g class="com.sun.star.drawing.CustomShape">
        <g id="id5">
         <rect class="BoundingBox" stroke="none" fill="none" x="17351" y="4525" width="2188" height="2074"/>
         <path fill="rgb(143,221,239)" stroke="none" d="M 19132,4542 C 19424,4621 19537,4947 19537,4947 19507,4932 19477,4920 19447,4912 18850,4752 18416,6056 18287,6491 18265,6568 18185,6613 18107,6592 L 17461,6419 C 17380,6398 17333,6314 17358,6232 17553,5593 17952,5032 18599,4653 18820,4523 18995,4506 19132,4542 L 19132,4542 Z "/>
        </g>
       </g>
       <g class="com.sun.star.drawing.CustomShape">
        <g id="id6">
         <rect class="BoundingBox" stroke="none" fill="none" x="18305" y="4852" width="1233" height="1516"/>
         <path fill="rgb(205,234,157)" stroke="none" d="M 19390,4864 C 19439,4877 19489,4903 19537,4947 19537,4947 19238,5150 18974,6253 18954,6330 18878,6378 18801,6364 L 18425,6293 C 18422,6292 18419,6292 18416,6291 18331,6268 18281,6175 18316,6091 18426,5825 18672,5296 19028,4943 19029,4942 19205,4814 19390,4864 L 19390,4864 Z "/>
        </g>
       </g>
       <g class="com.sun.star.drawing.CustomShape">
        <g id="id7">
         <rect class="BoundingBox" stroke="none" fill="none" x="17021" y="4302" width="2531" height="1718"/>
         <path fill="rgb(242,184,126)" stroke="none" d="M 19103,4336 C 19178,4357 19244,4384 19303,4414 19635,4588 19537,4949 19537,4949 19455,4878 19370,4834 19283,4810 18639,4638 17915,5643 17710,5953 17676,6005 17609,6030 17549,6014 L 17131,5902 C 17035,5876 16991,5764 17045,5679 17904,4357 18653,4216 19103,4336 L 19103,4336 Z "/>
        </g>
       </g>
      </g>
      <g class="Group">
       <g class="com.sun.star.drawing.CustomShape">
        <g id="id8">
         <rect class="BoundingBox" stroke="none" fill="none" x="20529" y="2694" width="721" height="942"/>
         <path fill="rgb(241,152,197)" stroke="none" d="M 21110,2701 C 21176,2718 21226,2774 21241,2881 L 21243,2894 21244,2897 C 21289,3179 20983,3635 20983,3635 20983,3635 20565,3277 20535,2996 L 20534,2990 20533,2977 C 20512,2832 20584,2757 20685,2742 20703,2740 20720,2741 20737,2746 20798,2762 20852,2819 20882,2898 L 20882,2898 C 20881,2899 20882,2900 20882,2900 20882,2900 20881,2899 20882,2898 L 20882,2898 20882,2898 C 20882,2898 20882,2898 20883,2898 L 20883,2898 C 20883,2899 20883,2899 20882,2900 20883,2899 20883,2899 20883,2898 L 20883,2898 C 20894,2790 20953,2706 21032,2696 21059,2692 21085,2694 21110,2701 L 21110,2701 Z "/>
        </g>
       </g>
       <g class="com.sun.star.drawing.CustomShape">
        <g id="id9">
         <rect class="BoundingBox" stroke="none" fill="none" x="20222" y="3307" width="687" height="529"/>
         <path fill="rgb(241,152,197)" stroke="none" d="M 20488,3320 C 20685,3373 20908,3666 20908,3666 20908,3666 20565,3873 20362,3828 L 20351,3825 C 20345,3824 20339,3822 20334,3821 20243,3796 20212,3733 20225,3665 20236,3607 20300,3566 20379,3565 20307,3532 20262,3471 20274,3413 20286,3341 20344,3292 20451,3311 L 20463,3315 C 20471,3316 20479,3318 20488,3320 L 20488,3320 Z "/>
        </g>
       </g>
       <g class="com.sun.star.drawing.CustomShape">
        <g id="id10">
         <rect class="BoundingBox" stroke="none" fill="none" x="19490" y="2559" width="3790" height="3528"/>
         <path fill="rgb(221,178,213)" stroke="none" d="M 22600,2863 C 22555,2851 22506,2847 22459,2852 22434,2855 22411,2861 22391,2872 22355,2890 22324,2911 22298,2941 22253,2988 22223,3047 22208,3111 22188,3203 22182,3298 22192,3390 22204,3495 22224,3596 22253,3695 22256,3705 22261,3713 22269,3721 22315,3759 22360,3798 22406,3837 L 22624,4023 22636,4033 22876,4237 C 22877,4241 22880,4241 22882,4242 22884,4242 22886,4243 22887,4242 22888,4240 22888,4239 22889,4237 22889,4235 22889,4234 22890,4233 22938,4089 22973,3943 22997,3793 23028,3584 23010,3368 22944,3165 22941,3154 22935,3143 22930,3134 22919,3111 22906,3089 22892,3069 22866,3024 22831,2988 22789,2957 22743,2923 22694,2895 22639,2876 22627,2870 22614,2867 22600,2863 L 22600,2863 Z M 22628,2583 C 22647,2588 22665,2593 22683,2600 22777,2632 22863,2680 22942,2742 22992,2785 23038,2833 23078,2883 23102,2911 23121,2939 23139,2971 23186,3051 23221,3137 23241,3227 23267,3349 23280,3474 23278,3598 23275,3848 23230,4093 23140,4326 23132,4354 23120,4382 23110,4409 L 23109,4413 23107,4418 C 23104,4430 23104,4430 23112,4438 L 23120,4443 23150,4469 C 23169,4487 23190,4503 23212,4519 23220,4526 23225,4536 23224,4547 23223,4550 23223,4556 23222,4558 23221,4563 23222,4568 23221,4571 23212,4621 23197,4669 23175,4714 23144,4776 23109,4833 23068,4888 23014,4960 22956,5029 22896,5093 22840,5153 22784,5209 22723,5266 22664,5319 22604,5373 22542,5425 22468,5486 22392,5548 22315,5604 22270,5637 22223,5667 22180,5699 22133,5730 22091,5758 22046,5785 21987,5822 21926,5858 21865,5892 21785,5935 21705,5973 21621,6007 21554,6036 21486,6057 21417,6074 21389,6079 21364,6083 21336,6085 21331,6086 21327,6085 21322,6084 21318,6085 21314,6084 21310,6083 21298,6080 21290,6073 21284,6062 21271,6038 21256,6013 21243,5988 L 21215,5939 C 21209,5927 21203,5916 21197,5904 21167,5849 21138,5796 21107,5741 21104,5733 21096,5728 21090,5724 21055,5709 21020,5693 20985,5676 20769,5575 20553,5474 20339,5372 20220,5315 20106,5254 19990,5196 19971,5187 19954,5176 19937,5165 19936,5165 19935,5164 19933,5164 19929,5163 19924,5164 19922,5167 19854,5235 19768,5271 19676,5297 19638,5306 19596,5310 19555,5304 19548,5303 19541,5302 19536,5301 19504,5292 19491,5271 19491,5233 19490,5213 19492,5194 19494,5177 19503,5124 19512,5075 19527,5027 19527,5021 19528,5015 19530,5008 L 19537,4984 C 19564,4889 19595,4795 19627,4701 19642,4659 19663,4617 19684,4578 19692,4560 19702,4545 19713,4529 19721,4519 19730,4511 19740,4503 19744,4500 19749,4498 19752,4497 19770,4491 19790,4490 19808,4495 19813,4496 19818,4498 19822,4500 19834,4507 19847,4514 19857,4521 19883,4543 19911,4565 19934,4591 19967,4623 19991,4666 20006,4710 20009,4724 20020,4735 20033,4738 20035,4739 20038,4740 20040,4740 20144,4754 20246,4771 20349,4790 20427,4802 20506,4817 20582,4832 20589,4834 20597,4836 20604,4835 20606,4826 20598,4819 20595,4813 L 20466,4575 20335,4339 C 20335,4337 20333,4336 20334,4334 20327,4322 20320,4311 20314,4299 L 20218,4122 C 20214,4117 20212,4111 20210,4105 20209,4098 20211,4089 20219,4086 20239,4075 20257,4062 20272,4047 20294,4026 20317,4006 20341,3987 20396,3939 20452,3893 20506,3846 20544,3812 20585,3777 20625,3744 20664,3708 20702,3677 20742,3643 20781,3608 20822,3575 20861,3541 20899,3505 20941,3473 20978,3438 21015,3404 21058,3372 21095,3338 21131,3303 21174,3271 21212,3237 21249,3201 21294,3169 21332,3133 21365,3103 21399,3075 21433,3048 21446,3036 21453,3030 21461,3032 21466,3034 21472,3040 21481,3048 L 21629,3174 21658,3198 21760,3284 C 21826,3339 21892,3397 21956,3452 21962,3457 21968,3460 21976,3468 L 21968,3415 C 21945,3292 21945,3165 21968,3042 21989,2924 22041,2818 22119,2729 22173,2668 22237,2620 22313,2591 22371,2567 22435,2556 22497,2560 22541,2564 22586,2572 22628,2583 L 22628,2583 Z "/>
        </g>
       </g>
       <g class="com.sun.star.drawing.CustomShape">
        <g id="id11">
         <rect class="BoundingBox" stroke="none" fill="none" x="21086" y="4037" width="1028" height="1096"/>
         <path fill="rgb(250,231,127)" stroke="none" d="M 21724,4049 C 22002,4124 21721,4494 21721,4494 21721,4494 21835,4484 21941,4512 22045,4540 22139,4605 22106,4755 22079,4869 22012,4888 21937,4868 21812,4835 21668,4691 21668,4691 L 21668,4691 C 21668,4691 21875,5106 21605,5131 21582,5134 21562,5131 21544,5127 21366,5079 21502,4713 21502,4713 L 21502,4713 C 21502,4713 21394,4962 21255,4925 21228,4918 21200,4899 21171,4865 20994,4657 21429,4574 21429,4574 L 21429,4574 C 21429,4574 21349,4573 21266,4551 21161,4523 21053,4462 21096,4327 21122,4245 21178,4232 21242,4249 21369,4283 21528,4442 21528,4442 21528,4442 21376,3984 21696,4043 21706,4045 21715,4047 21724,4049 L 21724,4049 Z "/>
        </g>
       </g>
       <g class="com.sun.star.drawing.CustomShape">
        <g id="id12">
         <rect class="BoundingBox" stroke="none" fill="none" x="20627" y="4884" width="433" height="751"/>
         <path fill="rgb(55,45,49)" stroke="none" d="M 20648,4885 C 20651,4886 20654,4888 20656,4891 20790,5134 20934,5374 21058,5623 21061,5628 21055,5635 21050,5633 21048,5633 21047,5631 21046,5629 20883,5410 20748,5154 20630,4906 20623,4893 20637,4882 20648,4885 L 20648,4885 Z "/>
        </g>
       </g>
       <g class="com.sun.star.drawing.CustomShape">
        <g id="id13">
         <rect class="BoundingBox" stroke="none" fill="none" x="21998" y="3467" width="201" height="194"/>
         <path fill="rgb(55,45,49)" stroke="none" d="M 22016,3467 C 22018,3468 22019,3468 22020,3469 22055,3497 22087,3525 22117,3556 22149,3583 22176,3617 22196,3655 22199,3656 22196,3661 22193,3660 L 22192,3659 C 22158,3639 22127,3612 22100,3584 22067,3554 22032,3525 22003,3493 21993,3482 22004,3464 22016,3467 L 22016,3467 Z "/>
        </g>
       </g>
       <g class="com.sun.star.drawing.CustomShape">
        <g id="id14">
         <rect class="BoundingBox" stroke="none" fill="none" x="22894" y="4228" width="173" height="166"/>
         <path fill="rgb(55,45,49)" stroke="none" d="M 22912,4229 C 22913,4229 22915,4230 22916,4230 22948,4253 22978,4280 23005,4307 23027,4330 23055,4356 23065,4389 23066,4391 23062,4393 23060,4393 23030,4378 23009,4347 22985,4324 22958,4299 22928,4277 22900,4253 22886,4245 22900,4226 22912,4229 L 22912,4229 Z "/>
        </g>
       </g>
       <g class="com.sun.star.drawing.CustomShape">
        <g id="id15">
         <rect class="BoundingBox" stroke="none" fill="none" x="19935" y="4766" width="84" height="382"/>
         <path fill="rgb(55,45,49)" stroke="none" d="M 20009,4767 C 20013,4768 20018,4771 20017,4777 20018,4897 20000,5030 19950,5141 19947,5146 19944,5147 19942,5146 19938,5145 19935,5140 19936,5135 19955,5015 19982,4899 19994,4778 19994,4769 20003,4765 20009,4767 L 20009,4767 Z "/>
        </g>
       </g>
       <g class="com.sun.star.drawing.CustomShape">
        <g id="id16">
         <rect class="BoundingBox" stroke="none" fill="none" x="19620" y="4556" width="170" height="396"/>
         <path fill="rgb(255,255,255)" stroke="none" d="M 19777,4558 C 19784,4560 19788,4565 19789,4572 19782,4633 19769,4693 19748,4751 19730,4812 19720,4876 19691,4931 19681,4947 19664,4953 19649,4949 19634,4945 19622,4931 19620,4912 19622,4800 19684,4647 19761,4562 19766,4557 19771,4556 19777,4558 L 19777,4558 Z "/>
        </g>
       </g>
      </g>
     </g>
    </g>
    <g class="com.sun.star.drawing.CustomShape">
     <g id="id17">
      <rect class="BoundingBox" stroke="none" fill="none" x="19351" y="4276" width="258" height="279"/>
      <path fill="rgb(255,255,255)" stroke="none" d="M 19355,4445 C 19365,4457 19401,4480 19419,4496 19438,4514 19454,4540 19464,4548 19476,4556 19473,4555 19486,4544 19499,4533 19523,4508 19543,4483 19563,4458 19605,4414 19608,4392 19610,4370 19579,4368 19557,4350 19535,4331 19494,4292 19478,4282 19461,4273 19468,4277 19458,4288 19449,4300 19438,4333 19425,4352 19411,4371 19386,4391 19375,4403 19365,4415 19363,4416 19360,4422 19357,4429 19346,4432 19355,4445 L 19355,4445 Z "/>
     </g>
    </g>
   </g>
   <g class="com.sun.star.drawing.CustomShape">
    <g id="id18">
     <rect class="BoundingBox" stroke="none" fill="none" x="19224" y="5210" width="247" height="426"/>
     <path fill="rgb(255,255,255)" stroke="none" d="M 19304,5282 C 19292,5306 19280,5327 19267,5354 19255,5381 19231,5425 19226,5445 19222,5465 19230,5461 19239,5474 19248,5487 19261,5503 19278,5523 19294,5542 19324,5573 19339,5592 19353,5610 19355,5638 19362,5635 19371,5632 19381,5595 19390,5573 19399,5552 19407,5526 19417,5505 19426,5484 19439,5467 19448,5445 19456,5423 19476,5401 19468,5372 19460,5343 19415,5293 19398,5269 19380,5245 19369,5238 19360,5229 19351,5219 19352,5205 19343,5213 19333,5222 19317,5259 19304,5282 L 19304,5282 Z "/>
    </g>
   </g>
  </g>
 </g>
</svg>