<?xml version="1.0" encoding="UTF-8"?>
<!DOCTYPE svg PUBLIC "-//W3C//DTD SVG 1.1//EN" "http://www.w3.org/Graphics/SVG/1.1/DTD/svg11.dtd">
<svg version="1.2" viewBox="9240 4526 3317 3057" preserveAspectRatio="xMidYMid" fill-rule="evenodd" stroke-width="28.222" stroke-linejoin="round" xmlns="http://www.w3.org/2000/svg" xmlns:ooo="http://xml.openoffice.org/svg/export" xmlns:xlink="http://www.w3.org/1999/xlink" xmlns:presentation="http://sun.com/xmlns/staroffice/presentation" xmlns:smil="http://www.w3.org/2001/SMIL20/" xmlns:anim="urn:oasis:names:tc:opendocument:xmlns:animation:1.0" xmlns:svg="urn:oasis:names:tc:opendocument:xmlns:svg-compatible:1.0" xml:space="preserve">
 <defs class="EmbeddedBulletChars">
  <g id="bullet-char-template-57356" transform="scale(0.00048828125,-0.00048828125)">
   <path d="M 580,1141 L 1163,571 580,0 -4,571 580,1141 Z"/>
  </g>
  <g id="bullet-char-template-57354" transform="scale(0.00048828125,-0.00048828125)">
   <path d="M 8,1128 L 1137,1128 1137,0 8,0 8,1128 Z"/>
  </g>
  <g id="bullet-char-template-10146" transform="scale(0.00048828125,-0.00048828125)">
   <path d="M 174,0 L 602,739 174,1481 1456,739 174,0 Z M 1358,739 L 309,1346 659,739 1358,739 Z"/>
  </g>
  <g id="bullet-char-template-10132" transform="scale(0.00048828125,-0.00048828125)">
   <path d="M 2015,739 L 1276,0 717,0 1260,543 174,543 174,936 1260,936 717,1481 1274,1481 2015,739 Z"/>
  </g>
  <g id="bullet-char-template-10007" transform="scale(0.00048828125,-0.00048828125)">
   <path d="M 0,-2 C -7,14 -16,27 -25,37 L 356,567 C 262,823 215,952 215,954 215,979 228,992 255,992 264,992 276,990 289,987 310,991 331,999 354,1012 L 381,999 492,748 772,1049 836,1024 860,1049 C 881,1039 901,1025 922,1006 886,937 835,863 770,784 769,783 710,716 594,584 L 774,223 C 774,196 753,168 711,139 L 727,119 C 717,90 699,76 672,76 641,76 570,178 457,381 L 164,-76 C 142,-110 111,-127 72,-127 30,-127 9,-110 8,-76 1,-67 -2,-52 -2,-32 -2,-23 -1,-13 0,-2 Z"/>
  </g>
  <g id="bullet-char-template-10004" transform="scale(0.00048828125,-0.00048828125)">
   <path d="M 285,-33 C 182,-33 111,30 74,156 52,228 41,333 41,471 41,549 55,616 82,672 116,743 169,778 240,778 293,778 328,747 346,684 L 369,508 C 377,444 397,411 428,410 L 1163,1116 C 1174,1127 1196,1133 1229,1133 1271,1133 1292,1118 1292,1087 L 1292,965 C 1292,929 1282,901 1262,881 L 442,47 C 390,-6 338,-33 285,-33 Z"/>
  </g>
  <g id="bullet-char-template-9679" transform="scale(0.00048828125,-0.00048828125)">
   <path d="M 813,0 C 632,0 489,54 383,161 276,268 223,411 223,592 223,773 276,916 383,1023 489,1130 632,1184 813,1184 992,1184 1136,1130 1245,1023 1353,916 1407,772 1407,592 1407,412 1353,268 1245,161 1136,54 992,0 813,0 Z"/>
  </g>
  <g id="bullet-char-template-8226" transform="scale(0.00048828125,-0.00048828125)">
   <path d="M 346,457 C 273,457 209,483 155,535 101,586 74,649 74,723 74,796 101,859 155,911 209,963 273,989 346,989 419,989 480,963 531,910 582,859 608,796 608,723 608,648 583,586 532,535 482,483 420,457 346,457 Z"/>
  </g>
  <g id="bullet-char-template-8211" transform="scale(0.00048828125,-0.00048828125)">
   <path d="M -4,459 L 1135,459 1135,606 -4,606 -4,459 Z"/>
  </g>
  <g id="bullet-char-template-61548" transform="scale(0.00048828125,-0.00048828125)">
   <path d="M 173,740 C 173,903 231,1043 346,1159 462,1274 601,1332 765,1332 928,1332 1067,1274 1183,1159 1299,1043 1357,903 1357,740 1357,577 1299,437 1183,322 1067,206 928,148 765,148 601,148 462,206 346,322 231,437 173,577 173,740 Z"/>
  </g>
 </defs>
 <g ooo:name="Date" class="Page">
  <g class="Group">
   <g class="com.sun.star.drawing.CustomShape">
    <g id="id3">
     <rect class="BoundingBox" stroke="none" fill="none" x="9240" y="4526" width="3317" height="3057"/>
     <g style="opacity: 0.188235294117647">
      <path fill="rgb(55,45,49)" stroke="none" d="M 11681,5430 L 11681,5432 11680,5430 11681,5430 Z M 10646,5203 C 10760,5203 10850,5356 10778,5489 10740,5514 10703,5541 10668,5572 10661,5574 10654,5574 10646,5576 L 10645,5576 C 10481,5576 10425,5320 10568,5227 10594,5210 10621,5203 10646,5203 L 10646,5203 Z M 12231,6736 C 12314,6754 12373,6843 12365,6942 12357,7040 12287,7115 12202,7115 L 12202,7117 C 12152,7117 12105,7089 12074,7043 12148,6957 12202,6852 12231,6736 L 12231,6736 Z M 11187,4738 C 11172,4738 11157,4748 11148,4764 11132,4792 11123,4826 11123,4860 11119,4891 11120,4923 11125,4956 L 11083,4928 C 11062,4911 11039,4897 11017,4886 11010,4882 11002,4880 10995,4880 10981,4880 10968,4887 10959,4899 10947,4916 10944,4939 10951,4961 10966,5010 11018,5024 11055,5044 11076,5057 11098,5069 11117,5084 11137,5095 11150,5116 11154,5140 11156,5156 11156,5173 11154,5190 L 11154,5244 11154,5343 C 11039,5363 10927,5404 10823,5463 10868,5309 10764,5169 10645,5169 10612,5169 10577,5181 10544,5205 10395,5320 10452,5591 10630,5610 10540,5698 10464,5806 10405,5926 L 10382,5915 10488,5723 C 10494,5709 10505,5693 10502,5676 10502,5670 10497,5664 10492,5662 10490,5662 10489,5662 10487,5662 10480,5662 10473,5665 10468,5672 10438,5695 10407,5720 10377,5744 10352,5766 10327,5788 10302,5809 10277,5754 10250,5698 10224,5642 10217,5630 10206,5615 10192,5615 10190,5615 10188,5615 10185,5616 10183,5617 10180,5621 10180,5625 10185,5707 10193,5789 10204,5870 10145,5884 10088,5904 10034,5930 10023,5935 10009,5941 10007,5958 10007,5974 10018,5980 10028,5981 L 10122,5981 10233,5983 10236,5983 C 10225,6059 10220,6136 10217,6214 10214,6229 10216,6246 10222,6262 10225,6268 10230,6271 10237,6271 10244,6271 10250,6266 10253,6259 10258,6253 10261,6245 10263,6236 10267,6226 10271,6217 10275,6208 10282,6189 10288,6170 10295,6152 10308,6113 10319,6073 10328,6031 10336,6034 10344,6037 10353,6040 10307,6158 10275,6282 10261,6411 L 9944,6229 C 9944,6229 9997,5906 9980,5839 9963,5776 9929,5774 9924,5774 9923,5774 9923,5774 9923,5774 9756,5848 9786,6262 9786,6262 9786,6262 9626,6121 9541,6116 9532,6116 9523,6115 9514,6115 9434,6115 9348,6144 9438,6304 9500,6411 9607,6469 9684,6500 9675,6519 9671,6542 9672,6564 9663,6560 9654,6559 9645,6559 9626,6559 9607,6566 9591,6579 9559,6612 9541,6662 9547,6713 9548,6741 9555,6768 9564,6795 9536,6796 9507,6806 9496,6841 9486,6875 9500,6914 9522,6939 9544,6965 9569,6987 9597,7004 9623,7019 9651,7033 9679,7043 9712,7052 9745,7058 9778,7058 9779,7058 9782,7058 9783,7057 9783,7058 9783,7060 9783,7061 9788,7081 9795,7100 9803,7120 9809,7137 9816,7159 9832,7167 9838,7169 9843,7170 9849,7170 9858,7170 9866,7167 9874,7162 9883,7156 9890,7145 9895,7132 9906,7143 9919,7148 9932,7148 9941,7148 9950,7145 9958,7140 9976,7129 9986,7111 9989,7089 9996,7095 10004,7097 10012,7097 10020,7097 10028,7095 10035,7089 10051,7075 10057,7052 10053,7030 L 10057,7030 C 10130,7112 10212,7182 10299,7238 10377,7286 10457,7325 10540,7352 10543,7354 10546,7356 10550,7356 10667,7393 10789,7414 10911,7419 10946,7420 10981,7420 11014,7420 11048,7420 11080,7420 11112,7419 11114,7422 11117,7423 11120,7423 11123,7423 11125,7423 11126,7421 L 11130,7418 C 11239,7414 11346,7400 11453,7379 11574,7356 11693,7314 11806,7255 11896,7208 11979,7145 12053,7067 12092,7124 12148,7151 12203,7151 12268,7151 12333,7114 12370,7041 12438,6905 12371,6730 12238,6700 L 12238,6700 C 12241,6684 12242,6666 12242,6649 12239,6514 12172,6477 12172,6477 12172,6477 12134,5940 11864,5600 11862,5591 11859,5583 11856,5576 L 11834,5515 11787,5387 11975,5332 C 11988,5328 12006,5325 12014,5311 12016,5304 12016,5297 12014,5292 12010,5281 11999,5280 11991,5278 11955,5270 11918,5264 11883,5260 11851,5255 11821,5250 11789,5247 11804,5185 11817,5123 11830,5061 11833,5044 11834,5019 11818,5012 11817,5011 11815,5011 11814,5011 11812,5011 11810,5011 11809,5013 11765,5077 11723,5143 11682,5212 11632,5174 11579,5142 11524,5117 11518,5114 11510,5111 11503,5111 11498,5111 11493,5113 11489,5117 11482,5128 11482,5142 11489,5151 11495,5157 11499,5164 11504,5168 L 11523,5190 11558,5229 11637,5317 C 11637,5318 11639,5318 11639,5318 11618,5339 11598,5357 11578,5379 11496,5345 11409,5328 11322,5328 11322,5322 11322,5315 11321,5309 L 11318,5250 11313,5134 C 11310,5117 11311,5100 11314,5083 11319,5072 11328,5063 11338,5058 11363,5044 11385,5026 11406,5005 11427,4985 11441,4957 11445,4927 11447,4897 11431,4871 11408,4865 11402,4864 11396,4863 11391,4863 11370,4863 11350,4870 11334,4883 11307,4900 11284,4919 11258,4936 11257,4906 11253,4875 11248,4846 11244,4827 11240,4807 11235,4790 11231,4775 11224,4762 11215,4751 11206,4742 11196,4738 11187,4738 L 11187,4738 Z "/>
      <path fill="none" stroke="rgb(55,45,49)" stroke-width="318" stroke-linejoin="round" d="M 11681,5430 L 11681,5432 11680,5430 11681,5430 Z "/>
      <path fill="none" stroke="rgb(55,45,49)" stroke-width="318" stroke-linejoin="round" d="M 10646,5203 C 10760,5203 10850,5356 10778,5489 10740,5514 10703,5541 10668,5572 10661,5574 10654,5574 10646,5576 L 10645,5576 C 10481,5576 10425,5320 10568,5227 10594,5210 10621,5203 10646,5203 Z "/>
      <path fill="none" stroke="rgb(55,45,49)" stroke-width="318" stroke-linejoin="round" d="M 12231,6736 C 12314,6754 12373,6843 12365,6942 12357,7040 12287,7115 12202,7115 L 12202,7117 C 12152,7117 12105,7089 12074,7043 12148,6957 12202,6852 12231,6736 Z "/>
      <path fill="none" stroke="rgb(55,45,49)" stroke-width="318" stroke-linejoin="round" d="M 11187,4738 C 11172,4738 11157,4748 11148,4764 11132,4792 11123,4826 11123,4860 11119,4891 11120,4923 11125,4956 L 11083,4928 C 11062,4911 11039,4897 11017,4886 11010,4882 11002,4880 10995,4880 10981,4880 10968,4887 10959,4899 10947,4916 10944,4939 10951,4961 10966,5010 11018,5024 11055,5044 11076,5057 11098,5069 11117,5084 11137,5095 11150,5116 11154,5140 11156,5156 11156,5173 11154,5190 L 11154,5244 11154,5343 C 11039,5363 10927,5404 10823,5463 10868,5309 10764,5169 10645,5169 10612,5169 10577,5181 10544,5205 10395,5320 10452,5591 10630,5610 10540,5698 10464,5806 10405,5926 L 10382,5915 10488,5723 C 10494,5709 10505,5693 10502,5676 10502,5670 10497,5664 10492,5662 L 10487,5662 C 10480,5662 10473,5665 10468,5672 10438,5695 10407,5720 10377,5744 10352,5766 10327,5788 10302,5809 10277,5754 10250,5698 10224,5642 10217,5630 10206,5615 10192,5615 10190,5615 10188,5615 10185,5616 10183,5617 10180,5621 10180,5625 10185,5707 10193,5789 10204,5870 10145,5884 10088,5904 10034,5930 10023,5935 10009,5941 10007,5958 10007,5974 10018,5980 10028,5981 L 10122,5981 10233,5983 10236,5983 C 10225,6059 10220,6136 10217,6214 10214,6229 10216,6246 10222,6262 10225,6268 10230,6271 10237,6271 10244,6271 10250,6266 10253,6259 10258,6253 10261,6245 10263,6236 10267,6226 10271,6217 10275,6208 10282,6189 10288,6170 10295,6152 10308,6113 10319,6073 10328,6031 10336,6034 10344,6037 10353,6040 10307,6158 10275,6282 10261,6411 L 9944,6229 C 9944,6229 9997,5906 9980,5839 9963,5776 9929,5774 9924,5774 L 9923,5774 C 9756,5848 9786,6262 9786,6262 9786,6262 9626,6121 9541,6116 9532,6116 9523,6115 9514,6115 9434,6115 9348,6144 9438,6304 9500,6411 9607,6469 9684,6500 9675,6519 9671,6542 9672,6564 9663,6560 9654,6559 9645,6559 9626,6559 9607,6566 9591,6579 9559,6612 9541,6662 9547,6713 9548,6741 9555,6768 9564,6795 9536,6796 9507,6806 9496,6841 9486,6875 9500,6914 9522,6939 9544,6965 9569,6987 9597,7004 9623,7019 9651,7033 9679,7043 9712,7052 9745,7058 9778,7058 9779,7058 9782,7058 9783,7057 L 9783,7061 C 9788,7081 9795,7100 9803,7120 9809,7137 9816,7159 9832,7167 9838,7169 9843,7170 9849,7170 9858,7170 9866,7167 9874,7162 9883,7156 9890,7145 9895,7132 9906,7143 9919,7148 9932,7148 9941,7148 9950,7145 9958,7140 9976,7129 9986,7111 9989,7089 9996,7095 10004,7097 10012,7097 10020,7097 10028,7095 10035,7089 10051,7075 10057,7052 10053,7030 L 10057,7030 C 10130,7112 10212,7182 10299,7238 10377,7286 10457,7325 10540,7352 10543,7354 10546,7356 10550,7356 10667,7393 10789,7414 10911,7419 10946,7420 10981,7420 11014,7420 11048,7420 11080,7420 11112,7419 11114,7422 11117,7423 11120,7423 11123,7423 11125,7423 11126,7421 L 11130,7418 C 11239,7414 11346,7400 11453,7379 11574,7356 11693,7314 11806,7255 11896,7208 11979,7145 12053,7067 12092,7124 12148,7151 12203,7151 12268,7151 12333,7114 12370,7041 12438,6905 12371,6730 12238,6700 L 12238,6700 C 12241,6684 12242,6666 12242,6649 12239,6514 12172,6477 12172,6477 12172,6477 12134,5940 11864,5600 11862,5591 11859,5583 11856,5576 L 11834,5515 11787,5387 11975,5332 C 11988,5328 12006,5325 12014,5311 12016,5304 12016,5297 12014,5292 12010,5281 11999,5280 11991,5278 11955,5270 11918,5264 11883,5260 11851,5255 11821,5250 11789,5247 11804,5185 11817,5123 11830,5061 11833,5044 11834,5019 11818,5012 11817,5011 11815,5011 11814,5011 11812,5011 11810,5011 11809,5013 11765,5077 11723,5143 11682,5212 11632,5174 11579,5142 11524,5117 11518,5114 11510,5111 11503,5111 11498,5111 11493,5113 11489,5117 11482,5128 11482,5142 11489,5151 11495,5157 11499,5164 11504,5168 L 11523,5190 11558,5229 11637,5317 C 11637,5318 11639,5318 11639,5318 11618,5339 11598,5357 11578,5379 11496,5345 11409,5328 11322,5328 11322,5322 11322,5315 11321,5309 L 11318,5250 11313,5134 C 11310,5117 11311,5100 11314,5083 11319,5072 11328,5063 11338,5058 11363,5044 11385,5026 11406,5005 11427,4985 11441,4957 11445,4927 11447,4897 11431,4871 11408,4865 11402,4864 11396,4863 11391,4863 11370,4863 11350,4870 11334,4883 11307,4900 11284,4919 11258,4936 11257,4906 11253,4875 11248,4846 11244,4827 11240,4807 11235,4790 11231,4775 11224,4762 11215,4751 11206,4742 11196,4738 11187,4738 Z "/>
     </g>
     <path fill="rgb(255,255,255)" stroke="none" d="M 11681,5377 L 11681,5379 11680,5377 11681,5377 Z M 10646,5150 C 10760,5150 10850,5303 10778,5436 10740,5461 10703,5488 10668,5519 10661,5521 10654,5521 10646,5523 L 10645,5523 C 10481,5523 10425,5267 10568,5174 10594,5157 10621,5150 10646,5150 L 10646,5150 Z M 12231,6683 C 12314,6701 12373,6790 12365,6889 12357,6987 12287,7062 12202,7062 L 12202,7064 C 12152,7064 12105,7036 12074,6990 12148,6904 12202,6799 12231,6683 L 12231,6683 Z M 11187,4685 C 11172,4685 11157,4695 11148,4711 11132,4739 11123,4773 11123,4807 11119,4838 11120,4870 11125,4903 L 11083,4875 C 11062,4858 11039,4844 11017,4833 11010,4829 11002,4827 10995,4827 10981,4827 10968,4834 10959,4846 10947,4863 10944,4886 10951,4908 10966,4957 11018,4971 11055,4991 11076,5004 11098,5016 11117,5031 11137,5042 11150,5063 11154,5087 11156,5103 11156,5120 11154,5137 L 11154,5191 11154,5290 C 11039,5310 10927,5351 10823,5410 10868,5256 10764,5116 10645,5116 10612,5116 10577,5128 10544,5152 10395,5267 10452,5538 10630,5557 10540,5645 10464,5753 10405,5873 L 10382,5862 10488,5670 C 10494,5656 10505,5640 10502,5623 10502,5617 10497,5611 10492,5609 10490,5609 10489,5609 10487,5609 10480,5609 10473,5612 10468,5619 10438,5642 10407,5667 10377,5691 10352,5713 10327,5735 10302,5756 10277,5701 10250,5645 10224,5589 10217,5577 10206,5562 10192,5562 10190,5562 10188,5562 10185,5563 10183,5564 10180,5568 10180,5572 10185,5654 10193,5736 10204,5817 10145,5831 10088,5851 10034,5877 10023,5882 10009,5888 10007,5905 10007,5921 10018,5927 10028,5928 L 10122,5928 10233,5930 10236,5930 C 10225,6006 10220,6083 10217,6161 10214,6176 10216,6193 10222,6209 10225,6215 10230,6218 10237,6218 10244,6218 10250,6213 10253,6206 10258,6200 10261,6192 10263,6183 10267,6173 10271,6164 10275,6155 10282,6136 10288,6117 10295,6099 10308,6060 10319,6020 10328,5978 10336,5981 10344,5984 10353,5987 10307,6105 10275,6229 10261,6358 L 9944,6176 C 9944,6176 9997,5853 9980,5786 9963,5723 9929,5721 9924,5721 9923,5721 9923,5721 9923,5721 9756,5795 9786,6209 9786,6209 9786,6209 9626,6068 9541,6063 9532,6063 9523,6062 9514,6062 9434,6062 9348,6091 9438,6251 9500,6358 9607,6416 9684,6447 9675,6466 9671,6489 9672,6511 9663,6507 9654,6506 9645,6506 9626,6506 9607,6513 9591,6526 9559,6559 9541,6609 9547,6660 9548,6688 9555,6715 9564,6742 9536,6743 9507,6753 9496,6788 9486,6822 9500,6861 9522,6886 9544,6912 9569,6934 9597,6951 9623,6966 9651,6980 9679,6990 9712,6999 9745,7005 9778,7005 9779,7005 9782,7005 9783,7004 9783,7005 9783,7007 9783,7008 9788,7028 9795,7047 9803,7067 9809,7084 9816,7106 9832,7114 9838,7116 9843,7117 9849,7117 9858,7117 9866,7114 9874,7109 9883,7103 9890,7092 9895,7079 9906,7090 9919,7095 9932,7095 9941,7095 9950,7092 9958,7087 9976,7076 9986,7058 9989,7036 9996,7042 10004,7044 10012,7044 10020,7044 10028,7042 10035,7036 10051,7022 10057,6999 10053,6977 L 10057,6977 C 10130,7059 10212,7129 10299,7185 10377,7233 10457,7272 10540,7299 10543,7301 10546,7303 10550,7303 10667,7340 10789,7361 10911,7366 10946,7367 10981,7367 11014,7367 11048,7367 11080,7367 11112,7366 11114,7369 11117,7370 11120,7370 11123,7370 11125,7370 11126,7368 L 11130,7365 C 11239,7361 11346,7347 11453,7326 11574,7303 11693,7261 11806,7202 11896,7155 11979,7092 12053,7014 12092,7071 12148,7098 12203,7098 12268,7098 12333,7061 12370,6988 12438,6852 12371,6677 12238,6647 L 12238,6647 C 12241,6631 12242,6613 12242,6596 12239,6461 12172,6424 12172,6424 12172,6424 12134,5887 11864,5547 11862,5538 11859,5530 11856,5523 L 11834,5462 11787,5334 11975,5279 C 11988,5275 12006,5272 12014,5258 12016,5251 12016,5244 12014,5239 12010,5228 11999,5227 11991,5225 11955,5217 11918,5211 11883,5207 11851,5202 11821,5197 11789,5194 11804,5132 11817,5070 11830,5008 11833,4991 11834,4966 11818,4959 11817,4958 11815,4958 11814,4958 11812,4958 11810,4958 11809,4960 11765,5024 11723,5090 11682,5159 11632,5121 11579,5089 11524,5064 11518,5061 11510,5058 11503,5058 11498,5058 11493,5060 11489,5064 11482,5075 11482,5089 11489,5098 11495,5104 11499,5111 11504,5115 L 11523,5137 11558,5176 11637,5264 C 11637,5265 11639,5265 11639,5265 11618,5286 11598,5304 11578,5326 11496,5292 11409,5275 11322,5275 11322,5269 11322,5262 11321,5256 L 11318,5197 11313,5081 C 11310,5064 11311,5047 11314,5030 11319,5019 11328,5010 11338,5005 11363,4991 11385,4973 11406,4952 11427,4932 11441,4904 11445,4874 11447,4844 11431,4818 11408,4812 11402,4811 11396,4810 11391,4810 11370,4810 11350,4817 11334,4830 11307,4847 11284,4866 11258,4883 11257,4853 11253,4822 11248,4793 11244,4774 11240,4754 11235,4737 11231,4722 11224,4709 11215,4698 11206,4689 11196,4685 11187,4685 L 11187,4685 Z "/>
     <path fill="none" stroke="rgb(255,255,255)" stroke-width="318" stroke-linejoin="round" d="M 11681,5377 L 11681,5379 11680,5377 11681,5377 Z "/>
     <path fill="none" stroke="rgb(255,255,255)" stroke-width="318" stroke-linejoin="round" d="M 10646,5150 C 10760,5150 10850,5303 10778,5436 10740,5461 10703,5488 10668,5519 10661,5521 10654,5521 10646,5523 L 10645,5523 C 10481,5523 10425,5267 10568,5174 10594,5157 10621,5150 10646,5150 Z "/>
     <path fill="none" stroke="rgb(255,255,255)" stroke-width="318" stroke-linejoin="round" d="M 12231,6683 C 12314,6701 12373,6790 12365,6889 12357,6987 12287,7062 12202,7062 L 12202,7064 C 12152,7064 12105,7036 12074,6990 12148,6904 12202,6799 12231,6683 Z "/>
     <path fill="none" stroke="rgb(255,255,255)" stroke-width="318" stroke-linejoin="round" d="M 11187,4685 C 11172,4685 11157,4695 11148,4711 11132,4739 11123,4773 11123,4807 11119,4838 11120,4870 11125,4903 L 11083,4875 C 11062,4858 11039,4844 11017,4833 11010,4829 11002,4827 10995,4827 10981,4827 10968,4834 10959,4846 10947,4863 10944,4886 10951,4908 10966,4957 11018,4971 11055,4991 11076,5004 11098,5016 11117,5031 11137,5042 11150,5063 11154,5087 11156,5103 11156,5120 11154,5137 L 11154,5191 11154,5290 C 11039,5310 10927,5351 10823,5410 10868,5256 10764,5116 10645,5116 10612,5116 10577,5128 10544,5152 10395,5267 10452,5538 10630,5557 10540,5645 10464,5753 10405,5873 L 10382,5862 10488,5670 C 10494,5656 10505,5640 10502,5623 10502,5617 10497,5611 10492,5609 L 10487,5609 C 10480,5609 10473,5612 10468,5619 10438,5642 10407,5667 10377,5691 10352,5713 10327,5735 10302,5756 10277,5701 10250,5645 10224,5589 10217,5577 10206,5562 10192,5562 10190,5562 10188,5562 10185,5563 10183,5564 10180,5568 10180,5572 10185,5654 10193,5736 10204,5817 10145,5831 10088,5851 10034,5877 10023,5882 10009,5888 10007,5905 10007,5921 10018,5927 10028,5928 L 10122,5928 10233,5930 10236,5930 C 10225,6006 10220,6083 10217,6161 10214,6176 10216,6193 10222,6209 10225,6215 10230,6218 10237,6218 10244,6218 10250,6213 10253,6206 10258,6200 10261,6192 10263,6183 10267,6173 10271,6164 10275,6155 10282,6136 10288,6117 10295,6099 10308,6060 10319,6020 10328,5978 10336,5981 10344,5984 10353,5987 10307,6105 10275,6229 10261,6358 L 9944,6176 C 9944,6176 9997,5853 9980,5786 9963,5723 9929,5721 9924,5721 L 9923,5721 C 9756,5795 9786,6209 9786,6209 9786,6209 9626,6068 9541,6063 9532,6063 9523,6062 9514,6062 9434,6062 9348,6091 9438,6251 9500,6358 9607,6416 9684,6447 9675,6466 9671,6489 9672,6511 9663,6507 9654,6506 9645,6506 9626,6506 9607,6513 9591,6526 9559,6559 9541,6609 9547,6660 9548,6688 9555,6715 9564,6742 9536,6743 9507,6753 9496,6788 9486,6822 9500,6861 9522,6886 9544,6912 9569,6934 9597,6951 9623,6966 9651,6980 9679,6990 9712,6999 9745,7005 9778,7005 9779,7005 9782,7005 9783,7004 L 9783,7008 C 9788,7028 9795,7047 9803,7067 9809,7084 9816,7106 9832,7114 9838,7116 9843,7117 9849,7117 9858,7117 9866,7114 9874,7109 9883,7103 9890,7092 9895,7079 9906,7090 9919,7095 9932,7095 9941,7095 9950,7092 9958,7087 9976,7076 9986,7058 9989,7036 9996,7042 10004,7044 10012,7044 10020,7044 10028,7042 10035,7036 10051,7022 10057,6999 10053,6977 L 10057,6977 C 10130,7059 10212,7129 10299,7185 10377,7233 10457,7272 10540,7299 10543,7301 10546,7303 10550,7303 10667,7340 10789,7361 10911,7366 10946,7367 10981,7367 11014,7367 11048,7367 11080,7367 11112,7366 11114,7369 11117,7370 11120,7370 11123,7370 11125,7370 11126,7368 L 11130,7365 C 11239,7361 11346,7347 11453,7326 11574,7303 11693,7261 11806,7202 11896,7155 11979,7092 12053,7014 12092,7071 12148,7098 12203,7098 12268,7098 12333,7061 12370,6988 12438,6852 12371,6677 12238,6647 L 12238,6647 C 12241,6631 12242,6613 12242,6596 12239,6461 12172,6424 12172,6424 12172,6424 12134,5887 11864,5547 11862,5538 11859,5530 11856,5523 L 11834,5462 11787,5334 11975,5279 C 11988,5275 12006,5272 12014,5258 12016,5251 12016,5244 12014,5239 12010,5228 11999,5227 11991,5225 11955,5217 11918,5211 11883,5207 11851,5202 11821,5197 11789,5194 11804,5132 11817,5070 11830,5008 11833,4991 11834,4966 11818,4959 11817,4958 11815,4958 11814,4958 11812,4958 11810,4958 11809,4960 11765,5024 11723,5090 11682,5159 11632,5121 11579,5089 11524,5064 11518,5061 11510,5058 11503,5058 11498,5058 11493,5060 11489,5064 11482,5075 11482,5089 11489,5098 11495,5104 11499,5111 11504,5115 L 11523,5137 11558,5176 11637,5264 C 11637,5265 11639,5265 11639,5265 11618,5286 11598,5304 11578,5326 11496,5292 11409,5275 11322,5275 11322,5269 11322,5262 11321,5256 L 11318,5197 11313,5081 C 11310,5064 11311,5047 11314,5030 11319,5019 11328,5010 11338,5005 11363,4991 11385,4973 11406,4952 11427,4932 11441,4904 11445,4874 11447,4844 11431,4818 11408,4812 11402,4811 11396,4810 11391,4810 11370,4810 11350,4817 11334,4830 11307,4847 11284,4866 11258,4883 11257,4853 11253,4822 11248,4793 11244,4774 11240,4754 11235,4737 11231,4722 11224,4709 11215,4698 11206,4689 11196,4685 11187,4685 Z "/>
    </g>
   </g>
   <g class="Group">
    <g class="com.sun.star.drawing.CustomShape">
     <g id="id4">
      <rect class="BoundingBox" stroke="none" fill="none" x="12030" y="6644" width="389" height="458"/>
      <path fill="rgb(55,45,49)" stroke="none" d="M 12224,6680 C 12314,6680 12388,6766 12388,6873 12388,6988 12307,7064 12223,7064 12183,7064 12142,7047 12109,7007 12006,6887 12079,6680 12224,6680 L 12224,6680 Z M 12223,6645 C 12175,6645 12127,6665 12087,6711 11966,6855 12051,7101 12224,7101 12331,7101 12418,6998 12418,6873 12418,6735 12323,6645 12223,6645 L 12223,6645 Z "/>
     </g>
    </g>
    <g class="com.sun.star.drawing.CustomShape">
     <g id="id5">
      <rect class="BoundingBox" stroke="none" fill="none" x="12253" y="6733" width="87" height="112"/>
      <path fill="rgb(55,45,49)" stroke="none" d="M 12300,6733 C 12298,6733 12297,6733 12295,6735 12293,6734 12291,6734 12289,6734 12270,6734 12254,6751 12254,6773 12254,6777 12254,6780 12254,6781 12251,6804 12261,6827 12280,6838 12285,6842 12291,6844 12298,6844 12310,6844 12323,6836 12331,6823 12342,6801 12342,6775 12328,6756 12322,6747 12315,6739 12306,6735 12304,6733 12302,6733 12300,6733 L 12300,6733 Z "/>
     </g>
    </g>
    <g class="com.sun.star.drawing.CustomShape">
     <g id="id6">
      <rect class="BoundingBox" stroke="none" fill="none" x="11486" y="4958" width="553" height="637"/>
      <path fill="rgb(250,231,127)" stroke="none" d="M 11834,4959 C 11833,4959 11831,4959 11830,4961 11785,5025 11743,5091 11703,5159 11652,5122 11599,5090 11544,5065 11537,5062 11530,5059 11523,5059 11518,5059 11514,5060 11509,5065 11501,5076 11503,5090 11511,5099 11515,5105 11520,5111 11525,5116 L 11544,5138 11578,5176 11657,5265 C 11658,5266 11658,5266 11660,5266 11607,5314 11558,5366 11511,5420 11501,5431 11488,5443 11487,5458 11486,5466 11487,5472 11492,5479 11496,5482 11501,5484 11506,5484 11508,5484 11510,5484 11512,5483 11519,5482 11525,5479 11533,5475 L 11557,5463 C 11573,5455 11589,5448 11604,5438 11636,5421 11669,5400 11699,5378 11731,5448 11772,5511 11821,5565 11830,5578 11841,5587 11854,5592 11857,5593 11859,5594 11862,5594 11872,5594 11882,5584 11884,5572 11887,5555 11884,5538 11876,5524 L 11854,5463 11808,5335 11997,5280 C 12010,5276 12026,5273 12035,5259 12038,5252 12038,5245 12035,5240 12030,5229 12020,5228 12011,5226 11975,5218 11940,5212 11903,5207 11872,5203 11841,5198 11810,5195 11824,5133 11838,5071 11850,5009 11854,4992 11855,4967 11838,4960 11837,4959 11836,4959 11834,4959 L 11834,4959 Z "/>
     </g>
    </g>
    <g class="com.sun.star.drawing.CustomShape">
     <g id="id7">
      <rect class="BoundingBox" stroke="none" fill="none" x="10480" y="5117" width="376" height="440"/>
      <path fill="rgb(55,45,49)" stroke="none" d="M 10667,5152 C 10754,5152 10825,5234 10825,5337 10825,5448 10748,5522 10667,5522 10628,5522 10588,5505 10556,5467 10457,5351 10527,5152 10667,5152 L 10667,5152 Z M 10666,5117 C 10620,5117 10573,5137 10535,5182 10418,5320 10501,5556 10667,5556 10771,5556 10854,5457 10854,5337 10854,5205 10762,5117 10666,5117 L 10666,5117 Z "/>
     </g>
    </g>
    <g class="com.sun.star.drawing.CustomShape">
     <g id="id8">
      <rect class="BoundingBox" stroke="none" fill="none" x="10696" y="5201" width="83" height="107"/>
      <path fill="rgb(55,45,49)" stroke="none" d="M 10742,5201 C 10740,5201 10738,5201 10736,5203 10734,5202 10732,5202 10730,5202 10712,5202 10697,5219 10697,5240 10697,5241 10697,5245 10697,5248 10694,5269 10703,5292 10721,5302 10727,5305 10732,5307 10738,5307 10750,5307 10763,5299 10770,5286 10780,5268 10780,5241 10769,5224 10762,5215 10755,5207 10748,5203 10746,5201 10744,5201 10742,5201 L 10742,5201 Z "/>
     </g>
    </g>
    <g class="com.sun.star.drawing.CustomShape">
     <g id="id9">
      <rect class="BoundingBox" stroke="none" fill="none" x="10320" y="6837" width="1508" height="532"/>
      <path fill="rgb(241,152,197)" stroke="none" d="M 11128,6837 C 11021,6837 10914,6859 10812,6904 10642,6982 10470,7066 10320,7185 10477,7284 10677,7356 10931,7366 10968,7368 11003,7368 11038,7368 11391,7368 11644,7299 11826,7204 11694,6969 11441,6864 11206,6841 11180,6838 11154,6837 11128,6837 L 11128,6837 Z "/>
     </g>
    </g>
    <g class="com.sun.star.drawing.CustomShape">
     <g id="id10">
      <rect class="BoundingBox" stroke="none" fill="none" x="9421" y="5274" width="2846" height="1929"/>
      <path fill="rgb(221,178,213)" stroke="none" d="M 11341,5274 C 11306,5274 11271,5276 11234,5281 10362,5392 10283,6357 10283,6357 L 9965,6176 C 9965,6176 10018,5852 10001,5786 9985,5723 9950,5720 9945,5720 9944,5720 9944,5721 9944,5721 9779,5795 9806,6209 9806,6209 9806,6209 9648,6068 9562,6063 9553,6062 9544,6062 9534,6062 9455,6062 9369,6091 9461,6250 9562,6428 9796,6475 9796,6475 9796,6475 9907,6924 10321,7184 10472,7065 10644,6982 10814,6904 10916,6859 11023,6836 11130,6836 11156,6836 11182,6838 11209,6841 11444,6864 11696,6969 11828,7202 12200,7003 12268,6684 12265,6596 12261,6461 12194,6424 12194,6424 12194,6424 12112,5274 11341,5274 L 11341,5274 Z "/>
     </g>
    </g>
    <g class="com.sun.star.drawing.CustomShape">
     <g id="id11">
      <rect class="BoundingBox" stroke="none" fill="none" x="10688" y="5588" width="163" height="166"/>
      <path fill="rgb(241,152,197)" stroke="none" d="M 10819,5588 C 10792,5588 10766,5612 10747,5633 10729,5645 10715,5662 10702,5682 10688,5701 10681,5732 10702,5747 10708,5752 10714,5753 10720,5753 10734,5753 10749,5742 10761,5733 10781,5721 10799,5706 10818,5690 10834,5673 10852,5653 10847,5627 L 10848,5627 C 10853,5611 10847,5596 10835,5591 10830,5589 10824,5588 10819,5588 L 10819,5588 Z "/>
     </g>
    </g>
    <g class="com.sun.star.drawing.CustomShape">
     <g id="id12">
      <rect class="BoundingBox" stroke="none" fill="none" x="10828" y="5691" width="79" height="66"/>
      <path fill="rgb(241,152,197)" stroke="none" d="M 10888,5691 C 10878,5691 10868,5695 10861,5702 L 10857,5702 C 10844,5706 10832,5719 10829,5736 10827,5747 10833,5756 10842,5756 10843,5756 10845,5756 10846,5756 10870,5756 10893,5740 10905,5713 10908,5703 10902,5691 10893,5691 10891,5691 10890,5691 10888,5691 L 10888,5691 Z "/>
     </g>
    </g>
    <g class="com.sun.star.drawing.CustomShape">
     <g id="id13">
      <rect class="BoundingBox" stroke="none" fill="none" x="10398" y="6127" width="95" height="159"/>
      <path fill="rgb(241,152,197)" stroke="none" d="M 10448,6127 C 10440,6127 10432,6130 10426,6137 10425,6137 10424,6137 10423,6137 10418,6137 10413,6141 10411,6147 10408,6154 10406,6164 10404,6171 10399,6188 10397,6207 10399,6226 10400,6244 10408,6261 10420,6272 10425,6280 10433,6285 10441,6285 10444,6285 10446,6284 10449,6283 10470,6275 10482,6244 10489,6221 10495,6195 10491,6167 10480,6145 10472,6133 10461,6127 10448,6127 L 10448,6127 Z "/>
     </g>
    </g>
    <g class="com.sun.star.drawing.CustomShape">
     <g id="id14">
      <rect class="BoundingBox" stroke="none" fill="none" x="10520" y="6094" width="54" height="66"/>
      <path fill="rgb(241,152,197)" stroke="none" d="M 10546,6094 C 10541,6094 10535,6097 10533,6103 10518,6114 10516,6136 10527,6150 10532,6156 10539,6159 10546,6159 10555,6159 10564,6153 10570,6142 10577,6122 10568,6099 10550,6094 10549,6094 10548,6094 10546,6094 L 10546,6094 Z "/>
     </g>
    </g>
    <g class="com.sun.star.drawing.CustomShape">
     <g id="id15">
      <rect class="BoundingBox" stroke="none" fill="none" x="11361" y="5365" width="99" height="96"/>
      <path fill="rgb(241,152,197)" stroke="none" d="M 11409,5365 C 11397,5365 11387,5369 11379,5379 11367,5385 11361,5399 11361,5415 11362,5433 11374,5450 11390,5457 11395,5459 11401,5460 11407,5460 11434,5460 11466,5439 11457,5402 11451,5379 11429,5365 11409,5365 L 11409,5365 Z "/>
     </g>
    </g>
    <g class="com.sun.star.drawing.CustomShape">
     <g id="id16">
      <rect class="BoundingBox" stroke="none" fill="none" x="11526" y="5486" width="1" height="3"/>
      <path fill="rgb(168,212,239)" stroke="none" d="M 11526,5488 L 11526,5486 11526,5486 11526,5488 11526,5488 11526,5488 Z "/>
     </g>
    </g>
    <g class="com.sun.star.drawing.CustomShape">
     <g id="id17">
      <rect class="BoundingBox" stroke="none" fill="none" x="11496" y="5454" width="58" height="66"/>
      <path fill="rgb(241,152,197)" stroke="none" d="M 11525,5454 C 11523,5454 11520,5454 11517,5455 11516,5455 11515,5454 11513,5454 11509,5454 11506,5456 11503,5460 11494,5474 11494,5494 11503,5509 11509,5515 11516,5519 11524,5519 11531,5519 11539,5515 11545,5509 11556,5494 11554,5472 11541,5460 11536,5456 11531,5454 11525,5454 L 11525,5454 Z "/>
     </g>
    </g>
    <g class="com.sun.star.drawing.CustomShape">
     <g id="id18">
      <rect class="BoundingBox" stroke="none" fill="none" x="10556" y="6829" width="597" height="475"/>
      <path fill="rgb(55,45,49)" stroke="none" d="M 11139,6829 C 11137,6829 11134,6829 11132,6831 10988,6954 10840,7070 10691,7180 10649,7213 10605,7244 10563,7275 10551,7282 10558,7303 10569,7303 10571,7303 10574,7303 10576,7301 10728,7192 10877,7078 11022,6960 11065,6926 11106,6892 11146,6857 11158,6848 11150,6829 11139,6829 L 11139,6829 Z "/>
     </g>
    </g>
    <g class="com.sun.star.drawing.CustomShape">
     <g id="id19">
      <rect class="BoundingBox" stroke="none" fill="none" x="10811" y="6872" width="563" height="478"/>
      <path fill="rgb(55,45,49)" stroke="none" d="M 11358,6873 C 11356,6873 11354,6873 11352,6874 11215,6992 11076,7108 10936,7222 L 10817,7320 C 10806,7329 10813,7349 10824,7349 10826,7349 10828,7349 10831,7346 10971,7232 11110,7117 11249,7001 L 11367,6902 C 11372,6897 11374,6888 11370,6880 11368,6875 11363,6873 11358,6873 L 11358,6873 Z "/>
     </g>
    </g>
    <g class="com.sun.star.drawing.CustomShape">
     <g id="id20">
      <rect class="BoundingBox" stroke="none" fill="none" x="11129" y="6965" width="444" height="408"/>
      <path fill="rgb(55,45,49)" stroke="none" d="M 11557,6965 C 11553,6965 11550,6966 11547,6969 11446,7073 11340,7172 11231,7265 11199,7291 11167,7317 11134,7342 11124,7351 11131,7372 11142,7372 11144,7372 11146,7371 11149,7368 11262,7279 11372,7181 11479,7079 11508,7049 11537,7020 11567,6989 11577,6981 11567,6965 11557,6965 L 11557,6965 Z "/>
     </g>
    </g>
    <g class="com.sun.star.drawing.CustomShape">
     <g id="id21">
      <rect class="BoundingBox" stroke="none" fill="none" x="11461" y="7074" width="241" height="257"/>
      <path fill="rgb(55,45,49)" stroke="none" d="M 11687,7074 C 11684,7074 11681,7075 11679,7079 11614,7161 11543,7234 11466,7299 11456,7308 11463,7329 11473,7329 11475,7329 11477,7328 11480,7325 11559,7260 11631,7184 11697,7100 11706,7090 11697,7074 11687,7074 L 11687,7074 Z "/>
     </g>
    </g>
    <g class="com.sun.star.drawing.CustomShape">
     <g id="id22">
      <rect class="BoundingBox" stroke="none" fill="none" x="10314" y="6593" width="343" height="448"/>
      <path fill="rgb(55,45,49)" stroke="none" d="M 10433,6594 C 10430,6594 10426,6595 10423,6600 10395,6657 10372,6716 10353,6778 10344,6809 10336,6841 10328,6874 10325,6889 10323,6905 10320,6921 10316,6938 10315,6953 10314,6970 10314,7000 10331,7026 10354,7035 10364,7038 10373,7040 10382,7040 10398,7040 10414,7035 10428,7028 10452,7014 10473,6996 10492,6976 10512,6955 10531,6933 10550,6910 10591,6858 10626,6801 10654,6739 10660,6726 10651,6715 10642,6715 10638,6715 10634,6718 10632,6724 10609,6773 10581,6820 10548,6863 10533,6885 10517,6905 10500,6925 10482,6944 10465,6962 10446,6979 10427,6996 10406,7006 10384,7009 10362,7009 10341,7000 10340,6972 10340,6958 10343,6942 10345,6928 10348,6914 10350,6899 10353,6885 10360,6855 10366,6827 10374,6800 10393,6736 10417,6674 10446,6617 10450,6603 10442,6594 10433,6594 L 10433,6594 Z "/>
     </g>
    </g>
    <g class="com.sun.star.drawing.CustomShape">
     <g id="id23">
      <rect class="BoundingBox" stroke="none" fill="none" x="10967" y="4686" width="501" height="653"/>
      <path fill="rgb(143,221,239)" stroke="none" d="M 11208,4686 C 11193,4686 11178,4696 11168,4712 11152,4740 11144,4774 11143,4808 11140,4839 11141,4871 11147,4904 L 11103,4876 C 11082,4859 11061,4845 11037,4834 11030,4830 11023,4828 11015,4828 11002,4828 10989,4835 10979,4847 10968,4864 10965,4887 10971,4909 10987,4958 11040,4972 11075,4992 11098,5005 11118,5017 11139,5033 11157,5044 11172,5064 11176,5088 11177,5104 11177,5121 11176,5138 L 11176,5192 11176,5301 C 11176,5309 11182,5315 11189,5315 11191,5315 11193,5315 11195,5313 11219,5326 11244,5333 11271,5336 11278,5337 11287,5338 11296,5338 11316,5338 11336,5333 11342,5308 11344,5291 11344,5274 11342,5259 L 11339,5198 11334,5082 C 11331,5065 11331,5048 11335,5031 11340,5020 11348,5011 11359,5006 11383,4992 11406,4975 11428,4954 11447,4935 11462,4906 11466,4875 11468,4845 11453,4819 11428,4813 11422,4812 11417,4811 11411,4811 11391,4811 11371,4818 11354,4831 11329,4848 11304,4867 11279,4884 11277,4854 11273,4823 11268,4794 11265,4775 11261,4755 11255,4738 11252,4723 11246,4710 11236,4699 11228,4690 11218,4686 11208,4686 L 11208,4686 Z "/>
     </g>
    </g>
    <g class="com.sun.star.drawing.CustomShape">
     <g id="id24">
      <rect class="BoundingBox" stroke="none" fill="none" x="11138" y="6693" width="230" height="100"/>
      <path fill="rgb(241,152,197)" stroke="none" d="M 11170,6740 C 11172,6747 11175,6751 11179,6756 L 11175,6754 C 11171,6753 11166,6751 11166,6747 11166,6744 11168,6742 11170,6740 L 11170,6740 Z M 11262,6693 C 11254,6693 11246,6693 11238,6694 11228,6696 11219,6697 11208,6700 L 11196,6702 C 11172,6705 11136,6714 11139,6751 11143,6785 11180,6790 11204,6790 11219,6792 11233,6792 11248,6792 11262,6792 11277,6792 11291,6790 11306,6789 11320,6785 11333,6782 11345,6778 11360,6773 11364,6759 11376,6727 11336,6709 11316,6702 11299,6695 11281,6693 11262,6693 L 11262,6693 Z "/>
     </g>
    </g>
    <g class="com.sun.star.drawing.CustomShape">
     <g id="id25">
      <rect class="BoundingBox" stroke="none" fill="none" x="11846" y="6612" width="230" height="101"/>
      <path fill="rgb(241,152,197)" stroke="none" d="M 11879,6660 C 11880,6666 11883,6670 11887,6675 L 11883,6673 C 11880,6672 11874,6670 11874,6666 11874,6663 11876,6661 11879,6660 L 11879,6660 Z M 11970,6612 C 11962,6612 11954,6612 11946,6613 11936,6615 11927,6616 11917,6619 L 11904,6621 C 11880,6625 11844,6633 11847,6670 11851,6704 11890,6709 11912,6709 11927,6711 11941,6712 11956,6712 11970,6712 11985,6711 12000,6709 12014,6708 12028,6706 12041,6701 12053,6698 12068,6694 12073,6678 12084,6646 12044,6629 12024,6621 12007,6614 11989,6612 11970,6612 L 11970,6612 Z "/>
     </g>
    </g>
    <g class="com.sun.star.drawing.CustomShape">
     <g id="id26">
      <rect class="BoundingBox" stroke="none" fill="none" x="11666" y="6014" width="443" height="587"/>
      <path fill="rgb(255,255,255)" stroke="none" d="M 11869,6014 L 11869,6014 C 11882,6093 11876,6176 11849,6251 11814,6351 11750,6446 11666,6494 11714,6562 11784,6599 11856,6599 11886,6599 11917,6592 11947,6578 12045,6531 12117,6415 12107,6288 12096,6161 12021,6055 11915,6023 L 11910,6023 C 11897,6018 11884,6015 11869,6014 L 11869,6014 Z "/>
     </g>
    </g>
    <g class="com.sun.star.drawing.CustomShape">
     <g id="id27">
      <rect class="BoundingBox" stroke="none" fill="none" x="11603" y="6011" width="274" height="483"/>
      <path fill="rgb(55,45,49)" stroke="none" d="M 11840,6011 C 11836,6011 11833,6011 11829,6011 11772,6016 11718,6044 11678,6090 11638,6137 11612,6197 11605,6262 11598,6346 11620,6430 11666,6493 11749,6445 11813,6351 11848,6250 11875,6176 11882,6092 11868,6013 11859,6012 11850,6011 11840,6011 L 11840,6011 Z "/>
     </g>
    </g>
    <g class="com.sun.star.drawing.CustomShape">
     <g id="id28">
      <rect class="BoundingBox" stroke="none" fill="none" x="11025" y="6066" width="443" height="585"/>
      <path fill="rgb(255,255,255)" stroke="none" d="M 11228,6066 L 11228,6066 C 11241,6146 11234,6228 11208,6303 11172,6405 11109,6499 11025,6546 11073,6614 11143,6650 11215,6650 11246,6650 11276,6644 11305,6631 11403,6583 11476,6467 11465,6340 11454,6214 11378,6107 11274,6075 L 11268,6075 C 11255,6070 11241,6067 11228,6066 L 11228,6066 Z "/>
     </g>
    </g>
    <g class="com.sun.star.drawing.CustomShape">
     <g id="id29">
      <rect class="BoundingBox" stroke="none" fill="none" x="10961" y="6064" width="274" height="484"/>
      <path fill="rgb(55,45,49)" stroke="none" d="M 11188,6064 C 11131,6068 11077,6096 11037,6143 10996,6189 10971,6249 10963,6315 10956,6398 10978,6482 11025,6546 11109,6497 11172,6404 11208,6302 11233,6228 11240,6144 11227,6065 11214,6064 11201,6064 11188,6064 L 11188,6064 Z "/>
     </g>
    </g>
    <g class="com.sun.star.drawing.CustomShape">
     <g id="id30">
      <rect class="BoundingBox" stroke="none" fill="none" x="11486" y="6583" width="146" height="161"/>
      <path fill="rgb(55,45,49)" stroke="none" d="M 11617,6583 C 11610,6583 11604,6588 11604,6598 11604,6621 11602,6644 11599,6667 11596,6678 11592,6711 11579,6711 11579,6711 11578,6711 11577,6711 11570,6708 11563,6703 11558,6695 11551,6686 11546,6678 11541,6669 11529,6650 11520,6632 11510,6612 11508,6606 11504,6603 11500,6603 11491,6603 11483,6614 11488,6627 11498,6652 11512,6677 11526,6698 11539,6719 11558,6743 11581,6743 11605,6742 11614,6712 11621,6689 11627,6660 11631,6629 11630,6598 11630,6588 11624,6583 11617,6583 L 11617,6583 Z "/>
     </g>
    </g>
    <g class="com.sun.star.drawing.CustomShape">
     <g id="id31">
      <rect class="BoundingBox" stroke="none" fill="none" x="9514" y="6393" width="626" height="726"/>
      <path fill="rgb(205,234,157)" stroke="none" d="M 9791,6393 C 9758,6393 9725,6412 9706,6447 9696,6467 9692,6489 9694,6512 9685,6509 9675,6507 9666,6507 9647,6507 9628,6514 9612,6528 9579,6560 9562,6610 9567,6660 9570,6689 9576,6717 9585,6743 9558,6745 9527,6754 9517,6788 9508,6824 9522,6861 9543,6887 9566,6913 9591,6934 9617,6951 9643,6968 9671,6980 9700,6989 9732,7000 9766,7006 9799,7006 9801,7006 9802,7006 9805,7005 L 9805,7005 C 9803,7006 9803,7008 9805,7009 9810,7030 9816,7048 9824,7067 9831,7085 9838,7105 9853,7115 9859,7117 9864,7118 9870,7118 9879,7118 9887,7116 9894,7110 9905,7104 9912,7093 9917,7081 9928,7091 9940,7096 9953,7096 9962,7096 9972,7094 9980,7088 9996,7078 10008,7059 10009,7037 10016,7043 10025,7045 10033,7045 10041,7045 10049,7043 10057,7037 10071,7023 10079,7000 10075,6978 L 10075,6978 C 10077,6979 10080,6979 10082,6979 10089,6979 10096,6977 10103,6974 10120,6966 10133,6948 10137,6924 10146,6869 10111,6828 10080,6790 10084,6786 10086,6782 10086,6777 10083,6697 10079,6613 10053,6537 10040,6500 10021,6467 9996,6440 9987,6426 9972,6418 9956,6416 9942,6418 9929,6426 9919,6438 9910,6447 9904,6458 9897,6471 9878,6432 9848,6406 9811,6395 9805,6393 9798,6393 9791,6393 L 9791,6393 Z "/>
     </g>
    </g>
    <g class="com.sun.star.drawing.CustomShape">
     <g id="id32">
      <rect class="BoundingBox" stroke="none" fill="none" x="9594" y="6466" width="485" height="546"/>
      <path fill="rgb(55,45,49)" stroke="none" d="M 9901,6467 C 9899,6467 9898,6467 9897,6467 9891,6469 9887,6477 9890,6483 L 10017,6804 C 10017,6804 10018,6806 10018,6807 10014,6810 10014,6818 10017,6823 L 9944,6880 C 9944,6878 9943,6878 9943,6877 9870,6759 9796,6643 9721,6528 9719,6524 9716,6522 9713,6522 9705,6522 9697,6533 9702,6542 9778,6657 9852,6773 9924,6891 9924,6892 9926,6894 9926,6894 L 9832,6968 C 9754,6894 9681,6813 9611,6728 9609,6725 9607,6724 9605,6724 9597,6724 9590,6739 9597,6748 9665,6830 9737,6909 9812,6982 L 9805,6989 C 9797,6997 9804,7011 9814,7011 9815,7011 9817,7011 9819,7010 L 10074,6809 C 10082,6800 10077,6785 10067,6785 10066,6785 10064,6786 10062,6787 L 10035,6807 C 10038,6804 10039,6799 10038,6795 L 9911,6475 C 9909,6470 9905,6467 9901,6467 L 9901,6467 Z "/>
     </g>
    </g>
    <g class="com.sun.star.drawing.CustomShape">
     <g id="id33">
      <rect class="BoundingBox" stroke="none" fill="none" x="10028" y="5562" width="574" height="657"/>
      <path fill="rgb(242,184,126)" stroke="none" d="M 10214,5562 C 10211,5562 10209,5562 10206,5563 10203,5565 10201,5568 10201,5571 10206,5653 10214,5735 10224,5817 10166,5831 10108,5851 10054,5878 10043,5882 10029,5889 10028,5904 10028,5920 10038,5926 10049,5927 10052,5928 10055,5928 10059,5928 10062,5928 10065,5928 10068,5927 L 10142,5927 10253,5929 10256,5929 C 10245,6006 10240,6084 10237,6161 10235,6177 10237,6194 10243,6209 10247,6215 10252,6218 10257,6218 10265,6218 10270,6214 10274,6206 10278,6200 10282,6192 10285,6183 10289,6174 10293,6164 10296,6155 10303,6136 10310,6118 10315,6099 10329,6061 10339,6020 10348,5978 10413,6005 10479,6017 10546,6017 10550,6018 10554,6018 10558,6018 10568,6018 10578,6015 10587,6011 10599,6003 10605,5986 10598,5972 10589,5958 10577,5947 10564,5943 L 10513,5918 10403,5862 10508,5670 C 10515,5656 10525,5641 10523,5624 10523,5618 10517,5611 10512,5608 10511,5608 10509,5608 10508,5608 10500,5608 10494,5611 10488,5618 10458,5641 10428,5666 10397,5690 10372,5712 10347,5734 10322,5757 10297,5701 10270,5645 10244,5590 10237,5577 10227,5562 10214,5562 L 10214,5562 Z "/>
     </g>
    </g>
   </g>
  </g>
 </g>
</svg>